M48
; DRILL file {KiCad (5.1.5)-3} date 12/30/2019 9:57:16 PM
; FORMAT={-:-/ absolute / inch / decimal}
; #@! TF.CreationDate,2019-12-30T21:57:16-08:00
; #@! TF.GenerationSoftware,Kicad,Pcbnew,(5.1.5)-3
FMAT,2
INCH
T1C0.0150
T2C0.0394
T3C0.1260
%
G90
G05
T1
X4.27Y-4.63
X4.37Y-4.61
X4.4312Y-4.6012
X4.98Y-4.63
X5.08Y-4.61
X5.1412Y-4.6012
X5.69Y-4.63
X5.79Y-4.61
X5.8512Y-4.6012
X6.4Y-4.63
X6.5Y-4.61
X6.5612Y-4.6012
X7.11Y-4.63
X7.21Y-4.61
X7.2712Y-4.6012
T2
X4.71Y-4.62
X4.71Y-4.72
X4.71Y-4.82
X4.71Y-4.92
X4.71Y-5.02
X4.71Y-5.12
X4.71Y-5.22
X4.71Y-5.32
X6.84Y-4.62
X6.84Y-4.72
X6.84Y-4.82
X6.84Y-4.92
X6.84Y-5.02
X6.84Y-5.12
X6.84Y-5.22
X6.84Y-5.32
X4.0Y-3.22
X4.0Y-3.32
X4.0Y-3.42
X4.0Y-3.52
X4.0Y-3.62
X4.0Y-3.72
X4.0Y-3.82
X4.0Y-3.92
X4.0Y-4.02
X4.0Y-4.12
X4.0Y-4.22
X4.0Y-4.32
X4.0Y-4.42
X4.0Y-4.52
X4.1Y-4.22
X4.1Y-4.32
X4.1Y-4.52
X4.2Y-4.22
X4.2Y-4.32
X4.2Y-4.52
X4.3Y-4.22
X4.3Y-4.32
X4.3Y-4.52
X4.4Y-4.22
X4.4Y-4.32
X4.4Y-4.52
X4.5Y-4.22
X4.5Y-4.32
X4.5Y-4.52
X4.6Y-3.22
X4.6Y-3.32
X4.6Y-3.42
X4.6Y-3.52
X4.6Y-3.62
X4.6Y-3.72
X4.6Y-3.82
X4.6Y-3.92
X4.6Y-4.02
X4.6Y-4.12
X4.6Y-4.22
X4.6Y-4.32
X4.6Y-4.42
X4.6Y-4.52
X5.31Y-4.62
X5.31Y-4.72
X5.31Y-4.82
X5.31Y-4.92
X5.31Y-5.02
X5.31Y-5.12
X5.31Y-5.22
X5.31Y-5.32
X6.02Y-4.62
X6.02Y-4.72
X6.02Y-4.82
X6.02Y-4.92
X6.02Y-5.02
X6.02Y-5.12
X6.02Y-5.22
X6.02Y-5.32
X5.42Y-3.22
X5.42Y-3.32
X5.42Y-3.42
X5.42Y-3.52
X5.42Y-3.62
X5.42Y-3.72
X5.42Y-3.82
X5.42Y-3.92
X5.42Y-4.02
X5.42Y-4.12
X5.42Y-4.22
X5.42Y-4.32
X5.42Y-4.42
X5.42Y-4.52
X5.52Y-4.22
X5.52Y-4.32
X5.52Y-4.52
X5.62Y-4.22
X5.62Y-4.32
X5.62Y-4.52
X5.72Y-4.22
X5.72Y-4.32
X5.72Y-4.52
X5.82Y-4.22
X5.82Y-4.32
X5.82Y-4.52
X5.92Y-4.22
X5.92Y-4.32
X5.92Y-4.52
X6.02Y-3.22
X6.02Y-3.32
X6.02Y-3.42
X6.02Y-3.52
X6.02Y-3.62
X6.02Y-3.72
X6.02Y-3.82
X6.02Y-3.92
X6.02Y-4.02
X6.02Y-4.12
X6.02Y-4.22
X6.02Y-4.32
X6.02Y-4.42
X6.02Y-4.52
X6.73Y-4.62
X6.73Y-4.72
X6.73Y-4.82
X6.73Y-4.92
X6.73Y-5.02
X6.73Y-5.12
X6.73Y-5.22
X6.73Y-5.32
X6.84Y-3.22
X6.84Y-3.32
X6.84Y-3.42
X6.84Y-3.52
X6.84Y-3.62
X6.84Y-3.72
X6.84Y-3.82
X6.84Y-3.92
X6.84Y-4.02
X6.84Y-4.12
X6.84Y-4.22
X6.84Y-4.32
X6.84Y-4.42
X6.84Y-4.52
X6.94Y-4.22
X6.94Y-4.32
X6.94Y-4.52
X7.04Y-4.22
X7.04Y-4.32
X7.04Y-4.52
X7.14Y-4.22
X7.14Y-4.32
X7.14Y-4.52
X7.24Y-4.22
X7.24Y-4.32
X7.24Y-4.52
X7.34Y-4.22
X7.34Y-4.32
X7.34Y-4.52
X7.44Y-3.22
X7.44Y-3.32
X7.44Y-3.42
X7.44Y-3.52
X7.44Y-3.62
X7.44Y-3.72
X7.44Y-3.82
X7.44Y-3.92
X7.44Y-4.02
X7.44Y-4.12
X7.44Y-4.22
X7.44Y-4.32
X7.44Y-4.42
X7.44Y-4.52
X4.71Y-3.22
X4.71Y-3.32
X4.71Y-3.42
X4.71Y-3.52
X4.71Y-3.62
X4.71Y-3.72
X4.71Y-3.82
X4.71Y-3.92
X4.71Y-4.02
X4.71Y-4.12
X4.71Y-4.22
X4.71Y-4.32
X4.71Y-4.42
X4.71Y-4.52
X4.81Y-4.22
X4.81Y-4.32
X4.81Y-4.52
X4.91Y-4.22
X4.91Y-4.32
X4.91Y-4.52
X5.01Y-4.22
X5.01Y-4.32
X5.01Y-4.52
X5.11Y-4.22
X5.11Y-4.32
X5.11Y-4.52
X5.21Y-4.22
X5.21Y-4.32
X5.21Y-4.52
X5.31Y-3.22
X5.31Y-3.32
X5.31Y-3.42
X5.31Y-3.52
X5.31Y-3.62
X5.31Y-3.72
X5.31Y-3.82
X5.31Y-3.92
X5.31Y-4.02
X5.31Y-4.12
X5.31Y-4.22
X5.31Y-4.32
X5.31Y-4.42
X5.31Y-4.52
X7.44Y-4.62
X7.44Y-4.72
X7.44Y-4.82
X7.44Y-4.92
X7.44Y-5.02
X7.44Y-5.12
X7.44Y-5.22
X7.44Y-5.32
X4.0Y-4.62
X4.0Y-4.72
X4.0Y-4.82
X4.0Y-4.92
X4.0Y-5.02
X4.0Y-5.12
X4.0Y-5.22
X4.0Y-5.32
X6.13Y-4.62
X6.13Y-4.72
X6.13Y-4.82
X6.13Y-4.92
X6.13Y-5.02
X6.13Y-5.12
X6.13Y-5.22
X6.13Y-5.32
X6.13Y-3.22
X6.13Y-3.32
X6.13Y-3.42
X6.13Y-3.52
X6.13Y-3.62
X6.13Y-3.72
X6.13Y-3.82
X6.13Y-3.92
X6.13Y-4.02
X6.13Y-4.12
X6.13Y-4.22
X6.13Y-4.32
X6.13Y-4.42
X6.13Y-4.52
X6.23Y-4.22
X6.23Y-4.32
X6.23Y-4.52
X6.33Y-4.22
X6.33Y-4.32
X6.33Y-4.52
X6.43Y-4.22
X6.43Y-4.32
X6.43Y-4.52
X6.53Y-4.22
X6.53Y-4.32
X6.53Y-4.52
X6.63Y-4.22
X6.63Y-4.32
X6.63Y-4.52
X6.73Y-3.22
X6.73Y-3.32
X6.73Y-3.42
X6.73Y-3.52
X6.73Y-3.62
X6.73Y-3.72
X6.73Y-3.82
X6.73Y-3.92
X6.73Y-4.02
X6.73Y-4.12
X6.73Y-4.22
X6.73Y-4.32
X6.73Y-4.42
X6.73Y-4.52
X4.6Y-4.62
X4.6Y-4.72
X4.6Y-4.82
X4.6Y-4.92
X4.6Y-5.02
X4.6Y-5.12
X4.6Y-5.22
X4.6Y-5.32
X5.42Y-4.62
X5.42Y-4.72
X5.42Y-4.82
X5.42Y-4.92
X5.42Y-5.02
X5.42Y-5.12
X5.42Y-5.22
X5.42Y-5.32
T3
X7.395Y-3.065
X4.045Y-3.065
X4.045Y-5.475
X7.395Y-5.475
T0
M30
