G04 #@! TF.GenerationSoftware,KiCad,Pcbnew,(5.1.5)-3*
G04 #@! TF.CreationDate,2019-12-30T21:57:11-08:00*
G04 #@! TF.ProjectId,teensy40-bb-panel,7465656e-7379-4343-902d-62622d70616e,A*
G04 #@! TF.SameCoordinates,Original*
G04 #@! TF.FileFunction,Other,ECO1*
%FSLAX46Y46*%
G04 Gerber Fmt 4.6, Leading zero omitted, Abs format (unit mm)*
G04 Created by KiCad (PCBNEW (5.1.5)-3) date 2019-12-30 21:57:11*
%MOMM*%
%LPD*%
G04 APERTURE LIST*
%ADD10C,0.150000*%
%ADD11C,0.050000*%
G04 APERTURE END LIST*
D10*
X172339000Y-75311000D02*
X172339000Y-141605000D01*
X154305000Y-75311000D02*
X154305000Y-141605000D01*
X136271000Y-75311000D02*
X136271000Y-141605000D01*
X118237000Y-75311000D02*
X118237000Y-141605000D01*
D11*
X190373000Y-141605000D02*
X190373000Y-75311000D01*
X100203000Y-141605000D02*
X100203000Y-75311000D01*
D10*
X96534071Y-79843380D02*
X96867404Y-80843380D01*
X97200738Y-79843380D01*
X98105500Y-80748142D02*
X98057880Y-80795761D01*
X97915023Y-80843380D01*
X97819785Y-80843380D01*
X97676928Y-80795761D01*
X97581690Y-80700523D01*
X97534071Y-80605285D01*
X97486452Y-80414809D01*
X97486452Y-80271952D01*
X97534071Y-80081476D01*
X97581690Y-79986238D01*
X97676928Y-79891000D01*
X97819785Y-79843380D01*
X97915023Y-79843380D01*
X98057880Y-79891000D01*
X98105500Y-79938619D01*
X98534071Y-79843380D02*
X98534071Y-80652904D01*
X98581690Y-80748142D01*
X98629309Y-80795761D01*
X98724547Y-80843380D01*
X98915023Y-80843380D01*
X99010261Y-80795761D01*
X99057880Y-80748142D01*
X99105500Y-80652904D01*
X99105500Y-79843380D01*
X99438833Y-79843380D02*
X100010261Y-79843380D01*
X99724547Y-80843380D02*
X99724547Y-79843380D01*
X172886619Y-71642071D02*
X171886619Y-71975404D01*
X172886619Y-72308738D01*
X171981857Y-73213500D02*
X171934238Y-73165880D01*
X171886619Y-73023023D01*
X171886619Y-72927785D01*
X171934238Y-72784928D01*
X172029476Y-72689690D01*
X172124714Y-72642071D01*
X172315190Y-72594452D01*
X172458047Y-72594452D01*
X172648523Y-72642071D01*
X172743761Y-72689690D01*
X172839000Y-72784928D01*
X172886619Y-72927785D01*
X172886619Y-73023023D01*
X172839000Y-73165880D01*
X172791380Y-73213500D01*
X172886619Y-73642071D02*
X172077095Y-73642071D01*
X171981857Y-73689690D01*
X171934238Y-73737309D01*
X171886619Y-73832547D01*
X171886619Y-74023023D01*
X171934238Y-74118261D01*
X171981857Y-74165880D01*
X172077095Y-74213500D01*
X172886619Y-74213500D01*
X172886619Y-74546833D02*
X172886619Y-75118261D01*
X171886619Y-74832547D02*
X172886619Y-74832547D01*
X154852619Y-71642071D02*
X153852619Y-71975404D01*
X154852619Y-72308738D01*
X153947857Y-73213500D02*
X153900238Y-73165880D01*
X153852619Y-73023023D01*
X153852619Y-72927785D01*
X153900238Y-72784928D01*
X153995476Y-72689690D01*
X154090714Y-72642071D01*
X154281190Y-72594452D01*
X154424047Y-72594452D01*
X154614523Y-72642071D01*
X154709761Y-72689690D01*
X154805000Y-72784928D01*
X154852619Y-72927785D01*
X154852619Y-73023023D01*
X154805000Y-73165880D01*
X154757380Y-73213500D01*
X154852619Y-73642071D02*
X154043095Y-73642071D01*
X153947857Y-73689690D01*
X153900238Y-73737309D01*
X153852619Y-73832547D01*
X153852619Y-74023023D01*
X153900238Y-74118261D01*
X153947857Y-74165880D01*
X154043095Y-74213500D01*
X154852619Y-74213500D01*
X154852619Y-74546833D02*
X154852619Y-75118261D01*
X153852619Y-74832547D02*
X154852619Y-74832547D01*
X136818619Y-71642071D02*
X135818619Y-71975404D01*
X136818619Y-72308738D01*
X135913857Y-73213500D02*
X135866238Y-73165880D01*
X135818619Y-73023023D01*
X135818619Y-72927785D01*
X135866238Y-72784928D01*
X135961476Y-72689690D01*
X136056714Y-72642071D01*
X136247190Y-72594452D01*
X136390047Y-72594452D01*
X136580523Y-72642071D01*
X136675761Y-72689690D01*
X136771000Y-72784928D01*
X136818619Y-72927785D01*
X136818619Y-73023023D01*
X136771000Y-73165880D01*
X136723380Y-73213500D01*
X136818619Y-73642071D02*
X136009095Y-73642071D01*
X135913857Y-73689690D01*
X135866238Y-73737309D01*
X135818619Y-73832547D01*
X135818619Y-74023023D01*
X135866238Y-74118261D01*
X135913857Y-74165880D01*
X136009095Y-74213500D01*
X136818619Y-74213500D01*
X136818619Y-74546833D02*
X136818619Y-75118261D01*
X135818619Y-74832547D02*
X136818619Y-74832547D01*
X118784619Y-71642071D02*
X117784619Y-71975404D01*
X118784619Y-72308738D01*
X117879857Y-73213500D02*
X117832238Y-73165880D01*
X117784619Y-73023023D01*
X117784619Y-72927785D01*
X117832238Y-72784928D01*
X117927476Y-72689690D01*
X118022714Y-72642071D01*
X118213190Y-72594452D01*
X118356047Y-72594452D01*
X118546523Y-72642071D01*
X118641761Y-72689690D01*
X118737000Y-72784928D01*
X118784619Y-72927785D01*
X118784619Y-73023023D01*
X118737000Y-73165880D01*
X118689380Y-73213500D01*
X118784619Y-73642071D02*
X117975095Y-73642071D01*
X117879857Y-73689690D01*
X117832238Y-73737309D01*
X117784619Y-73832547D01*
X117784619Y-74023023D01*
X117832238Y-74118261D01*
X117879857Y-74165880D01*
X117975095Y-74213500D01*
X118784619Y-74213500D01*
X118784619Y-74546833D02*
X118784619Y-75118261D01*
X117784619Y-74832547D02*
X118784619Y-74832547D01*
D11*
X100203000Y-75311000D02*
X190373000Y-75311000D01*
D10*
X100203000Y-80391000D02*
X190373000Y-80391000D01*
D11*
X100203000Y-141605000D02*
X190373000Y-141605000D01*
D10*
X96534071Y-135977380D02*
X96867404Y-136977380D01*
X97200738Y-135977380D01*
X98105500Y-136882142D02*
X98057880Y-136929761D01*
X97915023Y-136977380D01*
X97819785Y-136977380D01*
X97676928Y-136929761D01*
X97581690Y-136834523D01*
X97534071Y-136739285D01*
X97486452Y-136548809D01*
X97486452Y-136405952D01*
X97534071Y-136215476D01*
X97581690Y-136120238D01*
X97676928Y-136025000D01*
X97819785Y-135977380D01*
X97915023Y-135977380D01*
X98057880Y-136025000D01*
X98105500Y-136072619D01*
X98534071Y-135977380D02*
X98534071Y-136786904D01*
X98581690Y-136882142D01*
X98629309Y-136929761D01*
X98724547Y-136977380D01*
X98915023Y-136977380D01*
X99010261Y-136929761D01*
X99057880Y-136882142D01*
X99105500Y-136786904D01*
X99105500Y-135977380D01*
X99438833Y-135977380D02*
X100010261Y-135977380D01*
X99724547Y-136977380D02*
X99724547Y-135977380D01*
X100203000Y-136525000D02*
X190373000Y-136525000D01*
M02*
