G04 #@! TF.GenerationSoftware,KiCad,Pcbnew,(5.1.5)-3*
G04 #@! TF.CreationDate,2019-12-30T21:20:25-08:00*
G04 #@! TF.ProjectId,teensy40-bb-hc05-adapter,7465656e-7379-4343-902d-62622d686330,A*
G04 #@! TF.SameCoordinates,Original*
G04 #@! TF.FileFunction,Other,ECO1*
%FSLAX46Y46*%
G04 Gerber Fmt 4.6, Leading zero omitted, Abs format (unit mm)*
G04 Created by KiCad (PCBNEW (5.1.5)-3) date 2019-12-30 21:20:25*
%MOMM*%
%LPD*%
G04 APERTURE LIST*
%ADD10C,0.150000*%
G04 APERTURE END LIST*
D10*
X172886619Y-40654071D02*
X171886619Y-40987404D01*
X172886619Y-41320738D01*
X171981857Y-42225500D02*
X171934238Y-42177880D01*
X171886619Y-42035023D01*
X171886619Y-41939785D01*
X171934238Y-41796928D01*
X172029476Y-41701690D01*
X172124714Y-41654071D01*
X172315190Y-41606452D01*
X172458047Y-41606452D01*
X172648523Y-41654071D01*
X172743761Y-41701690D01*
X172839000Y-41796928D01*
X172886619Y-41939785D01*
X172886619Y-42035023D01*
X172839000Y-42177880D01*
X172791380Y-42225500D01*
X172886619Y-42654071D02*
X172077095Y-42654071D01*
X171981857Y-42701690D01*
X171934238Y-42749309D01*
X171886619Y-42844547D01*
X171886619Y-43035023D01*
X171934238Y-43130261D01*
X171981857Y-43177880D01*
X172077095Y-43225500D01*
X172886619Y-43225500D01*
X172886619Y-43558833D02*
X172886619Y-44130261D01*
X171886619Y-43844547D02*
X172886619Y-43844547D01*
X154852619Y-40654071D02*
X153852619Y-40987404D01*
X154852619Y-41320738D01*
X153947857Y-42225500D02*
X153900238Y-42177880D01*
X153852619Y-42035023D01*
X153852619Y-41939785D01*
X153900238Y-41796928D01*
X153995476Y-41701690D01*
X154090714Y-41654071D01*
X154281190Y-41606452D01*
X154424047Y-41606452D01*
X154614523Y-41654071D01*
X154709761Y-41701690D01*
X154805000Y-41796928D01*
X154852619Y-41939785D01*
X154852619Y-42035023D01*
X154805000Y-42177880D01*
X154757380Y-42225500D01*
X154852619Y-42654071D02*
X154043095Y-42654071D01*
X153947857Y-42701690D01*
X153900238Y-42749309D01*
X153852619Y-42844547D01*
X153852619Y-43035023D01*
X153900238Y-43130261D01*
X153947857Y-43177880D01*
X154043095Y-43225500D01*
X154852619Y-43225500D01*
X154852619Y-43558833D02*
X154852619Y-44130261D01*
X153852619Y-43844547D02*
X154852619Y-43844547D01*
X136818619Y-40654071D02*
X135818619Y-40987404D01*
X136818619Y-41320738D01*
X135913857Y-42225500D02*
X135866238Y-42177880D01*
X135818619Y-42035023D01*
X135818619Y-41939785D01*
X135866238Y-41796928D01*
X135961476Y-41701690D01*
X136056714Y-41654071D01*
X136247190Y-41606452D01*
X136390047Y-41606452D01*
X136580523Y-41654071D01*
X136675761Y-41701690D01*
X136771000Y-41796928D01*
X136818619Y-41939785D01*
X136818619Y-42035023D01*
X136771000Y-42177880D01*
X136723380Y-42225500D01*
X136818619Y-42654071D02*
X136009095Y-42654071D01*
X135913857Y-42701690D01*
X135866238Y-42749309D01*
X135818619Y-42844547D01*
X135818619Y-43035023D01*
X135866238Y-43130261D01*
X135913857Y-43177880D01*
X136009095Y-43225500D01*
X136818619Y-43225500D01*
X136818619Y-43558833D02*
X136818619Y-44130261D01*
X135818619Y-43844547D02*
X136818619Y-43844547D01*
X118784619Y-40654071D02*
X117784619Y-40987404D01*
X118784619Y-41320738D01*
X117879857Y-42225500D02*
X117832238Y-42177880D01*
X117784619Y-42035023D01*
X117784619Y-41939785D01*
X117832238Y-41796928D01*
X117927476Y-41701690D01*
X118022714Y-41654071D01*
X118213190Y-41606452D01*
X118356047Y-41606452D01*
X118546523Y-41654071D01*
X118641761Y-41701690D01*
X118737000Y-41796928D01*
X118784619Y-41939785D01*
X118784619Y-42035023D01*
X118737000Y-42177880D01*
X118689380Y-42225500D01*
X118784619Y-42654071D02*
X117975095Y-42654071D01*
X117879857Y-42701690D01*
X117832238Y-42749309D01*
X117784619Y-42844547D01*
X117784619Y-43035023D01*
X117832238Y-43130261D01*
X117879857Y-43177880D01*
X117975095Y-43225500D01*
X118784619Y-43225500D01*
X118784619Y-43558833D02*
X118784619Y-44130261D01*
X117784619Y-43844547D02*
X118784619Y-43844547D01*
X96534071Y-48855380D02*
X96867404Y-49855380D01*
X97200738Y-48855380D01*
X98105500Y-49760142D02*
X98057880Y-49807761D01*
X97915023Y-49855380D01*
X97819785Y-49855380D01*
X97676928Y-49807761D01*
X97581690Y-49712523D01*
X97534071Y-49617285D01*
X97486452Y-49426809D01*
X97486452Y-49283952D01*
X97534071Y-49093476D01*
X97581690Y-48998238D01*
X97676928Y-48903000D01*
X97819785Y-48855380D01*
X97915023Y-48855380D01*
X98057880Y-48903000D01*
X98105500Y-48950619D01*
X98534071Y-48855380D02*
X98534071Y-49664904D01*
X98581690Y-49760142D01*
X98629309Y-49807761D01*
X98724547Y-49855380D01*
X98915023Y-49855380D01*
X99010261Y-49807761D01*
X99057880Y-49760142D01*
X99105500Y-49664904D01*
X99105500Y-48855380D01*
X99438833Y-48855380D02*
X100010261Y-48855380D01*
X99724547Y-49855380D02*
X99724547Y-48855380D01*
X96534071Y-104989380D02*
X96867404Y-105989380D01*
X97200738Y-104989380D01*
X98105500Y-105894142D02*
X98057880Y-105941761D01*
X97915023Y-105989380D01*
X97819785Y-105989380D01*
X97676928Y-105941761D01*
X97581690Y-105846523D01*
X97534071Y-105751285D01*
X97486452Y-105560809D01*
X97486452Y-105417952D01*
X97534071Y-105227476D01*
X97581690Y-105132238D01*
X97676928Y-105037000D01*
X97819785Y-104989380D01*
X97915023Y-104989380D01*
X98057880Y-105037000D01*
X98105500Y-105084619D01*
X98534071Y-104989380D02*
X98534071Y-105798904D01*
X98581690Y-105894142D01*
X98629309Y-105941761D01*
X98724547Y-105989380D01*
X98915023Y-105989380D01*
X99010261Y-105941761D01*
X99057880Y-105894142D01*
X99105500Y-105798904D01*
X99105500Y-104989380D01*
X99438833Y-104989380D02*
X100010261Y-104989380D01*
X99724547Y-105989380D02*
X99724547Y-104989380D01*
X96534071Y-120483380D02*
X96867404Y-121483380D01*
X97200738Y-120483380D01*
X98105500Y-121388142D02*
X98057880Y-121435761D01*
X97915023Y-121483380D01*
X97819785Y-121483380D01*
X97676928Y-121435761D01*
X97581690Y-121340523D01*
X97534071Y-121245285D01*
X97486452Y-121054809D01*
X97486452Y-120911952D01*
X97534071Y-120721476D01*
X97581690Y-120626238D01*
X97676928Y-120531000D01*
X97819785Y-120483380D01*
X97915023Y-120483380D01*
X98057880Y-120531000D01*
X98105500Y-120578619D01*
X98534071Y-120483380D02*
X98534071Y-121292904D01*
X98581690Y-121388142D01*
X98629309Y-121435761D01*
X98724547Y-121483380D01*
X98915023Y-121483380D01*
X99010261Y-121435761D01*
X99057880Y-121388142D01*
X99105500Y-121292904D01*
X99105500Y-120483380D01*
X99438833Y-120483380D02*
X100010261Y-120483380D01*
X99724547Y-121483380D02*
X99724547Y-120483380D01*
X96534071Y-135977380D02*
X96867404Y-136977380D01*
X97200738Y-135977380D01*
X98105500Y-136882142D02*
X98057880Y-136929761D01*
X97915023Y-136977380D01*
X97819785Y-136977380D01*
X97676928Y-136929761D01*
X97581690Y-136834523D01*
X97534071Y-136739285D01*
X97486452Y-136548809D01*
X97486452Y-136405952D01*
X97534071Y-136215476D01*
X97581690Y-136120238D01*
X97676928Y-136025000D01*
X97819785Y-135977380D01*
X97915023Y-135977380D01*
X98057880Y-136025000D01*
X98105500Y-136072619D01*
X98534071Y-135977380D02*
X98534071Y-136786904D01*
X98581690Y-136882142D01*
X98629309Y-136929761D01*
X98724547Y-136977380D01*
X98915023Y-136977380D01*
X99010261Y-136929761D01*
X99057880Y-136882142D01*
X99105500Y-136786904D01*
X99105500Y-135977380D01*
X99438833Y-135977380D02*
X100010261Y-135977380D01*
X99724547Y-136977380D02*
X99724547Y-135977380D01*
X100203000Y-136525000D02*
X190373000Y-136525000D01*
X172339000Y-44323000D02*
X172339000Y-141605000D01*
X154305000Y-44323000D02*
X154305000Y-141605000D01*
X136271000Y-44323000D02*
X136271000Y-141605000D01*
X118237000Y-44323000D02*
X118237000Y-141605000D01*
X100203000Y-121031000D02*
X190373000Y-121031000D01*
X100203000Y-105537000D02*
X190373000Y-105537000D01*
X100203000Y-49403000D02*
X190373000Y-49403000D01*
M02*
