M48
; DRILL file {KiCad (5.1.5)-3} date 12/30/2019 9:20:36 PM
; FORMAT={-:-/ absolute / inch / decimal}
; #@! TF.CreationDate,2019-12-30T21:20:36-08:00
; #@! TF.GenerationSoftware,Kicad,Pcbnew,(5.1.5)-3
FMAT,2
INCH
T1C0.0150
T2C0.0200
T3C0.0394
T4C0.1260
%
G90
G05
T1
X4.27Y-3.41
X4.37Y-3.39
X4.4251Y-4.4599
X4.4251Y-5.0699
X4.4312Y-3.3812
X4.98Y-3.41
X5.08Y-3.39
X5.1351Y-4.4599
X5.1351Y-5.0699
X5.1412Y-3.3812
X5.69Y-3.41
X5.79Y-3.39
X5.8451Y-4.4599
X5.8451Y-5.0699
X5.8512Y-3.3812
X6.4Y-3.41
X6.5Y-3.39
X6.5551Y-4.4599
X6.5551Y-5.0699
X6.5612Y-3.3812
X7.11Y-3.41
X7.21Y-3.39
X7.2651Y-4.4599
X7.2651Y-5.0699
X7.2712Y-3.3812
T2
X4.1601Y-4.4599
X4.1601Y-5.0699
X4.2651Y-4.26
X4.2651Y-4.87
X4.2751Y-4.6599
X4.2751Y-5.2699
X4.3001Y-4.4599
X4.3001Y-5.0699
X4.3251Y-4.7099
X4.3251Y-5.3199
X4.4751Y-4.36
X4.4751Y-4.56
X4.4751Y-4.97
X4.4751Y-5.17
X4.8701Y-4.4599
X4.8701Y-5.0699
X4.9751Y-4.26
X4.9751Y-4.87
X4.9851Y-4.6599
X4.9851Y-5.2699
X5.0101Y-4.4599
X5.0101Y-5.0699
X5.0351Y-4.7099
X5.0351Y-5.3199
X5.1851Y-4.36
X5.1851Y-4.56
X5.1851Y-4.97
X5.1851Y-5.17
X5.5801Y-4.4599
X5.5801Y-5.0699
X5.6851Y-4.26
X5.6851Y-4.87
X5.6951Y-4.6599
X5.6951Y-5.2699
X5.7201Y-4.4599
X5.7201Y-5.0699
X5.7451Y-4.7099
X5.7451Y-5.3199
X5.8951Y-4.36
X5.8951Y-4.56
X5.8951Y-4.97
X5.8951Y-5.17
X6.2901Y-4.4599
X6.2901Y-5.0699
X6.3951Y-4.26
X6.3951Y-4.87
X6.4051Y-4.6599
X6.4051Y-5.2699
X6.4301Y-4.4599
X6.4301Y-5.0699
X6.4551Y-4.7099
X6.4551Y-5.3199
X6.6051Y-4.36
X6.6051Y-4.56
X6.6051Y-4.97
X6.6051Y-5.17
X7.0001Y-4.4599
X7.0001Y-5.0699
X7.1051Y-4.26
X7.1051Y-4.87
X7.1151Y-4.6599
X7.1151Y-5.2699
X7.1401Y-4.4599
X7.1401Y-5.0699
X7.1651Y-4.7099
X7.1651Y-5.3199
X7.3151Y-4.36
X7.3151Y-4.56
X7.3151Y-4.97
X7.3151Y-5.17
T3
X6.73Y-3.4
X6.73Y-3.5
X6.73Y-3.6
X6.73Y-3.7
X6.73Y-3.8
X6.73Y-3.9
X6.73Y-4.0
X6.73Y-4.1
X6.84Y-2.0
X6.84Y-2.1
X6.84Y-2.2
X6.84Y-2.3
X6.84Y-2.4
X6.84Y-2.5
X6.84Y-2.6
X6.84Y-2.7
X6.84Y-2.8
X6.84Y-2.9
X6.84Y-3.0
X6.84Y-3.1
X6.84Y-3.2
X6.84Y-3.3
X6.94Y-3.0
X6.94Y-3.1
X6.94Y-3.3
X7.04Y-3.0
X7.04Y-3.1
X7.04Y-3.3
X7.14Y-3.0
X7.14Y-3.1
X7.14Y-3.3
X7.24Y-3.0
X7.24Y-3.1
X7.24Y-3.3
X7.34Y-3.0
X7.34Y-3.1
X7.34Y-3.3
X7.44Y-2.0
X7.44Y-2.1
X7.44Y-2.2
X7.44Y-2.3
X7.44Y-2.4
X7.44Y-2.5
X7.44Y-2.6
X7.44Y-2.7
X7.44Y-2.8
X7.44Y-2.9
X7.44Y-3.0
X7.44Y-3.1
X7.44Y-3.2
X7.44Y-3.3
X5.42Y-3.4
X5.42Y-3.5
X5.42Y-3.6
X5.42Y-3.7
X5.42Y-3.8
X5.42Y-3.9
X5.42Y-4.0
X5.42Y-4.1
X4.0Y-4.82
X4.0Y-4.92
X4.0Y-5.02
X4.0Y-5.12
X4.0Y-5.22
X4.0Y-5.32
X6.13Y-3.4
X6.13Y-3.5
X6.13Y-3.6
X6.13Y-3.7
X6.13Y-3.8
X6.13Y-3.9
X6.13Y-4.0
X6.13Y-4.1
X4.71Y-4.82
X4.71Y-4.92
X4.71Y-5.02
X4.71Y-5.12
X4.71Y-5.22
X4.71Y-5.32
X4.0Y-3.4
X4.0Y-3.5
X4.0Y-3.6
X4.0Y-3.7
X4.0Y-3.8
X4.0Y-3.9
X4.0Y-4.0
X4.0Y-4.1
X4.71Y-4.21
X4.71Y-4.31
X4.71Y-4.41
X4.71Y-4.51
X4.71Y-4.61
X4.71Y-4.71
X6.84Y-4.82
X6.84Y-4.92
X6.84Y-5.02
X6.84Y-5.12
X6.84Y-5.22
X6.84Y-5.32
X4.6Y-4.82
X4.6Y-4.92
X4.6Y-5.02
X4.6Y-5.12
X4.6Y-5.22
X4.6Y-5.32
X5.31Y-4.21
X5.31Y-4.31
X5.31Y-4.41
X5.31Y-4.51
X5.31Y-4.61
X5.31Y-4.71
X5.42Y-4.21
X5.42Y-4.31
X5.42Y-4.41
X5.42Y-4.51
X5.42Y-4.61
X5.42Y-4.71
X4.6Y-3.4
X4.6Y-3.5
X4.6Y-3.6
X4.6Y-3.7
X4.6Y-3.8
X4.6Y-3.9
X4.6Y-4.0
X4.6Y-4.1
X6.13Y-4.82
X6.13Y-4.92
X6.13Y-5.02
X6.13Y-5.12
X6.13Y-5.22
X6.13Y-5.32
X4.71Y-2.0
X4.71Y-2.1
X4.71Y-2.2
X4.71Y-2.3
X4.71Y-2.4
X4.71Y-2.5
X4.71Y-2.6
X4.71Y-2.7
X4.71Y-2.8
X4.71Y-2.9
X4.71Y-3.0
X4.71Y-3.1
X4.71Y-3.2
X4.71Y-3.3
X4.81Y-3.0
X4.81Y-3.1
X4.81Y-3.3
X4.91Y-3.0
X4.91Y-3.1
X4.91Y-3.3
X5.01Y-3.0
X5.01Y-3.1
X5.01Y-3.3
X5.11Y-3.0
X5.11Y-3.1
X5.11Y-3.3
X5.21Y-3.0
X5.21Y-3.1
X5.21Y-3.3
X5.31Y-2.0
X5.31Y-2.1
X5.31Y-2.2
X5.31Y-2.3
X5.31Y-2.4
X5.31Y-2.5
X5.31Y-2.6
X5.31Y-2.7
X5.31Y-2.8
X5.31Y-2.9
X5.31Y-3.0
X5.31Y-3.1
X5.31Y-3.2
X5.31Y-3.3
X7.44Y-3.4
X7.44Y-3.5
X7.44Y-3.6
X7.44Y-3.7
X7.44Y-3.8
X7.44Y-3.9
X7.44Y-4.0
X7.44Y-4.1
X5.31Y-3.4
X5.31Y-3.5
X5.31Y-3.6
X5.31Y-3.7
X5.31Y-3.8
X5.31Y-3.9
X5.31Y-4.0
X5.31Y-4.1
X5.42Y-2.0
X5.42Y-2.1
X5.42Y-2.2
X5.42Y-2.3
X5.42Y-2.4
X5.42Y-2.5
X5.42Y-2.6
X5.42Y-2.7
X5.42Y-2.8
X5.42Y-2.9
X5.42Y-3.0
X5.42Y-3.1
X5.42Y-3.2
X5.42Y-3.3
X5.52Y-3.0
X5.52Y-3.1
X5.52Y-3.3
X5.62Y-3.0
X5.62Y-3.1
X5.62Y-3.3
X5.72Y-3.0
X5.72Y-3.1
X5.72Y-3.3
X5.82Y-3.0
X5.82Y-3.1
X5.82Y-3.3
X5.92Y-3.0
X5.92Y-3.1
X5.92Y-3.3
X6.02Y-2.0
X6.02Y-2.1
X6.02Y-2.2
X6.02Y-2.3
X6.02Y-2.4
X6.02Y-2.5
X6.02Y-2.6
X6.02Y-2.7
X6.02Y-2.8
X6.02Y-2.9
X6.02Y-3.0
X6.02Y-3.1
X6.02Y-3.2
X6.02Y-3.3
X5.31Y-4.82
X5.31Y-4.92
X5.31Y-5.02
X5.31Y-5.12
X5.31Y-5.22
X5.31Y-5.32
X6.02Y-4.21
X6.02Y-4.31
X6.02Y-4.41
X6.02Y-4.51
X6.02Y-4.61
X6.02Y-4.71
X4.6Y-4.21
X4.6Y-4.31
X4.6Y-4.41
X4.6Y-4.51
X4.6Y-4.61
X4.6Y-4.71
X6.84Y-4.21
X6.84Y-4.31
X6.84Y-4.41
X6.84Y-4.51
X6.84Y-4.61
X6.84Y-4.71
X4.0Y-4.21
X4.0Y-4.31
X4.0Y-4.41
X4.0Y-4.51
X4.0Y-4.61
X4.0Y-4.71
X6.13Y-2.0
X6.13Y-2.1
X6.13Y-2.2
X6.13Y-2.3
X6.13Y-2.4
X6.13Y-2.5
X6.13Y-2.6
X6.13Y-2.7
X6.13Y-2.8
X6.13Y-2.9
X6.13Y-3.0
X6.13Y-3.1
X6.13Y-3.2
X6.13Y-3.3
X6.23Y-3.0
X6.23Y-3.1
X6.23Y-3.3
X6.33Y-3.0
X6.33Y-3.1
X6.33Y-3.3
X6.43Y-3.0
X6.43Y-3.1
X6.43Y-3.3
X6.53Y-3.0
X6.53Y-3.1
X6.53Y-3.3
X6.63Y-3.0
X6.63Y-3.1
X6.63Y-3.3
X6.73Y-2.0
X6.73Y-2.1
X6.73Y-2.2
X6.73Y-2.3
X6.73Y-2.4
X6.73Y-2.5
X6.73Y-2.6
X6.73Y-2.7
X6.73Y-2.8
X6.73Y-2.9
X6.73Y-3.0
X6.73Y-3.1
X6.73Y-3.2
X6.73Y-3.3
X4.0Y-2.0
X4.0Y-2.1
X4.0Y-2.2
X4.0Y-2.3
X4.0Y-2.4
X4.0Y-2.5
X4.0Y-2.6
X4.0Y-2.7
X4.0Y-2.8
X4.0Y-2.9
X4.0Y-3.0
X4.0Y-3.1
X4.0Y-3.2
X4.0Y-3.3
X4.1Y-3.0
X4.1Y-3.1
X4.1Y-3.3
X4.2Y-3.0
X4.2Y-3.1
X4.2Y-3.3
X4.3Y-3.0
X4.3Y-3.1
X4.3Y-3.3
X4.4Y-3.0
X4.4Y-3.1
X4.4Y-3.3
X4.5Y-3.0
X4.5Y-3.1
X4.5Y-3.3
X4.6Y-2.0
X4.6Y-2.1
X4.6Y-2.2
X4.6Y-2.3
X4.6Y-2.4
X4.6Y-2.5
X4.6Y-2.6
X4.6Y-2.7
X4.6Y-2.8
X4.6Y-2.9
X4.6Y-3.0
X4.6Y-3.1
X4.6Y-3.2
X4.6Y-3.3
X6.73Y-4.82
X6.73Y-4.92
X6.73Y-5.02
X6.73Y-5.12
X6.73Y-5.22
X6.73Y-5.32
X5.42Y-4.82
X5.42Y-4.92
X5.42Y-5.02
X5.42Y-5.12
X5.42Y-5.22
X5.42Y-5.32
X6.73Y-4.21
X6.73Y-4.31
X6.73Y-4.41
X6.73Y-4.51
X6.73Y-4.61
X6.73Y-4.71
X6.02Y-4.82
X6.02Y-4.92
X6.02Y-5.02
X6.02Y-5.12
X6.02Y-5.22
X6.02Y-5.32
X6.13Y-4.21
X6.13Y-4.31
X6.13Y-4.41
X6.13Y-4.51
X6.13Y-4.61
X6.13Y-4.71
X6.02Y-3.4
X6.02Y-3.5
X6.02Y-3.6
X6.02Y-3.7
X6.02Y-3.8
X6.02Y-3.9
X6.02Y-4.0
X6.02Y-4.1
X4.71Y-3.4
X4.71Y-3.5
X4.71Y-3.6
X4.71Y-3.7
X4.71Y-3.8
X4.71Y-3.9
X4.71Y-4.0
X4.71Y-4.1
X6.84Y-3.4
X6.84Y-3.5
X6.84Y-3.6
X6.84Y-3.7
X6.84Y-3.8
X6.84Y-3.9
X6.84Y-4.0
X6.84Y-4.1
X7.44Y-4.82
X7.44Y-4.92
X7.44Y-5.02
X7.44Y-5.12
X7.44Y-5.22
X7.44Y-5.32
X7.44Y-4.21
X7.44Y-4.31
X7.44Y-4.41
X7.44Y-4.51
X7.44Y-4.61
X7.44Y-4.71
T4
X7.395Y-5.475
X4.045Y-5.475
X4.045Y-1.845
X7.395Y-1.845
T0
M30
