G04 #@! TF.GenerationSoftware,KiCad,Pcbnew,(5.1.5)-3*
G04 #@! TF.CreationDate,2019-12-29T19:45:59-08:00*
G04 #@! TF.ProjectId,teensy40-sd-adapter,7465656e-7379-4343-902d-73642d616461,rev?*
G04 #@! TF.SameCoordinates,Original*
G04 #@! TF.FileFunction,Legend,Top*
G04 #@! TF.FilePolarity,Positive*
%FSLAX46Y46*%
G04 Gerber Fmt 4.6, Leading zero omitted, Abs format (unit mm)*
G04 Created by KiCad (PCBNEW (5.1.5)-3) date 2019-12-29 19:45:59*
%MOMM*%
%LPD*%
G04 APERTURE LIST*
%ADD10C,0.100000*%
%ADD11C,0.120000*%
G04 APERTURE END LIST*
D10*
X132198809Y-94284523D02*
X132698809Y-94284523D01*
X132341666Y-94451190D01*
X132698809Y-94617857D01*
X132198809Y-94617857D01*
X132198809Y-94927380D02*
X132222619Y-94879761D01*
X132246428Y-94855952D01*
X132294047Y-94832142D01*
X132436904Y-94832142D01*
X132484523Y-94855952D01*
X132508333Y-94879761D01*
X132532142Y-94927380D01*
X132532142Y-94998809D01*
X132508333Y-95046428D01*
X132484523Y-95070238D01*
X132436904Y-95094047D01*
X132294047Y-95094047D01*
X132246428Y-95070238D01*
X132222619Y-95046428D01*
X132198809Y-94998809D01*
X132198809Y-94927380D01*
X132198809Y-95379761D02*
X132222619Y-95332142D01*
X132270238Y-95308333D01*
X132698809Y-95308333D01*
X132222619Y-95760714D02*
X132198809Y-95713095D01*
X132198809Y-95617857D01*
X132222619Y-95570238D01*
X132270238Y-95546428D01*
X132460714Y-95546428D01*
X132508333Y-95570238D01*
X132532142Y-95617857D01*
X132532142Y-95713095D01*
X132508333Y-95760714D01*
X132460714Y-95784523D01*
X132413095Y-95784523D01*
X132365476Y-95546428D01*
X132198809Y-95951190D02*
X132532142Y-96213095D01*
X132532142Y-95951190D02*
X132198809Y-96213095D01*
X131348809Y-93225000D02*
X131348809Y-92939285D01*
X131348809Y-93082142D02*
X131848809Y-93082142D01*
X131777380Y-93034523D01*
X131729761Y-92986904D01*
X131705952Y-92939285D01*
X131848809Y-93534523D02*
X131848809Y-93582142D01*
X131825000Y-93629761D01*
X131801190Y-93653571D01*
X131753571Y-93677380D01*
X131658333Y-93701190D01*
X131539285Y-93701190D01*
X131444047Y-93677380D01*
X131396428Y-93653571D01*
X131372619Y-93629761D01*
X131348809Y-93582142D01*
X131348809Y-93534523D01*
X131372619Y-93486904D01*
X131396428Y-93463095D01*
X131444047Y-93439285D01*
X131539285Y-93415476D01*
X131658333Y-93415476D01*
X131753571Y-93439285D01*
X131801190Y-93463095D01*
X131825000Y-93486904D01*
X131848809Y-93534523D01*
X131848809Y-94153571D02*
X131848809Y-93915476D01*
X131610714Y-93891666D01*
X131634523Y-93915476D01*
X131658333Y-93963095D01*
X131658333Y-94082142D01*
X131634523Y-94129761D01*
X131610714Y-94153571D01*
X131563095Y-94177380D01*
X131444047Y-94177380D01*
X131396428Y-94153571D01*
X131372619Y-94129761D01*
X131348809Y-94082142D01*
X131348809Y-93963095D01*
X131372619Y-93915476D01*
X131396428Y-93891666D01*
X131348809Y-94653571D02*
X131348809Y-94367857D01*
X131348809Y-94510714D02*
X131848809Y-94510714D01*
X131777380Y-94463095D01*
X131729761Y-94415476D01*
X131705952Y-94367857D01*
X131848809Y-95082142D02*
X131848809Y-94986904D01*
X131825000Y-94939285D01*
X131801190Y-94915476D01*
X131729761Y-94867857D01*
X131634523Y-94844047D01*
X131444047Y-94844047D01*
X131396428Y-94867857D01*
X131372619Y-94891666D01*
X131348809Y-94939285D01*
X131348809Y-95034523D01*
X131372619Y-95082142D01*
X131396428Y-95105952D01*
X131444047Y-95129761D01*
X131563095Y-95129761D01*
X131610714Y-95105952D01*
X131634523Y-95082142D01*
X131658333Y-95034523D01*
X131658333Y-94939285D01*
X131634523Y-94891666D01*
X131610714Y-94867857D01*
X131563095Y-94844047D01*
X131801190Y-95320238D02*
X131825000Y-95344047D01*
X131848809Y-95391666D01*
X131848809Y-95510714D01*
X131825000Y-95558333D01*
X131801190Y-95582142D01*
X131753571Y-95605952D01*
X131705952Y-95605952D01*
X131634523Y-95582142D01*
X131348809Y-95296428D01*
X131348809Y-95605952D01*
X131848809Y-95915476D02*
X131848809Y-95963095D01*
X131825000Y-96010714D01*
X131801190Y-96034523D01*
X131753571Y-96058333D01*
X131658333Y-96082142D01*
X131539285Y-96082142D01*
X131444047Y-96058333D01*
X131396428Y-96034523D01*
X131372619Y-96010714D01*
X131348809Y-95963095D01*
X131348809Y-95915476D01*
X131372619Y-95867857D01*
X131396428Y-95844047D01*
X131444047Y-95820238D01*
X131539285Y-95796428D01*
X131658333Y-95796428D01*
X131753571Y-95820238D01*
X131801190Y-95844047D01*
X131825000Y-95867857D01*
X131848809Y-95915476D01*
X131848809Y-96391666D02*
X131848809Y-96439285D01*
X131825000Y-96486904D01*
X131801190Y-96510714D01*
X131753571Y-96534523D01*
X131658333Y-96558333D01*
X131539285Y-96558333D01*
X131444047Y-96534523D01*
X131396428Y-96510714D01*
X131372619Y-96486904D01*
X131348809Y-96439285D01*
X131348809Y-96391666D01*
X131372619Y-96344047D01*
X131396428Y-96320238D01*
X131444047Y-96296428D01*
X131539285Y-96272619D01*
X131658333Y-96272619D01*
X131753571Y-96296428D01*
X131801190Y-96320238D01*
X131825000Y-96344047D01*
X131848809Y-96391666D01*
X131848809Y-96867857D02*
X131848809Y-96915476D01*
X131825000Y-96963095D01*
X131801190Y-96986904D01*
X131753571Y-97010714D01*
X131658333Y-97034523D01*
X131539285Y-97034523D01*
X131444047Y-97010714D01*
X131396428Y-96986904D01*
X131372619Y-96963095D01*
X131348809Y-96915476D01*
X131348809Y-96867857D01*
X131372619Y-96820238D01*
X131396428Y-96796428D01*
X131444047Y-96772619D01*
X131539285Y-96748809D01*
X131658333Y-96748809D01*
X131753571Y-96772619D01*
X131801190Y-96796428D01*
X131825000Y-96820238D01*
X131848809Y-96867857D01*
X131348809Y-97510714D02*
X131348809Y-97225000D01*
X131348809Y-97367857D02*
X131848809Y-97367857D01*
X131777380Y-97320238D01*
X131729761Y-97272619D01*
X131705952Y-97225000D01*
D11*
X128200000Y-101250000D02*
X126350000Y-99400000D01*
X130350000Y-101250000D02*
X128200000Y-101250000D01*
X134000000Y-101250000D02*
X132950000Y-101250000D01*
X136050000Y-101250000D02*
X135600000Y-101250000D01*
X136050000Y-89200000D02*
X136050000Y-101250000D01*
X135050000Y-89200000D02*
X136050000Y-89200000D01*
X132450000Y-89200000D02*
X133450000Y-89200000D01*
X128200000Y-89200000D02*
X129650000Y-89200000D01*
X126300000Y-91100000D02*
X128200000Y-89200000D01*
M02*
