G04 #@! TF.GenerationSoftware,KiCad,Pcbnew,(5.1.9)-1*
G04 #@! TF.CreationDate,2021-03-27T20:31:15-07:00*
G04 #@! TF.ProjectId,nibelung,6e696265-6c75-46e6-972e-6b696361645f,rev?*
G04 #@! TF.SameCoordinates,PX621abf0PY7065700*
G04 #@! TF.FileFunction,Legend,Top*
G04 #@! TF.FilePolarity,Positive*
%FSLAX46Y46*%
G04 Gerber Fmt 4.6, Leading zero omitted, Abs format (unit mm)*
G04 Created by KiCad (PCBNEW (5.1.9)-1) date 2021-03-27 20:31:15*
%MOMM*%
%LPD*%
G01*
G04 APERTURE LIST*
%ADD10C,0.177800*%
%ADD11C,0.152400*%
%ADD12C,0.203200*%
%ADD13C,0.254000*%
%ADD14C,0.190500*%
%ADD15C,0.381000*%
%ADD16C,0.010000*%
%ADD17C,0.120000*%
%ADD18C,0.150000*%
%ADD19C,0.127000*%
G04 APERTURE END LIST*
D10*
X24003000Y11493500D02*
X24214666Y10900834D01*
X24426333Y11493500D01*
X25230666Y10900834D02*
X24722666Y10900834D01*
X24976666Y10900834D02*
X24976666Y11789834D01*
X24892000Y11662834D01*
X24807333Y11578167D01*
X24722666Y11535834D01*
X25611666Y10985500D02*
X25654000Y10943167D01*
X25611666Y10900834D01*
X25569333Y10943167D01*
X25611666Y10985500D01*
X25611666Y10900834D01*
X26204333Y11789834D02*
X26289000Y11789834D01*
X26373666Y11747500D01*
X26416000Y11705167D01*
X26458333Y11620500D01*
X26500666Y11451167D01*
X26500666Y11239500D01*
X26458333Y11070167D01*
X26416000Y10985500D01*
X26373666Y10943167D01*
X26289000Y10900834D01*
X26204333Y10900834D01*
X26119666Y10943167D01*
X26077333Y10985500D01*
X26035000Y11070167D01*
X25992666Y11239500D01*
X25992666Y11451167D01*
X26035000Y11620500D01*
X26077333Y11705167D01*
X26119666Y11747500D01*
X26204333Y11789834D01*
D11*
X19851309Y19524739D02*
X19548928Y19524739D01*
X19548928Y20159739D01*
X20062976Y19857358D02*
X20274642Y19857358D01*
X20365357Y19524739D02*
X20062976Y19524739D01*
X20062976Y20159739D01*
X20365357Y20159739D01*
X20637500Y19524739D02*
X20637500Y20159739D01*
X20788690Y20159739D01*
X20879404Y20129500D01*
X20939880Y20069024D01*
X20970119Y20008548D01*
X21000357Y19887596D01*
X21000357Y19796881D01*
X20970119Y19675929D01*
X20939880Y19615453D01*
X20879404Y19554977D01*
X20788690Y19524739D01*
X20637500Y19524739D01*
X22119166Y19585215D02*
X22088928Y19554977D01*
X21998214Y19524739D01*
X21937738Y19524739D01*
X21847023Y19554977D01*
X21786547Y19615453D01*
X21756309Y19675929D01*
X21726071Y19796881D01*
X21726071Y19887596D01*
X21756309Y20008548D01*
X21786547Y20069024D01*
X21847023Y20129500D01*
X21937738Y20159739D01*
X21998214Y20159739D01*
X22088928Y20129500D01*
X22119166Y20099262D01*
X22482023Y19524739D02*
X22421547Y19554977D01*
X22391309Y19585215D01*
X22361071Y19645691D01*
X22361071Y19827120D01*
X22391309Y19887596D01*
X22421547Y19917834D01*
X22482023Y19948072D01*
X22572738Y19948072D01*
X22633214Y19917834D01*
X22663452Y19887596D01*
X22693690Y19827120D01*
X22693690Y19645691D01*
X22663452Y19585215D01*
X22633214Y19554977D01*
X22572738Y19524739D01*
X22482023Y19524739D01*
X22965833Y19948072D02*
X22965833Y19524739D01*
X22965833Y19887596D02*
X22996071Y19917834D01*
X23056547Y19948072D01*
X23147261Y19948072D01*
X23207738Y19917834D01*
X23237976Y19857358D01*
X23237976Y19524739D01*
X23449642Y19948072D02*
X23691547Y19948072D01*
X23540357Y20159739D02*
X23540357Y19615453D01*
X23570595Y19554977D01*
X23631071Y19524739D01*
X23691547Y19524739D01*
X23903214Y19524739D02*
X23903214Y19948072D01*
X23903214Y19827120D02*
X23933452Y19887596D01*
X23963690Y19917834D01*
X24024166Y19948072D01*
X24084642Y19948072D01*
X24387023Y19524739D02*
X24326547Y19554977D01*
X24296309Y19585215D01*
X24266071Y19645691D01*
X24266071Y19827120D01*
X24296309Y19887596D01*
X24326547Y19917834D01*
X24387023Y19948072D01*
X24477738Y19948072D01*
X24538214Y19917834D01*
X24568452Y19887596D01*
X24598690Y19827120D01*
X24598690Y19645691D01*
X24568452Y19585215D01*
X24538214Y19554977D01*
X24477738Y19524739D01*
X24387023Y19524739D01*
X24961547Y19524739D02*
X24901071Y19554977D01*
X24870833Y19615453D01*
X24870833Y20159739D01*
X25294166Y19524739D02*
X25233690Y19554977D01*
X25203452Y19615453D01*
X25203452Y20159739D01*
X25777976Y19554977D02*
X25717500Y19524739D01*
X25596547Y19524739D01*
X25536071Y19554977D01*
X25505833Y19615453D01*
X25505833Y19857358D01*
X25536071Y19917834D01*
X25596547Y19948072D01*
X25717500Y19948072D01*
X25777976Y19917834D01*
X25808214Y19857358D01*
X25808214Y19796881D01*
X25505833Y19736405D01*
X26080357Y19524739D02*
X26080357Y19948072D01*
X26080357Y19827120D02*
X26110595Y19887596D01*
X26140833Y19917834D01*
X26201309Y19948072D01*
X26261785Y19948072D01*
D12*
X2771623Y27826305D02*
X2771623Y28639105D01*
X3081261Y28639105D01*
X3158671Y28600400D01*
X3197376Y28561696D01*
X3236080Y28484286D01*
X3236080Y28368172D01*
X3197376Y28290762D01*
X3158671Y28252058D01*
X3081261Y28213353D01*
X2771623Y28213353D01*
X3236080Y25540305D02*
X2965147Y25927353D01*
X2771623Y25540305D02*
X2771623Y26353105D01*
X3081261Y26353105D01*
X3158671Y26314400D01*
X3197376Y26275696D01*
X3236080Y26198286D01*
X3236080Y26082172D01*
X3197376Y26004762D01*
X3158671Y25966058D01*
X3081261Y25927353D01*
X2771623Y25927353D01*
X2636157Y27496105D02*
X2829680Y26683305D01*
X2984500Y27263877D01*
X3139319Y26683305D01*
X3332842Y27496105D01*
D13*
X32209619Y26839334D02*
X32814380Y26839334D01*
X32088666Y26476477D02*
X32512000Y27746477D01*
X32935333Y26476477D01*
X32602714Y5551715D02*
X32784142Y5491239D01*
X32844619Y5430762D01*
X32905095Y5309810D01*
X32905095Y5128381D01*
X32844619Y5007429D01*
X32784142Y4946953D01*
X32663190Y4886477D01*
X32179380Y4886477D01*
X32179380Y6156477D01*
X32602714Y6156477D01*
X32723666Y6096000D01*
X32784142Y6035524D01*
X32844619Y5914572D01*
X32844619Y5793620D01*
X32784142Y5672667D01*
X32723666Y5612191D01*
X32602714Y5551715D01*
X32179380Y5551715D01*
X3377595Y5007429D02*
X3317119Y4946953D01*
X3135690Y4886477D01*
X3014738Y4886477D01*
X2833309Y4946953D01*
X2712357Y5067905D01*
X2651880Y5188858D01*
X2591404Y5430762D01*
X2591404Y5612191D01*
X2651880Y5854096D01*
X2712357Y5975048D01*
X2833309Y6096000D01*
X3014738Y6156477D01*
X3135690Y6156477D01*
X3317119Y6096000D01*
X3377595Y6035524D01*
D14*
X24601714Y18142858D02*
X24601714Y17780000D01*
X24964571Y17743715D01*
X24928285Y17780000D01*
X24892000Y17852572D01*
X24892000Y18034000D01*
X24928285Y18106572D01*
X24964571Y18142858D01*
X25037142Y18179143D01*
X25218571Y18179143D01*
X25291142Y18142858D01*
X25327428Y18106572D01*
X25363714Y18034000D01*
X25363714Y17852572D01*
X25327428Y17780000D01*
X25291142Y17743715D01*
X24601714Y18396858D02*
X25363714Y18650858D01*
X24601714Y18904858D01*
X24638000Y15548429D02*
X24601714Y15475858D01*
X24601714Y15367000D01*
X24638000Y15258143D01*
X24710571Y15185572D01*
X24783142Y15149286D01*
X24928285Y15113000D01*
X25037142Y15113000D01*
X25182285Y15149286D01*
X25254857Y15185572D01*
X25327428Y15258143D01*
X25363714Y15367000D01*
X25363714Y15439572D01*
X25327428Y15548429D01*
X25291142Y15584715D01*
X25037142Y15584715D01*
X25037142Y15439572D01*
X25363714Y15911286D02*
X24601714Y15911286D01*
X25363714Y16346715D01*
X24601714Y16346715D01*
X25363714Y16709572D02*
X24601714Y16709572D01*
X24601714Y16891000D01*
X24638000Y16999858D01*
X24710571Y17072429D01*
X24783142Y17108715D01*
X24928285Y17145000D01*
X25037142Y17145000D01*
X25182285Y17108715D01*
X25254857Y17072429D01*
X25327428Y16999858D01*
X25363714Y16891000D01*
X25363714Y16709572D01*
X24601714Y12881429D02*
X25363714Y13135429D01*
X24601714Y13389429D01*
X25363714Y13643429D02*
X24601714Y13643429D01*
X25363714Y14006286D02*
X24601714Y14006286D01*
X25363714Y14441715D01*
X24601714Y14441715D01*
D15*
X952500Y10668000D02*
G75*
G03*
X952500Y10668000I-190500J0D01*
G01*
D16*
G36*
X21114339Y22093531D02*
G01*
X21129120Y22084532D01*
X21146323Y22070385D01*
X21158200Y22059900D01*
X21178056Y22042992D01*
X21194885Y22029935D01*
X21206117Y22022667D01*
X21208686Y22021800D01*
X21218287Y22025325D01*
X21232668Y22034062D01*
X21236411Y22036739D01*
X21254698Y22049661D01*
X21266615Y22054774D01*
X21275893Y22051961D01*
X21286266Y22041109D01*
X21291117Y22035046D01*
X21310850Y22010132D01*
X21213887Y21923908D01*
X21176894Y21891189D01*
X21147730Y21866523D01*
X21124725Y21849533D01*
X21106211Y21839838D01*
X21090520Y21837061D01*
X21075983Y21840822D01*
X21060930Y21850744D01*
X21043694Y21866448D01*
X21028314Y21881809D01*
X20984494Y21925967D01*
X20968159Y21913342D01*
X20946947Y21897060D01*
X20933008Y21887797D01*
X20923390Y21885038D01*
X20915143Y21888268D01*
X20905317Y21896971D01*
X20900621Y21901541D01*
X20888113Y21914860D01*
X20880991Y21924803D01*
X20880301Y21927566D01*
X20885442Y21932933D01*
X20898811Y21945171D01*
X20918925Y21962969D01*
X20944299Y21985016D01*
X20973448Y22010002D01*
X20979482Y22015137D01*
X21016122Y22046134D01*
X21044786Y22069380D01*
X21067206Y22085308D01*
X21085116Y22094354D01*
X21100249Y22096950D01*
X21114339Y22093531D01*
G37*
X21114339Y22093531D02*
X21129120Y22084532D01*
X21146323Y22070385D01*
X21158200Y22059900D01*
X21178056Y22042992D01*
X21194885Y22029935D01*
X21206117Y22022667D01*
X21208686Y22021800D01*
X21218287Y22025325D01*
X21232668Y22034062D01*
X21236411Y22036739D01*
X21254698Y22049661D01*
X21266615Y22054774D01*
X21275893Y22051961D01*
X21286266Y22041109D01*
X21291117Y22035046D01*
X21310850Y22010132D01*
X21213887Y21923908D01*
X21176894Y21891189D01*
X21147730Y21866523D01*
X21124725Y21849533D01*
X21106211Y21839838D01*
X21090520Y21837061D01*
X21075983Y21840822D01*
X21060930Y21850744D01*
X21043694Y21866448D01*
X21028314Y21881809D01*
X20984494Y21925967D01*
X20968159Y21913342D01*
X20946947Y21897060D01*
X20933008Y21887797D01*
X20923390Y21885038D01*
X20915143Y21888268D01*
X20905317Y21896971D01*
X20900621Y21901541D01*
X20888113Y21914860D01*
X20880991Y21924803D01*
X20880301Y21927566D01*
X20885442Y21932933D01*
X20898811Y21945171D01*
X20918925Y21962969D01*
X20944299Y21985016D01*
X20973448Y22010002D01*
X20979482Y22015137D01*
X21016122Y22046134D01*
X21044786Y22069380D01*
X21067206Y22085308D01*
X21085116Y22094354D01*
X21100249Y22096950D01*
X21114339Y22093531D01*
G36*
X25420527Y21690499D02*
G01*
X25430551Y21687718D01*
X25431750Y21686145D01*
X25436066Y21677527D01*
X25447379Y21663064D01*
X25463234Y21645392D01*
X25481177Y21627150D01*
X25498754Y21610974D01*
X25510295Y21601732D01*
X25527972Y21590916D01*
X25543835Y21584455D01*
X25548991Y21583651D01*
X25560804Y21586826D01*
X25579591Y21595231D01*
X25601673Y21607180D01*
X25605986Y21609742D01*
X25649245Y21635833D01*
X25664408Y21617679D01*
X25675979Y21603726D01*
X25683100Y21592985D01*
X25684850Y21583692D01*
X25680303Y21574081D01*
X25668538Y21562384D01*
X25648632Y21546837D01*
X25619661Y21525674D01*
X25614268Y21521754D01*
X25536525Y21465208D01*
X25536525Y21281542D01*
X25536555Y21228350D01*
X25536720Y21186286D01*
X25537127Y21153775D01*
X25537885Y21129246D01*
X25539102Y21111126D01*
X25540886Y21097841D01*
X25543347Y21087818D01*
X25546593Y21079486D01*
X25550732Y21071270D01*
X25551068Y21070639D01*
X25564320Y21051256D01*
X25580226Y21035105D01*
X25585746Y21031158D01*
X25605881Y21018913D01*
X25633977Y21034617D01*
X25650876Y21043548D01*
X25660537Y21046390D01*
X25666578Y21043643D01*
X25669932Y21039573D01*
X25679454Y21024998D01*
X25688638Y21008559D01*
X25695530Y20994099D01*
X25698175Y20985464D01*
X25697882Y20984608D01*
X25692220Y20980310D01*
X25678049Y20969605D01*
X25657004Y20953726D01*
X25630720Y20933907D01*
X25601150Y20911621D01*
X25567388Y20886363D01*
X25541875Y20867878D01*
X25522846Y20855129D01*
X25508536Y20847080D01*
X25497179Y20842692D01*
X25487010Y20840930D01*
X25480412Y20840700D01*
X25466499Y20841622D01*
X25454248Y20845519D01*
X25440608Y20854092D01*
X25422530Y20869044D01*
X25410785Y20879521D01*
X25393703Y20894866D01*
X25379607Y20908099D01*
X25368193Y20920583D01*
X25359160Y20933679D01*
X25352206Y20948749D01*
X25347029Y20967157D01*
X25343327Y20990263D01*
X25340799Y21019431D01*
X25339141Y21056022D01*
X25338053Y21101398D01*
X25337232Y21156922D01*
X25336500Y21214636D01*
X25333325Y21458396D01*
X25297362Y21489787D01*
X25261399Y21521179D01*
X25156074Y21436897D01*
X25050750Y21352616D01*
X25050864Y21209371D01*
X25050978Y21066125D01*
X25082540Y21045488D01*
X25100198Y21034434D01*
X25113613Y21026938D01*
X25118938Y21024833D01*
X25126984Y21027572D01*
X25141885Y21034538D01*
X25150501Y21038971D01*
X25177227Y21053127D01*
X25196538Y21034626D01*
X25208608Y21021310D01*
X25215343Y21010480D01*
X25215850Y21008193D01*
X25211010Y21002122D01*
X25197492Y20989720D01*
X25176801Y20972246D01*
X25150439Y20950960D01*
X25119909Y20927124D01*
X25111233Y20920481D01*
X25071438Y20890360D01*
X25039991Y20867652D01*
X25015215Y20851974D01*
X24995435Y20842941D01*
X24978973Y20840167D01*
X24964154Y20843268D01*
X24949302Y20851861D01*
X24932740Y20865559D01*
X24920575Y20876730D01*
X24887148Y20905163D01*
X24858609Y20922896D01*
X24833399Y20930171D01*
X24809960Y20927232D01*
X24786735Y20914321D01*
X24770437Y20900135D01*
X24746577Y20876836D01*
X24717885Y20898456D01*
X24702227Y20910824D01*
X24691724Y20920211D01*
X24688996Y20923735D01*
X24693684Y20928673D01*
X24706759Y20939936D01*
X24726525Y20956126D01*
X24751288Y20975844D01*
X24768175Y20989048D01*
X24847550Y21050701D01*
X24847550Y21453909D01*
X24813463Y21487572D01*
X24779377Y21521235D01*
X24756229Y21500911D01*
X24733082Y21480588D01*
X24705444Y21506063D01*
X24677806Y21531539D01*
X24782876Y21611570D01*
X24818640Y21638656D01*
X24846021Y21658887D01*
X24866630Y21673245D01*
X24882079Y21682713D01*
X24893978Y21688273D01*
X24903937Y21690908D01*
X24913567Y21691599D01*
X24914079Y21691600D01*
X24927235Y21690880D01*
X24938008Y21687470D01*
X24949208Y21679503D01*
X24963644Y21665110D01*
X24978493Y21648738D01*
X25002302Y21621589D01*
X25018991Y21600427D01*
X25030139Y21581984D01*
X25037323Y21562990D01*
X25042121Y21540177D01*
X25046110Y21510277D01*
X25046366Y21508119D01*
X25053925Y21444215D01*
X25214736Y21567908D01*
X25259403Y21602206D01*
X25295251Y21629510D01*
X25323494Y21650617D01*
X25345345Y21666319D01*
X25362019Y21677412D01*
X25374729Y21684690D01*
X25384687Y21688947D01*
X25393108Y21690979D01*
X25401205Y21691580D01*
X25403649Y21691600D01*
X25420527Y21690499D01*
G37*
X25420527Y21690499D02*
X25430551Y21687718D01*
X25431750Y21686145D01*
X25436066Y21677527D01*
X25447379Y21663064D01*
X25463234Y21645392D01*
X25481177Y21627150D01*
X25498754Y21610974D01*
X25510295Y21601732D01*
X25527972Y21590916D01*
X25543835Y21584455D01*
X25548991Y21583651D01*
X25560804Y21586826D01*
X25579591Y21595231D01*
X25601673Y21607180D01*
X25605986Y21609742D01*
X25649245Y21635833D01*
X25664408Y21617679D01*
X25675979Y21603726D01*
X25683100Y21592985D01*
X25684850Y21583692D01*
X25680303Y21574081D01*
X25668538Y21562384D01*
X25648632Y21546837D01*
X25619661Y21525674D01*
X25614268Y21521754D01*
X25536525Y21465208D01*
X25536525Y21281542D01*
X25536555Y21228350D01*
X25536720Y21186286D01*
X25537127Y21153775D01*
X25537885Y21129246D01*
X25539102Y21111126D01*
X25540886Y21097841D01*
X25543347Y21087818D01*
X25546593Y21079486D01*
X25550732Y21071270D01*
X25551068Y21070639D01*
X25564320Y21051256D01*
X25580226Y21035105D01*
X25585746Y21031158D01*
X25605881Y21018913D01*
X25633977Y21034617D01*
X25650876Y21043548D01*
X25660537Y21046390D01*
X25666578Y21043643D01*
X25669932Y21039573D01*
X25679454Y21024998D01*
X25688638Y21008559D01*
X25695530Y20994099D01*
X25698175Y20985464D01*
X25697882Y20984608D01*
X25692220Y20980310D01*
X25678049Y20969605D01*
X25657004Y20953726D01*
X25630720Y20933907D01*
X25601150Y20911621D01*
X25567388Y20886363D01*
X25541875Y20867878D01*
X25522846Y20855129D01*
X25508536Y20847080D01*
X25497179Y20842692D01*
X25487010Y20840930D01*
X25480412Y20840700D01*
X25466499Y20841622D01*
X25454248Y20845519D01*
X25440608Y20854092D01*
X25422530Y20869044D01*
X25410785Y20879521D01*
X25393703Y20894866D01*
X25379607Y20908099D01*
X25368193Y20920583D01*
X25359160Y20933679D01*
X25352206Y20948749D01*
X25347029Y20967157D01*
X25343327Y20990263D01*
X25340799Y21019431D01*
X25339141Y21056022D01*
X25338053Y21101398D01*
X25337232Y21156922D01*
X25336500Y21214636D01*
X25333325Y21458396D01*
X25297362Y21489787D01*
X25261399Y21521179D01*
X25156074Y21436897D01*
X25050750Y21352616D01*
X25050864Y21209371D01*
X25050978Y21066125D01*
X25082540Y21045488D01*
X25100198Y21034434D01*
X25113613Y21026938D01*
X25118938Y21024833D01*
X25126984Y21027572D01*
X25141885Y21034538D01*
X25150501Y21038971D01*
X25177227Y21053127D01*
X25196538Y21034626D01*
X25208608Y21021310D01*
X25215343Y21010480D01*
X25215850Y21008193D01*
X25211010Y21002122D01*
X25197492Y20989720D01*
X25176801Y20972246D01*
X25150439Y20950960D01*
X25119909Y20927124D01*
X25111233Y20920481D01*
X25071438Y20890360D01*
X25039991Y20867652D01*
X25015215Y20851974D01*
X24995435Y20842941D01*
X24978973Y20840167D01*
X24964154Y20843268D01*
X24949302Y20851861D01*
X24932740Y20865559D01*
X24920575Y20876730D01*
X24887148Y20905163D01*
X24858609Y20922896D01*
X24833399Y20930171D01*
X24809960Y20927232D01*
X24786735Y20914321D01*
X24770437Y20900135D01*
X24746577Y20876836D01*
X24717885Y20898456D01*
X24702227Y20910824D01*
X24691724Y20920211D01*
X24688996Y20923735D01*
X24693684Y20928673D01*
X24706759Y20939936D01*
X24726525Y20956126D01*
X24751288Y20975844D01*
X24768175Y20989048D01*
X24847550Y21050701D01*
X24847550Y21453909D01*
X24813463Y21487572D01*
X24779377Y21521235D01*
X24756229Y21500911D01*
X24733082Y21480588D01*
X24705444Y21506063D01*
X24677806Y21531539D01*
X24782876Y21611570D01*
X24818640Y21638656D01*
X24846021Y21658887D01*
X24866630Y21673245D01*
X24882079Y21682713D01*
X24893978Y21688273D01*
X24903937Y21690908D01*
X24913567Y21691599D01*
X24914079Y21691600D01*
X24927235Y21690880D01*
X24938008Y21687470D01*
X24949208Y21679503D01*
X24963644Y21665110D01*
X24978493Y21648738D01*
X25002302Y21621589D01*
X25018991Y21600427D01*
X25030139Y21581984D01*
X25037323Y21562990D01*
X25042121Y21540177D01*
X25046110Y21510277D01*
X25046366Y21508119D01*
X25053925Y21444215D01*
X25214736Y21567908D01*
X25259403Y21602206D01*
X25295251Y21629510D01*
X25323494Y21650617D01*
X25345345Y21666319D01*
X25362019Y21677412D01*
X25374729Y21684690D01*
X25384687Y21688947D01*
X25393108Y21690979D01*
X25401205Y21691580D01*
X25403649Y21691600D01*
X25420527Y21690499D01*
G36*
X23891610Y21686917D02*
G01*
X23906091Y21676594D01*
X23922348Y21660700D01*
X23936266Y21645798D01*
X23951755Y21629291D01*
X23964506Y21615454D01*
X23974795Y21602900D01*
X23982896Y21590241D01*
X23989084Y21576088D01*
X23993633Y21559052D01*
X23996818Y21537745D01*
X23998913Y21510779D01*
X24000193Y21476765D01*
X24000933Y21434315D01*
X24001407Y21382040D01*
X24001889Y21318552D01*
X24001929Y21313775D01*
X24004034Y21066125D01*
X24047949Y21038631D01*
X24091863Y21011137D01*
X24183956Y21076506D01*
X24276050Y21141875D01*
X24276050Y21455571D01*
X24246580Y21481511D01*
X24230070Y21495181D01*
X24216845Y21504579D01*
X24210626Y21507450D01*
X24201706Y21504451D01*
X24186369Y21496831D01*
X24177365Y21491759D01*
X24150590Y21476068D01*
X24137058Y21508630D01*
X24129935Y21526621D01*
X24125716Y21538971D01*
X24125175Y21542430D01*
X24178533Y21582514D01*
X24222697Y21615596D01*
X24258785Y21642090D01*
X24287910Y21662410D01*
X24311190Y21676971D01*
X24329740Y21686188D01*
X24344676Y21690475D01*
X24357113Y21690247D01*
X24368167Y21685918D01*
X24378954Y21677904D01*
X24390590Y21666618D01*
X24404191Y21652475D01*
X24408752Y21647807D01*
X24438338Y21619047D01*
X24462296Y21599672D01*
X24482926Y21589143D01*
X24502526Y21586923D01*
X24523398Y21592474D01*
X24547841Y21605258D01*
X24559561Y21612551D01*
X24577968Y21623889D01*
X24592116Y21631803D01*
X24598482Y21634451D01*
X24604152Y21629475D01*
X24613538Y21616744D01*
X24619988Y21606603D01*
X24636808Y21578755D01*
X24485600Y21467545D01*
X24485600Y21093436D01*
X24522340Y21055423D01*
X24559081Y21017410D01*
X24607389Y21040446D01*
X24625687Y21018361D01*
X24636384Y21004284D01*
X24642199Y20994321D01*
X24642580Y20992183D01*
X24637360Y20987169D01*
X24623677Y20975668D01*
X24603114Y20958964D01*
X24577251Y20938344D01*
X24547672Y20915090D01*
X24546783Y20914395D01*
X24513591Y20888599D01*
X24488575Y20869643D01*
X24469958Y20856477D01*
X24455965Y20848051D01*
X24444820Y20843315D01*
X24434749Y20841216D01*
X24423975Y20840705D01*
X24422239Y20840700D01*
X24404911Y20841520D01*
X24392193Y20845470D01*
X24379777Y20854786D01*
X24364136Y20870863D01*
X24334320Y20903901D01*
X24312388Y20930903D01*
X24296941Y20954495D01*
X24286579Y20977306D01*
X24279901Y21001963D01*
X24275507Y21031096D01*
X24274663Y21038788D01*
X24273705Y21043472D01*
X24271262Y21045852D01*
X24266226Y21045228D01*
X24257489Y21040899D01*
X24243940Y21032164D01*
X24224472Y21018322D01*
X24197975Y20998673D01*
X24163341Y20972515D01*
X24131484Y20948300D01*
X24089686Y20916573D01*
X24056622Y20891764D01*
X24030972Y20873033D01*
X24011415Y20859537D01*
X23996633Y20850435D01*
X23985304Y20844886D01*
X23976109Y20842049D01*
X23967728Y20841081D01*
X23963209Y20841039D01*
X23948150Y20842382D01*
X23934445Y20847146D01*
X23918701Y20857070D01*
X23897527Y20873891D01*
X23895050Y20875962D01*
X23858780Y20903807D01*
X23825604Y20924304D01*
X23797032Y20936683D01*
X23774576Y20940177D01*
X23769976Y20939546D01*
X23755562Y20934174D01*
X23735159Y20923925D01*
X23714075Y20911560D01*
X23675975Y20887487D01*
X23655862Y20912847D01*
X23635750Y20938207D01*
X23717775Y20998579D01*
X23799800Y21058952D01*
X23799800Y21468122D01*
X23772812Y21497836D01*
X23745825Y21527550D01*
X23720425Y21509214D01*
X23704028Y21497549D01*
X23691285Y21488783D01*
X23687654Y21486440D01*
X23680901Y21488922D01*
X23669961Y21498569D01*
X23657778Y21512035D01*
X23647296Y21525976D01*
X23641457Y21537046D01*
X23641050Y21539404D01*
X23645983Y21544150D01*
X23659750Y21555037D01*
X23680794Y21570899D01*
X23707563Y21590567D01*
X23738504Y21612875D01*
X23745024Y21617528D01*
X23785221Y21646007D01*
X23816803Y21667379D01*
X23841501Y21681900D01*
X23861047Y21689826D01*
X23877172Y21691413D01*
X23891610Y21686917D01*
G37*
X23891610Y21686917D02*
X23906091Y21676594D01*
X23922348Y21660700D01*
X23936266Y21645798D01*
X23951755Y21629291D01*
X23964506Y21615454D01*
X23974795Y21602900D01*
X23982896Y21590241D01*
X23989084Y21576088D01*
X23993633Y21559052D01*
X23996818Y21537745D01*
X23998913Y21510779D01*
X24000193Y21476765D01*
X24000933Y21434315D01*
X24001407Y21382040D01*
X24001889Y21318552D01*
X24001929Y21313775D01*
X24004034Y21066125D01*
X24047949Y21038631D01*
X24091863Y21011137D01*
X24183956Y21076506D01*
X24276050Y21141875D01*
X24276050Y21455571D01*
X24246580Y21481511D01*
X24230070Y21495181D01*
X24216845Y21504579D01*
X24210626Y21507450D01*
X24201706Y21504451D01*
X24186369Y21496831D01*
X24177365Y21491759D01*
X24150590Y21476068D01*
X24137058Y21508630D01*
X24129935Y21526621D01*
X24125716Y21538971D01*
X24125175Y21542430D01*
X24178533Y21582514D01*
X24222697Y21615596D01*
X24258785Y21642090D01*
X24287910Y21662410D01*
X24311190Y21676971D01*
X24329740Y21686188D01*
X24344676Y21690475D01*
X24357113Y21690247D01*
X24368167Y21685918D01*
X24378954Y21677904D01*
X24390590Y21666618D01*
X24404191Y21652475D01*
X24408752Y21647807D01*
X24438338Y21619047D01*
X24462296Y21599672D01*
X24482926Y21589143D01*
X24502526Y21586923D01*
X24523398Y21592474D01*
X24547841Y21605258D01*
X24559561Y21612551D01*
X24577968Y21623889D01*
X24592116Y21631803D01*
X24598482Y21634451D01*
X24604152Y21629475D01*
X24613538Y21616744D01*
X24619988Y21606603D01*
X24636808Y21578755D01*
X24485600Y21467545D01*
X24485600Y21093436D01*
X24522340Y21055423D01*
X24559081Y21017410D01*
X24607389Y21040446D01*
X24625687Y21018361D01*
X24636384Y21004284D01*
X24642199Y20994321D01*
X24642580Y20992183D01*
X24637360Y20987169D01*
X24623677Y20975668D01*
X24603114Y20958964D01*
X24577251Y20938344D01*
X24547672Y20915090D01*
X24546783Y20914395D01*
X24513591Y20888599D01*
X24488575Y20869643D01*
X24469958Y20856477D01*
X24455965Y20848051D01*
X24444820Y20843315D01*
X24434749Y20841216D01*
X24423975Y20840705D01*
X24422239Y20840700D01*
X24404911Y20841520D01*
X24392193Y20845470D01*
X24379777Y20854786D01*
X24364136Y20870863D01*
X24334320Y20903901D01*
X24312388Y20930903D01*
X24296941Y20954495D01*
X24286579Y20977306D01*
X24279901Y21001963D01*
X24275507Y21031096D01*
X24274663Y21038788D01*
X24273705Y21043472D01*
X24271262Y21045852D01*
X24266226Y21045228D01*
X24257489Y21040899D01*
X24243940Y21032164D01*
X24224472Y21018322D01*
X24197975Y20998673D01*
X24163341Y20972515D01*
X24131484Y20948300D01*
X24089686Y20916573D01*
X24056622Y20891764D01*
X24030972Y20873033D01*
X24011415Y20859537D01*
X23996633Y20850435D01*
X23985304Y20844886D01*
X23976109Y20842049D01*
X23967728Y20841081D01*
X23963209Y20841039D01*
X23948150Y20842382D01*
X23934445Y20847146D01*
X23918701Y20857070D01*
X23897527Y20873891D01*
X23895050Y20875962D01*
X23858780Y20903807D01*
X23825604Y20924304D01*
X23797032Y20936683D01*
X23774576Y20940177D01*
X23769976Y20939546D01*
X23755562Y20934174D01*
X23735159Y20923925D01*
X23714075Y20911560D01*
X23675975Y20887487D01*
X23655862Y20912847D01*
X23635750Y20938207D01*
X23717775Y20998579D01*
X23799800Y21058952D01*
X23799800Y21468122D01*
X23772812Y21497836D01*
X23745825Y21527550D01*
X23720425Y21509214D01*
X23704028Y21497549D01*
X23691285Y21488783D01*
X23687654Y21486440D01*
X23680901Y21488922D01*
X23669961Y21498569D01*
X23657778Y21512035D01*
X23647296Y21525976D01*
X23641457Y21537046D01*
X23641050Y21539404D01*
X23645983Y21544150D01*
X23659750Y21555037D01*
X23680794Y21570899D01*
X23707563Y21590567D01*
X23738504Y21612875D01*
X23745024Y21617528D01*
X23785221Y21646007D01*
X23816803Y21667379D01*
X23841501Y21681900D01*
X23861047Y21689826D01*
X23877172Y21691413D01*
X23891610Y21686917D01*
G36*
X23473421Y22226353D02*
G01*
X23484397Y22214147D01*
X23490539Y22205968D01*
X23508303Y22180856D01*
X23482876Y22138696D01*
X23451044Y22073808D01*
X23430021Y22002504D01*
X23425408Y21977350D01*
X23424093Y21962417D01*
X23422901Y21935505D01*
X23421843Y21897337D01*
X23420929Y21848633D01*
X23420168Y21790115D01*
X23419570Y21722505D01*
X23419145Y21646523D01*
X23418903Y21562892D01*
X23418847Y21500412D01*
X23418800Y21064749D01*
X23491164Y21016701D01*
X23520707Y21033308D01*
X23550250Y21049916D01*
X23562614Y21035796D01*
X23572719Y21024401D01*
X23579583Y21015363D01*
X23582322Y21007232D01*
X23580049Y20998563D01*
X23571880Y20987908D01*
X23556930Y20973820D01*
X23534313Y20954851D01*
X23503144Y20929555D01*
X23492216Y20920696D01*
X23458535Y20893452D01*
X23432997Y20873217D01*
X23413922Y20858951D01*
X23399632Y20849613D01*
X23388447Y20844161D01*
X23378688Y20841554D01*
X23368676Y20840751D01*
X23363204Y20840700D01*
X23346440Y20841430D01*
X23333848Y20844997D01*
X23321499Y20853466D01*
X23305468Y20868902D01*
X23301162Y20873328D01*
X23266801Y20905146D01*
X23235817Y20926308D01*
X23208889Y20936386D01*
X23199887Y20937220D01*
X23182949Y20934325D01*
X23160867Y20926872D01*
X23145549Y20919974D01*
X23111515Y20902727D01*
X23088063Y20930229D01*
X23064612Y20957731D01*
X23138518Y20999973D01*
X23212425Y21042215D01*
X23214051Y21532836D01*
X23214326Y21628259D01*
X23214468Y21711815D01*
X23214466Y21784337D01*
X23214310Y21846657D01*
X23213989Y21899610D01*
X23213492Y21944027D01*
X23212808Y21980741D01*
X23211927Y22010585D01*
X23210836Y22034392D01*
X23209527Y22052995D01*
X23207987Y22067226D01*
X23206990Y22073766D01*
X23198302Y22124075D01*
X23228539Y22139397D01*
X23258775Y22154719D01*
X23279610Y22107310D01*
X23289698Y22085412D01*
X23298203Y22068870D01*
X23303678Y22060437D01*
X23304526Y22059900D01*
X23309714Y22064787D01*
X23320032Y22077820D01*
X23333592Y22096564D01*
X23339165Y22104622D01*
X23354277Y22124625D01*
X23373692Y22147322D01*
X23395398Y22170709D01*
X23417384Y22192780D01*
X23437639Y22211531D01*
X23454150Y22224956D01*
X23464907Y22231051D01*
X23466174Y22231215D01*
X23473421Y22226353D01*
G37*
X23473421Y22226353D02*
X23484397Y22214147D01*
X23490539Y22205968D01*
X23508303Y22180856D01*
X23482876Y22138696D01*
X23451044Y22073808D01*
X23430021Y22002504D01*
X23425408Y21977350D01*
X23424093Y21962417D01*
X23422901Y21935505D01*
X23421843Y21897337D01*
X23420929Y21848633D01*
X23420168Y21790115D01*
X23419570Y21722505D01*
X23419145Y21646523D01*
X23418903Y21562892D01*
X23418847Y21500412D01*
X23418800Y21064749D01*
X23491164Y21016701D01*
X23520707Y21033308D01*
X23550250Y21049916D01*
X23562614Y21035796D01*
X23572719Y21024401D01*
X23579583Y21015363D01*
X23582322Y21007232D01*
X23580049Y20998563D01*
X23571880Y20987908D01*
X23556930Y20973820D01*
X23534313Y20954851D01*
X23503144Y20929555D01*
X23492216Y20920696D01*
X23458535Y20893452D01*
X23432997Y20873217D01*
X23413922Y20858951D01*
X23399632Y20849613D01*
X23388447Y20844161D01*
X23378688Y20841554D01*
X23368676Y20840751D01*
X23363204Y20840700D01*
X23346440Y20841430D01*
X23333848Y20844997D01*
X23321499Y20853466D01*
X23305468Y20868902D01*
X23301162Y20873328D01*
X23266801Y20905146D01*
X23235817Y20926308D01*
X23208889Y20936386D01*
X23199887Y20937220D01*
X23182949Y20934325D01*
X23160867Y20926872D01*
X23145549Y20919974D01*
X23111515Y20902727D01*
X23088063Y20930229D01*
X23064612Y20957731D01*
X23138518Y20999973D01*
X23212425Y21042215D01*
X23214051Y21532836D01*
X23214326Y21628259D01*
X23214468Y21711815D01*
X23214466Y21784337D01*
X23214310Y21846657D01*
X23213989Y21899610D01*
X23213492Y21944027D01*
X23212808Y21980741D01*
X23211927Y22010585D01*
X23210836Y22034392D01*
X23209527Y22052995D01*
X23207987Y22067226D01*
X23206990Y22073766D01*
X23198302Y22124075D01*
X23228539Y22139397D01*
X23258775Y22154719D01*
X23279610Y22107310D01*
X23289698Y22085412D01*
X23298203Y22068870D01*
X23303678Y22060437D01*
X23304526Y22059900D01*
X23309714Y22064787D01*
X23320032Y22077820D01*
X23333592Y22096564D01*
X23339165Y22104622D01*
X23354277Y22124625D01*
X23373692Y22147322D01*
X23395398Y22170709D01*
X23417384Y22192780D01*
X23437639Y22211531D01*
X23454150Y22224956D01*
X23464907Y22231051D01*
X23466174Y22231215D01*
X23473421Y22226353D01*
G36*
X22797937Y21690348D02*
G01*
X22810956Y21684059D01*
X22825908Y21671340D01*
X22844082Y21651415D01*
X22866768Y21623508D01*
X22895258Y21586843D01*
X22915091Y21561075D01*
X22945848Y21520983D01*
X22969641Y21489504D01*
X22987354Y21465264D01*
X22999867Y21446890D01*
X23008064Y21433008D01*
X23012826Y21422245D01*
X23015035Y21413226D01*
X23015575Y21404600D01*
X23015575Y21378651D01*
X22826662Y21270754D01*
X22637750Y21162856D01*
X22637750Y21082098D01*
X22713852Y21043949D01*
X22742292Y21029879D01*
X22766708Y21018149D01*
X22784842Y21009819D01*
X22794433Y21005948D01*
X22795189Y21005800D01*
X22802365Y21008662D01*
X22818575Y21016533D01*
X22841700Y21028343D01*
X22869625Y21043025D01*
X22882309Y21049808D01*
X22964194Y21093815D01*
X22984857Y21070445D01*
X22996930Y21055610D01*
X23004417Y21044134D01*
X23005607Y21040725D01*
X23000348Y21036056D01*
X22985422Y21025890D01*
X22962170Y21011061D01*
X22931933Y20992405D01*
X22896054Y20970756D01*
X22855872Y20946950D01*
X22839800Y20937538D01*
X22788518Y20907600D01*
X22746825Y20883627D01*
X22713256Y20865323D01*
X22686349Y20852394D01*
X22664640Y20844546D01*
X22646666Y20841485D01*
X22630964Y20842916D01*
X22616072Y20848544D01*
X22600525Y20858076D01*
X22582861Y20871217D01*
X22567900Y20882835D01*
X22536034Y20906336D01*
X22505740Y20926555D01*
X22479131Y20942232D01*
X22458326Y20952108D01*
X22446667Y20955000D01*
X22437390Y20952544D01*
X22420451Y20946135D01*
X22401582Y20938068D01*
X22363851Y20921135D01*
X22340780Y20944206D01*
X22328279Y20957637D01*
X22321195Y20967104D01*
X22320567Y20969728D01*
X22326701Y20974040D01*
X22341145Y20983856D01*
X22361636Y20997646D01*
X22382162Y21011378D01*
X22440900Y21050578D01*
X22440900Y21467890D01*
X22424494Y21478639D01*
X22408553Y21495043D01*
X22396206Y21518471D01*
X22391808Y21536848D01*
X22637750Y21536848D01*
X22637750Y21388425D01*
X22637884Y21339696D01*
X22638331Y21302462D01*
X22639157Y21275520D01*
X22640429Y21257667D01*
X22642212Y21247701D01*
X22644575Y21244417D01*
X22645687Y21244701D01*
X22653520Y21249505D01*
X22670154Y21259815D01*
X22693618Y21274406D01*
X22721944Y21292053D01*
X22744167Y21305918D01*
X22780398Y21329125D01*
X22807228Y21347604D01*
X22824113Y21360953D01*
X22830512Y21368768D01*
X22830385Y21369855D01*
X22825209Y21377065D01*
X22813520Y21392483D01*
X22796674Y21414348D01*
X22776026Y21440900D01*
X22756235Y21466175D01*
X22733695Y21494883D01*
X22714033Y21519942D01*
X22698528Y21539725D01*
X22688454Y21552601D01*
X22685091Y21556935D01*
X22679156Y21555664D01*
X22665936Y21550226D01*
X22660761Y21547822D01*
X22637750Y21536848D01*
X22391808Y21536848D01*
X22390270Y21543274D01*
X22390100Y21547648D01*
X22390845Y21555102D01*
X22394752Y21559922D01*
X22404330Y21563027D01*
X22422087Y21565332D01*
X22443594Y21567195D01*
X22506560Y21576368D01*
X22573243Y21593230D01*
X22639295Y21616320D01*
X22700370Y21644174D01*
X22739374Y21666714D01*
X22757568Y21678389D01*
X22772533Y21686738D01*
X22785559Y21690982D01*
X22797937Y21690348D01*
G37*
X22797937Y21690348D02*
X22810956Y21684059D01*
X22825908Y21671340D01*
X22844082Y21651415D01*
X22866768Y21623508D01*
X22895258Y21586843D01*
X22915091Y21561075D01*
X22945848Y21520983D01*
X22969641Y21489504D01*
X22987354Y21465264D01*
X22999867Y21446890D01*
X23008064Y21433008D01*
X23012826Y21422245D01*
X23015035Y21413226D01*
X23015575Y21404600D01*
X23015575Y21378651D01*
X22826662Y21270754D01*
X22637750Y21162856D01*
X22637750Y21082098D01*
X22713852Y21043949D01*
X22742292Y21029879D01*
X22766708Y21018149D01*
X22784842Y21009819D01*
X22794433Y21005948D01*
X22795189Y21005800D01*
X22802365Y21008662D01*
X22818575Y21016533D01*
X22841700Y21028343D01*
X22869625Y21043025D01*
X22882309Y21049808D01*
X22964194Y21093815D01*
X22984857Y21070445D01*
X22996930Y21055610D01*
X23004417Y21044134D01*
X23005607Y21040725D01*
X23000348Y21036056D01*
X22985422Y21025890D01*
X22962170Y21011061D01*
X22931933Y20992405D01*
X22896054Y20970756D01*
X22855872Y20946950D01*
X22839800Y20937538D01*
X22788518Y20907600D01*
X22746825Y20883627D01*
X22713256Y20865323D01*
X22686349Y20852394D01*
X22664640Y20844546D01*
X22646666Y20841485D01*
X22630964Y20842916D01*
X22616072Y20848544D01*
X22600525Y20858076D01*
X22582861Y20871217D01*
X22567900Y20882835D01*
X22536034Y20906336D01*
X22505740Y20926555D01*
X22479131Y20942232D01*
X22458326Y20952108D01*
X22446667Y20955000D01*
X22437390Y20952544D01*
X22420451Y20946135D01*
X22401582Y20938068D01*
X22363851Y20921135D01*
X22340780Y20944206D01*
X22328279Y20957637D01*
X22321195Y20967104D01*
X22320567Y20969728D01*
X22326701Y20974040D01*
X22341145Y20983856D01*
X22361636Y20997646D01*
X22382162Y21011378D01*
X22440900Y21050578D01*
X22440900Y21467890D01*
X22424494Y21478639D01*
X22408553Y21495043D01*
X22396206Y21518471D01*
X22391808Y21536848D01*
X22637750Y21536848D01*
X22637750Y21388425D01*
X22637884Y21339696D01*
X22638331Y21302462D01*
X22639157Y21275520D01*
X22640429Y21257667D01*
X22642212Y21247701D01*
X22644575Y21244417D01*
X22645687Y21244701D01*
X22653520Y21249505D01*
X22670154Y21259815D01*
X22693618Y21274406D01*
X22721944Y21292053D01*
X22744167Y21305918D01*
X22780398Y21329125D01*
X22807228Y21347604D01*
X22824113Y21360953D01*
X22830512Y21368768D01*
X22830385Y21369855D01*
X22825209Y21377065D01*
X22813520Y21392483D01*
X22796674Y21414348D01*
X22776026Y21440900D01*
X22756235Y21466175D01*
X22733695Y21494883D01*
X22714033Y21519942D01*
X22698528Y21539725D01*
X22688454Y21552601D01*
X22685091Y21556935D01*
X22679156Y21555664D01*
X22665936Y21550226D01*
X22660761Y21547822D01*
X22637750Y21536848D01*
X22391808Y21536848D01*
X22390270Y21543274D01*
X22390100Y21547648D01*
X22390845Y21555102D01*
X22394752Y21559922D01*
X22404330Y21563027D01*
X22422087Y21565332D01*
X22443594Y21567195D01*
X22506560Y21576368D01*
X22573243Y21593230D01*
X22639295Y21616320D01*
X22700370Y21644174D01*
X22739374Y21666714D01*
X22757568Y21678389D01*
X22772533Y21686738D01*
X22785559Y21690982D01*
X22797937Y21690348D01*
G36*
X21807543Y22188220D02*
G01*
X21781209Y22151444D01*
X21769000Y22133994D01*
X21758802Y22117851D01*
X21750419Y22101692D01*
X21743657Y22084198D01*
X21738321Y22064047D01*
X21734215Y22039916D01*
X21731145Y22010486D01*
X21728916Y21974434D01*
X21727332Y21930439D01*
X21726199Y21877180D01*
X21725323Y21813335D01*
X21724838Y21769388D01*
X21724340Y21713106D01*
X21724063Y21660969D01*
X21724001Y21614301D01*
X21724147Y21574426D01*
X21724494Y21542666D01*
X21725036Y21520346D01*
X21725765Y21508788D01*
X21726165Y21507450D01*
X21732308Y21510889D01*
X21747479Y21520568D01*
X21770242Y21535536D01*
X21799157Y21554840D01*
X21832788Y21577527D01*
X21864916Y21599379D01*
X21908610Y21628982D01*
X21943249Y21651875D01*
X21970072Y21668787D01*
X21990317Y21680451D01*
X22005220Y21687597D01*
X22016020Y21690955D01*
X22020904Y21691454D01*
X22033941Y21689509D01*
X22049836Y21682712D01*
X22070833Y21669874D01*
X22098400Y21650375D01*
X22124358Y21631825D01*
X22149438Y21614772D01*
X22170178Y21601527D01*
X22179937Y21595926D01*
X22205308Y21582702D01*
X22296678Y21636984D01*
X22317894Y21611905D01*
X22329940Y21597054D01*
X22337672Y21586350D01*
X22339205Y21583271D01*
X22334314Y21578536D01*
X22320881Y21568147D01*
X22300880Y21553569D01*
X22276281Y21536271D01*
X22272625Y21533745D01*
X22205950Y21487773D01*
X22205950Y21076297D01*
X22228175Y21059345D01*
X22241238Y21048236D01*
X22247844Y21037536D01*
X22250163Y21022257D01*
X22250400Y21008222D01*
X22250400Y20974050D01*
X22159912Y20973967D01*
X22110104Y20972983D01*
X22064867Y20969738D01*
X22021960Y20963648D01*
X21979141Y20954128D01*
X21934170Y20940594D01*
X21884806Y20922462D01*
X21828807Y20899146D01*
X21767161Y20871545D01*
X21740541Y20859452D01*
X21718438Y20849609D01*
X21703225Y20843061D01*
X21697311Y20840840D01*
X21691201Y20844078D01*
X21676875Y20852658D01*
X21656813Y20865079D01*
X21643975Y20873167D01*
X21598734Y20900505D01*
X21561386Y20920249D01*
X21532490Y20932130D01*
X21513463Y20935888D01*
X21498806Y20932229D01*
X21480268Y20922889D01*
X21471717Y20917172D01*
X21446183Y20898394D01*
X21422841Y20917635D01*
X21409130Y20929764D01*
X21400739Y20938780D01*
X21399505Y20941175D01*
X21404211Y20946513D01*
X21417065Y20958012D01*
X21436176Y20974051D01*
X21459658Y20993009D01*
X21463005Y20995661D01*
X21526500Y21045846D01*
X21526500Y21424393D01*
X21723350Y21424393D01*
X21723350Y21078582D01*
X21759862Y21058459D01*
X21785671Y21043364D01*
X21812733Y21026217D01*
X21827577Y21016093D01*
X21845526Y21003899D01*
X21857239Y20998414D01*
X21866493Y20998538D01*
X21875202Y21002207D01*
X21888596Y21007912D01*
X21910271Y21015975D01*
X21936379Y21024989D01*
X21947187Y21028541D01*
X22002750Y21046518D01*
X22002508Y21253172D01*
X22002267Y21459825D01*
X21943771Y21495115D01*
X21885275Y21530404D01*
X21804312Y21477399D01*
X21723350Y21424393D01*
X21526500Y21424393D01*
X21526500Y21535802D01*
X21526517Y21625916D01*
X21526537Y21704318D01*
X21526511Y21771996D01*
X21526391Y21829938D01*
X21526127Y21879132D01*
X21525672Y21920567D01*
X21524977Y21955230D01*
X21523993Y21984109D01*
X21522672Y22008193D01*
X21520966Y22028469D01*
X21518824Y22045926D01*
X21516200Y22061551D01*
X21513045Y22076333D01*
X21509310Y22091259D01*
X21504946Y22107318D01*
X21499905Y22125498D01*
X21497004Y22136100D01*
X21500417Y22145735D01*
X21513285Y22157572D01*
X21517468Y22160402D01*
X21540514Y22175179D01*
X21555840Y22160781D01*
X21567030Y22147206D01*
X21580052Y22127058D01*
X21589115Y22110464D01*
X21607064Y22074545D01*
X21640908Y22115171D01*
X21662631Y22139540D01*
X21688996Y22166677D01*
X21714828Y22191290D01*
X21718540Y22194616D01*
X21762327Y22233436D01*
X21807543Y22188220D01*
G37*
X21807543Y22188220D02*
X21781209Y22151444D01*
X21769000Y22133994D01*
X21758802Y22117851D01*
X21750419Y22101692D01*
X21743657Y22084198D01*
X21738321Y22064047D01*
X21734215Y22039916D01*
X21731145Y22010486D01*
X21728916Y21974434D01*
X21727332Y21930439D01*
X21726199Y21877180D01*
X21725323Y21813335D01*
X21724838Y21769388D01*
X21724340Y21713106D01*
X21724063Y21660969D01*
X21724001Y21614301D01*
X21724147Y21574426D01*
X21724494Y21542666D01*
X21725036Y21520346D01*
X21725765Y21508788D01*
X21726165Y21507450D01*
X21732308Y21510889D01*
X21747479Y21520568D01*
X21770242Y21535536D01*
X21799157Y21554840D01*
X21832788Y21577527D01*
X21864916Y21599379D01*
X21908610Y21628982D01*
X21943249Y21651875D01*
X21970072Y21668787D01*
X21990317Y21680451D01*
X22005220Y21687597D01*
X22016020Y21690955D01*
X22020904Y21691454D01*
X22033941Y21689509D01*
X22049836Y21682712D01*
X22070833Y21669874D01*
X22098400Y21650375D01*
X22124358Y21631825D01*
X22149438Y21614772D01*
X22170178Y21601527D01*
X22179937Y21595926D01*
X22205308Y21582702D01*
X22296678Y21636984D01*
X22317894Y21611905D01*
X22329940Y21597054D01*
X22337672Y21586350D01*
X22339205Y21583271D01*
X22334314Y21578536D01*
X22320881Y21568147D01*
X22300880Y21553569D01*
X22276281Y21536271D01*
X22272625Y21533745D01*
X22205950Y21487773D01*
X22205950Y21076297D01*
X22228175Y21059345D01*
X22241238Y21048236D01*
X22247844Y21037536D01*
X22250163Y21022257D01*
X22250400Y21008222D01*
X22250400Y20974050D01*
X22159912Y20973967D01*
X22110104Y20972983D01*
X22064867Y20969738D01*
X22021960Y20963648D01*
X21979141Y20954128D01*
X21934170Y20940594D01*
X21884806Y20922462D01*
X21828807Y20899146D01*
X21767161Y20871545D01*
X21740541Y20859452D01*
X21718438Y20849609D01*
X21703225Y20843061D01*
X21697311Y20840840D01*
X21691201Y20844078D01*
X21676875Y20852658D01*
X21656813Y20865079D01*
X21643975Y20873167D01*
X21598734Y20900505D01*
X21561386Y20920249D01*
X21532490Y20932130D01*
X21513463Y20935888D01*
X21498806Y20932229D01*
X21480268Y20922889D01*
X21471717Y20917172D01*
X21446183Y20898394D01*
X21422841Y20917635D01*
X21409130Y20929764D01*
X21400739Y20938780D01*
X21399505Y20941175D01*
X21404211Y20946513D01*
X21417065Y20958012D01*
X21436176Y20974051D01*
X21459658Y20993009D01*
X21463005Y20995661D01*
X21526500Y21045846D01*
X21526500Y21424393D01*
X21723350Y21424393D01*
X21723350Y21078582D01*
X21759862Y21058459D01*
X21785671Y21043364D01*
X21812733Y21026217D01*
X21827577Y21016093D01*
X21845526Y21003899D01*
X21857239Y20998414D01*
X21866493Y20998538D01*
X21875202Y21002207D01*
X21888596Y21007912D01*
X21910271Y21015975D01*
X21936379Y21024989D01*
X21947187Y21028541D01*
X22002750Y21046518D01*
X22002508Y21253172D01*
X22002267Y21459825D01*
X21943771Y21495115D01*
X21885275Y21530404D01*
X21804312Y21477399D01*
X21723350Y21424393D01*
X21526500Y21424393D01*
X21526500Y21535802D01*
X21526517Y21625916D01*
X21526537Y21704318D01*
X21526511Y21771996D01*
X21526391Y21829938D01*
X21526127Y21879132D01*
X21525672Y21920567D01*
X21524977Y21955230D01*
X21523993Y21984109D01*
X21522672Y22008193D01*
X21520966Y22028469D01*
X21518824Y22045926D01*
X21516200Y22061551D01*
X21513045Y22076333D01*
X21509310Y22091259D01*
X21504946Y22107318D01*
X21499905Y22125498D01*
X21497004Y22136100D01*
X21500417Y22145735D01*
X21513285Y22157572D01*
X21517468Y22160402D01*
X21540514Y22175179D01*
X21555840Y22160781D01*
X21567030Y22147206D01*
X21580052Y22127058D01*
X21589115Y22110464D01*
X21607064Y22074545D01*
X21640908Y22115171D01*
X21662631Y22139540D01*
X21688996Y22166677D01*
X21714828Y22191290D01*
X21718540Y22194616D01*
X21762327Y22233436D01*
X21807543Y22188220D01*
G36*
X21092568Y21696479D02*
G01*
X21103105Y21691342D01*
X21113573Y21682257D01*
X21117324Y21678414D01*
X21132385Y21664632D01*
X21152328Y21648986D01*
X21174111Y21633546D01*
X21194694Y21620385D01*
X21211036Y21611575D01*
X21219125Y21609051D01*
X21228711Y21612293D01*
X21245058Y21620742D01*
X21262244Y21631082D01*
X21296686Y21653114D01*
X21320460Y21624102D01*
X21332443Y21607668D01*
X21338437Y21595584D01*
X21337987Y21590957D01*
X21330996Y21585680D01*
X21316057Y21574004D01*
X21295128Y21557472D01*
X21270170Y21537629D01*
X21260522Y21529929D01*
X21189303Y21473033D01*
X21191214Y21271620D01*
X21191781Y21215575D01*
X21192367Y21170810D01*
X21193070Y21135907D01*
X21193986Y21109445D01*
X21195214Y21090007D01*
X21196850Y21076172D01*
X21198992Y21066522D01*
X21201736Y21059636D01*
X21205180Y21054097D01*
X21206217Y21052683D01*
X21225351Y21031111D01*
X21243612Y21017852D01*
X21259041Y21014131D01*
X21264772Y21016034D01*
X21276403Y21022991D01*
X21294101Y21033408D01*
X21305324Y21039958D01*
X21334973Y21057206D01*
X21353663Y21029916D01*
X21372353Y21002625D01*
X21265702Y20921663D01*
X21159051Y20840700D01*
X21123558Y20840700D01*
X21102965Y20841443D01*
X21088342Y20845086D01*
X21074573Y20853757D01*
X21058604Y20867688D01*
X21038883Y20887799D01*
X21020131Y20910222D01*
X21011121Y20922906D01*
X20993100Y20951137D01*
X20993100Y21473123D01*
X20968989Y21496666D01*
X20944879Y21520209D01*
X20914014Y21500636D01*
X20883150Y21481062D01*
X20858650Y21505562D01*
X20834149Y21530062D01*
X20947947Y21614006D01*
X20988880Y21643954D01*
X21021177Y21666696D01*
X21046267Y21682777D01*
X21065577Y21692739D01*
X21080535Y21697126D01*
X21092568Y21696479D01*
G37*
X21092568Y21696479D02*
X21103105Y21691342D01*
X21113573Y21682257D01*
X21117324Y21678414D01*
X21132385Y21664632D01*
X21152328Y21648986D01*
X21174111Y21633546D01*
X21194694Y21620385D01*
X21211036Y21611575D01*
X21219125Y21609051D01*
X21228711Y21612293D01*
X21245058Y21620742D01*
X21262244Y21631082D01*
X21296686Y21653114D01*
X21320460Y21624102D01*
X21332443Y21607668D01*
X21338437Y21595584D01*
X21337987Y21590957D01*
X21330996Y21585680D01*
X21316057Y21574004D01*
X21295128Y21557472D01*
X21270170Y21537629D01*
X21260522Y21529929D01*
X21189303Y21473033D01*
X21191214Y21271620D01*
X21191781Y21215575D01*
X21192367Y21170810D01*
X21193070Y21135907D01*
X21193986Y21109445D01*
X21195214Y21090007D01*
X21196850Y21076172D01*
X21198992Y21066522D01*
X21201736Y21059636D01*
X21205180Y21054097D01*
X21206217Y21052683D01*
X21225351Y21031111D01*
X21243612Y21017852D01*
X21259041Y21014131D01*
X21264772Y21016034D01*
X21276403Y21022991D01*
X21294101Y21033408D01*
X21305324Y21039958D01*
X21334973Y21057206D01*
X21353663Y21029916D01*
X21372353Y21002625D01*
X21265702Y20921663D01*
X21159051Y20840700D01*
X21123558Y20840700D01*
X21102965Y20841443D01*
X21088342Y20845086D01*
X21074573Y20853757D01*
X21058604Y20867688D01*
X21038883Y20887799D01*
X21020131Y20910222D01*
X21011121Y20922906D01*
X20993100Y20951137D01*
X20993100Y21473123D01*
X20968989Y21496666D01*
X20944879Y21520209D01*
X20914014Y21500636D01*
X20883150Y21481062D01*
X20858650Y21505562D01*
X20834149Y21530062D01*
X20947947Y21614006D01*
X20988880Y21643954D01*
X21021177Y21666696D01*
X21046267Y21682777D01*
X21065577Y21692739D01*
X21080535Y21697126D01*
X21092568Y21696479D01*
G36*
X20535784Y22294011D02*
G01*
X20546252Y22290137D01*
X20552614Y22281194D01*
X20554448Y22277011D01*
X20569987Y22255548D01*
X20595351Y22241411D01*
X20629721Y22235003D01*
X20640765Y22234649D01*
X20665383Y22235925D01*
X20687010Y22240956D01*
X20711397Y22251277D01*
X20720841Y22256008D01*
X20762727Y22277491D01*
X20782663Y22262752D01*
X20795439Y22251937D01*
X20802252Y22243503D01*
X20802600Y22242158D01*
X20799013Y22230072D01*
X20789472Y22210921D01*
X20775808Y22187675D01*
X20759850Y22163302D01*
X20743427Y22140773D01*
X20730847Y22125703D01*
X20696686Y22095399D01*
X20655642Y22070074D01*
X20612081Y22052050D01*
X20577987Y22044402D01*
X20542250Y22039937D01*
X20542250Y20789900D01*
X20508082Y20789900D01*
X20491954Y20790253D01*
X20479764Y20792418D01*
X20468481Y20798062D01*
X20455075Y20808848D01*
X20436515Y20826440D01*
X20430033Y20832763D01*
X20380712Y20885450D01*
X20328177Y20950275D01*
X20272519Y21027112D01*
X20213828Y21115836D01*
X20152194Y21216321D01*
X20151768Y21217040D01*
X20133815Y21247055D01*
X20120465Y21268113D01*
X20109926Y21282227D01*
X20100405Y21291412D01*
X20090109Y21297683D01*
X20077247Y21303054D01*
X20074215Y21304195D01*
X20016103Y21321705D01*
X19949851Y21334347D01*
X19879278Y21341520D01*
X19827875Y21342961D01*
X19792538Y21342311D01*
X19757867Y21340797D01*
X19727916Y21338647D01*
X19707225Y21336172D01*
X19686278Y21332745D01*
X19670566Y21330392D01*
X19664362Y21329687D01*
X19662930Y21323639D01*
X19661670Y21306772D01*
X19660652Y21280966D01*
X19659943Y21248102D01*
X19659614Y21210059D01*
X19659600Y21199763D01*
X19659600Y21069876D01*
X19683412Y21066195D01*
X19755577Y21049530D01*
X19823571Y21023049D01*
X19829353Y21020218D01*
X19875282Y20997307D01*
X19958538Y21053941D01*
X20041795Y21110575D01*
X20063328Y21085175D01*
X20075417Y21070324D01*
X20083147Y21059689D01*
X20084681Y21056600D01*
X20079635Y21052315D01*
X20065414Y21041654D01*
X20043258Y21025513D01*
X20014407Y21004783D01*
X19980101Y20980359D01*
X19941580Y20953133D01*
X19919402Y20937538D01*
X19754303Y20821650D01*
X19715268Y20821650D01*
X19694667Y20822501D01*
X19676170Y20825813D01*
X19655849Y20832730D01*
X19629777Y20844394D01*
X19618703Y20849743D01*
X19574969Y20869262D01*
X19536010Y20881922D01*
X19496774Y20888914D01*
X19452212Y20891430D01*
X19441546Y20891500D01*
X19381378Y20886687D01*
X19325380Y20872793D01*
X19275123Y20850637D01*
X19232174Y20821036D01*
X19198103Y20784811D01*
X19179908Y20755000D01*
X19170156Y20732076D01*
X19165076Y20710385D01*
X19163443Y20683919D01*
X19163442Y20674263D01*
X19167460Y20624707D01*
X19179205Y20584542D01*
X19199582Y20552444D01*
X19229498Y20527091D01*
X19269861Y20507159D01*
X19280641Y20503228D01*
X19309196Y20496655D01*
X19346733Y20492795D01*
X19389822Y20491677D01*
X19435032Y20493330D01*
X19478931Y20497782D01*
X19501010Y20501384D01*
X19525452Y20505351D01*
X19544957Y20507267D01*
X19556335Y20506866D01*
X19557791Y20506146D01*
X19562589Y20496625D01*
X19567882Y20480848D01*
X19572442Y20463451D01*
X19575044Y20449070D01*
X19574640Y20442475D01*
X19565401Y20438346D01*
X19546557Y20433219D01*
X19521105Y20427668D01*
X19492041Y20422268D01*
X19462364Y20417595D01*
X19435069Y20414223D01*
X19421475Y20413088D01*
X19388501Y20412233D01*
X19352265Y20413117D01*
X19322826Y20415337D01*
X19264155Y20426650D01*
X19211852Y20446110D01*
X19167119Y20472889D01*
X19131157Y20506160D01*
X19105168Y20545094D01*
X19094241Y20572875D01*
X19084759Y20623258D01*
X19083523Y20678548D01*
X19090142Y20734407D01*
X19104222Y20786500D01*
X19116089Y20814146D01*
X19148665Y20865221D01*
X19192070Y20912716D01*
X19244712Y20955683D01*
X19304995Y20993174D01*
X19371327Y21024242D01*
X19442112Y21047940D01*
X19515757Y21063319D01*
X19540537Y21066420D01*
X19577050Y21070214D01*
X19577050Y21407747D01*
X19659600Y21407747D01*
X19689762Y21412513D01*
X19741350Y21418672D01*
X19797150Y21421894D01*
X19854097Y21422268D01*
X19909127Y21419883D01*
X19959174Y21414828D01*
X20001174Y21407191D01*
X20016317Y21403036D01*
X20039800Y21396227D01*
X20052911Y21394074D01*
X20057067Y21396513D01*
X20055203Y21401246D01*
X20049993Y21409154D01*
X20039049Y21425508D01*
X20023761Y21448238D01*
X20005518Y21475277D01*
X19996540Y21488559D01*
X19973604Y21522799D01*
X19946673Y21563530D01*
X19918535Y21606505D01*
X19891977Y21647477D01*
X19881991Y21663025D01*
X19856633Y21702048D01*
X19848972Y21713578D01*
X20098709Y21713578D01*
X20101317Y21707871D01*
X20109851Y21693026D01*
X20123370Y21670591D01*
X20140937Y21642114D01*
X20161611Y21609141D01*
X20172461Y21592018D01*
X20217779Y21520673D01*
X20256808Y21459067D01*
X20290122Y21406252D01*
X20318296Y21361283D01*
X20341904Y21323212D01*
X20361522Y21291094D01*
X20377723Y21263981D01*
X20391084Y21240926D01*
X20402177Y21220984D01*
X20411579Y21203207D01*
X20419863Y21186649D01*
X20424775Y21176401D01*
X20456525Y21109174D01*
X20458172Y21420435D01*
X20458460Y21482036D01*
X20458653Y21539666D01*
X20458754Y21592101D01*
X20458764Y21638117D01*
X20458684Y21676488D01*
X20458515Y21705992D01*
X20458258Y21725402D01*
X20457915Y21733495D01*
X20457865Y21733652D01*
X20451489Y21732407D01*
X20436570Y21727287D01*
X20416254Y21719378D01*
X20414942Y21718842D01*
X20396983Y21712015D01*
X20380034Y21707173D01*
X20361105Y21703879D01*
X20337203Y21701697D01*
X20305336Y21700192D01*
X20281900Y21699454D01*
X20232801Y21698791D01*
X20193679Y21700021D01*
X20161934Y21703271D01*
X20145375Y21706238D01*
X20123307Y21710581D01*
X20106705Y21713231D01*
X20098876Y21713670D01*
X20098709Y21713578D01*
X19848972Y21713578D01*
X19828140Y21744926D01*
X19799404Y21787363D01*
X19773316Y21825066D01*
X19764126Y21838062D01*
X19742053Y21869093D01*
X19720458Y21899595D01*
X19701410Y21926638D01*
X19686976Y21947288D01*
X19683468Y21952362D01*
X19659711Y21986875D01*
X19659655Y21697311D01*
X19659600Y21407747D01*
X19577050Y21407747D01*
X19577050Y21455666D01*
X19556412Y21462151D01*
X19521322Y21470120D01*
X19484300Y21473493D01*
X19450729Y21471950D01*
X19437055Y21469271D01*
X19404379Y21457054D01*
X19382183Y21440110D01*
X19368650Y21416886D01*
X19366010Y21408470D01*
X19358515Y21380451D01*
X19283070Y21380451D01*
X19286857Y21436013D01*
X19296048Y21499677D01*
X19314323Y21554608D01*
X19341638Y21600720D01*
X19377951Y21637928D01*
X19394515Y21649989D01*
X19425853Y21667406D01*
X19458893Y21678390D01*
X19497464Y21683927D01*
X19531012Y21685095D01*
X19577050Y21685250D01*
X19577050Y22031418D01*
X19550062Y22047532D01*
X19492212Y22076670D01*
X19435256Y22094848D01*
X19380253Y22102004D01*
X19328258Y22098077D01*
X19280330Y22083004D01*
X19248745Y22065084D01*
X19226376Y22048787D01*
X19205086Y22031969D01*
X19191477Y22020094D01*
X19177997Y22008230D01*
X19167547Y22003945D01*
X19154244Y22005773D01*
X19144858Y22008467D01*
X19128628Y22014125D01*
X19121963Y22020068D01*
X19122062Y22029479D01*
X19122963Y22033341D01*
X19132769Y22060663D01*
X19148819Y22092979D01*
X19168679Y22126009D01*
X19189915Y22155474D01*
X19197631Y22164612D01*
X19218449Y22185305D01*
X19244870Y22207920D01*
X19271559Y22227925D01*
X19274400Y22229850D01*
X19334317Y22262936D01*
X19396240Y22283579D01*
X19459778Y22291808D01*
X19524543Y22287653D01*
X19590143Y22271141D01*
X19656190Y22242303D01*
X19722292Y22201167D01*
X19729450Y22195966D01*
X19766225Y22167092D01*
X19801812Y22135218D01*
X19837462Y22098932D01*
X19874430Y22056824D01*
X19913969Y22007481D01*
X19957333Y21949492D01*
X19994710Y21897218D01*
X20053368Y21813911D01*
X20105721Y21796410D01*
X20153041Y21784505D01*
X20207012Y21777402D01*
X20264195Y21775045D01*
X20321151Y21777381D01*
X20374444Y21784355D01*
X20420634Y21795914D01*
X20435887Y21801614D01*
X20459700Y21811602D01*
X20459700Y21925593D01*
X20459699Y22039584D01*
X20426362Y22047399D01*
X20401353Y22054468D01*
X20376755Y22063284D01*
X20368019Y22067082D01*
X20351378Y22074389D01*
X20339439Y22078569D01*
X20337167Y22078950D01*
X20330030Y22075519D01*
X20314642Y22066128D01*
X20293131Y22052137D01*
X20267628Y22034901D01*
X20262441Y22031325D01*
X20236496Y22013647D01*
X20214225Y21998961D01*
X20197728Y21988617D01*
X20189106Y21983965D01*
X20188518Y21983836D01*
X20181224Y21988773D01*
X20171461Y22000703D01*
X20161686Y22015730D01*
X20154358Y22029959D01*
X20151933Y22039492D01*
X20152541Y22040865D01*
X20158787Y22045875D01*
X20173925Y22057584D01*
X20196708Y22075042D01*
X20225891Y22097299D01*
X20260229Y22123402D01*
X20298475Y22152403D01*
X20322441Y22170541D01*
X20367666Y22204700D01*
X20404000Y22231952D01*
X20432663Y22253077D01*
X20454874Y22268854D01*
X20471853Y22280061D01*
X20484819Y22287479D01*
X20494990Y22291886D01*
X20503588Y22294063D01*
X20511830Y22294788D01*
X20516933Y22294850D01*
X20535784Y22294011D01*
G37*
X20535784Y22294011D02*
X20546252Y22290137D01*
X20552614Y22281194D01*
X20554448Y22277011D01*
X20569987Y22255548D01*
X20595351Y22241411D01*
X20629721Y22235003D01*
X20640765Y22234649D01*
X20665383Y22235925D01*
X20687010Y22240956D01*
X20711397Y22251277D01*
X20720841Y22256008D01*
X20762727Y22277491D01*
X20782663Y22262752D01*
X20795439Y22251937D01*
X20802252Y22243503D01*
X20802600Y22242158D01*
X20799013Y22230072D01*
X20789472Y22210921D01*
X20775808Y22187675D01*
X20759850Y22163302D01*
X20743427Y22140773D01*
X20730847Y22125703D01*
X20696686Y22095399D01*
X20655642Y22070074D01*
X20612081Y22052050D01*
X20577987Y22044402D01*
X20542250Y22039937D01*
X20542250Y20789900D01*
X20508082Y20789900D01*
X20491954Y20790253D01*
X20479764Y20792418D01*
X20468481Y20798062D01*
X20455075Y20808848D01*
X20436515Y20826440D01*
X20430033Y20832763D01*
X20380712Y20885450D01*
X20328177Y20950275D01*
X20272519Y21027112D01*
X20213828Y21115836D01*
X20152194Y21216321D01*
X20151768Y21217040D01*
X20133815Y21247055D01*
X20120465Y21268113D01*
X20109926Y21282227D01*
X20100405Y21291412D01*
X20090109Y21297683D01*
X20077247Y21303054D01*
X20074215Y21304195D01*
X20016103Y21321705D01*
X19949851Y21334347D01*
X19879278Y21341520D01*
X19827875Y21342961D01*
X19792538Y21342311D01*
X19757867Y21340797D01*
X19727916Y21338647D01*
X19707225Y21336172D01*
X19686278Y21332745D01*
X19670566Y21330392D01*
X19664362Y21329687D01*
X19662930Y21323639D01*
X19661670Y21306772D01*
X19660652Y21280966D01*
X19659943Y21248102D01*
X19659614Y21210059D01*
X19659600Y21199763D01*
X19659600Y21069876D01*
X19683412Y21066195D01*
X19755577Y21049530D01*
X19823571Y21023049D01*
X19829353Y21020218D01*
X19875282Y20997307D01*
X19958538Y21053941D01*
X20041795Y21110575D01*
X20063328Y21085175D01*
X20075417Y21070324D01*
X20083147Y21059689D01*
X20084681Y21056600D01*
X20079635Y21052315D01*
X20065414Y21041654D01*
X20043258Y21025513D01*
X20014407Y21004783D01*
X19980101Y20980359D01*
X19941580Y20953133D01*
X19919402Y20937538D01*
X19754303Y20821650D01*
X19715268Y20821650D01*
X19694667Y20822501D01*
X19676170Y20825813D01*
X19655849Y20832730D01*
X19629777Y20844394D01*
X19618703Y20849743D01*
X19574969Y20869262D01*
X19536010Y20881922D01*
X19496774Y20888914D01*
X19452212Y20891430D01*
X19441546Y20891500D01*
X19381378Y20886687D01*
X19325380Y20872793D01*
X19275123Y20850637D01*
X19232174Y20821036D01*
X19198103Y20784811D01*
X19179908Y20755000D01*
X19170156Y20732076D01*
X19165076Y20710385D01*
X19163443Y20683919D01*
X19163442Y20674263D01*
X19167460Y20624707D01*
X19179205Y20584542D01*
X19199582Y20552444D01*
X19229498Y20527091D01*
X19269861Y20507159D01*
X19280641Y20503228D01*
X19309196Y20496655D01*
X19346733Y20492795D01*
X19389822Y20491677D01*
X19435032Y20493330D01*
X19478931Y20497782D01*
X19501010Y20501384D01*
X19525452Y20505351D01*
X19544957Y20507267D01*
X19556335Y20506866D01*
X19557791Y20506146D01*
X19562589Y20496625D01*
X19567882Y20480848D01*
X19572442Y20463451D01*
X19575044Y20449070D01*
X19574640Y20442475D01*
X19565401Y20438346D01*
X19546557Y20433219D01*
X19521105Y20427668D01*
X19492041Y20422268D01*
X19462364Y20417595D01*
X19435069Y20414223D01*
X19421475Y20413088D01*
X19388501Y20412233D01*
X19352265Y20413117D01*
X19322826Y20415337D01*
X19264155Y20426650D01*
X19211852Y20446110D01*
X19167119Y20472889D01*
X19131157Y20506160D01*
X19105168Y20545094D01*
X19094241Y20572875D01*
X19084759Y20623258D01*
X19083523Y20678548D01*
X19090142Y20734407D01*
X19104222Y20786500D01*
X19116089Y20814146D01*
X19148665Y20865221D01*
X19192070Y20912716D01*
X19244712Y20955683D01*
X19304995Y20993174D01*
X19371327Y21024242D01*
X19442112Y21047940D01*
X19515757Y21063319D01*
X19540537Y21066420D01*
X19577050Y21070214D01*
X19577050Y21407747D01*
X19659600Y21407747D01*
X19689762Y21412513D01*
X19741350Y21418672D01*
X19797150Y21421894D01*
X19854097Y21422268D01*
X19909127Y21419883D01*
X19959174Y21414828D01*
X20001174Y21407191D01*
X20016317Y21403036D01*
X20039800Y21396227D01*
X20052911Y21394074D01*
X20057067Y21396513D01*
X20055203Y21401246D01*
X20049993Y21409154D01*
X20039049Y21425508D01*
X20023761Y21448238D01*
X20005518Y21475277D01*
X19996540Y21488559D01*
X19973604Y21522799D01*
X19946673Y21563530D01*
X19918535Y21606505D01*
X19891977Y21647477D01*
X19881991Y21663025D01*
X19856633Y21702048D01*
X19848972Y21713578D01*
X20098709Y21713578D01*
X20101317Y21707871D01*
X20109851Y21693026D01*
X20123370Y21670591D01*
X20140937Y21642114D01*
X20161611Y21609141D01*
X20172461Y21592018D01*
X20217779Y21520673D01*
X20256808Y21459067D01*
X20290122Y21406252D01*
X20318296Y21361283D01*
X20341904Y21323212D01*
X20361522Y21291094D01*
X20377723Y21263981D01*
X20391084Y21240926D01*
X20402177Y21220984D01*
X20411579Y21203207D01*
X20419863Y21186649D01*
X20424775Y21176401D01*
X20456525Y21109174D01*
X20458172Y21420435D01*
X20458460Y21482036D01*
X20458653Y21539666D01*
X20458754Y21592101D01*
X20458764Y21638117D01*
X20458684Y21676488D01*
X20458515Y21705992D01*
X20458258Y21725402D01*
X20457915Y21733495D01*
X20457865Y21733652D01*
X20451489Y21732407D01*
X20436570Y21727287D01*
X20416254Y21719378D01*
X20414942Y21718842D01*
X20396983Y21712015D01*
X20380034Y21707173D01*
X20361105Y21703879D01*
X20337203Y21701697D01*
X20305336Y21700192D01*
X20281900Y21699454D01*
X20232801Y21698791D01*
X20193679Y21700021D01*
X20161934Y21703271D01*
X20145375Y21706238D01*
X20123307Y21710581D01*
X20106705Y21713231D01*
X20098876Y21713670D01*
X20098709Y21713578D01*
X19848972Y21713578D01*
X19828140Y21744926D01*
X19799404Y21787363D01*
X19773316Y21825066D01*
X19764126Y21838062D01*
X19742053Y21869093D01*
X19720458Y21899595D01*
X19701410Y21926638D01*
X19686976Y21947288D01*
X19683468Y21952362D01*
X19659711Y21986875D01*
X19659655Y21697311D01*
X19659600Y21407747D01*
X19577050Y21407747D01*
X19577050Y21455666D01*
X19556412Y21462151D01*
X19521322Y21470120D01*
X19484300Y21473493D01*
X19450729Y21471950D01*
X19437055Y21469271D01*
X19404379Y21457054D01*
X19382183Y21440110D01*
X19368650Y21416886D01*
X19366010Y21408470D01*
X19358515Y21380451D01*
X19283070Y21380451D01*
X19286857Y21436013D01*
X19296048Y21499677D01*
X19314323Y21554608D01*
X19341638Y21600720D01*
X19377951Y21637928D01*
X19394515Y21649989D01*
X19425853Y21667406D01*
X19458893Y21678390D01*
X19497464Y21683927D01*
X19531012Y21685095D01*
X19577050Y21685250D01*
X19577050Y22031418D01*
X19550062Y22047532D01*
X19492212Y22076670D01*
X19435256Y22094848D01*
X19380253Y22102004D01*
X19328258Y22098077D01*
X19280330Y22083004D01*
X19248745Y22065084D01*
X19226376Y22048787D01*
X19205086Y22031969D01*
X19191477Y22020094D01*
X19177997Y22008230D01*
X19167547Y22003945D01*
X19154244Y22005773D01*
X19144858Y22008467D01*
X19128628Y22014125D01*
X19121963Y22020068D01*
X19122062Y22029479D01*
X19122963Y22033341D01*
X19132769Y22060663D01*
X19148819Y22092979D01*
X19168679Y22126009D01*
X19189915Y22155474D01*
X19197631Y22164612D01*
X19218449Y22185305D01*
X19244870Y22207920D01*
X19271559Y22227925D01*
X19274400Y22229850D01*
X19334317Y22262936D01*
X19396240Y22283579D01*
X19459778Y22291808D01*
X19524543Y22287653D01*
X19590143Y22271141D01*
X19656190Y22242303D01*
X19722292Y22201167D01*
X19729450Y22195966D01*
X19766225Y22167092D01*
X19801812Y22135218D01*
X19837462Y22098932D01*
X19874430Y22056824D01*
X19913969Y22007481D01*
X19957333Y21949492D01*
X19994710Y21897218D01*
X20053368Y21813911D01*
X20105721Y21796410D01*
X20153041Y21784505D01*
X20207012Y21777402D01*
X20264195Y21775045D01*
X20321151Y21777381D01*
X20374444Y21784355D01*
X20420634Y21795914D01*
X20435887Y21801614D01*
X20459700Y21811602D01*
X20459700Y21925593D01*
X20459699Y22039584D01*
X20426362Y22047399D01*
X20401353Y22054468D01*
X20376755Y22063284D01*
X20368019Y22067082D01*
X20351378Y22074389D01*
X20339439Y22078569D01*
X20337167Y22078950D01*
X20330030Y22075519D01*
X20314642Y22066128D01*
X20293131Y22052137D01*
X20267628Y22034901D01*
X20262441Y22031325D01*
X20236496Y22013647D01*
X20214225Y21998961D01*
X20197728Y21988617D01*
X20189106Y21983965D01*
X20188518Y21983836D01*
X20181224Y21988773D01*
X20171461Y22000703D01*
X20161686Y22015730D01*
X20154358Y22029959D01*
X20151933Y22039492D01*
X20152541Y22040865D01*
X20158787Y22045875D01*
X20173925Y22057584D01*
X20196708Y22075042D01*
X20225891Y22097299D01*
X20260229Y22123402D01*
X20298475Y22152403D01*
X20322441Y22170541D01*
X20367666Y22204700D01*
X20404000Y22231952D01*
X20432663Y22253077D01*
X20454874Y22268854D01*
X20471853Y22280061D01*
X20484819Y22287479D01*
X20494990Y22291886D01*
X20503588Y22294063D01*
X20511830Y22294788D01*
X20516933Y22294850D01*
X20535784Y22294011D01*
G36*
X26319832Y21690484D02*
G01*
X26332772Y21686430D01*
X26349101Y21678386D01*
X26370856Y21665297D01*
X26400077Y21646110D01*
X26412642Y21637625D01*
X26445806Y21615872D01*
X26473746Y21599034D01*
X26494878Y21588006D01*
X26507617Y21583680D01*
X26508287Y21583650D01*
X26523042Y21586490D01*
X26543203Y21593754D01*
X26555700Y21599525D01*
X26573463Y21608267D01*
X26586162Y21614033D01*
X26590108Y21615400D01*
X26595117Y21610625D01*
X26604674Y21598360D01*
X26612274Y21587661D01*
X26631359Y21559922D01*
X26574656Y21519399D01*
X26517954Y21478875D01*
X26517777Y21242926D01*
X26517600Y21006976D01*
X26557743Y20966701D01*
X26591821Y20927966D01*
X26615279Y20889613D01*
X26629649Y20848333D01*
X26636465Y20800818D01*
X26636766Y20796019D01*
X26635489Y20739786D01*
X26624287Y20690387D01*
X26602407Y20646125D01*
X26569094Y20605302D01*
X26540534Y20579463D01*
X26523204Y20567140D01*
X26497213Y20551113D01*
X26464249Y20532224D01*
X26425999Y20511317D01*
X26384149Y20489235D01*
X26340387Y20466822D01*
X26296400Y20444922D01*
X26253874Y20424377D01*
X26214498Y20406031D01*
X26179958Y20390728D01*
X26151941Y20379310D01*
X26132134Y20372622D01*
X26123964Y20371207D01*
X26111120Y20372834D01*
X26099309Y20378535D01*
X26085550Y20390327D01*
X26067810Y20409169D01*
X26040230Y20436225D01*
X26007739Y20462616D01*
X25973894Y20485825D01*
X25942250Y20503337D01*
X25924734Y20510412D01*
X25880681Y20518105D01*
X25835924Y20513249D01*
X25802655Y20501531D01*
X25765992Y20484747D01*
X25743333Y20503086D01*
X25729757Y20515333D01*
X25721667Y20525062D01*
X25720675Y20527696D01*
X25725304Y20533145D01*
X25738493Y20545942D01*
X25759186Y20565132D01*
X25786332Y20589761D01*
X25812316Y20613005D01*
X25906018Y20613005D01*
X25933996Y20619749D01*
X25952819Y20622761D01*
X25979821Y20625183D01*
X26010483Y20626660D01*
X26025475Y20626931D01*
X26090945Y20622773D01*
X26149773Y20608842D01*
X26204255Y20584386D01*
X26250900Y20553199D01*
X26279475Y20531127D01*
X26346687Y20564790D01*
X26375510Y20579818D01*
X26402085Y20594733D01*
X26423168Y20607652D01*
X26434278Y20615601D01*
X26459178Y20643284D01*
X26474254Y20674911D01*
X26478680Y20707907D01*
X26473021Y20736264D01*
X26466266Y20747119D01*
X26452418Y20764644D01*
X26433392Y20786559D01*
X26411103Y20810581D01*
X26407365Y20814465D01*
X26380209Y20842875D01*
X26360467Y20864810D01*
X26346505Y20882704D01*
X26336687Y20898993D01*
X26329379Y20916114D01*
X26322947Y20936501D01*
X26321123Y20942971D01*
X26311225Y20978567D01*
X26123900Y20810953D01*
X26082076Y20773494D01*
X26042731Y20738182D01*
X26006984Y20706031D01*
X25975958Y20678050D01*
X25950771Y20655251D01*
X25932547Y20638646D01*
X25922405Y20629246D01*
X25921296Y20628172D01*
X25906018Y20613005D01*
X25812316Y20613005D01*
X25818879Y20618875D01*
X25855772Y20651519D01*
X25895961Y20686740D01*
X25900157Y20690399D01*
X25940653Y20725768D01*
X25978033Y20758556D01*
X26011235Y20787823D01*
X26039199Y20812627D01*
X26060863Y20832025D01*
X26075166Y20845078D01*
X26081048Y20850842D01*
X26081132Y20850983D01*
X26076364Y20855347D01*
X26061850Y20863288D01*
X26039731Y20873910D01*
X26012148Y20886318D01*
X25981241Y20899616D01*
X25949150Y20912908D01*
X25918018Y20925300D01*
X25889983Y20935896D01*
X25867188Y20943799D01*
X25851772Y20948116D01*
X25847661Y20948650D01*
X25827637Y20945294D01*
X25806679Y20937065D01*
X25804017Y20935576D01*
X25781858Y20922502D01*
X25756029Y20939595D01*
X25741117Y20950239D01*
X25731969Y20958270D01*
X25730563Y20960607D01*
X25735332Y20965944D01*
X25748021Y20977508D01*
X25766659Y20993559D01*
X25787713Y21011077D01*
X25844500Y21057628D01*
X25844500Y21464348D01*
X25827855Y21477440D01*
X25809678Y21498548D01*
X25807716Y21502978D01*
X26044525Y21502978D01*
X26044525Y21086404D01*
X26146125Y21049735D01*
X26179638Y21037655D01*
X26208735Y21027196D01*
X26231425Y21019072D01*
X26245719Y21013995D01*
X26249760Y21012608D01*
X26255260Y21016132D01*
X26267645Y21025791D01*
X26283187Y21038620D01*
X26314577Y21065089D01*
X26312901Y21261128D01*
X26311225Y21457168D01*
X26232422Y21491834D01*
X26202301Y21504652D01*
X26175414Y21515294D01*
X26154350Y21522793D01*
X26141699Y21526179D01*
X26140347Y21526277D01*
X26127525Y21524494D01*
X26107156Y21520059D01*
X26085800Y21514516D01*
X26044525Y21502978D01*
X25807716Y21502978D01*
X25797436Y21526179D01*
X25793700Y21550717D01*
X25793700Y21568991D01*
X25893712Y21573100D01*
X25980237Y21579270D01*
X26056860Y21590427D01*
X26125492Y21606897D01*
X26162000Y21618871D01*
X26189800Y21630226D01*
X26218234Y21643964D01*
X26244346Y21658423D01*
X26265183Y21671941D01*
X26277788Y21682859D01*
X26279149Y21684724D01*
X26287708Y21689138D01*
X26303622Y21691484D01*
X26308240Y21691600D01*
X26319832Y21690484D01*
G37*
X26319832Y21690484D02*
X26332772Y21686430D01*
X26349101Y21678386D01*
X26370856Y21665297D01*
X26400077Y21646110D01*
X26412642Y21637625D01*
X26445806Y21615872D01*
X26473746Y21599034D01*
X26494878Y21588006D01*
X26507617Y21583680D01*
X26508287Y21583650D01*
X26523042Y21586490D01*
X26543203Y21593754D01*
X26555700Y21599525D01*
X26573463Y21608267D01*
X26586162Y21614033D01*
X26590108Y21615400D01*
X26595117Y21610625D01*
X26604674Y21598360D01*
X26612274Y21587661D01*
X26631359Y21559922D01*
X26574656Y21519399D01*
X26517954Y21478875D01*
X26517777Y21242926D01*
X26517600Y21006976D01*
X26557743Y20966701D01*
X26591821Y20927966D01*
X26615279Y20889613D01*
X26629649Y20848333D01*
X26636465Y20800818D01*
X26636766Y20796019D01*
X26635489Y20739786D01*
X26624287Y20690387D01*
X26602407Y20646125D01*
X26569094Y20605302D01*
X26540534Y20579463D01*
X26523204Y20567140D01*
X26497213Y20551113D01*
X26464249Y20532224D01*
X26425999Y20511317D01*
X26384149Y20489235D01*
X26340387Y20466822D01*
X26296400Y20444922D01*
X26253874Y20424377D01*
X26214498Y20406031D01*
X26179958Y20390728D01*
X26151941Y20379310D01*
X26132134Y20372622D01*
X26123964Y20371207D01*
X26111120Y20372834D01*
X26099309Y20378535D01*
X26085550Y20390327D01*
X26067810Y20409169D01*
X26040230Y20436225D01*
X26007739Y20462616D01*
X25973894Y20485825D01*
X25942250Y20503337D01*
X25924734Y20510412D01*
X25880681Y20518105D01*
X25835924Y20513249D01*
X25802655Y20501531D01*
X25765992Y20484747D01*
X25743333Y20503086D01*
X25729757Y20515333D01*
X25721667Y20525062D01*
X25720675Y20527696D01*
X25725304Y20533145D01*
X25738493Y20545942D01*
X25759186Y20565132D01*
X25786332Y20589761D01*
X25812316Y20613005D01*
X25906018Y20613005D01*
X25933996Y20619749D01*
X25952819Y20622761D01*
X25979821Y20625183D01*
X26010483Y20626660D01*
X26025475Y20626931D01*
X26090945Y20622773D01*
X26149773Y20608842D01*
X26204255Y20584386D01*
X26250900Y20553199D01*
X26279475Y20531127D01*
X26346687Y20564790D01*
X26375510Y20579818D01*
X26402085Y20594733D01*
X26423168Y20607652D01*
X26434278Y20615601D01*
X26459178Y20643284D01*
X26474254Y20674911D01*
X26478680Y20707907D01*
X26473021Y20736264D01*
X26466266Y20747119D01*
X26452418Y20764644D01*
X26433392Y20786559D01*
X26411103Y20810581D01*
X26407365Y20814465D01*
X26380209Y20842875D01*
X26360467Y20864810D01*
X26346505Y20882704D01*
X26336687Y20898993D01*
X26329379Y20916114D01*
X26322947Y20936501D01*
X26321123Y20942971D01*
X26311225Y20978567D01*
X26123900Y20810953D01*
X26082076Y20773494D01*
X26042731Y20738182D01*
X26006984Y20706031D01*
X25975958Y20678050D01*
X25950771Y20655251D01*
X25932547Y20638646D01*
X25922405Y20629246D01*
X25921296Y20628172D01*
X25906018Y20613005D01*
X25812316Y20613005D01*
X25818879Y20618875D01*
X25855772Y20651519D01*
X25895961Y20686740D01*
X25900157Y20690399D01*
X25940653Y20725768D01*
X25978033Y20758556D01*
X26011235Y20787823D01*
X26039199Y20812627D01*
X26060863Y20832025D01*
X26075166Y20845078D01*
X26081048Y20850842D01*
X26081132Y20850983D01*
X26076364Y20855347D01*
X26061850Y20863288D01*
X26039731Y20873910D01*
X26012148Y20886318D01*
X25981241Y20899616D01*
X25949150Y20912908D01*
X25918018Y20925300D01*
X25889983Y20935896D01*
X25867188Y20943799D01*
X25851772Y20948116D01*
X25847661Y20948650D01*
X25827637Y20945294D01*
X25806679Y20937065D01*
X25804017Y20935576D01*
X25781858Y20922502D01*
X25756029Y20939595D01*
X25741117Y20950239D01*
X25731969Y20958270D01*
X25730563Y20960607D01*
X25735332Y20965944D01*
X25748021Y20977508D01*
X25766659Y20993559D01*
X25787713Y21011077D01*
X25844500Y21057628D01*
X25844500Y21464348D01*
X25827855Y21477440D01*
X25809678Y21498548D01*
X25807716Y21502978D01*
X26044525Y21502978D01*
X26044525Y21086404D01*
X26146125Y21049735D01*
X26179638Y21037655D01*
X26208735Y21027196D01*
X26231425Y21019072D01*
X26245719Y21013995D01*
X26249760Y21012608D01*
X26255260Y21016132D01*
X26267645Y21025791D01*
X26283187Y21038620D01*
X26314577Y21065089D01*
X26312901Y21261128D01*
X26311225Y21457168D01*
X26232422Y21491834D01*
X26202301Y21504652D01*
X26175414Y21515294D01*
X26154350Y21522793D01*
X26141699Y21526179D01*
X26140347Y21526277D01*
X26127525Y21524494D01*
X26107156Y21520059D01*
X26085800Y21514516D01*
X26044525Y21502978D01*
X25807716Y21502978D01*
X25797436Y21526179D01*
X25793700Y21550717D01*
X25793700Y21568991D01*
X25893712Y21573100D01*
X25980237Y21579270D01*
X26056860Y21590427D01*
X26125492Y21606897D01*
X26162000Y21618871D01*
X26189800Y21630226D01*
X26218234Y21643964D01*
X26244346Y21658423D01*
X26265183Y21671941D01*
X26277788Y21682859D01*
X26279149Y21684724D01*
X26287708Y21689138D01*
X26303622Y21691484D01*
X26308240Y21691600D01*
X26319832Y21690484D01*
D17*
X1196000Y13156000D02*
X-4000Y13156000D01*
X-4000Y13156000D02*
X-4000Y13656000D01*
X-4000Y18856000D02*
X-4000Y19356000D01*
X-4000Y19356000D02*
X3196000Y19356000D01*
X5796000Y19356000D02*
X14696000Y19356000D01*
X14696000Y19356000D02*
X14696000Y18606000D01*
X14696000Y15406000D02*
X14696000Y13156000D01*
X14696000Y13156000D02*
X13496000Y13156000D01*
X10296000Y13156000D02*
X3796000Y13156000D01*
X1196000Y13156000D02*
X1196000Y11156000D01*
X3796000Y13156000D02*
X3796000Y11156000D01*
X3780000Y467100D02*
X31780000Y467100D01*
X3780000Y7307100D02*
X31780000Y7307100D01*
X3780000Y17100D02*
X31780000Y17100D01*
X3780000Y7307100D02*
X3780000Y17100D01*
X31780000Y7307100D02*
X31780000Y17100D01*
X31780000Y32044900D02*
X3780000Y32044900D01*
X31780000Y25204900D02*
X3780000Y25204900D01*
X31780000Y32494900D02*
X3780000Y32494900D01*
X31780000Y25204900D02*
X31780000Y32494900D01*
X3780000Y25204900D02*
X3780000Y32494900D01*
D18*
X-63500Y7302500D02*
X-63500Y9969500D01*
X-63500Y9969500D02*
X35623500Y9969500D01*
X35623500Y9969500D02*
X35623500Y7302500D01*
X35623500Y7302500D02*
X-63500Y7302500D01*
X-63500Y22542500D02*
X-63500Y25209500D01*
X-63500Y25209500D02*
X35623500Y25209500D01*
X35623500Y25209500D02*
X35623500Y22542500D01*
X35623500Y22542500D02*
X-63500Y22542500D01*
D19*
X310000Y6461000D02*
X310000Y3601000D01*
X310000Y3601000D02*
X2230000Y3601000D01*
X2230000Y3601000D02*
X2230000Y6461000D01*
X33330000Y6461000D02*
X33330000Y3601000D01*
X33330000Y3601000D02*
X35250000Y3601000D01*
X35250000Y3601000D02*
X35250000Y6461000D01*
X35250000Y26051000D02*
X35250000Y28911000D01*
X35250000Y28911000D02*
X33330000Y28911000D01*
X33330000Y28911000D02*
X33330000Y26051000D01*
X2230000Y26051000D02*
X2230000Y28911000D01*
X2230000Y28911000D02*
X310000Y28911000D01*
X310000Y28911000D02*
X310000Y26051000D01*
X21744000Y11930748D02*
X21744000Y12453252D01*
X23214000Y11930748D02*
X23214000Y12453252D01*
X35066200Y12916000D02*
X35066200Y19596000D01*
X28846200Y20296000D02*
X28846200Y19016000D01*
X27246200Y20296000D02*
X28846200Y20296000D01*
X27246200Y21316000D02*
X27246200Y20296000D01*
X31496200Y21316000D02*
X27246200Y21316000D01*
X28846200Y13496000D02*
X25956200Y13496000D01*
X28846200Y12216000D02*
X28846200Y13496000D01*
X27246200Y12216000D02*
X28846200Y12216000D01*
X27246200Y11196000D02*
X27246200Y12216000D01*
X31496200Y11196000D02*
X27246200Y11196000D01*
X16663936Y20420000D02*
X17118064Y20420000D01*
X16663936Y18950000D02*
X17118064Y18950000D01*
X21182000Y16737064D02*
X21182000Y16282936D01*
X19712000Y16737064D02*
X19712000Y16282936D01*
X17680000Y16282936D02*
X17680000Y16737064D01*
X19150000Y16282936D02*
X19150000Y16737064D01*
X8355064Y20093000D02*
X7900936Y20093000D01*
X8355064Y21563000D02*
X7900936Y21563000D01*
X19712000Y11964936D02*
X19712000Y12419064D01*
X21182000Y11964936D02*
X21182000Y12419064D01*
X17680000Y12419064D02*
X17680000Y11964936D01*
X19150000Y12419064D02*
X19150000Y11964936D01*
X7339064Y10949000D02*
X6884936Y10949000D01*
X7339064Y12419000D02*
X6884936Y12419000D01*
X23214000Y16771252D02*
X23214000Y16248748D01*
X21744000Y16771252D02*
X21744000Y16248748D01*
X12707252Y20093000D02*
X12184748Y20093000D01*
X12707252Y21563000D02*
X12184748Y21563000D01*
X15628252Y10949000D02*
X15105748Y10949000D01*
X15628252Y12419000D02*
X15105748Y12419000D01*
X6900333Y16603739D02*
X6900333Y16150167D01*
X6870095Y16059453D01*
X6809619Y15998977D01*
X6718904Y15968739D01*
X6658428Y15968739D01*
X7172476Y16543262D02*
X7202714Y16573500D01*
X7263190Y16603739D01*
X7414380Y16603739D01*
X7474857Y16573500D01*
X7505095Y16543262D01*
X7535333Y16482786D01*
X7535333Y16422310D01*
X7505095Y16331596D01*
X7142238Y15968739D01*
X7535333Y15968739D01*
X22373166Y14124215D02*
X22342928Y14093977D01*
X22252214Y14063739D01*
X22191738Y14063739D01*
X22101023Y14093977D01*
X22040547Y14154453D01*
X22010309Y14214929D01*
X21980071Y14335881D01*
X21980071Y14426596D01*
X22010309Y14547548D01*
X22040547Y14608024D01*
X22101023Y14668500D01*
X22191738Y14698739D01*
X22252214Y14698739D01*
X22342928Y14668500D01*
X22373166Y14638262D01*
X22917452Y14698739D02*
X22796500Y14698739D01*
X22736023Y14668500D01*
X22705785Y14638262D01*
X22645309Y14547548D01*
X22615071Y14426596D01*
X22615071Y14184691D01*
X22645309Y14124215D01*
X22675547Y14093977D01*
X22736023Y14063739D01*
X22856976Y14063739D01*
X22917452Y14093977D01*
X22947690Y14124215D01*
X22977928Y14184691D01*
X22977928Y14335881D01*
X22947690Y14396358D01*
X22917452Y14426596D01*
X22856976Y14456834D01*
X22736023Y14456834D01*
X22675547Y14426596D01*
X22645309Y14396358D01*
X22615071Y14335881D01*
X30462461Y16044334D02*
X30916033Y16044334D01*
X31006747Y16014096D01*
X31067223Y15953620D01*
X31097461Y15862905D01*
X31097461Y15802429D01*
X31097461Y16679334D02*
X31097461Y16316477D01*
X31097461Y16497905D02*
X30462461Y16497905D01*
X30553176Y16437429D01*
X30613652Y16376953D01*
X30643890Y16316477D01*
X16531166Y20667739D02*
X16319500Y20970120D01*
X16168309Y20667739D02*
X16168309Y21302739D01*
X16410214Y21302739D01*
X16470690Y21272500D01*
X16500928Y21242262D01*
X16531166Y21181786D01*
X16531166Y21091072D01*
X16500928Y21030596D01*
X16470690Y21000358D01*
X16410214Y20970120D01*
X16168309Y20970120D01*
X16773071Y21242262D02*
X16803309Y21272500D01*
X16863785Y21302739D01*
X17014976Y21302739D01*
X17075452Y21272500D01*
X17105690Y21242262D01*
X17135928Y21181786D01*
X17135928Y21121310D01*
X17105690Y21030596D01*
X16742833Y20667739D01*
X17135928Y20667739D01*
X20341166Y18381739D02*
X20129500Y18684120D01*
X19978309Y18381739D02*
X19978309Y19016739D01*
X20220214Y19016739D01*
X20280690Y18986500D01*
X20310928Y18956262D01*
X20341166Y18895786D01*
X20341166Y18805072D01*
X20310928Y18744596D01*
X20280690Y18714358D01*
X20220214Y18684120D01*
X19978309Y18684120D01*
X20704023Y18744596D02*
X20643547Y18774834D01*
X20613309Y18805072D01*
X20583071Y18865548D01*
X20583071Y18895786D01*
X20613309Y18956262D01*
X20643547Y18986500D01*
X20704023Y19016739D01*
X20824976Y19016739D01*
X20885452Y18986500D01*
X20915690Y18956262D01*
X20945928Y18895786D01*
X20945928Y18865548D01*
X20915690Y18805072D01*
X20885452Y18774834D01*
X20824976Y18744596D01*
X20704023Y18744596D01*
X20643547Y18714358D01*
X20613309Y18684120D01*
X20583071Y18623643D01*
X20583071Y18502691D01*
X20613309Y18442215D01*
X20643547Y18411977D01*
X20704023Y18381739D01*
X20824976Y18381739D01*
X20885452Y18411977D01*
X20915690Y18442215D01*
X20945928Y18502691D01*
X20945928Y18623643D01*
X20915690Y18684120D01*
X20885452Y18714358D01*
X20824976Y18744596D01*
X16785166Y14698739D02*
X16573500Y15001120D01*
X16422309Y14698739D02*
X16422309Y15333739D01*
X16664214Y15333739D01*
X16724690Y15303500D01*
X16754928Y15273262D01*
X16785166Y15212786D01*
X16785166Y15122072D01*
X16754928Y15061596D01*
X16724690Y15031358D01*
X16664214Y15001120D01*
X16422309Y15001120D01*
X16996833Y15333739D02*
X17420166Y15333739D01*
X17148023Y14698739D01*
X5609166Y21556739D02*
X5397500Y21859120D01*
X5246309Y21556739D02*
X5246309Y22191739D01*
X5488214Y22191739D01*
X5548690Y22161500D01*
X5578928Y22131262D01*
X5609166Y22070786D01*
X5609166Y21980072D01*
X5578928Y21919596D01*
X5548690Y21889358D01*
X5488214Y21859120D01*
X5246309Y21859120D01*
X6153452Y22191739D02*
X6032500Y22191739D01*
X5972023Y22161500D01*
X5941785Y22131262D01*
X5881309Y22040548D01*
X5851071Y21919596D01*
X5851071Y21677691D01*
X5881309Y21617215D01*
X5911547Y21586977D01*
X5972023Y21556739D01*
X6092976Y21556739D01*
X6153452Y21586977D01*
X6183690Y21617215D01*
X6213928Y21677691D01*
X6213928Y21828881D01*
X6183690Y21889358D01*
X6153452Y21919596D01*
X6092976Y21949834D01*
X5972023Y21949834D01*
X5911547Y21919596D01*
X5881309Y21889358D01*
X5851071Y21828881D01*
X20341166Y14016239D02*
X20129500Y14318620D01*
X19978309Y14016239D02*
X19978309Y14651239D01*
X20220214Y14651239D01*
X20280690Y14621000D01*
X20310928Y14590762D01*
X20341166Y14530286D01*
X20341166Y14439572D01*
X20310928Y14379096D01*
X20280690Y14348858D01*
X20220214Y14318620D01*
X19978309Y14318620D01*
X20915690Y14651239D02*
X20613309Y14651239D01*
X20583071Y14348858D01*
X20613309Y14379096D01*
X20673785Y14409334D01*
X20824976Y14409334D01*
X20885452Y14379096D01*
X20915690Y14348858D01*
X20945928Y14288381D01*
X20945928Y14137191D01*
X20915690Y14076715D01*
X20885452Y14046477D01*
X20824976Y14016239D01*
X20673785Y14016239D01*
X20613309Y14046477D01*
X20583071Y14076715D01*
X16785166Y13301739D02*
X16573500Y13604120D01*
X16422309Y13301739D02*
X16422309Y13936739D01*
X16664214Y13936739D01*
X16724690Y13906500D01*
X16754928Y13876262D01*
X16785166Y13815786D01*
X16785166Y13725072D01*
X16754928Y13664596D01*
X16724690Y13634358D01*
X16664214Y13604120D01*
X16422309Y13604120D01*
X17329452Y13725072D02*
X17329452Y13301739D01*
X17178261Y13966977D02*
X17027071Y13513405D01*
X17420166Y13513405D01*
X4593166Y11396739D02*
X4381500Y11699120D01*
X4230309Y11396739D02*
X4230309Y12031739D01*
X4472214Y12031739D01*
X4532690Y12001500D01*
X4562928Y11971262D01*
X4593166Y11910786D01*
X4593166Y11820072D01*
X4562928Y11759596D01*
X4532690Y11729358D01*
X4472214Y11699120D01*
X4230309Y11699120D01*
X4804833Y12031739D02*
X5197928Y12031739D01*
X4986261Y11789834D01*
X5076976Y11789834D01*
X5137452Y11759596D01*
X5167690Y11729358D01*
X5197928Y11668881D01*
X5197928Y11517691D01*
X5167690Y11457215D01*
X5137452Y11426977D01*
X5076976Y11396739D01*
X4895547Y11396739D01*
X4835071Y11426977D01*
X4804833Y11457215D01*
X22373166Y18442215D02*
X22342928Y18411977D01*
X22252214Y18381739D01*
X22191738Y18381739D01*
X22101023Y18411977D01*
X22040547Y18472453D01*
X22010309Y18532929D01*
X21980071Y18653881D01*
X21980071Y18744596D01*
X22010309Y18865548D01*
X22040547Y18926024D01*
X22101023Y18986500D01*
X22191738Y19016739D01*
X22252214Y19016739D01*
X22342928Y18986500D01*
X22373166Y18956262D01*
X22736023Y18744596D02*
X22675547Y18774834D01*
X22645309Y18805072D01*
X22615071Y18865548D01*
X22615071Y18895786D01*
X22645309Y18956262D01*
X22675547Y18986500D01*
X22736023Y19016739D01*
X22856976Y19016739D01*
X22917452Y18986500D01*
X22947690Y18956262D01*
X22977928Y18895786D01*
X22977928Y18865548D01*
X22947690Y18805072D01*
X22917452Y18774834D01*
X22856976Y18744596D01*
X22736023Y18744596D01*
X22675547Y18714358D01*
X22645309Y18684120D01*
X22615071Y18623643D01*
X22615071Y18502691D01*
X22645309Y18442215D01*
X22675547Y18411977D01*
X22736023Y18381739D01*
X22856976Y18381739D01*
X22917452Y18411977D01*
X22947690Y18442215D01*
X22977928Y18502691D01*
X22977928Y18623643D01*
X22947690Y18684120D01*
X22917452Y18714358D01*
X22856976Y18744596D01*
X14753166Y20982215D02*
X14722928Y20951977D01*
X14632214Y20921739D01*
X14571738Y20921739D01*
X14481023Y20951977D01*
X14420547Y21012453D01*
X14390309Y21072929D01*
X14360071Y21193881D01*
X14360071Y21284596D01*
X14390309Y21405548D01*
X14420547Y21466024D01*
X14481023Y21526500D01*
X14571738Y21556739D01*
X14632214Y21556739D01*
X14722928Y21526500D01*
X14753166Y21496262D01*
X14964833Y21556739D02*
X15388166Y21556739D01*
X15116023Y20921739D01*
X15388166Y12854215D02*
X15357928Y12823977D01*
X15267214Y12793739D01*
X15206738Y12793739D01*
X15116023Y12823977D01*
X15055547Y12884453D01*
X15025309Y12944929D01*
X14995071Y13065881D01*
X14995071Y13156596D01*
X15025309Y13277548D01*
X15055547Y13338024D01*
X15116023Y13398500D01*
X15206738Y13428739D01*
X15267214Y13428739D01*
X15357928Y13398500D01*
X15388166Y13368262D01*
X15962690Y13428739D02*
X15660309Y13428739D01*
X15630071Y13126358D01*
X15660309Y13156596D01*
X15720785Y13186834D01*
X15871976Y13186834D01*
X15932452Y13156596D01*
X15962690Y13126358D01*
X15992928Y13065881D01*
X15992928Y12914691D01*
X15962690Y12854215D01*
X15932452Y12823977D01*
X15871976Y12793739D01*
X15720785Y12793739D01*
X15660309Y12823977D01*
X15630071Y12854215D01*
M02*
