G04 #@! TF.GenerationSoftware,KiCad,Pcbnew,(5.1.9)-1*
G04 #@! TF.CreationDate,2021-03-27T20:31:15-07:00*
G04 #@! TF.ProjectId,nibelung,6e696265-6c75-46e6-972e-6b696361645f,rev?*
G04 #@! TF.SameCoordinates,PX621abf0PY7065700*
G04 #@! TF.FileFunction,Legend,Bot*
G04 #@! TF.FilePolarity,Positive*
%FSLAX46Y46*%
G04 Gerber Fmt 4.6, Leading zero omitted, Abs format (unit mm)*
G04 Created by KiCad (PCBNEW (5.1.9)-1) date 2021-03-27 20:31:15*
%MOMM*%
%LPD*%
G01*
G04 APERTURE LIST*
%ADD10C,0.152400*%
%ADD11C,0.190500*%
%ADD12C,0.203200*%
%ADD13C,1.524000*%
%ADD14C,0.254000*%
%ADD15C,2.032000*%
%ADD16C,0.010000*%
%ADD17C,0.120000*%
%ADD18C,0.127000*%
%ADD19C,0.190500*%
G04 APERTURE END LIST*
%LPD*%
D10*
X23845761Y9901767D02*
X23845761Y10612967D01*
X23603857Y10612967D01*
X23458714Y10579100D01*
X23361952Y10511367D01*
X23313571Y10443634D01*
X23265190Y10308167D01*
X23265190Y10206567D01*
X23313571Y10071100D01*
X23361952Y10003367D01*
X23458714Y9935634D01*
X23603857Y9901767D01*
X23845761Y9901767D01*
X22636238Y10612967D02*
X22442714Y10612967D01*
X22345952Y10579100D01*
X22249190Y10511367D01*
X22200809Y10375900D01*
X22200809Y10138834D01*
X22249190Y10003367D01*
X22345952Y9935634D01*
X22442714Y9901767D01*
X22636238Y9901767D01*
X22733000Y9935634D01*
X22829761Y10003367D01*
X22878142Y10138834D01*
X22878142Y10375900D01*
X22829761Y10511367D01*
X22733000Y10579100D01*
X22636238Y10612967D01*
X20991285Y9901767D02*
X20991285Y10612967D01*
X20410714Y9901767D01*
X20410714Y10612967D01*
X19733380Y10612967D02*
X19539857Y10612967D01*
X19443095Y10579100D01*
X19346333Y10511367D01*
X19297952Y10375900D01*
X19297952Y10138834D01*
X19346333Y10003367D01*
X19443095Y9935634D01*
X19539857Y9901767D01*
X19733380Y9901767D01*
X19830142Y9935634D01*
X19926904Y10003367D01*
X19975285Y10138834D01*
X19975285Y10375900D01*
X19926904Y10511367D01*
X19830142Y10579100D01*
X19733380Y10612967D01*
X19007666Y10612967D02*
X18427095Y10612967D01*
X18717380Y9901767D02*
X18717380Y10612967D01*
X16782142Y10579100D02*
X16878904Y10612967D01*
X17024047Y10612967D01*
X17169190Y10579100D01*
X17265952Y10511367D01*
X17314333Y10443634D01*
X17362714Y10308167D01*
X17362714Y10206567D01*
X17314333Y10071100D01*
X17265952Y10003367D01*
X17169190Y9935634D01*
X17024047Y9901767D01*
X16927285Y9901767D01*
X16782142Y9935634D01*
X16733761Y9969500D01*
X16733761Y10206567D01*
X16927285Y10206567D01*
X16104809Y10612967D02*
X15911285Y10612967D01*
X15814523Y10579100D01*
X15717761Y10511367D01*
X15669380Y10375900D01*
X15669380Y10138834D01*
X15717761Y10003367D01*
X15814523Y9935634D01*
X15911285Y9901767D01*
X16104809Y9901767D01*
X16201571Y9935634D01*
X16298333Y10003367D01*
X16346714Y10138834D01*
X16346714Y10375900D01*
X16298333Y10511367D01*
X16201571Y10579100D01*
X16104809Y10612967D01*
X13927666Y10579100D02*
X14024428Y10612967D01*
X14169571Y10612967D01*
X14314714Y10579100D01*
X14411476Y10511367D01*
X14459857Y10443634D01*
X14508238Y10308167D01*
X14508238Y10206567D01*
X14459857Y10071100D01*
X14411476Y10003367D01*
X14314714Y9935634D01*
X14169571Y9901767D01*
X14072809Y9901767D01*
X13927666Y9935634D01*
X13879285Y9969500D01*
X13879285Y10206567D01*
X14072809Y10206567D01*
X13443857Y10274300D02*
X13105190Y10274300D01*
X12960047Y9901767D02*
X13443857Y9901767D01*
X13443857Y10612967D01*
X12960047Y10612967D01*
X12524619Y9901767D02*
X12524619Y10612967D01*
X11944047Y9901767D01*
X11944047Y10612967D01*
X11605380Y10612967D02*
X11024809Y10612967D01*
X11315095Y9901767D02*
X11315095Y10612967D01*
X10202333Y9901767D02*
X10686142Y9901767D01*
X10686142Y10612967D01*
X9863666Y10274300D02*
X9525000Y10274300D01*
X9379857Y9901767D02*
X9863666Y9901767D01*
X9863666Y10612967D01*
X9379857Y10612967D01*
X29337000Y11532810D02*
X29306761Y11593286D01*
X29306761Y11684000D01*
X29337000Y11774715D01*
X29397476Y11835191D01*
X29457952Y11865429D01*
X29578904Y11895667D01*
X29669619Y11895667D01*
X29790571Y11865429D01*
X29851047Y11835191D01*
X29911523Y11774715D01*
X29941761Y11684000D01*
X29941761Y11623524D01*
X29911523Y11532810D01*
X29881285Y11502572D01*
X29669619Y11502572D01*
X29669619Y11623524D01*
X29941761Y11230429D02*
X29306761Y11230429D01*
X29941761Y10867572D01*
X29306761Y10867572D01*
X29941761Y10565191D02*
X29306761Y10565191D01*
X29306761Y10414000D01*
X29337000Y10323286D01*
X29397476Y10262810D01*
X29457952Y10232572D01*
X29578904Y10202334D01*
X29669619Y10202334D01*
X29790571Y10232572D01*
X29851047Y10262810D01*
X29911523Y10323286D01*
X29941761Y10414000D01*
X29941761Y10565191D01*
X7402285Y7148286D02*
X7837714Y7148286D01*
X7620000Y7148286D02*
X7620000Y7910286D01*
X7692571Y7801429D01*
X7765142Y7728858D01*
X7837714Y7692572D01*
X5116285Y7910286D02*
X5043714Y7910286D01*
X4971142Y7874000D01*
X4934857Y7837715D01*
X4898571Y7765143D01*
X4862285Y7620000D01*
X4862285Y7438572D01*
X4898571Y7293429D01*
X4934857Y7220858D01*
X4971142Y7184572D01*
X5043714Y7148286D01*
X5116285Y7148286D01*
X5188857Y7184572D01*
X5225142Y7220858D01*
X5261428Y7293429D01*
X5297714Y7438572D01*
X5297714Y7620000D01*
X5261428Y7765143D01*
X5225142Y7837715D01*
X5188857Y7874000D01*
X5116285Y7910286D01*
X25520952Y7148286D02*
X25883809Y7148286D01*
X25702380Y7148286D02*
X25702380Y7910286D01*
X25762857Y7801429D01*
X25823333Y7728858D01*
X25883809Y7692572D01*
X25127857Y7910286D02*
X25067380Y7910286D01*
X25006904Y7874000D01*
X24976666Y7837715D01*
X24946428Y7765143D01*
X24916190Y7620000D01*
X24916190Y7438572D01*
X24946428Y7293429D01*
X24976666Y7220858D01*
X25006904Y7184572D01*
X25067380Y7148286D01*
X25127857Y7148286D01*
X25188333Y7184572D01*
X25218571Y7220858D01*
X25248809Y7293429D01*
X25279047Y7438572D01*
X25279047Y7620000D01*
X25248809Y7765143D01*
X25218571Y7837715D01*
X25188333Y7874000D01*
X25127857Y7910286D01*
X28060952Y7148286D02*
X28423809Y7148286D01*
X28242380Y7148286D02*
X28242380Y7910286D01*
X28302857Y7801429D01*
X28363333Y7728858D01*
X28423809Y7692572D01*
X27456190Y7148286D02*
X27819047Y7148286D01*
X27637619Y7148286D02*
X27637619Y7910286D01*
X27698095Y7801429D01*
X27758571Y7728858D01*
X27819047Y7692572D01*
X30600952Y7148286D02*
X30963809Y7148286D01*
X30782380Y7148286D02*
X30782380Y7910286D01*
X30842857Y7801429D01*
X30903333Y7728858D01*
X30963809Y7692572D01*
X30359047Y7837715D02*
X30328809Y7874000D01*
X30268333Y7910286D01*
X30117142Y7910286D01*
X30056666Y7874000D01*
X30026428Y7837715D01*
X29996190Y7765143D01*
X29996190Y7692572D01*
X30026428Y7583715D01*
X30389285Y7148286D01*
X29996190Y7148286D01*
X22980952Y24674286D02*
X23343809Y24674286D01*
X23162380Y24674286D02*
X23162380Y25436286D01*
X23222857Y25327429D01*
X23283333Y25254858D01*
X23343809Y25218572D01*
X22618095Y25109715D02*
X22678571Y25146000D01*
X22708809Y25182286D01*
X22739047Y25254858D01*
X22739047Y25291143D01*
X22708809Y25363715D01*
X22678571Y25400000D01*
X22618095Y25436286D01*
X22497142Y25436286D01*
X22436666Y25400000D01*
X22406428Y25363715D01*
X22376190Y25291143D01*
X22376190Y25254858D01*
X22406428Y25182286D01*
X22436666Y25146000D01*
X22497142Y25109715D01*
X22618095Y25109715D01*
X22678571Y25073429D01*
X22708809Y25037143D01*
X22739047Y24964572D01*
X22739047Y24819429D01*
X22708809Y24746858D01*
X22678571Y24710572D01*
X22618095Y24674286D01*
X22497142Y24674286D01*
X22436666Y24710572D01*
X22406428Y24746858D01*
X22376190Y24819429D01*
X22376190Y24964572D01*
X22406428Y25037143D01*
X22436666Y25073429D01*
X22497142Y25109715D01*
X30600952Y24674286D02*
X30963809Y24674286D01*
X30782380Y24674286D02*
X30782380Y25436286D01*
X30842857Y25327429D01*
X30903333Y25254858D01*
X30963809Y25218572D01*
X30389285Y25436286D02*
X29996190Y25436286D01*
X30207857Y25146000D01*
X30117142Y25146000D01*
X30056666Y25109715D01*
X30026428Y25073429D01*
X29996190Y25000858D01*
X29996190Y24819429D01*
X30026428Y24746858D01*
X30056666Y24710572D01*
X30117142Y24674286D01*
X30298571Y24674286D01*
X30359047Y24710572D01*
X30389285Y24746858D01*
D11*
X11865428Y15149286D02*
X11393714Y15149286D01*
X11647714Y14859000D01*
X11538857Y14859000D01*
X11466285Y14822715D01*
X11430000Y14786429D01*
X11393714Y14713858D01*
X11393714Y14532429D01*
X11430000Y14459858D01*
X11466285Y14423572D01*
X11538857Y14387286D01*
X11756571Y14387286D01*
X11829142Y14423572D01*
X11865428Y14459858D01*
X11176000Y15149286D02*
X10922000Y14387286D01*
X10668000Y15149286D01*
X10486571Y15149286D02*
X10014857Y15149286D01*
X10268857Y14859000D01*
X10160000Y14859000D01*
X10087428Y14822715D01*
X10051142Y14786429D01*
X10014857Y14713858D01*
X10014857Y14532429D01*
X10051142Y14459858D01*
X10087428Y14423572D01*
X10160000Y14387286D01*
X10377714Y14387286D01*
X10450285Y14423572D01*
X10486571Y14459858D01*
D10*
X29306761Y13455953D02*
X29306761Y13758334D01*
X29609142Y13788572D01*
X29578904Y13758334D01*
X29548666Y13697858D01*
X29548666Y13546667D01*
X29578904Y13486191D01*
X29609142Y13455953D01*
X29669619Y13425715D01*
X29820809Y13425715D01*
X29881285Y13455953D01*
X29911523Y13486191D01*
X29941761Y13546667D01*
X29941761Y13697858D01*
X29911523Y13758334D01*
X29881285Y13788572D01*
X29306761Y13244286D02*
X29941761Y13032620D01*
X29306761Y12820953D01*
X29306761Y16104810D02*
X29306761Y15741953D01*
X29941761Y15923381D02*
X29306761Y15923381D01*
X29306761Y15590762D02*
X29941761Y15167429D01*
X29306761Y15167429D02*
X29941761Y15590762D01*
X29941761Y18012834D02*
X29639380Y18224500D01*
X29941761Y18375691D02*
X29306761Y18375691D01*
X29306761Y18133786D01*
X29337000Y18073310D01*
X29367238Y18043072D01*
X29427714Y18012834D01*
X29518428Y18012834D01*
X29578904Y18043072D01*
X29609142Y18073310D01*
X29639380Y18133786D01*
X29639380Y18375691D01*
X29306761Y17801167D02*
X29941761Y17377834D01*
X29306761Y17377834D02*
X29941761Y17801167D01*
D12*
X25218571Y25829381D02*
X25218571Y26845381D01*
X24879904Y26119667D01*
X24541238Y26845381D01*
X24541238Y25829381D01*
X24057428Y25829381D02*
X24057428Y26845381D01*
X22993047Y25926143D02*
X23041428Y25877762D01*
X23186571Y25829381D01*
X23283333Y25829381D01*
X23428476Y25877762D01*
X23525238Y25974524D01*
X23573619Y26071286D01*
X23622000Y26264810D01*
X23622000Y26409953D01*
X23573619Y26603477D01*
X23525238Y26700239D01*
X23428476Y26797000D01*
X23283333Y26845381D01*
X23186571Y26845381D01*
X23041428Y26797000D01*
X22993047Y26748620D01*
D11*
X7747000Y25563286D02*
X7493000Y24801286D01*
X7239000Y25563286D01*
X4753428Y25527000D02*
X4826000Y25563286D01*
X4934857Y25563286D01*
X5043714Y25527000D01*
X5116285Y25454429D01*
X5152571Y25381858D01*
X5188857Y25236715D01*
X5188857Y25127858D01*
X5152571Y24982715D01*
X5116285Y24910143D01*
X5043714Y24837572D01*
X4934857Y24801286D01*
X4862285Y24801286D01*
X4753428Y24837572D01*
X4717142Y24873858D01*
X4717142Y25127858D01*
X4862285Y25127858D01*
D13*
X8280000Y31452500D02*
X9780000Y31452500D01*
X15280000Y31452500D02*
X16780000Y31452500D01*
X22280000Y31452500D02*
X23780000Y31452500D01*
X29280000Y31452500D02*
X30780000Y31452500D01*
X25780000Y1079500D02*
X27280000Y1079500D01*
X18780000Y1079500D02*
X20280000Y1079500D01*
X4780000Y1079500D02*
X6280000Y1079500D01*
X11780000Y1079500D02*
X13280000Y1079500D01*
D14*
X30150952Y1167191D02*
X30271904Y1227667D01*
X30332380Y1288143D01*
X30392857Y1409096D01*
X30392857Y1469572D01*
X30332380Y1590524D01*
X30271904Y1651000D01*
X30150952Y1711477D01*
X29909047Y1711477D01*
X29788095Y1651000D01*
X29727619Y1590524D01*
X29667142Y1469572D01*
X29667142Y1409096D01*
X29727619Y1288143D01*
X29788095Y1227667D01*
X29909047Y1167191D01*
X30150952Y1167191D01*
X30271904Y1106715D01*
X30332380Y1046239D01*
X30392857Y925286D01*
X30392857Y683381D01*
X30332380Y562429D01*
X30271904Y501953D01*
X30150952Y441477D01*
X29909047Y441477D01*
X29788095Y501953D01*
X29727619Y562429D01*
X29667142Y683381D01*
X29667142Y925286D01*
X29727619Y1046239D01*
X29788095Y1106715D01*
X29909047Y1167191D01*
X23453333Y1711477D02*
X22606666Y1711477D01*
X23150952Y441477D01*
X15788095Y1711477D02*
X16030000Y1711477D01*
X16150952Y1651000D01*
X16211428Y1590524D01*
X16332380Y1409096D01*
X16392857Y1167191D01*
X16392857Y683381D01*
X16332380Y562429D01*
X16271904Y501953D01*
X16150952Y441477D01*
X15909047Y441477D01*
X15788095Y501953D01*
X15727619Y562429D01*
X15667142Y683381D01*
X15667142Y985762D01*
X15727619Y1106715D01*
X15788095Y1167191D01*
X15909047Y1227667D01*
X16150952Y1227667D01*
X16271904Y1167191D01*
X16332380Y1106715D01*
X16392857Y985762D01*
X8714619Y1711477D02*
X9319380Y1711477D01*
X9379857Y1106715D01*
X9319380Y1167191D01*
X9198428Y1227667D01*
X8896047Y1227667D01*
X8775095Y1167191D01*
X8714619Y1106715D01*
X8654142Y985762D01*
X8654142Y683381D01*
X8714619Y562429D01*
X8775095Y501953D01*
X8896047Y441477D01*
X9198428Y441477D01*
X9319380Y501953D01*
X9379857Y562429D01*
X26288095Y31641143D02*
X26288095Y30794477D01*
X26590476Y32124953D02*
X26892857Y31217810D01*
X26106666Y31217810D01*
X12892857Y31943524D02*
X12832380Y32004000D01*
X12711428Y32064477D01*
X12409047Y32064477D01*
X12288095Y32004000D01*
X12227619Y31943524D01*
X12167142Y31822572D01*
X12167142Y31701620D01*
X12227619Y31520191D01*
X12953333Y30794477D01*
X12167142Y30794477D01*
X5167142Y30794477D02*
X5892857Y30794477D01*
X5530000Y30794477D02*
X5530000Y32064477D01*
X5650952Y31883048D01*
X5771904Y31762096D01*
X5892857Y31701620D01*
X19953333Y32064477D02*
X19167142Y32064477D01*
X19590476Y31580667D01*
X19409047Y31580667D01*
X19288095Y31520191D01*
X19227619Y31459715D01*
X19167142Y31338762D01*
X19167142Y31036381D01*
X19227619Y30915429D01*
X19288095Y30854953D01*
X19409047Y30794477D01*
X19771904Y30794477D01*
X19892857Y30854953D01*
X19953333Y30915429D01*
D11*
X6858000Y19866429D02*
X6858000Y19503572D01*
X7075714Y19939000D02*
X6313714Y19685000D01*
X7075714Y19431000D01*
D15*
X6223000Y17018000D02*
X6223000Y15494000D01*
D11*
X6676571Y13661572D02*
X6712857Y13552715D01*
X6749142Y13516429D01*
X6821714Y13480143D01*
X6930571Y13480143D01*
X7003142Y13516429D01*
X7039428Y13552715D01*
X7075714Y13625286D01*
X7075714Y13915572D01*
X6313714Y13915572D01*
X6313714Y13661572D01*
X6350000Y13589000D01*
X6386285Y13552715D01*
X6458857Y13516429D01*
X6531428Y13516429D01*
X6604000Y13552715D01*
X6640285Y13589000D01*
X6676571Y13661572D01*
X6676571Y13915572D01*
X6350000Y11484429D02*
X6313714Y11557000D01*
X6313714Y11665858D01*
X6350000Y11774715D01*
X6422571Y11847286D01*
X6495142Y11883572D01*
X6640285Y11919858D01*
X6749142Y11919858D01*
X6894285Y11883572D01*
X6966857Y11847286D01*
X7039428Y11774715D01*
X7075714Y11665858D01*
X7075714Y11593286D01*
X7039428Y11484429D01*
X7003142Y11448143D01*
X6749142Y11448143D01*
X6749142Y11593286D01*
X6858000Y12881429D02*
X6858000Y12518572D01*
X7075714Y12954000D02*
X6313714Y12700000D01*
X7075714Y12446000D01*
X6676571Y20519572D02*
X6712857Y20410715D01*
X6749142Y20374429D01*
X6821714Y20338143D01*
X6930571Y20338143D01*
X7003142Y20374429D01*
X7039428Y20410715D01*
X7075714Y20483286D01*
X7075714Y20773572D01*
X6313714Y20773572D01*
X6313714Y20519572D01*
X6350000Y20447000D01*
X6386285Y20410715D01*
X6458857Y20374429D01*
X6531428Y20374429D01*
X6604000Y20410715D01*
X6640285Y20447000D01*
X6676571Y20519572D01*
X6676571Y20773572D01*
X6350000Y18596429D02*
X6313714Y18669000D01*
X6313714Y18777858D01*
X6350000Y18886715D01*
X6422571Y18959286D01*
X6495142Y18995572D01*
X6640285Y19031858D01*
X6749142Y19031858D01*
X6894285Y18995572D01*
X6966857Y18959286D01*
X7039428Y18886715D01*
X7075714Y18777858D01*
X7075714Y18705286D01*
X7039428Y18596429D01*
X7003142Y18560143D01*
X6749142Y18560143D01*
X6749142Y18705286D01*
D16*
G36*
X28479727Y11770189D02*
G01*
X28435086Y11762405D01*
X28395636Y11745172D01*
X28360934Y11718157D01*
X28330539Y11681028D01*
X28307167Y11640061D01*
X28292243Y11606028D01*
X28278008Y11566162D01*
X28264264Y11519627D01*
X28250811Y11465588D01*
X28237449Y11403207D01*
X28223978Y11331651D01*
X28210198Y11250083D01*
X28203012Y11204525D01*
X28197506Y11169951D01*
X28192394Y11139863D01*
X28187964Y11115787D01*
X28184502Y11099253D01*
X28182295Y11091788D01*
X28181851Y11091636D01*
X28179811Y11097889D01*
X28174952Y11114033D01*
X28167552Y11139101D01*
X28157892Y11172130D01*
X28146254Y11212155D01*
X28132917Y11258210D01*
X28118163Y11309332D01*
X28102271Y11364555D01*
X28086728Y11418711D01*
X28069908Y11477067D01*
X28053800Y11532345D01*
X28038700Y11583560D01*
X28024908Y11629728D01*
X28012722Y11669867D01*
X28002440Y11702991D01*
X27994362Y11728117D01*
X27988785Y11744262D01*
X27986132Y11750322D01*
X27982194Y11753736D01*
X27975947Y11756269D01*
X27965835Y11758048D01*
X27950301Y11759203D01*
X27927787Y11759860D01*
X27896737Y11760148D01*
X27866151Y11760200D01*
X27826869Y11760076D01*
X27797363Y11759628D01*
X27776120Y11758746D01*
X27761629Y11757319D01*
X27752378Y11755235D01*
X27746855Y11752382D01*
X27745670Y11751330D01*
X27738609Y11743028D01*
X27736800Y11739329D01*
X27739136Y11733919D01*
X27745844Y11719264D01*
X27756472Y11696323D01*
X27770568Y11666058D01*
X27787681Y11629430D01*
X27807357Y11587398D01*
X27829147Y11540925D01*
X27852598Y11490971D01*
X27877258Y11438496D01*
X27902675Y11384462D01*
X27928399Y11329829D01*
X27953976Y11275557D01*
X27978955Y11222608D01*
X28002885Y11171943D01*
X28025314Y11124522D01*
X28045790Y11081306D01*
X28063861Y11043255D01*
X28079075Y11011331D01*
X28081304Y11006667D01*
X28096265Y10975282D01*
X28112169Y10941748D01*
X28126986Y10910359D01*
X28137410Y10888133D01*
X28161123Y10837333D01*
X28154208Y10741378D01*
X28150112Y10666405D01*
X28148812Y10595457D01*
X28150225Y10529668D01*
X28154268Y10470168D01*
X28160857Y10418090D01*
X28169909Y10374567D01*
X28181342Y10340730D01*
X28184029Y10334978D01*
X28204465Y10302966D01*
X28228810Y10280245D01*
X28255998Y10267299D01*
X28284962Y10264611D01*
X28314636Y10272663D01*
X28318065Y10274309D01*
X28340565Y10290935D01*
X28357141Y10315511D01*
X28367954Y10348536D01*
X28373164Y10390514D01*
X28372932Y10441944D01*
X28372765Y10445044D01*
X28365638Y10508475D01*
X28350965Y10577310D01*
X28328558Y10652229D01*
X28298228Y10733910D01*
X28281280Y10774605D01*
X28275213Y10788679D01*
X28270308Y10800873D01*
X28266643Y10812379D01*
X28264298Y10824392D01*
X28263351Y10838105D01*
X28263881Y10854711D01*
X28265966Y10875404D01*
X28269686Y10901378D01*
X28275120Y10933825D01*
X28282345Y10973940D01*
X28291442Y11022916D01*
X28301078Y11074400D01*
X28318154Y11163124D01*
X28334271Y11241253D01*
X28349635Y11309420D01*
X28364451Y11368261D01*
X28378926Y11418408D01*
X28393265Y11460494D01*
X28407674Y11495155D01*
X28422360Y11523023D01*
X28437528Y11544732D01*
X28453383Y11560916D01*
X28461075Y11566755D01*
X28490025Y11580106D01*
X28521560Y11583786D01*
X28552994Y11578103D01*
X28581638Y11563367D01*
X28595466Y11551268D01*
X28613319Y11527245D01*
X28626842Y11496534D01*
X28636711Y11457394D01*
X28640210Y11436081D01*
X28643873Y11415376D01*
X28648111Y11398648D01*
X28652007Y11389517D01*
X28652009Y11389514D01*
X28661949Y11384530D01*
X28677973Y11382327D01*
X28695209Y11382964D01*
X28708785Y11386497D01*
X28712160Y11388795D01*
X28716887Y11399948D01*
X28719175Y11420019D01*
X28719204Y11446945D01*
X28717156Y11478664D01*
X28713208Y11513113D01*
X28707543Y11548230D01*
X28700339Y11581950D01*
X28692989Y11608456D01*
X28672557Y11658106D01*
X28645602Y11699278D01*
X28612701Y11731535D01*
X28574429Y11754439D01*
X28531364Y11767553D01*
X28484081Y11770440D01*
X28479727Y11770189D01*
G37*
X28479727Y11770189D02*
X28435086Y11762405D01*
X28395636Y11745172D01*
X28360934Y11718157D01*
X28330539Y11681028D01*
X28307167Y11640061D01*
X28292243Y11606028D01*
X28278008Y11566162D01*
X28264264Y11519627D01*
X28250811Y11465588D01*
X28237449Y11403207D01*
X28223978Y11331651D01*
X28210198Y11250083D01*
X28203012Y11204525D01*
X28197506Y11169951D01*
X28192394Y11139863D01*
X28187964Y11115787D01*
X28184502Y11099253D01*
X28182295Y11091788D01*
X28181851Y11091636D01*
X28179811Y11097889D01*
X28174952Y11114033D01*
X28167552Y11139101D01*
X28157892Y11172130D01*
X28146254Y11212155D01*
X28132917Y11258210D01*
X28118163Y11309332D01*
X28102271Y11364555D01*
X28086728Y11418711D01*
X28069908Y11477067D01*
X28053800Y11532345D01*
X28038700Y11583560D01*
X28024908Y11629728D01*
X28012722Y11669867D01*
X28002440Y11702991D01*
X27994362Y11728117D01*
X27988785Y11744262D01*
X27986132Y11750322D01*
X27982194Y11753736D01*
X27975947Y11756269D01*
X27965835Y11758048D01*
X27950301Y11759203D01*
X27927787Y11759860D01*
X27896737Y11760148D01*
X27866151Y11760200D01*
X27826869Y11760076D01*
X27797363Y11759628D01*
X27776120Y11758746D01*
X27761629Y11757319D01*
X27752378Y11755235D01*
X27746855Y11752382D01*
X27745670Y11751330D01*
X27738609Y11743028D01*
X27736800Y11739329D01*
X27739136Y11733919D01*
X27745844Y11719264D01*
X27756472Y11696323D01*
X27770568Y11666058D01*
X27787681Y11629430D01*
X27807357Y11587398D01*
X27829147Y11540925D01*
X27852598Y11490971D01*
X27877258Y11438496D01*
X27902675Y11384462D01*
X27928399Y11329829D01*
X27953976Y11275557D01*
X27978955Y11222608D01*
X28002885Y11171943D01*
X28025314Y11124522D01*
X28045790Y11081306D01*
X28063861Y11043255D01*
X28079075Y11011331D01*
X28081304Y11006667D01*
X28096265Y10975282D01*
X28112169Y10941748D01*
X28126986Y10910359D01*
X28137410Y10888133D01*
X28161123Y10837333D01*
X28154208Y10741378D01*
X28150112Y10666405D01*
X28148812Y10595457D01*
X28150225Y10529668D01*
X28154268Y10470168D01*
X28160857Y10418090D01*
X28169909Y10374567D01*
X28181342Y10340730D01*
X28184029Y10334978D01*
X28204465Y10302966D01*
X28228810Y10280245D01*
X28255998Y10267299D01*
X28284962Y10264611D01*
X28314636Y10272663D01*
X28318065Y10274309D01*
X28340565Y10290935D01*
X28357141Y10315511D01*
X28367954Y10348536D01*
X28373164Y10390514D01*
X28372932Y10441944D01*
X28372765Y10445044D01*
X28365638Y10508475D01*
X28350965Y10577310D01*
X28328558Y10652229D01*
X28298228Y10733910D01*
X28281280Y10774605D01*
X28275213Y10788679D01*
X28270308Y10800873D01*
X28266643Y10812379D01*
X28264298Y10824392D01*
X28263351Y10838105D01*
X28263881Y10854711D01*
X28265966Y10875404D01*
X28269686Y10901378D01*
X28275120Y10933825D01*
X28282345Y10973940D01*
X28291442Y11022916D01*
X28301078Y11074400D01*
X28318154Y11163124D01*
X28334271Y11241253D01*
X28349635Y11309420D01*
X28364451Y11368261D01*
X28378926Y11418408D01*
X28393265Y11460494D01*
X28407674Y11495155D01*
X28422360Y11523023D01*
X28437528Y11544732D01*
X28453383Y11560916D01*
X28461075Y11566755D01*
X28490025Y11580106D01*
X28521560Y11583786D01*
X28552994Y11578103D01*
X28581638Y11563367D01*
X28595466Y11551268D01*
X28613319Y11527245D01*
X28626842Y11496534D01*
X28636711Y11457394D01*
X28640210Y11436081D01*
X28643873Y11415376D01*
X28648111Y11398648D01*
X28652007Y11389517D01*
X28652009Y11389514D01*
X28661949Y11384530D01*
X28677973Y11382327D01*
X28695209Y11382964D01*
X28708785Y11386497D01*
X28712160Y11388795D01*
X28716887Y11399948D01*
X28719175Y11420019D01*
X28719204Y11446945D01*
X28717156Y11478664D01*
X28713208Y11513113D01*
X28707543Y11548230D01*
X28700339Y11581950D01*
X28692989Y11608456D01*
X28672557Y11658106D01*
X28645602Y11699278D01*
X28612701Y11731535D01*
X28574429Y11754439D01*
X28531364Y11767553D01*
X28484081Y11770440D01*
X28479727Y11770189D01*
G36*
X25326735Y11766392D02*
G01*
X25294745Y11759113D01*
X25266943Y11745447D01*
X25240105Y11724098D01*
X25229433Y11713644D01*
X25212298Y11693995D01*
X25196368Y11670944D01*
X25181440Y11643767D01*
X25167311Y11611735D01*
X25153778Y11574123D01*
X25140637Y11530205D01*
X25127687Y11479253D01*
X25114723Y11420543D01*
X25101542Y11353347D01*
X25087943Y11276938D01*
X25073720Y11190592D01*
X25061764Y11113911D01*
X25058770Y11099509D01*
X25055715Y11093033D01*
X25053997Y11094155D01*
X25051627Y11101515D01*
X25046557Y11118338D01*
X25039193Y11143236D01*
X25029944Y11174822D01*
X25019216Y11211705D01*
X25007418Y11252499D01*
X25001812Y11271955D01*
X24989259Y11315417D01*
X24977221Y11356800D01*
X24966181Y11394467D01*
X24956622Y11426778D01*
X24949027Y11452096D01*
X24943880Y11468782D01*
X24942728Y11472333D01*
X24935842Y11494124D01*
X24927911Y11520895D01*
X24920966Y11545711D01*
X24906463Y11599264D01*
X24894481Y11642871D01*
X24884722Y11677514D01*
X24876889Y11704180D01*
X24870687Y11723852D01*
X24865818Y11737515D01*
X24861985Y11746153D01*
X24859284Y11750322D01*
X24855270Y11753744D01*
X24848947Y11756280D01*
X24838752Y11758060D01*
X24823120Y11759212D01*
X24800491Y11759866D01*
X24769299Y11760151D01*
X24739600Y11760200D01*
X24701141Y11760115D01*
X24672384Y11759769D01*
X24651746Y11759027D01*
X24637641Y11757752D01*
X24628483Y11755809D01*
X24622688Y11753061D01*
X24619105Y11749861D01*
X24616825Y11746585D01*
X24615827Y11742190D01*
X24616529Y11735610D01*
X24619352Y11725783D01*
X24624716Y11711642D01*
X24633041Y11692126D01*
X24644748Y11666168D01*
X24660256Y11632705D01*
X24679986Y11590672D01*
X24692086Y11565006D01*
X24713066Y11520564D01*
X24733849Y11476588D01*
X24753600Y11434839D01*
X24771486Y11397080D01*
X24786671Y11365072D01*
X24798322Y11340577D01*
X24802790Y11331222D01*
X24816537Y11302138D01*
X24830719Y11271534D01*
X24843300Y11243828D01*
X24849588Y11229622D01*
X24859327Y11207843D01*
X24872351Y11179532D01*
X24886983Y11148297D01*
X24901547Y11117748D01*
X24902036Y11116733D01*
X24915765Y11088108D01*
X24932735Y11052495D01*
X24951408Y11013136D01*
X24970246Y10973270D01*
X24985077Y10941755D01*
X25034101Y10837333D01*
X25027217Y10741378D01*
X25024420Y10690829D01*
X25022976Y10637950D01*
X25022830Y10584888D01*
X25023927Y10533790D01*
X25026213Y10486804D01*
X25029632Y10446079D01*
X25034129Y10413761D01*
X25035790Y10405533D01*
X25049916Y10356871D01*
X25068210Y10318673D01*
X25090704Y10290897D01*
X25117430Y10273503D01*
X25143545Y10266846D01*
X25164590Y10266247D01*
X25181624Y10270674D01*
X25193962Y10277037D01*
X25214478Y10292541D01*
X25229222Y10312711D01*
X25239004Y10339352D01*
X25244633Y10374269D01*
X25246022Y10393054D01*
X25245003Y10456569D01*
X25235317Y10525992D01*
X25216900Y10601616D01*
X25189686Y10683731D01*
X25170480Y10732903D01*
X25159054Y10761321D01*
X25149084Y10787158D01*
X25141443Y10808077D01*
X25137002Y10821739D01*
X25136369Y10824355D01*
X25136017Y10836599D01*
X25137487Y10856490D01*
X25140480Y10880589D01*
X25142276Y10892088D01*
X25146645Y10918698D01*
X25150721Y10944303D01*
X25153829Y10964632D01*
X25154600Y10969978D01*
X25158675Y10996173D01*
X25164664Y11030885D01*
X25172088Y11071656D01*
X25180469Y11116029D01*
X25189329Y11161548D01*
X25198189Y11205754D01*
X25206572Y11246192D01*
X25214000Y11280405D01*
X25219965Y11305822D01*
X25237693Y11372230D01*
X25254987Y11428089D01*
X25272164Y11474114D01*
X25289542Y11511020D01*
X25307438Y11539522D01*
X25326169Y11560334D01*
X25336461Y11568436D01*
X25352076Y11577108D01*
X25369190Y11581331D01*
X25391120Y11582371D01*
X25423418Y11578652D01*
X25450388Y11567153D01*
X25472495Y11547272D01*
X25490200Y11518411D01*
X25503966Y11479966D01*
X25514256Y11431339D01*
X25515942Y11420304D01*
X25522458Y11398639D01*
X25534935Y11386179D01*
X25554292Y11382028D01*
X25555222Y11382022D01*
X25570384Y11383191D01*
X25580878Y11387768D01*
X25587358Y11397356D01*
X25590475Y11413559D01*
X25590883Y11437982D01*
X25589585Y11466440D01*
X25581990Y11537723D01*
X25568174Y11599703D01*
X25548155Y11652347D01*
X25521947Y11695619D01*
X25489569Y11729485D01*
X25451036Y11753911D01*
X25450800Y11754023D01*
X25433846Y11761244D01*
X25417982Y11765641D01*
X25399425Y11767865D01*
X25374392Y11768566D01*
X25366133Y11768579D01*
X25326735Y11766392D01*
G37*
X25326735Y11766392D02*
X25294745Y11759113D01*
X25266943Y11745447D01*
X25240105Y11724098D01*
X25229433Y11713644D01*
X25212298Y11693995D01*
X25196368Y11670944D01*
X25181440Y11643767D01*
X25167311Y11611735D01*
X25153778Y11574123D01*
X25140637Y11530205D01*
X25127687Y11479253D01*
X25114723Y11420543D01*
X25101542Y11353347D01*
X25087943Y11276938D01*
X25073720Y11190592D01*
X25061764Y11113911D01*
X25058770Y11099509D01*
X25055715Y11093033D01*
X25053997Y11094155D01*
X25051627Y11101515D01*
X25046557Y11118338D01*
X25039193Y11143236D01*
X25029944Y11174822D01*
X25019216Y11211705D01*
X25007418Y11252499D01*
X25001812Y11271955D01*
X24989259Y11315417D01*
X24977221Y11356800D01*
X24966181Y11394467D01*
X24956622Y11426778D01*
X24949027Y11452096D01*
X24943880Y11468782D01*
X24942728Y11472333D01*
X24935842Y11494124D01*
X24927911Y11520895D01*
X24920966Y11545711D01*
X24906463Y11599264D01*
X24894481Y11642871D01*
X24884722Y11677514D01*
X24876889Y11704180D01*
X24870687Y11723852D01*
X24865818Y11737515D01*
X24861985Y11746153D01*
X24859284Y11750322D01*
X24855270Y11753744D01*
X24848947Y11756280D01*
X24838752Y11758060D01*
X24823120Y11759212D01*
X24800491Y11759866D01*
X24769299Y11760151D01*
X24739600Y11760200D01*
X24701141Y11760115D01*
X24672384Y11759769D01*
X24651746Y11759027D01*
X24637641Y11757752D01*
X24628483Y11755809D01*
X24622688Y11753061D01*
X24619105Y11749861D01*
X24616825Y11746585D01*
X24615827Y11742190D01*
X24616529Y11735610D01*
X24619352Y11725783D01*
X24624716Y11711642D01*
X24633041Y11692126D01*
X24644748Y11666168D01*
X24660256Y11632705D01*
X24679986Y11590672D01*
X24692086Y11565006D01*
X24713066Y11520564D01*
X24733849Y11476588D01*
X24753600Y11434839D01*
X24771486Y11397080D01*
X24786671Y11365072D01*
X24798322Y11340577D01*
X24802790Y11331222D01*
X24816537Y11302138D01*
X24830719Y11271534D01*
X24843300Y11243828D01*
X24849588Y11229622D01*
X24859327Y11207843D01*
X24872351Y11179532D01*
X24886983Y11148297D01*
X24901547Y11117748D01*
X24902036Y11116733D01*
X24915765Y11088108D01*
X24932735Y11052495D01*
X24951408Y11013136D01*
X24970246Y10973270D01*
X24985077Y10941755D01*
X25034101Y10837333D01*
X25027217Y10741378D01*
X25024420Y10690829D01*
X25022976Y10637950D01*
X25022830Y10584888D01*
X25023927Y10533790D01*
X25026213Y10486804D01*
X25029632Y10446079D01*
X25034129Y10413761D01*
X25035790Y10405533D01*
X25049916Y10356871D01*
X25068210Y10318673D01*
X25090704Y10290897D01*
X25117430Y10273503D01*
X25143545Y10266846D01*
X25164590Y10266247D01*
X25181624Y10270674D01*
X25193962Y10277037D01*
X25214478Y10292541D01*
X25229222Y10312711D01*
X25239004Y10339352D01*
X25244633Y10374269D01*
X25246022Y10393054D01*
X25245003Y10456569D01*
X25235317Y10525992D01*
X25216900Y10601616D01*
X25189686Y10683731D01*
X25170480Y10732903D01*
X25159054Y10761321D01*
X25149084Y10787158D01*
X25141443Y10808077D01*
X25137002Y10821739D01*
X25136369Y10824355D01*
X25136017Y10836599D01*
X25137487Y10856490D01*
X25140480Y10880589D01*
X25142276Y10892088D01*
X25146645Y10918698D01*
X25150721Y10944303D01*
X25153829Y10964632D01*
X25154600Y10969978D01*
X25158675Y10996173D01*
X25164664Y11030885D01*
X25172088Y11071656D01*
X25180469Y11116029D01*
X25189329Y11161548D01*
X25198189Y11205754D01*
X25206572Y11246192D01*
X25214000Y11280405D01*
X25219965Y11305822D01*
X25237693Y11372230D01*
X25254987Y11428089D01*
X25272164Y11474114D01*
X25289542Y11511020D01*
X25307438Y11539522D01*
X25326169Y11560334D01*
X25336461Y11568436D01*
X25352076Y11577108D01*
X25369190Y11581331D01*
X25391120Y11582371D01*
X25423418Y11578652D01*
X25450388Y11567153D01*
X25472495Y11547272D01*
X25490200Y11518411D01*
X25503966Y11479966D01*
X25514256Y11431339D01*
X25515942Y11420304D01*
X25522458Y11398639D01*
X25534935Y11386179D01*
X25554292Y11382028D01*
X25555222Y11382022D01*
X25570384Y11383191D01*
X25580878Y11387768D01*
X25587358Y11397356D01*
X25590475Y11413559D01*
X25590883Y11437982D01*
X25589585Y11466440D01*
X25581990Y11537723D01*
X25568174Y11599703D01*
X25548155Y11652347D01*
X25521947Y11695619D01*
X25489569Y11729485D01*
X25451036Y11753911D01*
X25450800Y11754023D01*
X25433846Y11761244D01*
X25417982Y11765641D01*
X25399425Y11767865D01*
X25374392Y11768566D01*
X25366133Y11768579D01*
X25326735Y11766392D01*
G36*
X26055731Y12296743D02*
G01*
X25984217Y12281197D01*
X25917321Y12255351D01*
X25855039Y12219204D01*
X25848438Y12214577D01*
X25803433Y12176652D01*
X25768088Y12133775D01*
X25742184Y12085453D01*
X25725500Y12031193D01*
X25717818Y11970501D01*
X25717804Y11921061D01*
X25724333Y11860832D01*
X25738606Y11806951D01*
X25761510Y11757461D01*
X25793931Y11710405D01*
X25832517Y11667988D01*
X25849918Y11650335D01*
X25863547Y11635700D01*
X25871870Y11625785D01*
X25873644Y11622363D01*
X25868120Y11618362D01*
X25855423Y11609742D01*
X25837838Y11598043D01*
X25828915Y11592170D01*
X25781969Y11558420D01*
X25743920Y11524167D01*
X25712495Y11487258D01*
X25701190Y11471148D01*
X25668112Y11411438D01*
X25644642Y11347197D01*
X25630710Y11279709D01*
X25626248Y11210255D01*
X25631187Y11140120D01*
X25645457Y11070584D01*
X25668988Y11002931D01*
X25701712Y10938444D01*
X25732423Y10892691D01*
X25779595Y10837904D01*
X25831263Y10793311D01*
X25887793Y10758737D01*
X25949549Y10734012D01*
X26016897Y10718963D01*
X26090201Y10713417D01*
X26111901Y10713545D01*
X26170380Y10718835D01*
X26224866Y10731603D01*
X26273505Y10751246D01*
X26314437Y10777158D01*
X26319203Y10781047D01*
X26336978Y10796003D01*
X26337262Y10678379D01*
X26337464Y10631787D01*
X26337916Y10593874D01*
X26338764Y10562035D01*
X26340154Y10533660D01*
X26342232Y10506143D01*
X26345143Y10476875D01*
X26349035Y10443248D01*
X26351582Y10422467D01*
X26358658Y10371809D01*
X26366023Y10331557D01*
X26373618Y10301954D01*
X26381386Y10283243D01*
X26386386Y10277122D01*
X26395017Y10274052D01*
X26412229Y10271896D01*
X26438864Y10270592D01*
X26475764Y10270079D01*
X26483937Y10270067D01*
X26517674Y10270175D01*
X26541964Y10270639D01*
X26558648Y10271669D01*
X26569565Y10273472D01*
X26576559Y10276257D01*
X26581468Y10280234D01*
X26582403Y10281236D01*
X26588464Y10289984D01*
X26589605Y10300080D01*
X26586320Y10316097D01*
X26586211Y10316514D01*
X26579727Y10345424D01*
X26573037Y10382456D01*
X26566629Y10424465D01*
X26560988Y10468305D01*
X26557233Y10503880D01*
X26556327Y10519474D01*
X26555486Y10545889D01*
X26554714Y10582657D01*
X26554015Y10629311D01*
X26553393Y10685384D01*
X26552850Y10750407D01*
X26552392Y10823914D01*
X26552021Y10905436D01*
X26551925Y10936315D01*
X26337660Y10936315D01*
X26320562Y10911463D01*
X26291364Y10877807D01*
X26254616Y10849008D01*
X26213802Y10827526D01*
X26190621Y10819651D01*
X26156540Y10813792D01*
X26117339Y10812250D01*
X26077884Y10814900D01*
X26043042Y10821613D01*
X26036233Y10823704D01*
X25991444Y10844490D01*
X25952793Y10874713D01*
X25920329Y10914303D01*
X25894105Y10963190D01*
X25874170Y11021303D01*
X25865390Y11059831D01*
X25859715Y11103119D01*
X25857513Y11152743D01*
X25858831Y11204279D01*
X25863306Y11250380D01*
X25873663Y11303162D01*
X25889996Y11358898D01*
X25911041Y11414450D01*
X25935538Y11466680D01*
X25962225Y11512450D01*
X25977046Y11533301D01*
X25990062Y11549461D01*
X25999305Y11558168D01*
X26007474Y11561215D01*
X26017271Y11560397D01*
X26017716Y11560312D01*
X26041842Y11556888D01*
X26071170Y11554480D01*
X26102511Y11553156D01*
X26132679Y11552986D01*
X26158484Y11554038D01*
X26176740Y11556382D01*
X26178592Y11556838D01*
X26205167Y11568300D01*
X26225622Y11585562D01*
X26238073Y11606612D01*
X26241022Y11623408D01*
X26236283Y11648204D01*
X26221836Y11667780D01*
X26197340Y11682570D01*
X26192860Y11684370D01*
X26177607Y11689116D01*
X26160976Y11691555D01*
X26139623Y11691949D01*
X26112488Y11690706D01*
X26084588Y11688301D01*
X26057159Y11684783D01*
X26034701Y11680768D01*
X26028093Y11679154D01*
X25998608Y11670989D01*
X25980854Y11708539D01*
X25960291Y11761473D01*
X25945302Y11819962D01*
X25936227Y11880987D01*
X25933403Y11941526D01*
X25937168Y11998558D01*
X25944210Y12035999D01*
X25958242Y12075753D01*
X25978832Y12112842D01*
X26004014Y12144233D01*
X26026927Y12163740D01*
X26064168Y12182603D01*
X26104508Y12191802D01*
X26146135Y12191838D01*
X26187235Y12183211D01*
X26225995Y12166421D01*
X26260604Y12141969D01*
X26289246Y12110354D01*
X26303142Y12087517D01*
X26308033Y12077832D01*
X26312363Y12068618D01*
X26316170Y12059157D01*
X26319490Y12048731D01*
X26322362Y12036622D01*
X26324822Y12022112D01*
X26326907Y12004482D01*
X26328655Y11983015D01*
X26330102Y11956992D01*
X26331285Y11925695D01*
X26332243Y11888407D01*
X26333012Y11844409D01*
X26333629Y11792984D01*
X26334131Y11733412D01*
X26334556Y11664976D01*
X26334940Y11586958D01*
X26335321Y11498640D01*
X26335471Y11462557D01*
X26337660Y10936315D01*
X26551925Y10936315D01*
X26551742Y10994506D01*
X26551558Y11090656D01*
X26551473Y11193419D01*
X26551467Y11229339D01*
X26551414Y11340747D01*
X26551259Y11443650D01*
X26551004Y11537768D01*
X26550649Y11622823D01*
X26550199Y11698537D01*
X26549655Y11764631D01*
X26549020Y11820826D01*
X26548295Y11866844D01*
X26547484Y11902407D01*
X26546588Y11927236D01*
X26545619Y11940970D01*
X26535181Y12003813D01*
X26519958Y12057847D01*
X26499213Y12104802D01*
X26472206Y12146406D01*
X26444222Y12178401D01*
X26395243Y12221856D01*
X26343122Y12255453D01*
X26286726Y12279640D01*
X26224926Y12294864D01*
X26156592Y12301572D01*
X26131870Y12301992D01*
X26055731Y12296743D01*
G37*
X26055731Y12296743D02*
X25984217Y12281197D01*
X25917321Y12255351D01*
X25855039Y12219204D01*
X25848438Y12214577D01*
X25803433Y12176652D01*
X25768088Y12133775D01*
X25742184Y12085453D01*
X25725500Y12031193D01*
X25717818Y11970501D01*
X25717804Y11921061D01*
X25724333Y11860832D01*
X25738606Y11806951D01*
X25761510Y11757461D01*
X25793931Y11710405D01*
X25832517Y11667988D01*
X25849918Y11650335D01*
X25863547Y11635700D01*
X25871870Y11625785D01*
X25873644Y11622363D01*
X25868120Y11618362D01*
X25855423Y11609742D01*
X25837838Y11598043D01*
X25828915Y11592170D01*
X25781969Y11558420D01*
X25743920Y11524167D01*
X25712495Y11487258D01*
X25701190Y11471148D01*
X25668112Y11411438D01*
X25644642Y11347197D01*
X25630710Y11279709D01*
X25626248Y11210255D01*
X25631187Y11140120D01*
X25645457Y11070584D01*
X25668988Y11002931D01*
X25701712Y10938444D01*
X25732423Y10892691D01*
X25779595Y10837904D01*
X25831263Y10793311D01*
X25887793Y10758737D01*
X25949549Y10734012D01*
X26016897Y10718963D01*
X26090201Y10713417D01*
X26111901Y10713545D01*
X26170380Y10718835D01*
X26224866Y10731603D01*
X26273505Y10751246D01*
X26314437Y10777158D01*
X26319203Y10781047D01*
X26336978Y10796003D01*
X26337262Y10678379D01*
X26337464Y10631787D01*
X26337916Y10593874D01*
X26338764Y10562035D01*
X26340154Y10533660D01*
X26342232Y10506143D01*
X26345143Y10476875D01*
X26349035Y10443248D01*
X26351582Y10422467D01*
X26358658Y10371809D01*
X26366023Y10331557D01*
X26373618Y10301954D01*
X26381386Y10283243D01*
X26386386Y10277122D01*
X26395017Y10274052D01*
X26412229Y10271896D01*
X26438864Y10270592D01*
X26475764Y10270079D01*
X26483937Y10270067D01*
X26517674Y10270175D01*
X26541964Y10270639D01*
X26558648Y10271669D01*
X26569565Y10273472D01*
X26576559Y10276257D01*
X26581468Y10280234D01*
X26582403Y10281236D01*
X26588464Y10289984D01*
X26589605Y10300080D01*
X26586320Y10316097D01*
X26586211Y10316514D01*
X26579727Y10345424D01*
X26573037Y10382456D01*
X26566629Y10424465D01*
X26560988Y10468305D01*
X26557233Y10503880D01*
X26556327Y10519474D01*
X26555486Y10545889D01*
X26554714Y10582657D01*
X26554015Y10629311D01*
X26553393Y10685384D01*
X26552850Y10750407D01*
X26552392Y10823914D01*
X26552021Y10905436D01*
X26551925Y10936315D01*
X26337660Y10936315D01*
X26320562Y10911463D01*
X26291364Y10877807D01*
X26254616Y10849008D01*
X26213802Y10827526D01*
X26190621Y10819651D01*
X26156540Y10813792D01*
X26117339Y10812250D01*
X26077884Y10814900D01*
X26043042Y10821613D01*
X26036233Y10823704D01*
X25991444Y10844490D01*
X25952793Y10874713D01*
X25920329Y10914303D01*
X25894105Y10963190D01*
X25874170Y11021303D01*
X25865390Y11059831D01*
X25859715Y11103119D01*
X25857513Y11152743D01*
X25858831Y11204279D01*
X25863306Y11250380D01*
X25873663Y11303162D01*
X25889996Y11358898D01*
X25911041Y11414450D01*
X25935538Y11466680D01*
X25962225Y11512450D01*
X25977046Y11533301D01*
X25990062Y11549461D01*
X25999305Y11558168D01*
X26007474Y11561215D01*
X26017271Y11560397D01*
X26017716Y11560312D01*
X26041842Y11556888D01*
X26071170Y11554480D01*
X26102511Y11553156D01*
X26132679Y11552986D01*
X26158484Y11554038D01*
X26176740Y11556382D01*
X26178592Y11556838D01*
X26205167Y11568300D01*
X26225622Y11585562D01*
X26238073Y11606612D01*
X26241022Y11623408D01*
X26236283Y11648204D01*
X26221836Y11667780D01*
X26197340Y11682570D01*
X26192860Y11684370D01*
X26177607Y11689116D01*
X26160976Y11691555D01*
X26139623Y11691949D01*
X26112488Y11690706D01*
X26084588Y11688301D01*
X26057159Y11684783D01*
X26034701Y11680768D01*
X26028093Y11679154D01*
X25998608Y11670989D01*
X25980854Y11708539D01*
X25960291Y11761473D01*
X25945302Y11819962D01*
X25936227Y11880987D01*
X25933403Y11941526D01*
X25937168Y11998558D01*
X25944210Y12035999D01*
X25958242Y12075753D01*
X25978832Y12112842D01*
X26004014Y12144233D01*
X26026927Y12163740D01*
X26064168Y12182603D01*
X26104508Y12191802D01*
X26146135Y12191838D01*
X26187235Y12183211D01*
X26225995Y12166421D01*
X26260604Y12141969D01*
X26289246Y12110354D01*
X26303142Y12087517D01*
X26308033Y12077832D01*
X26312363Y12068618D01*
X26316170Y12059157D01*
X26319490Y12048731D01*
X26322362Y12036622D01*
X26324822Y12022112D01*
X26326907Y12004482D01*
X26328655Y11983015D01*
X26330102Y11956992D01*
X26331285Y11925695D01*
X26332243Y11888407D01*
X26333012Y11844409D01*
X26333629Y11792984D01*
X26334131Y11733412D01*
X26334556Y11664976D01*
X26334940Y11586958D01*
X26335321Y11498640D01*
X26335471Y11462557D01*
X26337660Y10936315D01*
X26551925Y10936315D01*
X26551742Y10994506D01*
X26551558Y11090656D01*
X26551473Y11193419D01*
X26551467Y11229339D01*
X26551414Y11340747D01*
X26551259Y11443650D01*
X26551004Y11537768D01*
X26550649Y11622823D01*
X26550199Y11698537D01*
X26549655Y11764631D01*
X26549020Y11820826D01*
X26548295Y11866844D01*
X26547484Y11902407D01*
X26546588Y11927236D01*
X26545619Y11940970D01*
X26535181Y12003813D01*
X26519958Y12057847D01*
X26499213Y12104802D01*
X26472206Y12146406D01*
X26444222Y12178401D01*
X26395243Y12221856D01*
X26343122Y12255453D01*
X26286726Y12279640D01*
X26224926Y12294864D01*
X26156592Y12301572D01*
X26131870Y12301992D01*
X26055731Y12296743D01*
G36*
X27146173Y12298521D02*
G01*
X27094844Y12292885D01*
X27047051Y12284615D01*
X27005817Y12273998D01*
X26988273Y12267767D01*
X26943293Y12248068D01*
X26908071Y12228670D01*
X26881160Y12208515D01*
X26861113Y12186547D01*
X26848309Y12165501D01*
X26836157Y12131144D01*
X26833226Y12097479D01*
X26838716Y12066084D01*
X26851823Y12038537D01*
X26871748Y12016415D01*
X26897687Y12001298D01*
X26928839Y11994764D01*
X26935119Y11994622D01*
X26952785Y11995790D01*
X26969398Y11999706D01*
X26986368Y12007299D01*
X27005111Y12019499D01*
X27027040Y12037238D01*
X27053567Y12061446D01*
X27086106Y12093053D01*
X27088996Y12095914D01*
X27122020Y12127974D01*
X27149396Y12152547D01*
X27172952Y12170606D01*
X27194516Y12183121D01*
X27215916Y12191066D01*
X27238978Y12195414D01*
X27265531Y12197135D01*
X27279600Y12197313D01*
X27322367Y12194806D01*
X27357234Y12186600D01*
X27386434Y12171971D01*
X27405884Y12156420D01*
X27426544Y12130807D01*
X27436122Y12103188D01*
X27434639Y12073604D01*
X27422114Y12042099D01*
X27398568Y12008716D01*
X27364021Y11973498D01*
X27318492Y11936488D01*
X27296830Y11920927D01*
X27273908Y11904931D01*
X27250422Y11888470D01*
X27230942Y11874747D01*
X27228600Y11873089D01*
X27210140Y11860034D01*
X27187012Y11843717D01*
X27163787Y11827363D01*
X27160584Y11825111D01*
X27123405Y11798617D01*
X27085377Y11770881D01*
X27048387Y11743331D01*
X27014325Y11717394D01*
X26985077Y11694497D01*
X26962532Y11676067D01*
X26956302Y11670696D01*
X26897842Y11612285D01*
X26847469Y11547565D01*
X26806124Y11477966D01*
X26774744Y11404918D01*
X26767766Y11383696D01*
X26761970Y11363848D01*
X26757843Y11346412D01*
X26755099Y11328741D01*
X26753448Y11308184D01*
X26752604Y11282093D01*
X26752278Y11247819D01*
X26752253Y11240911D01*
X26752275Y11205349D01*
X26752788Y11178387D01*
X26754084Y11157339D01*
X26756452Y11139517D01*
X26760184Y11122234D01*
X26765573Y11102803D01*
X26768158Y11094155D01*
X26795280Y11020709D01*
X26829907Y10954712D01*
X26847865Y10927644D01*
X26868356Y10901861D01*
X26894778Y10872885D01*
X26924434Y10843325D01*
X26954625Y10815790D01*
X26982653Y10792889D01*
X26999434Y10781081D01*
X27061527Y10748029D01*
X27127429Y10725314D01*
X27195904Y10713176D01*
X27265714Y10711852D01*
X27321933Y10718786D01*
X27386726Y10736314D01*
X27446783Y10763804D01*
X27502969Y10801681D01*
X27521519Y10817154D01*
X27565710Y10862185D01*
X27602060Y10913326D01*
X27631394Y10971915D01*
X27650259Y11024687D01*
X27655861Y11043844D01*
X27659900Y11060641D01*
X27662630Y11077564D01*
X27664310Y11097102D01*
X27665195Y11121740D01*
X27665544Y11153966D01*
X27665596Y11173178D01*
X27665558Y11194111D01*
X27435712Y11194111D01*
X27432001Y11124071D01*
X27421817Y11058389D01*
X27405466Y10998344D01*
X27383251Y10945217D01*
X27355480Y10900288D01*
X27340954Y10882759D01*
X27304082Y10848606D01*
X27266042Y10825645D01*
X27226663Y10813822D01*
X27185776Y10813086D01*
X27146439Y10822236D01*
X27110095Y10840689D01*
X27076903Y10869605D01*
X27047348Y10908479D01*
X27025690Y10948450D01*
X27012596Y10979548D01*
X27002542Y11011009D01*
X26994888Y11045657D01*
X26988992Y11086320D01*
X26984829Y11128344D01*
X26982236Y11162362D01*
X26981118Y11188870D01*
X26981564Y11211560D01*
X26983662Y11234126D01*
X26987502Y11260259D01*
X26988084Y11263810D01*
X27006324Y11345306D01*
X27033410Y11420604D01*
X27070065Y11491345D01*
X27117010Y11559169D01*
X27119544Y11562392D01*
X27154979Y11607204D01*
X27196104Y11595807D01*
X27252264Y11574963D01*
X27300992Y11545638D01*
X27342256Y11507873D01*
X27376028Y11461710D01*
X27402276Y11407192D01*
X27420972Y11344359D01*
X27432085Y11273253D01*
X27432644Y11267229D01*
X27435712Y11194111D01*
X27665558Y11194111D01*
X27665529Y11209857D01*
X27665038Y11237720D01*
X27663873Y11259238D01*
X27661780Y11276881D01*
X27658507Y11293121D01*
X27653801Y11310430D01*
X27650430Y11321561D01*
X27624108Y11391657D01*
X27590723Y11453524D01*
X27549622Y11508226D01*
X27513327Y11545202D01*
X27455875Y11590989D01*
X27391940Y11629970D01*
X27324501Y11660487D01*
X27280207Y11674996D01*
X27260053Y11680777D01*
X27244582Y11685592D01*
X27236628Y11688551D01*
X27236195Y11688835D01*
X27239419Y11693192D01*
X27249740Y11704033D01*
X27265966Y11720180D01*
X27286907Y11740450D01*
X27311372Y11763664D01*
X27317432Y11769352D01*
X27363733Y11812963D01*
X27402382Y11850037D01*
X27434168Y11881530D01*
X27459883Y11908399D01*
X27480317Y11931601D01*
X27496261Y11952090D01*
X27508506Y11970823D01*
X27517842Y11988758D01*
X27525059Y12006849D01*
X27530950Y12026053D01*
X27531560Y12028311D01*
X27538780Y12074539D01*
X27535413Y12118068D01*
X27521956Y12158344D01*
X27498906Y12194812D01*
X27466761Y12226917D01*
X27426016Y12254105D01*
X27377170Y12275821D01*
X27320718Y12291510D01*
X27291141Y12296726D01*
X27247345Y12300730D01*
X27198014Y12301232D01*
X27146173Y12298521D01*
G37*
X27146173Y12298521D02*
X27094844Y12292885D01*
X27047051Y12284615D01*
X27005817Y12273998D01*
X26988273Y12267767D01*
X26943293Y12248068D01*
X26908071Y12228670D01*
X26881160Y12208515D01*
X26861113Y12186547D01*
X26848309Y12165501D01*
X26836157Y12131144D01*
X26833226Y12097479D01*
X26838716Y12066084D01*
X26851823Y12038537D01*
X26871748Y12016415D01*
X26897687Y12001298D01*
X26928839Y11994764D01*
X26935119Y11994622D01*
X26952785Y11995790D01*
X26969398Y11999706D01*
X26986368Y12007299D01*
X27005111Y12019499D01*
X27027040Y12037238D01*
X27053567Y12061446D01*
X27086106Y12093053D01*
X27088996Y12095914D01*
X27122020Y12127974D01*
X27149396Y12152547D01*
X27172952Y12170606D01*
X27194516Y12183121D01*
X27215916Y12191066D01*
X27238978Y12195414D01*
X27265531Y12197135D01*
X27279600Y12197313D01*
X27322367Y12194806D01*
X27357234Y12186600D01*
X27386434Y12171971D01*
X27405884Y12156420D01*
X27426544Y12130807D01*
X27436122Y12103188D01*
X27434639Y12073604D01*
X27422114Y12042099D01*
X27398568Y12008716D01*
X27364021Y11973498D01*
X27318492Y11936488D01*
X27296830Y11920927D01*
X27273908Y11904931D01*
X27250422Y11888470D01*
X27230942Y11874747D01*
X27228600Y11873089D01*
X27210140Y11860034D01*
X27187012Y11843717D01*
X27163787Y11827363D01*
X27160584Y11825111D01*
X27123405Y11798617D01*
X27085377Y11770881D01*
X27048387Y11743331D01*
X27014325Y11717394D01*
X26985077Y11694497D01*
X26962532Y11676067D01*
X26956302Y11670696D01*
X26897842Y11612285D01*
X26847469Y11547565D01*
X26806124Y11477966D01*
X26774744Y11404918D01*
X26767766Y11383696D01*
X26761970Y11363848D01*
X26757843Y11346412D01*
X26755099Y11328741D01*
X26753448Y11308184D01*
X26752604Y11282093D01*
X26752278Y11247819D01*
X26752253Y11240911D01*
X26752275Y11205349D01*
X26752788Y11178387D01*
X26754084Y11157339D01*
X26756452Y11139517D01*
X26760184Y11122234D01*
X26765573Y11102803D01*
X26768158Y11094155D01*
X26795280Y11020709D01*
X26829907Y10954712D01*
X26847865Y10927644D01*
X26868356Y10901861D01*
X26894778Y10872885D01*
X26924434Y10843325D01*
X26954625Y10815790D01*
X26982653Y10792889D01*
X26999434Y10781081D01*
X27061527Y10748029D01*
X27127429Y10725314D01*
X27195904Y10713176D01*
X27265714Y10711852D01*
X27321933Y10718786D01*
X27386726Y10736314D01*
X27446783Y10763804D01*
X27502969Y10801681D01*
X27521519Y10817154D01*
X27565710Y10862185D01*
X27602060Y10913326D01*
X27631394Y10971915D01*
X27650259Y11024687D01*
X27655861Y11043844D01*
X27659900Y11060641D01*
X27662630Y11077564D01*
X27664310Y11097102D01*
X27665195Y11121740D01*
X27665544Y11153966D01*
X27665596Y11173178D01*
X27665558Y11194111D01*
X27435712Y11194111D01*
X27432001Y11124071D01*
X27421817Y11058389D01*
X27405466Y10998344D01*
X27383251Y10945217D01*
X27355480Y10900288D01*
X27340954Y10882759D01*
X27304082Y10848606D01*
X27266042Y10825645D01*
X27226663Y10813822D01*
X27185776Y10813086D01*
X27146439Y10822236D01*
X27110095Y10840689D01*
X27076903Y10869605D01*
X27047348Y10908479D01*
X27025690Y10948450D01*
X27012596Y10979548D01*
X27002542Y11011009D01*
X26994888Y11045657D01*
X26988992Y11086320D01*
X26984829Y11128344D01*
X26982236Y11162362D01*
X26981118Y11188870D01*
X26981564Y11211560D01*
X26983662Y11234126D01*
X26987502Y11260259D01*
X26988084Y11263810D01*
X27006324Y11345306D01*
X27033410Y11420604D01*
X27070065Y11491345D01*
X27117010Y11559169D01*
X27119544Y11562392D01*
X27154979Y11607204D01*
X27196104Y11595807D01*
X27252264Y11574963D01*
X27300992Y11545638D01*
X27342256Y11507873D01*
X27376028Y11461710D01*
X27402276Y11407192D01*
X27420972Y11344359D01*
X27432085Y11273253D01*
X27432644Y11267229D01*
X27435712Y11194111D01*
X27665558Y11194111D01*
X27665529Y11209857D01*
X27665038Y11237720D01*
X27663873Y11259238D01*
X27661780Y11276881D01*
X27658507Y11293121D01*
X27653801Y11310430D01*
X27650430Y11321561D01*
X27624108Y11391657D01*
X27590723Y11453524D01*
X27549622Y11508226D01*
X27513327Y11545202D01*
X27455875Y11590989D01*
X27391940Y11629970D01*
X27324501Y11660487D01*
X27280207Y11674996D01*
X27260053Y11680777D01*
X27244582Y11685592D01*
X27236628Y11688551D01*
X27236195Y11688835D01*
X27239419Y11693192D01*
X27249740Y11704033D01*
X27265966Y11720180D01*
X27286907Y11740450D01*
X27311372Y11763664D01*
X27317432Y11769352D01*
X27363733Y11812963D01*
X27402382Y11850037D01*
X27434168Y11881530D01*
X27459883Y11908399D01*
X27480317Y11931601D01*
X27496261Y11952090D01*
X27508506Y11970823D01*
X27517842Y11988758D01*
X27525059Y12006849D01*
X27530950Y12026053D01*
X27531560Y12028311D01*
X27538780Y12074539D01*
X27535413Y12118068D01*
X27521956Y12158344D01*
X27498906Y12194812D01*
X27466761Y12226917D01*
X27426016Y12254105D01*
X27377170Y12275821D01*
X27320718Y12291510D01*
X27291141Y12296726D01*
X27247345Y12300730D01*
X27198014Y12301232D01*
X27146173Y12298521D01*
G36*
X28017128Y12891475D02*
G01*
X28006063Y12852048D01*
X28018364Y12807950D01*
X28049664Y12758870D01*
X28085551Y12760209D01*
X28118081Y12802125D01*
X28133500Y12861680D01*
X28106295Y12896396D01*
X28067000Y12903200D01*
X28017128Y12891475D01*
G37*
X28017128Y12891475D02*
X28006063Y12852048D01*
X28018364Y12807950D01*
X28049664Y12758870D01*
X28085551Y12760209D01*
X28118081Y12802125D01*
X28133500Y12861680D01*
X28106295Y12896396D01*
X28067000Y12903200D01*
X28017128Y12891475D01*
G36*
X25699075Y12907831D02*
G01*
X25653937Y12859270D01*
X25629438Y12803539D01*
X25628600Y12793250D01*
X25644406Y12757102D01*
X25683457Y12756546D01*
X25733201Y12791126D01*
X25738964Y12797251D01*
X25772236Y12851067D01*
X25778915Y12899633D01*
X25758041Y12926942D01*
X25746837Y12928600D01*
X25699075Y12907831D01*
G37*
X25699075Y12907831D02*
X25653937Y12859270D01*
X25629438Y12803539D01*
X25628600Y12793250D01*
X25644406Y12757102D01*
X25683457Y12756546D01*
X25733201Y12791126D01*
X25738964Y12797251D01*
X25772236Y12851067D01*
X25778915Y12899633D01*
X25758041Y12926942D01*
X25746837Y12928600D01*
X25699075Y12907831D01*
G36*
X25135700Y12849737D02*
G01*
X25120600Y12827000D01*
X25107277Y12791196D01*
X25127980Y12777861D01*
X25167397Y12776200D01*
X25231125Y12787541D01*
X25270539Y12811334D01*
X25284561Y12843943D01*
X25258871Y12862134D01*
X25185241Y12876409D01*
X25135700Y12849737D01*
G37*
X25135700Y12849737D02*
X25120600Y12827000D01*
X25107277Y12791196D01*
X25127980Y12777861D01*
X25167397Y12776200D01*
X25231125Y12787541D01*
X25270539Y12811334D01*
X25284561Y12843943D01*
X25258871Y12862134D01*
X25185241Y12876409D01*
X25135700Y12849737D01*
G36*
X28553033Y12986334D02*
G01*
X28533023Y12965694D01*
X28505032Y12907821D01*
X28498800Y12872946D01*
X28512982Y12834198D01*
X28544504Y12830373D01*
X28576831Y12858537D01*
X28589608Y12889057D01*
X28595887Y12952572D01*
X28581541Y12987915D01*
X28553033Y12986334D01*
G37*
X28553033Y12986334D02*
X28533023Y12965694D01*
X28505032Y12907821D01*
X28498800Y12872946D01*
X28512982Y12834198D01*
X28544504Y12830373D01*
X28576831Y12858537D01*
X28589608Y12889057D01*
X28595887Y12952572D01*
X28581541Y12987915D01*
X28553033Y12986334D01*
G36*
X24746958Y13071424D02*
G01*
X24741542Y13035844D01*
X24756809Y12981655D01*
X24783973Y12931626D01*
X24809450Y12909509D01*
X24834445Y12921760D01*
X24841200Y12961474D01*
X24828492Y13015025D01*
X24798771Y13058794D01*
X24764646Y13078072D01*
X24746958Y13071424D01*
G37*
X24746958Y13071424D02*
X24741542Y13035844D01*
X24756809Y12981655D01*
X24783973Y12931626D01*
X24809450Y12909509D01*
X24834445Y12921760D01*
X24841200Y12961474D01*
X24828492Y13015025D01*
X24798771Y13058794D01*
X24764646Y13078072D01*
X24746958Y13071424D01*
G36*
X26299070Y16039551D02*
G01*
X26267595Y15954515D01*
X26239409Y15883127D01*
X26206962Y15831004D01*
X26199984Y15824104D01*
X26167350Y15780010D01*
X26167329Y15740485D01*
X26199689Y15722623D01*
X26201362Y15722600D01*
X26250214Y15733780D01*
X26314667Y15760857D01*
X26318022Y15762573D01*
X26372830Y15786377D01*
X26405209Y15792011D01*
X26406847Y15791020D01*
X26405837Y15759901D01*
X26378169Y15706341D01*
X26333199Y15643731D01*
X26280285Y15585457D01*
X26239568Y15551662D01*
X26156005Y15495023D01*
X26224156Y15469112D01*
X26293885Y15449470D01*
X26343994Y15443201D01*
X26393247Y15462166D01*
X26458009Y15511161D01*
X26525036Y15578335D01*
X26581085Y15651839D01*
X26585957Y15659711D01*
X26607767Y15691290D01*
X26615957Y15679731D01*
X26617707Y15641246D01*
X26600119Y15534001D01*
X26542231Y15457561D01*
X26471053Y15420211D01*
X26407295Y15395047D01*
X26313715Y15353884D01*
X26205816Y15303655D01*
X26149300Y15276307D01*
X26031206Y15215028D01*
X25946325Y15161012D01*
X25880342Y15103586D01*
X25818946Y15032072D01*
X25814976Y15026945D01*
X25715898Y14918757D01*
X25621086Y14859046D01*
X25526614Y14846155D01*
X25444302Y14870460D01*
X25362923Y14929336D01*
X25301672Y15011156D01*
X25273556Y15097717D01*
X25273000Y15110229D01*
X25295238Y15160195D01*
X25359856Y15199409D01*
X25426870Y15239179D01*
X25474313Y15287706D01*
X25477132Y15292541D01*
X25492523Y15325591D01*
X25485623Y15340525D01*
X25446642Y15341480D01*
X25378711Y15334122D01*
X25249870Y15318863D01*
X25274177Y15382794D01*
X25286994Y15467856D01*
X25268255Y15549513D01*
X25234180Y15596199D01*
X25199091Y15603236D01*
X25170735Y15570691D01*
X25154018Y15509746D01*
X25153850Y15431587D01*
X25155793Y15417559D01*
X25170996Y15322486D01*
X25056898Y15335347D01*
X24979396Y15338383D01*
X24947361Y15323575D01*
X24960543Y15288970D01*
X25018695Y15232615D01*
X25041455Y15213913D01*
X25114280Y15141407D01*
X25150160Y15064882D01*
X25155293Y15039682D01*
X25184127Y14955961D01*
X25237919Y14867986D01*
X25254184Y14847898D01*
X25322059Y14781774D01*
X25393657Y14746586D01*
X25461115Y14732363D01*
X25559736Y14726208D01*
X25657197Y14733512D01*
X25683582Y14738852D01*
X25748969Y14751823D01*
X25790604Y14753347D01*
X25795699Y14751169D01*
X25807907Y14719781D01*
X25821312Y14659189D01*
X25823430Y14646740D01*
X25822795Y14544209D01*
X25784608Y14473368D01*
X25711889Y14435340D01*
X25607660Y14431246D01*
X25474944Y14462210D01*
X25401620Y14490019D01*
X25302772Y14527181D01*
X25204659Y14557018D01*
X25149067Y14569356D01*
X25058132Y14596278D01*
X24972451Y14640251D01*
X24963948Y14646238D01*
X24898784Y14685450D01*
X24841498Y14705800D01*
X24832329Y14706600D01*
X24798698Y14703541D01*
X24802608Y14685734D01*
X24826853Y14657621D01*
X24858173Y14592365D01*
X24853499Y14552937D01*
X24836959Y14519232D01*
X24805994Y14506426D01*
X24745061Y14509823D01*
X24721157Y14512949D01*
X24651822Y14521378D01*
X24623631Y14517914D01*
X24627411Y14497659D01*
X24643701Y14471583D01*
X24691033Y14418930D01*
X24756226Y14367506D01*
X24762174Y14363700D01*
X24808880Y14331333D01*
X24831183Y14298822D01*
X24835352Y14248671D01*
X24829084Y14176880D01*
X24810741Y14060855D01*
X24782057Y13986192D01*
X24738304Y13943763D01*
X24700943Y13929491D01*
X24656306Y13909268D01*
X24660083Y13885921D01*
X24710344Y13863110D01*
X24739892Y13855637D01*
X24799703Y13826881D01*
X24813658Y13782773D01*
X24779523Y13732526D01*
X24771350Y13725958D01*
X24742260Y13700182D01*
X24758154Y13692173D01*
X24781237Y13691408D01*
X24840303Y13706412D01*
X24895537Y13739162D01*
X24921930Y13763380D01*
X24938837Y13791715D01*
X24947992Y13834738D01*
X24951129Y13903022D01*
X24949982Y14007140D01*
X24948667Y14063012D01*
X24948049Y14215335D01*
X24956660Y14325189D01*
X24977085Y14400470D01*
X25011904Y14449071D01*
X25063700Y14478888D01*
X25087211Y14486604D01*
X25137615Y14494650D01*
X25198004Y14488787D01*
X25280872Y14466666D01*
X25386667Y14430312D01*
X25538801Y14380781D01*
X25655176Y14356745D01*
X25743641Y14357647D01*
X25812048Y14382929D01*
X25834043Y14398508D01*
X25859502Y14423287D01*
X25877315Y14455685D01*
X25889636Y14505677D01*
X25898623Y14583240D01*
X25906431Y14698347D01*
X25909083Y14745652D01*
X25916718Y14874052D01*
X25924647Y14962035D01*
X25935324Y15019937D01*
X25951206Y15058095D01*
X25974749Y15086845D01*
X25994343Y15104544D01*
X26061581Y15145157D01*
X26129313Y15161411D01*
X26131667Y15161361D01*
X26171153Y15158295D01*
X26172148Y15149326D01*
X26131126Y15128639D01*
X26104730Y15116911D01*
X26039222Y15078122D01*
X25995694Y15034294D01*
X25990517Y15024100D01*
X25983048Y14977866D01*
X25978186Y14894503D01*
X25976512Y14787644D01*
X25977341Y14715058D01*
X25983008Y14456816D01*
X25893821Y14378508D01*
X25825756Y14327840D01*
X25758183Y14305000D01*
X25677882Y14300200D01*
X25580314Y14309812D01*
X25468406Y14334426D01*
X25405716Y14354458D01*
X25309286Y14386574D01*
X25216273Y14411343D01*
X25168152Y14420330D01*
X25114137Y14423828D01*
X25073642Y14414821D01*
X25044799Y14387269D01*
X25025741Y14335136D01*
X25014602Y14252383D01*
X25009514Y14132973D01*
X25008610Y13970867D01*
X25008921Y13905424D01*
X25011541Y13478407D01*
X25085121Y13419530D01*
X25128500Y13380858D01*
X25132195Y13363437D01*
X25113406Y13360527D01*
X25066204Y13349400D01*
X24993760Y13320973D01*
X24941956Y13296473D01*
X24856029Y13241296D01*
X24817016Y13188227D01*
X24825863Y13140145D01*
X24878156Y13102300D01*
X24961156Y13090908D01*
X25053241Y13122305D01*
X25143415Y13192617D01*
X25147919Y13197343D01*
X25201897Y13246962D01*
X25228307Y13254360D01*
X25224913Y13221348D01*
X25194913Y13159273D01*
X25157856Y13071684D01*
X25162239Y13009088D01*
X25209260Y12965472D01*
X25235903Y12953619D01*
X25317525Y12928675D01*
X25363205Y12934126D01*
X25380398Y12973963D01*
X25378954Y13030200D01*
X25380254Y13101219D01*
X25398123Y13131140D01*
X25427669Y13116313D01*
X25449741Y13082981D01*
X25513439Y12995822D01*
X25584034Y12958413D01*
X25660471Y12971096D01*
X25705213Y13000027D01*
X25745069Y13056885D01*
X25737983Y13118161D01*
X25686196Y13175558D01*
X25652200Y13196231D01*
X25601191Y13229851D01*
X25577940Y13259470D01*
X25577800Y13261164D01*
X25596830Y13276250D01*
X25645592Y13266878D01*
X25711594Y13236833D01*
X25761381Y13205518D01*
X25830662Y13156521D01*
X25846181Y13218352D01*
X25859636Y13291416D01*
X25850446Y13336757D01*
X25811148Y13360024D01*
X25734277Y13366862D01*
X25652581Y13364833D01*
X25534544Y13364441D01*
X25455570Y13380498D01*
X25404724Y13420460D01*
X25371071Y13491783D01*
X25350419Y13570862D01*
X25334313Y13698148D01*
X25343502Y13808875D01*
X25374846Y13895284D01*
X25425202Y13949619D01*
X25491429Y13964121D01*
X25508436Y13961042D01*
X25567334Y13936448D01*
X25638656Y13894212D01*
X25655509Y13882410D01*
X25854900Y13767281D01*
X25971500Y13724410D01*
X26026761Y13698221D01*
X26046411Y13653447D01*
X26047700Y13626236D01*
X26057114Y13560927D01*
X26083299Y13542905D01*
X26123171Y13572698D01*
X26149300Y13608844D01*
X26200303Y13671453D01*
X26242893Y13684254D01*
X26278580Y13647261D01*
X26294282Y13610169D01*
X26322320Y13529738D01*
X26369160Y13587583D01*
X26411005Y13676202D01*
X26405950Y13782038D01*
X26391229Y13828647D01*
X26377779Y13879312D01*
X26392281Y13889540D01*
X26436107Y13859487D01*
X26461693Y13836650D01*
X26523359Y13779500D01*
X26508691Y13881100D01*
X26498610Y13955102D01*
X26485131Y14059518D01*
X26470830Y14174314D01*
X26467874Y14198600D01*
X26452679Y14308043D01*
X26435601Y14406516D01*
X26419760Y14476554D01*
X26416163Y14488141D01*
X26400602Y14559007D01*
X26391541Y14650642D01*
X26390600Y14686945D01*
X26407876Y14798580D01*
X26462502Y14885245D01*
X26558676Y14951455D01*
X26677405Y14995359D01*
X26788457Y15027091D01*
X26906876Y15060917D01*
X26958866Y15075762D01*
X27046542Y15109529D01*
X27132041Y15156886D01*
X27205077Y15210007D01*
X27255361Y15261068D01*
X27272604Y15302243D01*
X27269483Y15312021D01*
X27243615Y15324765D01*
X27197485Y15300389D01*
X27185500Y15291248D01*
X27118218Y15255289D01*
X27046293Y15241333D01*
X26986859Y15250445D01*
X26958952Y15277146D01*
X26942729Y15299758D01*
X26912146Y15291775D01*
X26882757Y15273705D01*
X26828764Y15245374D01*
X26809503Y15250505D01*
X26825910Y15284628D01*
X26870001Y15334493D01*
X26926551Y15410293D01*
X26969085Y15500252D01*
X26973926Y15516153D01*
X26998768Y15585889D01*
X27020349Y15608532D01*
X27035601Y15587790D01*
X27041457Y15527369D01*
X27036040Y15441071D01*
X27028439Y15356132D01*
X27031205Y15310278D01*
X27045992Y15292547D01*
X27058690Y15290800D01*
X27102967Y15312306D01*
X27150594Y15365941D01*
X27189660Y15435380D01*
X27207195Y15494333D01*
X27222134Y15546656D01*
X27244593Y15549437D01*
X27273721Y15503240D01*
X27300992Y15432177D01*
X27335463Y15349269D01*
X27374877Y15302869D01*
X27414538Y15283482D01*
X27469344Y15270690D01*
X27498860Y15272993D01*
X27495981Y15301059D01*
X27474072Y15357716D01*
X27457400Y15392400D01*
X27427597Y15457118D01*
X27413456Y15500823D01*
X27414128Y15509995D01*
X27437865Y15501297D01*
X27487468Y15467236D01*
X27532603Y15431334D01*
X27618741Y15368917D01*
X27676379Y15346645D01*
X27702885Y15362573D01*
X27695625Y15414755D01*
X27651966Y15501247D01*
X27644200Y15513768D01*
X27618882Y15573062D01*
X27629908Y15601078D01*
X27669626Y15591934D01*
X27707837Y15562687D01*
X27770787Y15510816D01*
X27830351Y15471697D01*
X27832051Y15470810D01*
X27876133Y15456384D01*
X27888289Y15476587D01*
X27868948Y15533758D01*
X27850516Y15571330D01*
X27814209Y15617397D01*
X27757518Y15665164D01*
X27692065Y15708017D01*
X27629471Y15739343D01*
X27581356Y15752530D01*
X27559340Y15740964D01*
X27559000Y15737227D01*
X27544241Y15693228D01*
X27498926Y15686974D01*
X27421496Y15718430D01*
X27394968Y15733332D01*
X27320759Y15775875D01*
X27280453Y15793898D01*
X27264353Y15788950D01*
X27262762Y15762581D01*
X27263373Y15754350D01*
X27247128Y15721917D01*
X27199416Y15714157D01*
X27132523Y15729927D01*
X27058732Y15768086D01*
X27049865Y15774209D01*
X26973090Y15828877D01*
X26921302Y15763039D01*
X26873262Y15713448D01*
X26837458Y15697527D01*
X26822453Y15718881D01*
X26822400Y15721391D01*
X26805602Y15750059D01*
X26761362Y15802928D01*
X26698909Y15869045D01*
X26692699Y15875283D01*
X26624448Y15941623D01*
X26580803Y15976269D01*
X26551557Y15984522D01*
X26526505Y15971684D01*
X26519249Y15965392D01*
X26477826Y15933540D01*
X26449055Y15935490D01*
X26420415Y15976534D01*
X26401357Y16015209D01*
X26365048Y16071979D01*
X26331538Y16080359D01*
X26299070Y16039551D01*
G37*
X26299070Y16039551D02*
X26267595Y15954515D01*
X26239409Y15883127D01*
X26206962Y15831004D01*
X26199984Y15824104D01*
X26167350Y15780010D01*
X26167329Y15740485D01*
X26199689Y15722623D01*
X26201362Y15722600D01*
X26250214Y15733780D01*
X26314667Y15760857D01*
X26318022Y15762573D01*
X26372830Y15786377D01*
X26405209Y15792011D01*
X26406847Y15791020D01*
X26405837Y15759901D01*
X26378169Y15706341D01*
X26333199Y15643731D01*
X26280285Y15585457D01*
X26239568Y15551662D01*
X26156005Y15495023D01*
X26224156Y15469112D01*
X26293885Y15449470D01*
X26343994Y15443201D01*
X26393247Y15462166D01*
X26458009Y15511161D01*
X26525036Y15578335D01*
X26581085Y15651839D01*
X26585957Y15659711D01*
X26607767Y15691290D01*
X26615957Y15679731D01*
X26617707Y15641246D01*
X26600119Y15534001D01*
X26542231Y15457561D01*
X26471053Y15420211D01*
X26407295Y15395047D01*
X26313715Y15353884D01*
X26205816Y15303655D01*
X26149300Y15276307D01*
X26031206Y15215028D01*
X25946325Y15161012D01*
X25880342Y15103586D01*
X25818946Y15032072D01*
X25814976Y15026945D01*
X25715898Y14918757D01*
X25621086Y14859046D01*
X25526614Y14846155D01*
X25444302Y14870460D01*
X25362923Y14929336D01*
X25301672Y15011156D01*
X25273556Y15097717D01*
X25273000Y15110229D01*
X25295238Y15160195D01*
X25359856Y15199409D01*
X25426870Y15239179D01*
X25474313Y15287706D01*
X25477132Y15292541D01*
X25492523Y15325591D01*
X25485623Y15340525D01*
X25446642Y15341480D01*
X25378711Y15334122D01*
X25249870Y15318863D01*
X25274177Y15382794D01*
X25286994Y15467856D01*
X25268255Y15549513D01*
X25234180Y15596199D01*
X25199091Y15603236D01*
X25170735Y15570691D01*
X25154018Y15509746D01*
X25153850Y15431587D01*
X25155793Y15417559D01*
X25170996Y15322486D01*
X25056898Y15335347D01*
X24979396Y15338383D01*
X24947361Y15323575D01*
X24960543Y15288970D01*
X25018695Y15232615D01*
X25041455Y15213913D01*
X25114280Y15141407D01*
X25150160Y15064882D01*
X25155293Y15039682D01*
X25184127Y14955961D01*
X25237919Y14867986D01*
X25254184Y14847898D01*
X25322059Y14781774D01*
X25393657Y14746586D01*
X25461115Y14732363D01*
X25559736Y14726208D01*
X25657197Y14733512D01*
X25683582Y14738852D01*
X25748969Y14751823D01*
X25790604Y14753347D01*
X25795699Y14751169D01*
X25807907Y14719781D01*
X25821312Y14659189D01*
X25823430Y14646740D01*
X25822795Y14544209D01*
X25784608Y14473368D01*
X25711889Y14435340D01*
X25607660Y14431246D01*
X25474944Y14462210D01*
X25401620Y14490019D01*
X25302772Y14527181D01*
X25204659Y14557018D01*
X25149067Y14569356D01*
X25058132Y14596278D01*
X24972451Y14640251D01*
X24963948Y14646238D01*
X24898784Y14685450D01*
X24841498Y14705800D01*
X24832329Y14706600D01*
X24798698Y14703541D01*
X24802608Y14685734D01*
X24826853Y14657621D01*
X24858173Y14592365D01*
X24853499Y14552937D01*
X24836959Y14519232D01*
X24805994Y14506426D01*
X24745061Y14509823D01*
X24721157Y14512949D01*
X24651822Y14521378D01*
X24623631Y14517914D01*
X24627411Y14497659D01*
X24643701Y14471583D01*
X24691033Y14418930D01*
X24756226Y14367506D01*
X24762174Y14363700D01*
X24808880Y14331333D01*
X24831183Y14298822D01*
X24835352Y14248671D01*
X24829084Y14176880D01*
X24810741Y14060855D01*
X24782057Y13986192D01*
X24738304Y13943763D01*
X24700943Y13929491D01*
X24656306Y13909268D01*
X24660083Y13885921D01*
X24710344Y13863110D01*
X24739892Y13855637D01*
X24799703Y13826881D01*
X24813658Y13782773D01*
X24779523Y13732526D01*
X24771350Y13725958D01*
X24742260Y13700182D01*
X24758154Y13692173D01*
X24781237Y13691408D01*
X24840303Y13706412D01*
X24895537Y13739162D01*
X24921930Y13763380D01*
X24938837Y13791715D01*
X24947992Y13834738D01*
X24951129Y13903022D01*
X24949982Y14007140D01*
X24948667Y14063012D01*
X24948049Y14215335D01*
X24956660Y14325189D01*
X24977085Y14400470D01*
X25011904Y14449071D01*
X25063700Y14478888D01*
X25087211Y14486604D01*
X25137615Y14494650D01*
X25198004Y14488787D01*
X25280872Y14466666D01*
X25386667Y14430312D01*
X25538801Y14380781D01*
X25655176Y14356745D01*
X25743641Y14357647D01*
X25812048Y14382929D01*
X25834043Y14398508D01*
X25859502Y14423287D01*
X25877315Y14455685D01*
X25889636Y14505677D01*
X25898623Y14583240D01*
X25906431Y14698347D01*
X25909083Y14745652D01*
X25916718Y14874052D01*
X25924647Y14962035D01*
X25935324Y15019937D01*
X25951206Y15058095D01*
X25974749Y15086845D01*
X25994343Y15104544D01*
X26061581Y15145157D01*
X26129313Y15161411D01*
X26131667Y15161361D01*
X26171153Y15158295D01*
X26172148Y15149326D01*
X26131126Y15128639D01*
X26104730Y15116911D01*
X26039222Y15078122D01*
X25995694Y15034294D01*
X25990517Y15024100D01*
X25983048Y14977866D01*
X25978186Y14894503D01*
X25976512Y14787644D01*
X25977341Y14715058D01*
X25983008Y14456816D01*
X25893821Y14378508D01*
X25825756Y14327840D01*
X25758183Y14305000D01*
X25677882Y14300200D01*
X25580314Y14309812D01*
X25468406Y14334426D01*
X25405716Y14354458D01*
X25309286Y14386574D01*
X25216273Y14411343D01*
X25168152Y14420330D01*
X25114137Y14423828D01*
X25073642Y14414821D01*
X25044799Y14387269D01*
X25025741Y14335136D01*
X25014602Y14252383D01*
X25009514Y14132973D01*
X25008610Y13970867D01*
X25008921Y13905424D01*
X25011541Y13478407D01*
X25085121Y13419530D01*
X25128500Y13380858D01*
X25132195Y13363437D01*
X25113406Y13360527D01*
X25066204Y13349400D01*
X24993760Y13320973D01*
X24941956Y13296473D01*
X24856029Y13241296D01*
X24817016Y13188227D01*
X24825863Y13140145D01*
X24878156Y13102300D01*
X24961156Y13090908D01*
X25053241Y13122305D01*
X25143415Y13192617D01*
X25147919Y13197343D01*
X25201897Y13246962D01*
X25228307Y13254360D01*
X25224913Y13221348D01*
X25194913Y13159273D01*
X25157856Y13071684D01*
X25162239Y13009088D01*
X25209260Y12965472D01*
X25235903Y12953619D01*
X25317525Y12928675D01*
X25363205Y12934126D01*
X25380398Y12973963D01*
X25378954Y13030200D01*
X25380254Y13101219D01*
X25398123Y13131140D01*
X25427669Y13116313D01*
X25449741Y13082981D01*
X25513439Y12995822D01*
X25584034Y12958413D01*
X25660471Y12971096D01*
X25705213Y13000027D01*
X25745069Y13056885D01*
X25737983Y13118161D01*
X25686196Y13175558D01*
X25652200Y13196231D01*
X25601191Y13229851D01*
X25577940Y13259470D01*
X25577800Y13261164D01*
X25596830Y13276250D01*
X25645592Y13266878D01*
X25711594Y13236833D01*
X25761381Y13205518D01*
X25830662Y13156521D01*
X25846181Y13218352D01*
X25859636Y13291416D01*
X25850446Y13336757D01*
X25811148Y13360024D01*
X25734277Y13366862D01*
X25652581Y13364833D01*
X25534544Y13364441D01*
X25455570Y13380498D01*
X25404724Y13420460D01*
X25371071Y13491783D01*
X25350419Y13570862D01*
X25334313Y13698148D01*
X25343502Y13808875D01*
X25374846Y13895284D01*
X25425202Y13949619D01*
X25491429Y13964121D01*
X25508436Y13961042D01*
X25567334Y13936448D01*
X25638656Y13894212D01*
X25655509Y13882410D01*
X25854900Y13767281D01*
X25971500Y13724410D01*
X26026761Y13698221D01*
X26046411Y13653447D01*
X26047700Y13626236D01*
X26057114Y13560927D01*
X26083299Y13542905D01*
X26123171Y13572698D01*
X26149300Y13608844D01*
X26200303Y13671453D01*
X26242893Y13684254D01*
X26278580Y13647261D01*
X26294282Y13610169D01*
X26322320Y13529738D01*
X26369160Y13587583D01*
X26411005Y13676202D01*
X26405950Y13782038D01*
X26391229Y13828647D01*
X26377779Y13879312D01*
X26392281Y13889540D01*
X26436107Y13859487D01*
X26461693Y13836650D01*
X26523359Y13779500D01*
X26508691Y13881100D01*
X26498610Y13955102D01*
X26485131Y14059518D01*
X26470830Y14174314D01*
X26467874Y14198600D01*
X26452679Y14308043D01*
X26435601Y14406516D01*
X26419760Y14476554D01*
X26416163Y14488141D01*
X26400602Y14559007D01*
X26391541Y14650642D01*
X26390600Y14686945D01*
X26407876Y14798580D01*
X26462502Y14885245D01*
X26558676Y14951455D01*
X26677405Y14995359D01*
X26788457Y15027091D01*
X26906876Y15060917D01*
X26958866Y15075762D01*
X27046542Y15109529D01*
X27132041Y15156886D01*
X27205077Y15210007D01*
X27255361Y15261068D01*
X27272604Y15302243D01*
X27269483Y15312021D01*
X27243615Y15324765D01*
X27197485Y15300389D01*
X27185500Y15291248D01*
X27118218Y15255289D01*
X27046293Y15241333D01*
X26986859Y15250445D01*
X26958952Y15277146D01*
X26942729Y15299758D01*
X26912146Y15291775D01*
X26882757Y15273705D01*
X26828764Y15245374D01*
X26809503Y15250505D01*
X26825910Y15284628D01*
X26870001Y15334493D01*
X26926551Y15410293D01*
X26969085Y15500252D01*
X26973926Y15516153D01*
X26998768Y15585889D01*
X27020349Y15608532D01*
X27035601Y15587790D01*
X27041457Y15527369D01*
X27036040Y15441071D01*
X27028439Y15356132D01*
X27031205Y15310278D01*
X27045992Y15292547D01*
X27058690Y15290800D01*
X27102967Y15312306D01*
X27150594Y15365941D01*
X27189660Y15435380D01*
X27207195Y15494333D01*
X27222134Y15546656D01*
X27244593Y15549437D01*
X27273721Y15503240D01*
X27300992Y15432177D01*
X27335463Y15349269D01*
X27374877Y15302869D01*
X27414538Y15283482D01*
X27469344Y15270690D01*
X27498860Y15272993D01*
X27495981Y15301059D01*
X27474072Y15357716D01*
X27457400Y15392400D01*
X27427597Y15457118D01*
X27413456Y15500823D01*
X27414128Y15509995D01*
X27437865Y15501297D01*
X27487468Y15467236D01*
X27532603Y15431334D01*
X27618741Y15368917D01*
X27676379Y15346645D01*
X27702885Y15362573D01*
X27695625Y15414755D01*
X27651966Y15501247D01*
X27644200Y15513768D01*
X27618882Y15573062D01*
X27629908Y15601078D01*
X27669626Y15591934D01*
X27707837Y15562687D01*
X27770787Y15510816D01*
X27830351Y15471697D01*
X27832051Y15470810D01*
X27876133Y15456384D01*
X27888289Y15476587D01*
X27868948Y15533758D01*
X27850516Y15571330D01*
X27814209Y15617397D01*
X27757518Y15665164D01*
X27692065Y15708017D01*
X27629471Y15739343D01*
X27581356Y15752530D01*
X27559340Y15740964D01*
X27559000Y15737227D01*
X27544241Y15693228D01*
X27498926Y15686974D01*
X27421496Y15718430D01*
X27394968Y15733332D01*
X27320759Y15775875D01*
X27280453Y15793898D01*
X27264353Y15788950D01*
X27262762Y15762581D01*
X27263373Y15754350D01*
X27247128Y15721917D01*
X27199416Y15714157D01*
X27132523Y15729927D01*
X27058732Y15768086D01*
X27049865Y15774209D01*
X26973090Y15828877D01*
X26921302Y15763039D01*
X26873262Y15713448D01*
X26837458Y15697527D01*
X26822453Y15718881D01*
X26822400Y15721391D01*
X26805602Y15750059D01*
X26761362Y15802928D01*
X26698909Y15869045D01*
X26692699Y15875283D01*
X26624448Y15941623D01*
X26580803Y15976269D01*
X26551557Y15984522D01*
X26526505Y15971684D01*
X26519249Y15965392D01*
X26477826Y15933540D01*
X26449055Y15935490D01*
X26420415Y15976534D01*
X26401357Y16015209D01*
X26365048Y16071979D01*
X26331538Y16080359D01*
X26299070Y16039551D01*
G36*
X28454140Y14874571D02*
G01*
X28369499Y14841140D01*
X28310298Y14778197D01*
X28284878Y14729568D01*
X28228294Y14638505D01*
X28160224Y14590010D01*
X28097419Y14585622D01*
X28079753Y14597630D01*
X28104659Y14620406D01*
X28136850Y14638680D01*
X28195824Y14680600D01*
X28217939Y14732159D01*
X28219400Y14758053D01*
X28216681Y14812997D01*
X28202755Y14828389D01*
X28168968Y14805068D01*
X28129480Y14766771D01*
X28083771Y14727319D01*
X28038021Y14710414D01*
X27971732Y14710672D01*
X27931476Y14714756D01*
X27833644Y14733640D01*
X27720420Y14766610D01*
X27647900Y14793682D01*
X27487504Y14843859D01*
X27338596Y14856948D01*
X27215687Y14833443D01*
X27133610Y14820790D01*
X27009863Y14830276D01*
X26982514Y14834397D01*
X26815000Y14842875D01*
X26658255Y14816366D01*
X26526005Y14757626D01*
X26496590Y14736842D01*
X26457833Y14697980D01*
X26449945Y14653487D01*
X26460030Y14603413D01*
X26475398Y14554564D01*
X26498637Y14526848D01*
X26543595Y14512109D01*
X26624116Y14502192D01*
X26633440Y14501271D01*
X26805233Y14464417D01*
X26942037Y14391456D01*
X27042958Y14283057D01*
X27104601Y14148470D01*
X27119768Y14083708D01*
X27115320Y14032145D01*
X27087383Y13970734D01*
X27069467Y13939448D01*
X27034934Y13869577D01*
X27000071Y13781461D01*
X26969019Y13688487D01*
X26945921Y13604038D01*
X26934918Y13541500D01*
X26938268Y13515466D01*
X26961099Y13525346D01*
X27008560Y13563190D01*
X27063700Y13614400D01*
X27136201Y13679575D01*
X27180680Y13706214D01*
X27195676Y13694267D01*
X27179725Y13643682D01*
X27167173Y13618022D01*
X27143497Y13545648D01*
X27130356Y13452584D01*
X27128781Y13358992D01*
X27139802Y13285032D01*
X27149075Y13263635D01*
X27171196Y13250147D01*
X27201264Y13278572D01*
X27212186Y13294491D01*
X27242725Y13353004D01*
X27254200Y13396412D01*
X27264861Y13453047D01*
X27290310Y13509736D01*
X27320747Y13548581D01*
X27341127Y13555174D01*
X27361631Y13525444D01*
X27363344Y13497367D01*
X27368212Y13449928D01*
X27385912Y13371313D01*
X27412644Y13278342D01*
X27413310Y13276245D01*
X27442854Y13187979D01*
X27463700Y13141468D01*
X27480755Y13129521D01*
X27498928Y13144948D01*
X27501017Y13147750D01*
X27525780Y13206718D01*
X27533600Y13263655D01*
X27541560Y13321088D01*
X27564316Y13330063D01*
X27600187Y13290065D01*
X27603407Y13285000D01*
X27658920Y13226231D01*
X27731414Y13186225D01*
X27802400Y13173148D01*
X27836960Y13181830D01*
X27882756Y13202794D01*
X27905745Y13195987D01*
X27913741Y13152874D01*
X27914600Y13097024D01*
X27917125Y13027612D01*
X27932757Y12992907D01*
X27973587Y12976823D01*
X28009850Y12970303D01*
X28094273Y12957813D01*
X28142704Y12955688D01*
X28168875Y12963890D01*
X28175979Y12969846D01*
X28175184Y12999941D01*
X28154532Y13057051D01*
X28141596Y13084146D01*
X28112797Y13151767D01*
X28114471Y13179086D01*
X28144901Y13165101D01*
X28195923Y13115862D01*
X28284744Y13041448D01*
X28375091Y13004034D01*
X28456099Y13007817D01*
X28465597Y13011653D01*
X28516057Y13053892D01*
X28523674Y13107024D01*
X28491590Y13160356D01*
X28422948Y13203200D01*
X28407654Y13208742D01*
X28341853Y13236714D01*
X28325418Y13259572D01*
X28357038Y13275746D01*
X28435402Y13283666D01*
X28470647Y13284200D01*
X28554966Y13285934D01*
X28601981Y13294698D01*
X28625159Y13315834D01*
X28636841Y13350130D01*
X28640960Y13422101D01*
X28608521Y13464752D01*
X28537715Y13478697D01*
X28426729Y13464549D01*
X28352750Y13446352D01*
X28306712Y13443526D01*
X28296712Y13462635D01*
X28320858Y13491824D01*
X28363646Y13514529D01*
X28431691Y13540399D01*
X28374398Y13596450D01*
X28317106Y13652500D01*
X28274603Y13591756D01*
X28199245Y13496196D01*
X28122994Y13420178D01*
X28055595Y13372424D01*
X28016200Y13360400D01*
X27944882Y13384505D01*
X27871212Y13452680D01*
X27800107Y13558720D01*
X27736481Y13696417D01*
X27724556Y13728700D01*
X27675204Y13866609D01*
X27637843Y13964866D01*
X27607786Y14031806D01*
X27580342Y14075760D01*
X27550823Y14105061D01*
X27514540Y14128042D01*
X27493574Y14139155D01*
X27383826Y14216889D01*
X27311864Y14320816D01*
X27276397Y14429221D01*
X27245674Y14516038D01*
X27200382Y14592997D01*
X27187142Y14608564D01*
X27149655Y14658176D01*
X27146117Y14689206D01*
X27148991Y14691670D01*
X27181120Y14684581D01*
X27225884Y14641981D01*
X27275265Y14574772D01*
X27321248Y14493856D01*
X27355662Y14410612D01*
X27393192Y14317898D01*
X27441673Y14254362D01*
X27510275Y14215368D01*
X27608169Y14196276D01*
X27744528Y14192448D01*
X27785335Y14193323D01*
X27906895Y14195042D01*
X27987490Y14191383D01*
X28036772Y14181246D01*
X28064394Y14163531D01*
X28066319Y14161321D01*
X28114813Y14124329D01*
X28151918Y14134438D01*
X28168435Y14188483D01*
X28168600Y14196523D01*
X28163810Y14265192D01*
X28143515Y14316167D01*
X28098832Y14359533D01*
X28020877Y14405376D01*
X27956552Y14437250D01*
X27856075Y14491087D01*
X27768554Y14547951D01*
X27702337Y14601218D01*
X27665776Y14644264D01*
X27664926Y14668592D01*
X27691234Y14663094D01*
X27741877Y14633846D01*
X27764509Y14617976D01*
X27934898Y14515270D01*
X28112668Y14455887D01*
X28219400Y14439331D01*
X28333125Y14420093D01*
X28423854Y14390230D01*
X28454350Y14373256D01*
X28524200Y14324080D01*
X28524200Y14388340D01*
X28503015Y14460055D01*
X28450854Y14525483D01*
X28395878Y14558875D01*
X28376608Y14585166D01*
X28381502Y14600150D01*
X28425450Y14628176D01*
X28492389Y14622015D01*
X28570162Y14584156D01*
X28610191Y14553348D01*
X28664735Y14512638D01*
X28703574Y14496762D01*
X28712856Y14500417D01*
X28714101Y14543018D01*
X28690781Y14609132D01*
X28649018Y14681786D01*
X28645810Y14686332D01*
X28628016Y14728226D01*
X28632256Y14746923D01*
X28665706Y14749208D01*
X28714296Y14721020D01*
X28764232Y14673641D01*
X28801720Y14618353D01*
X28808052Y14603150D01*
X28835143Y14551783D01*
X28859626Y14548180D01*
X28876038Y14589387D01*
X28879801Y14641968D01*
X28868253Y14709882D01*
X28826645Y14770722D01*
X28790017Y14805569D01*
X28720753Y14857030D01*
X28652090Y14879903D01*
X28575312Y14884400D01*
X28454140Y14874571D01*
G37*
X28454140Y14874571D02*
X28369499Y14841140D01*
X28310298Y14778197D01*
X28284878Y14729568D01*
X28228294Y14638505D01*
X28160224Y14590010D01*
X28097419Y14585622D01*
X28079753Y14597630D01*
X28104659Y14620406D01*
X28136850Y14638680D01*
X28195824Y14680600D01*
X28217939Y14732159D01*
X28219400Y14758053D01*
X28216681Y14812997D01*
X28202755Y14828389D01*
X28168968Y14805068D01*
X28129480Y14766771D01*
X28083771Y14727319D01*
X28038021Y14710414D01*
X27971732Y14710672D01*
X27931476Y14714756D01*
X27833644Y14733640D01*
X27720420Y14766610D01*
X27647900Y14793682D01*
X27487504Y14843859D01*
X27338596Y14856948D01*
X27215687Y14833443D01*
X27133610Y14820790D01*
X27009863Y14830276D01*
X26982514Y14834397D01*
X26815000Y14842875D01*
X26658255Y14816366D01*
X26526005Y14757626D01*
X26496590Y14736842D01*
X26457833Y14697980D01*
X26449945Y14653487D01*
X26460030Y14603413D01*
X26475398Y14554564D01*
X26498637Y14526848D01*
X26543595Y14512109D01*
X26624116Y14502192D01*
X26633440Y14501271D01*
X26805233Y14464417D01*
X26942037Y14391456D01*
X27042958Y14283057D01*
X27104601Y14148470D01*
X27119768Y14083708D01*
X27115320Y14032145D01*
X27087383Y13970734D01*
X27069467Y13939448D01*
X27034934Y13869577D01*
X27000071Y13781461D01*
X26969019Y13688487D01*
X26945921Y13604038D01*
X26934918Y13541500D01*
X26938268Y13515466D01*
X26961099Y13525346D01*
X27008560Y13563190D01*
X27063700Y13614400D01*
X27136201Y13679575D01*
X27180680Y13706214D01*
X27195676Y13694267D01*
X27179725Y13643682D01*
X27167173Y13618022D01*
X27143497Y13545648D01*
X27130356Y13452584D01*
X27128781Y13358992D01*
X27139802Y13285032D01*
X27149075Y13263635D01*
X27171196Y13250147D01*
X27201264Y13278572D01*
X27212186Y13294491D01*
X27242725Y13353004D01*
X27254200Y13396412D01*
X27264861Y13453047D01*
X27290310Y13509736D01*
X27320747Y13548581D01*
X27341127Y13555174D01*
X27361631Y13525444D01*
X27363344Y13497367D01*
X27368212Y13449928D01*
X27385912Y13371313D01*
X27412644Y13278342D01*
X27413310Y13276245D01*
X27442854Y13187979D01*
X27463700Y13141468D01*
X27480755Y13129521D01*
X27498928Y13144948D01*
X27501017Y13147750D01*
X27525780Y13206718D01*
X27533600Y13263655D01*
X27541560Y13321088D01*
X27564316Y13330063D01*
X27600187Y13290065D01*
X27603407Y13285000D01*
X27658920Y13226231D01*
X27731414Y13186225D01*
X27802400Y13173148D01*
X27836960Y13181830D01*
X27882756Y13202794D01*
X27905745Y13195987D01*
X27913741Y13152874D01*
X27914600Y13097024D01*
X27917125Y13027612D01*
X27932757Y12992907D01*
X27973587Y12976823D01*
X28009850Y12970303D01*
X28094273Y12957813D01*
X28142704Y12955688D01*
X28168875Y12963890D01*
X28175979Y12969846D01*
X28175184Y12999941D01*
X28154532Y13057051D01*
X28141596Y13084146D01*
X28112797Y13151767D01*
X28114471Y13179086D01*
X28144901Y13165101D01*
X28195923Y13115862D01*
X28284744Y13041448D01*
X28375091Y13004034D01*
X28456099Y13007817D01*
X28465597Y13011653D01*
X28516057Y13053892D01*
X28523674Y13107024D01*
X28491590Y13160356D01*
X28422948Y13203200D01*
X28407654Y13208742D01*
X28341853Y13236714D01*
X28325418Y13259572D01*
X28357038Y13275746D01*
X28435402Y13283666D01*
X28470647Y13284200D01*
X28554966Y13285934D01*
X28601981Y13294698D01*
X28625159Y13315834D01*
X28636841Y13350130D01*
X28640960Y13422101D01*
X28608521Y13464752D01*
X28537715Y13478697D01*
X28426729Y13464549D01*
X28352750Y13446352D01*
X28306712Y13443526D01*
X28296712Y13462635D01*
X28320858Y13491824D01*
X28363646Y13514529D01*
X28431691Y13540399D01*
X28374398Y13596450D01*
X28317106Y13652500D01*
X28274603Y13591756D01*
X28199245Y13496196D01*
X28122994Y13420178D01*
X28055595Y13372424D01*
X28016200Y13360400D01*
X27944882Y13384505D01*
X27871212Y13452680D01*
X27800107Y13558720D01*
X27736481Y13696417D01*
X27724556Y13728700D01*
X27675204Y13866609D01*
X27637843Y13964866D01*
X27607786Y14031806D01*
X27580342Y14075760D01*
X27550823Y14105061D01*
X27514540Y14128042D01*
X27493574Y14139155D01*
X27383826Y14216889D01*
X27311864Y14320816D01*
X27276397Y14429221D01*
X27245674Y14516038D01*
X27200382Y14592997D01*
X27187142Y14608564D01*
X27149655Y14658176D01*
X27146117Y14689206D01*
X27148991Y14691670D01*
X27181120Y14684581D01*
X27225884Y14641981D01*
X27275265Y14574772D01*
X27321248Y14493856D01*
X27355662Y14410612D01*
X27393192Y14317898D01*
X27441673Y14254362D01*
X27510275Y14215368D01*
X27608169Y14196276D01*
X27744528Y14192448D01*
X27785335Y14193323D01*
X27906895Y14195042D01*
X27987490Y14191383D01*
X28036772Y14181246D01*
X28064394Y14163531D01*
X28066319Y14161321D01*
X28114813Y14124329D01*
X28151918Y14134438D01*
X28168435Y14188483D01*
X28168600Y14196523D01*
X28163810Y14265192D01*
X28143515Y14316167D01*
X28098832Y14359533D01*
X28020877Y14405376D01*
X27956552Y14437250D01*
X27856075Y14491087D01*
X27768554Y14547951D01*
X27702337Y14601218D01*
X27665776Y14644264D01*
X27664926Y14668592D01*
X27691234Y14663094D01*
X27741877Y14633846D01*
X27764509Y14617976D01*
X27934898Y14515270D01*
X28112668Y14455887D01*
X28219400Y14439331D01*
X28333125Y14420093D01*
X28423854Y14390230D01*
X28454350Y14373256D01*
X28524200Y14324080D01*
X28524200Y14388340D01*
X28503015Y14460055D01*
X28450854Y14525483D01*
X28395878Y14558875D01*
X28376608Y14585166D01*
X28381502Y14600150D01*
X28425450Y14628176D01*
X28492389Y14622015D01*
X28570162Y14584156D01*
X28610191Y14553348D01*
X28664735Y14512638D01*
X28703574Y14496762D01*
X28712856Y14500417D01*
X28714101Y14543018D01*
X28690781Y14609132D01*
X28649018Y14681786D01*
X28645810Y14686332D01*
X28628016Y14728226D01*
X28632256Y14746923D01*
X28665706Y14749208D01*
X28714296Y14721020D01*
X28764232Y14673641D01*
X28801720Y14618353D01*
X28808052Y14603150D01*
X28835143Y14551783D01*
X28859626Y14548180D01*
X28876038Y14589387D01*
X28879801Y14641968D01*
X28868253Y14709882D01*
X28826645Y14770722D01*
X28790017Y14805569D01*
X28720753Y14857030D01*
X28652090Y14879903D01*
X28575312Y14884400D01*
X28454140Y14874571D01*
G36*
X25935490Y13290791D02*
G01*
X25935011Y13247137D01*
X25953030Y13197802D01*
X25984200Y13163095D01*
X26022525Y13144520D01*
X26034548Y13160020D01*
X26035000Y13171355D01*
X26023081Y13227738D01*
X25995215Y13280629D01*
X25963246Y13308795D01*
X25957907Y13309600D01*
X25935490Y13290791D01*
G37*
X25935490Y13290791D02*
X25935011Y13247137D01*
X25953030Y13197802D01*
X25984200Y13163095D01*
X26022525Y13144520D01*
X26034548Y13160020D01*
X26035000Y13171355D01*
X26023081Y13227738D01*
X25995215Y13280629D01*
X25963246Y13308795D01*
X25957907Y13309600D01*
X25935490Y13290791D01*
G36*
X28722278Y13416588D02*
G01*
X28712554Y13370867D01*
X28724057Y13320915D01*
X28744147Y13295843D01*
X28793836Y13265612D01*
X28824894Y13260288D01*
X28829000Y13267710D01*
X28819556Y13309152D01*
X28797451Y13364772D01*
X28772028Y13414071D01*
X28752631Y13436548D01*
X28752027Y13436600D01*
X28722278Y13416588D01*
G37*
X28722278Y13416588D02*
X28712554Y13370867D01*
X28724057Y13320915D01*
X28744147Y13295843D01*
X28793836Y13265612D01*
X28824894Y13260288D01*
X28829000Y13267710D01*
X28819556Y13309152D01*
X28797451Y13364772D01*
X28772028Y13414071D01*
X28752631Y13436548D01*
X28752027Y13436600D01*
X28722278Y13416588D01*
G36*
X28431299Y13699561D02*
G01*
X28422600Y13677900D01*
X28443774Y13652635D01*
X28492529Y13639823D01*
X28546717Y13641548D01*
X28584191Y13659891D01*
X28586056Y13662539D01*
X28579207Y13688139D01*
X28535692Y13708152D01*
X28471323Y13716000D01*
X28431299Y13699561D01*
G37*
X28431299Y13699561D02*
X28422600Y13677900D01*
X28443774Y13652635D01*
X28492529Y13639823D01*
X28546717Y13641548D01*
X28584191Y13659891D01*
X28586056Y13662539D01*
X28579207Y13688139D01*
X28535692Y13708152D01*
X28471323Y13716000D01*
X28431299Y13699561D01*
G36*
X28589058Y15306695D02*
G01*
X28551624Y15281129D01*
X28526286Y15247200D01*
X28524200Y15236890D01*
X28539139Y15215496D01*
X28573963Y15227833D01*
X28600910Y15253314D01*
X28620493Y15291679D01*
X28617334Y15307734D01*
X28589058Y15306695D01*
G37*
X28589058Y15306695D02*
X28551624Y15281129D01*
X28526286Y15247200D01*
X28524200Y15236890D01*
X28539139Y15215496D01*
X28573963Y15227833D01*
X28600910Y15253314D01*
X28620493Y15291679D01*
X28617334Y15307734D01*
X28589058Y15306695D01*
G36*
X28820115Y15474738D02*
G01*
X28807965Y15428196D01*
X28810245Y15371259D01*
X28827028Y15332888D01*
X28850014Y15324089D01*
X28868276Y15348206D01*
X28877839Y15402738D01*
X28872569Y15458603D01*
X28855917Y15495938D01*
X28841700Y15501140D01*
X28820115Y15474738D01*
G37*
X28820115Y15474738D02*
X28807965Y15428196D01*
X28810245Y15371259D01*
X28827028Y15332888D01*
X28850014Y15324089D01*
X28868276Y15348206D01*
X28877839Y15402738D01*
X28872569Y15458603D01*
X28855917Y15495938D01*
X28841700Y15501140D01*
X28820115Y15474738D01*
G36*
X26605486Y17675679D02*
G01*
X26560181Y17666010D01*
X26547595Y17647136D01*
X26548237Y17641966D01*
X26550012Y17612489D01*
X26532173Y17602533D01*
X26484324Y17610960D01*
X26423666Y17628305D01*
X26341710Y17646607D01*
X26278050Y17641551D01*
X26239516Y17628145D01*
X26178855Y17588743D01*
X26165385Y17545101D01*
X26196555Y17503308D01*
X26269820Y17469456D01*
X26310059Y17459559D01*
X26364876Y17441385D01*
X26375734Y17422407D01*
X26349022Y17408585D01*
X26291127Y17405877D01*
X26256768Y17409847D01*
X26154715Y17426166D01*
X26170274Y17294800D01*
X26186063Y17211039D01*
X26208932Y17144181D01*
X26222187Y17122467D01*
X26255472Y17073699D01*
X26293860Y17002368D01*
X26304410Y16979900D01*
X26350278Y16878300D01*
X26359123Y16971053D01*
X26354751Y17059567D01*
X26332162Y17149279D01*
X26329781Y17155203D01*
X26307468Y17218489D01*
X26311315Y17241517D01*
X26342923Y17224329D01*
X26403894Y17166968D01*
X26413218Y17157430D01*
X26467655Y17105664D01*
X26509201Y17073738D01*
X26521168Y17068801D01*
X26541235Y17086926D01*
X26536652Y17127178D01*
X26512520Y17165321D01*
X26495937Y17190847D01*
X26511080Y17195800D01*
X26550563Y17174172D01*
X26589163Y17121915D01*
X26614886Y17057969D01*
X26619200Y17025049D01*
X26607125Y16977596D01*
X26579264Y16969384D01*
X26555700Y16992600D01*
X26516496Y17018611D01*
X26469495Y17008201D01*
X26434966Y16967294D01*
X26431416Y16956277D01*
X26403634Y16893335D01*
X26361236Y16840253D01*
X26319072Y16815089D01*
X26315071Y16814800D01*
X26293384Y16836210D01*
X26268363Y16888527D01*
X26265588Y16896218D01*
X26232422Y16974432D01*
X26196822Y17039268D01*
X26160494Y17076704D01*
X26133636Y17065326D01*
X26117063Y17006377D01*
X26111589Y16909039D01*
X26097092Y16794026D01*
X26060449Y16687902D01*
X26059884Y16686789D01*
X26030454Y16624495D01*
X26025361Y16594781D01*
X26043368Y16586335D01*
X26048854Y16586200D01*
X26119188Y16602834D01*
X26170992Y16644113D01*
X26187400Y16688694D01*
X26194612Y16733592D01*
X26213340Y16734644D01*
X26239228Y16696263D01*
X26267918Y16622860D01*
X26274832Y16600193D01*
X26301041Y16521725D01*
X26326337Y16464851D01*
X26340182Y16446265D01*
X26365171Y16454865D01*
X26390326Y16498857D01*
X26409343Y16563246D01*
X26416000Y16626606D01*
X26418338Y16666641D01*
X26434427Y16675695D01*
X26477880Y16657054D01*
X26498389Y16646500D01*
X26550884Y16617631D01*
X26562193Y16600581D01*
X26536430Y16584174D01*
X26523473Y16578325D01*
X26475307Y16535243D01*
X26445933Y16474228D01*
X26411884Y16407046D01*
X26362542Y16384810D01*
X26308064Y16408498D01*
X26269795Y16457253D01*
X26228764Y16517903D01*
X26201998Y16529965D01*
X26188951Y16493443D01*
X26187400Y16457939D01*
X26169192Y16357895D01*
X26122451Y16261483D01*
X26074775Y16206590D01*
X26036796Y16157769D01*
X26041757Y16118341D01*
X26081905Y16094409D01*
X26149485Y16092078D01*
X26203977Y16104880D01*
X26259291Y16128445D01*
X26283411Y16162359D01*
X26288978Y16225828D01*
X26289000Y16234069D01*
X26294448Y16297451D01*
X26309131Y16321060D01*
X26314401Y16319501D01*
X26337679Y16282789D01*
X26339800Y16266657D01*
X26352540Y16226392D01*
X26384026Y16166420D01*
X26424154Y16102674D01*
X26462824Y16051088D01*
X26489932Y16027593D01*
X26491499Y16027400D01*
X26521406Y16050226D01*
X26544261Y16108622D01*
X26556333Y16187469D01*
X26553888Y16271644D01*
X26553122Y16277038D01*
X26535772Y16392738D01*
X26637054Y16286269D01*
X26706589Y16224933D01*
X26771003Y16188015D01*
X26820750Y16178818D01*
X26846286Y16200646D01*
X26847800Y16213329D01*
X26832273Y16250343D01*
X26792453Y16309024D01*
X26758900Y16350716D01*
X26701170Y16420810D01*
X26675411Y16461507D01*
X26678642Y16480277D01*
X26705469Y16484600D01*
X26749372Y16464082D01*
X26803720Y16412040D01*
X26856969Y16342747D01*
X26897575Y16270474D01*
X26911437Y16229977D01*
X26917254Y16154335D01*
X26890846Y16115841D01*
X26829049Y16112037D01*
X26775819Y16124736D01*
X26690354Y16147622D01*
X26642412Y16151393D01*
X26622164Y16135342D01*
X26619200Y16113476D01*
X26635505Y16070135D01*
X26676978Y16007487D01*
X26732460Y15938631D01*
X26790791Y15876665D01*
X26840811Y15834691D01*
X26865645Y15824200D01*
X26891148Y15837606D01*
X26896344Y15884854D01*
X26893780Y15913100D01*
X26889763Y15971663D01*
X26893261Y16001159D01*
X26894717Y16002000D01*
X26917590Y15985991D01*
X26966452Y15944098D01*
X27028228Y15887700D01*
X27094571Y15829164D01*
X27148469Y15787947D01*
X27176912Y15773400D01*
X27200949Y15792467D01*
X27195150Y15845350D01*
X27160617Y15925575D01*
X27146665Y15950816D01*
X27114741Y16020464D01*
X27109817Y16062851D01*
X27128030Y16071636D01*
X27165515Y16040479D01*
X27185580Y16014654D01*
X27244927Y15941240D01*
X27313896Y15870251D01*
X27380732Y15812355D01*
X27433681Y15778222D01*
X27451376Y15773400D01*
X27472978Y15792337D01*
X27463850Y15845924D01*
X27425225Y15929328D01*
X27400807Y15971587D01*
X27371273Y16027987D01*
X27360998Y16063922D01*
X27362443Y16067909D01*
X27383793Y16057732D01*
X27424062Y16019631D01*
X27471531Y15966200D01*
X27514481Y15910036D01*
X27526738Y15891317D01*
X27569062Y15847366D01*
X27633324Y15807647D01*
X27708560Y15775266D01*
X27783810Y15753325D01*
X27848109Y15744928D01*
X27890495Y15753179D01*
X27900006Y15781182D01*
X27898386Y15786100D01*
X27898246Y15818420D01*
X27924389Y15820018D01*
X27962062Y15790119D01*
X27962604Y15789471D01*
X27976216Y15752665D01*
X27951635Y15721716D01*
X27930502Y15696962D01*
X27945655Y15676825D01*
X27990469Y15655632D01*
X28065576Y15599402D01*
X28095933Y15545586D01*
X28126853Y15483577D01*
X28158530Y15471560D01*
X28182269Y15495567D01*
X28217090Y15524507D01*
X28261631Y15546371D01*
X28342504Y15553726D01*
X28410338Y15515738D01*
X28448588Y15454356D01*
X28483223Y15408819D01*
X28531357Y15389592D01*
X28575870Y15397745D01*
X28599641Y15434347D01*
X28600400Y15444870D01*
X28588236Y15511796D01*
X28574107Y15546470D01*
X28558554Y15585707D01*
X28574331Y15591380D01*
X28624913Y15563928D01*
X28639198Y15554708D01*
X28696667Y15529602D01*
X28739904Y15528511D01*
X28770705Y15562947D01*
X28776450Y15615170D01*
X28754826Y15657540D01*
X28750935Y15660253D01*
X28746605Y15685055D01*
X28777780Y15715005D01*
X28822628Y15767494D01*
X28822144Y15819791D01*
X28780088Y15858640D01*
X28733750Y15870260D01*
X28673112Y15878987D01*
X28654776Y15897619D01*
X28670348Y15939293D01*
X28679080Y15955834D01*
X28692927Y16006691D01*
X28668860Y16046027D01*
X28638247Y16068242D01*
X28615107Y16051403D01*
X28599706Y16024014D01*
X28544287Y15939192D01*
X28481609Y15877397D01*
X28423636Y15850035D01*
X28416768Y15849600D01*
X28371744Y15861073D01*
X28297759Y15891297D01*
X28210047Y15933980D01*
X28201467Y15938500D01*
X28114504Y15981759D01*
X28041141Y16013072D01*
X27995927Y16026296D01*
X27993323Y16026384D01*
X27981473Y16016786D01*
X28014234Y15992105D01*
X28022550Y15987472D01*
X28080211Y15942652D01*
X28090401Y15901365D01*
X28056411Y15869111D01*
X27981534Y15851389D01*
X27940040Y15849600D01*
X27884441Y15839630D01*
X27857451Y15817852D01*
X27833632Y15812357D01*
X27780597Y15845292D01*
X27747384Y15872737D01*
X27617661Y15986578D01*
X27523226Y16071703D01*
X27460266Y16131831D01*
X27424970Y16170681D01*
X27413527Y16191969D01*
X27415157Y16196824D01*
X27445429Y16197507D01*
X27463137Y16187245D01*
X27498164Y16159504D01*
X27559883Y16110215D01*
X27635405Y16049672D01*
X27640999Y16045180D01*
X27752823Y15968157D01*
X27859338Y15918091D01*
X27949690Y15899330D01*
X27991192Y15904764D01*
X27984027Y15921831D01*
X27941833Y15960192D01*
X27872172Y16013456D01*
X27815244Y16053385D01*
X27705421Y16130635D01*
X27637776Y16184594D01*
X27610351Y16217124D01*
X27621189Y16230085D01*
X27628850Y16230494D01*
X27660433Y16219763D01*
X27721493Y16192256D01*
X27772855Y16166994D01*
X27867713Y16126450D01*
X27947895Y16105296D01*
X28007197Y16101855D01*
X28039421Y16114446D01*
X28038363Y16141393D01*
X27997823Y16181016D01*
X27945605Y16213752D01*
X27851415Y16266405D01*
X27795017Y16301174D01*
X27770046Y16325287D01*
X27770136Y16345974D01*
X27788923Y16370465D01*
X27798418Y16380920D01*
X27822899Y16411865D01*
X27824398Y16432731D01*
X27795956Y16447114D01*
X27730610Y16458612D01*
X27625208Y16470430D01*
X27515666Y16489520D01*
X27393576Y16522117D01*
X27320408Y16547678D01*
X27217532Y16584117D01*
X27113379Y16613883D01*
X27051000Y16626973D01*
X26965884Y16651569D01*
X26873252Y16695710D01*
X26788690Y16749945D01*
X26727781Y16804823D01*
X26708973Y16834386D01*
X26701966Y16876749D01*
X26726854Y16880906D01*
X26781824Y16846652D01*
X26786388Y16843096D01*
X26878037Y16798881D01*
X26977983Y16794517D01*
X27068050Y16830234D01*
X27079937Y16839355D01*
X27139900Y16889310D01*
X27048076Y16890155D01*
X26945372Y16910218D01*
X26868508Y16962988D01*
X26827005Y17040446D01*
X26822400Y17080234D01*
X26831896Y17152279D01*
X26864574Y17198574D01*
X26926719Y17221498D01*
X27024618Y17223430D01*
X27158950Y17207609D01*
X27232475Y17198963D01*
X27268589Y17203950D01*
X27279406Y17224879D01*
X27279600Y17230597D01*
X27258457Y17265144D01*
X27228800Y17272000D01*
X27184875Y17281425D01*
X27186350Y17304787D01*
X27232509Y17334718D01*
X27235002Y17335827D01*
X27287369Y17375476D01*
X27294110Y17421299D01*
X27254111Y17462324D01*
X27248184Y17465404D01*
X27197995Y17491014D01*
X27129842Y17526615D01*
X26918726Y17526615D01*
X26883929Y17484542D01*
X26843518Y17475200D01*
X26805908Y17480662D01*
X26812991Y17501179D01*
X26817320Y17505680D01*
X26844162Y17556644D01*
X26847176Y17577556D01*
X26810335Y17577556D01*
X26798029Y17553323D01*
X26765499Y17512533D01*
X26734932Y17500884D01*
X26720818Y17523668D01*
X26720800Y17525107D01*
X26740658Y17554862D01*
X26773523Y17577829D01*
X26810260Y17594240D01*
X26810335Y17577556D01*
X26847176Y17577556D01*
X26847800Y17581880D01*
X26861943Y17621362D01*
X26891671Y17621516D01*
X26914815Y17589500D01*
X26918726Y17526615D01*
X27129842Y17526615D01*
X27119125Y17532213D01*
X27027665Y17580591D01*
X27017405Y17586054D01*
X26913533Y17637243D01*
X26830337Y17665582D01*
X26746681Y17677080D01*
X26692441Y17678400D01*
X26605486Y17675679D01*
G37*
X26605486Y17675679D02*
X26560181Y17666010D01*
X26547595Y17647136D01*
X26548237Y17641966D01*
X26550012Y17612489D01*
X26532173Y17602533D01*
X26484324Y17610960D01*
X26423666Y17628305D01*
X26341710Y17646607D01*
X26278050Y17641551D01*
X26239516Y17628145D01*
X26178855Y17588743D01*
X26165385Y17545101D01*
X26196555Y17503308D01*
X26269820Y17469456D01*
X26310059Y17459559D01*
X26364876Y17441385D01*
X26375734Y17422407D01*
X26349022Y17408585D01*
X26291127Y17405877D01*
X26256768Y17409847D01*
X26154715Y17426166D01*
X26170274Y17294800D01*
X26186063Y17211039D01*
X26208932Y17144181D01*
X26222187Y17122467D01*
X26255472Y17073699D01*
X26293860Y17002368D01*
X26304410Y16979900D01*
X26350278Y16878300D01*
X26359123Y16971053D01*
X26354751Y17059567D01*
X26332162Y17149279D01*
X26329781Y17155203D01*
X26307468Y17218489D01*
X26311315Y17241517D01*
X26342923Y17224329D01*
X26403894Y17166968D01*
X26413218Y17157430D01*
X26467655Y17105664D01*
X26509201Y17073738D01*
X26521168Y17068801D01*
X26541235Y17086926D01*
X26536652Y17127178D01*
X26512520Y17165321D01*
X26495937Y17190847D01*
X26511080Y17195800D01*
X26550563Y17174172D01*
X26589163Y17121915D01*
X26614886Y17057969D01*
X26619200Y17025049D01*
X26607125Y16977596D01*
X26579264Y16969384D01*
X26555700Y16992600D01*
X26516496Y17018611D01*
X26469495Y17008201D01*
X26434966Y16967294D01*
X26431416Y16956277D01*
X26403634Y16893335D01*
X26361236Y16840253D01*
X26319072Y16815089D01*
X26315071Y16814800D01*
X26293384Y16836210D01*
X26268363Y16888527D01*
X26265588Y16896218D01*
X26232422Y16974432D01*
X26196822Y17039268D01*
X26160494Y17076704D01*
X26133636Y17065326D01*
X26117063Y17006377D01*
X26111589Y16909039D01*
X26097092Y16794026D01*
X26060449Y16687902D01*
X26059884Y16686789D01*
X26030454Y16624495D01*
X26025361Y16594781D01*
X26043368Y16586335D01*
X26048854Y16586200D01*
X26119188Y16602834D01*
X26170992Y16644113D01*
X26187400Y16688694D01*
X26194612Y16733592D01*
X26213340Y16734644D01*
X26239228Y16696263D01*
X26267918Y16622860D01*
X26274832Y16600193D01*
X26301041Y16521725D01*
X26326337Y16464851D01*
X26340182Y16446265D01*
X26365171Y16454865D01*
X26390326Y16498857D01*
X26409343Y16563246D01*
X26416000Y16626606D01*
X26418338Y16666641D01*
X26434427Y16675695D01*
X26477880Y16657054D01*
X26498389Y16646500D01*
X26550884Y16617631D01*
X26562193Y16600581D01*
X26536430Y16584174D01*
X26523473Y16578325D01*
X26475307Y16535243D01*
X26445933Y16474228D01*
X26411884Y16407046D01*
X26362542Y16384810D01*
X26308064Y16408498D01*
X26269795Y16457253D01*
X26228764Y16517903D01*
X26201998Y16529965D01*
X26188951Y16493443D01*
X26187400Y16457939D01*
X26169192Y16357895D01*
X26122451Y16261483D01*
X26074775Y16206590D01*
X26036796Y16157769D01*
X26041757Y16118341D01*
X26081905Y16094409D01*
X26149485Y16092078D01*
X26203977Y16104880D01*
X26259291Y16128445D01*
X26283411Y16162359D01*
X26288978Y16225828D01*
X26289000Y16234069D01*
X26294448Y16297451D01*
X26309131Y16321060D01*
X26314401Y16319501D01*
X26337679Y16282789D01*
X26339800Y16266657D01*
X26352540Y16226392D01*
X26384026Y16166420D01*
X26424154Y16102674D01*
X26462824Y16051088D01*
X26489932Y16027593D01*
X26491499Y16027400D01*
X26521406Y16050226D01*
X26544261Y16108622D01*
X26556333Y16187469D01*
X26553888Y16271644D01*
X26553122Y16277038D01*
X26535772Y16392738D01*
X26637054Y16286269D01*
X26706589Y16224933D01*
X26771003Y16188015D01*
X26820750Y16178818D01*
X26846286Y16200646D01*
X26847800Y16213329D01*
X26832273Y16250343D01*
X26792453Y16309024D01*
X26758900Y16350716D01*
X26701170Y16420810D01*
X26675411Y16461507D01*
X26678642Y16480277D01*
X26705469Y16484600D01*
X26749372Y16464082D01*
X26803720Y16412040D01*
X26856969Y16342747D01*
X26897575Y16270474D01*
X26911437Y16229977D01*
X26917254Y16154335D01*
X26890846Y16115841D01*
X26829049Y16112037D01*
X26775819Y16124736D01*
X26690354Y16147622D01*
X26642412Y16151393D01*
X26622164Y16135342D01*
X26619200Y16113476D01*
X26635505Y16070135D01*
X26676978Y16007487D01*
X26732460Y15938631D01*
X26790791Y15876665D01*
X26840811Y15834691D01*
X26865645Y15824200D01*
X26891148Y15837606D01*
X26896344Y15884854D01*
X26893780Y15913100D01*
X26889763Y15971663D01*
X26893261Y16001159D01*
X26894717Y16002000D01*
X26917590Y15985991D01*
X26966452Y15944098D01*
X27028228Y15887700D01*
X27094571Y15829164D01*
X27148469Y15787947D01*
X27176912Y15773400D01*
X27200949Y15792467D01*
X27195150Y15845350D01*
X27160617Y15925575D01*
X27146665Y15950816D01*
X27114741Y16020464D01*
X27109817Y16062851D01*
X27128030Y16071636D01*
X27165515Y16040479D01*
X27185580Y16014654D01*
X27244927Y15941240D01*
X27313896Y15870251D01*
X27380732Y15812355D01*
X27433681Y15778222D01*
X27451376Y15773400D01*
X27472978Y15792337D01*
X27463850Y15845924D01*
X27425225Y15929328D01*
X27400807Y15971587D01*
X27371273Y16027987D01*
X27360998Y16063922D01*
X27362443Y16067909D01*
X27383793Y16057732D01*
X27424062Y16019631D01*
X27471531Y15966200D01*
X27514481Y15910036D01*
X27526738Y15891317D01*
X27569062Y15847366D01*
X27633324Y15807647D01*
X27708560Y15775266D01*
X27783810Y15753325D01*
X27848109Y15744928D01*
X27890495Y15753179D01*
X27900006Y15781182D01*
X27898386Y15786100D01*
X27898246Y15818420D01*
X27924389Y15820018D01*
X27962062Y15790119D01*
X27962604Y15789471D01*
X27976216Y15752665D01*
X27951635Y15721716D01*
X27930502Y15696962D01*
X27945655Y15676825D01*
X27990469Y15655632D01*
X28065576Y15599402D01*
X28095933Y15545586D01*
X28126853Y15483577D01*
X28158530Y15471560D01*
X28182269Y15495567D01*
X28217090Y15524507D01*
X28261631Y15546371D01*
X28342504Y15553726D01*
X28410338Y15515738D01*
X28448588Y15454356D01*
X28483223Y15408819D01*
X28531357Y15389592D01*
X28575870Y15397745D01*
X28599641Y15434347D01*
X28600400Y15444870D01*
X28588236Y15511796D01*
X28574107Y15546470D01*
X28558554Y15585707D01*
X28574331Y15591380D01*
X28624913Y15563928D01*
X28639198Y15554708D01*
X28696667Y15529602D01*
X28739904Y15528511D01*
X28770705Y15562947D01*
X28776450Y15615170D01*
X28754826Y15657540D01*
X28750935Y15660253D01*
X28746605Y15685055D01*
X28777780Y15715005D01*
X28822628Y15767494D01*
X28822144Y15819791D01*
X28780088Y15858640D01*
X28733750Y15870260D01*
X28673112Y15878987D01*
X28654776Y15897619D01*
X28670348Y15939293D01*
X28679080Y15955834D01*
X28692927Y16006691D01*
X28668860Y16046027D01*
X28638247Y16068242D01*
X28615107Y16051403D01*
X28599706Y16024014D01*
X28544287Y15939192D01*
X28481609Y15877397D01*
X28423636Y15850035D01*
X28416768Y15849600D01*
X28371744Y15861073D01*
X28297759Y15891297D01*
X28210047Y15933980D01*
X28201467Y15938500D01*
X28114504Y15981759D01*
X28041141Y16013072D01*
X27995927Y16026296D01*
X27993323Y16026384D01*
X27981473Y16016786D01*
X28014234Y15992105D01*
X28022550Y15987472D01*
X28080211Y15942652D01*
X28090401Y15901365D01*
X28056411Y15869111D01*
X27981534Y15851389D01*
X27940040Y15849600D01*
X27884441Y15839630D01*
X27857451Y15817852D01*
X27833632Y15812357D01*
X27780597Y15845292D01*
X27747384Y15872737D01*
X27617661Y15986578D01*
X27523226Y16071703D01*
X27460266Y16131831D01*
X27424970Y16170681D01*
X27413527Y16191969D01*
X27415157Y16196824D01*
X27445429Y16197507D01*
X27463137Y16187245D01*
X27498164Y16159504D01*
X27559883Y16110215D01*
X27635405Y16049672D01*
X27640999Y16045180D01*
X27752823Y15968157D01*
X27859338Y15918091D01*
X27949690Y15899330D01*
X27991192Y15904764D01*
X27984027Y15921831D01*
X27941833Y15960192D01*
X27872172Y16013456D01*
X27815244Y16053385D01*
X27705421Y16130635D01*
X27637776Y16184594D01*
X27610351Y16217124D01*
X27621189Y16230085D01*
X27628850Y16230494D01*
X27660433Y16219763D01*
X27721493Y16192256D01*
X27772855Y16166994D01*
X27867713Y16126450D01*
X27947895Y16105296D01*
X28007197Y16101855D01*
X28039421Y16114446D01*
X28038363Y16141393D01*
X27997823Y16181016D01*
X27945605Y16213752D01*
X27851415Y16266405D01*
X27795017Y16301174D01*
X27770046Y16325287D01*
X27770136Y16345974D01*
X27788923Y16370465D01*
X27798418Y16380920D01*
X27822899Y16411865D01*
X27824398Y16432731D01*
X27795956Y16447114D01*
X27730610Y16458612D01*
X27625208Y16470430D01*
X27515666Y16489520D01*
X27393576Y16522117D01*
X27320408Y16547678D01*
X27217532Y16584117D01*
X27113379Y16613883D01*
X27051000Y16626973D01*
X26965884Y16651569D01*
X26873252Y16695710D01*
X26788690Y16749945D01*
X26727781Y16804823D01*
X26708973Y16834386D01*
X26701966Y16876749D01*
X26726854Y16880906D01*
X26781824Y16846652D01*
X26786388Y16843096D01*
X26878037Y16798881D01*
X26977983Y16794517D01*
X27068050Y16830234D01*
X27079937Y16839355D01*
X27139900Y16889310D01*
X27048076Y16890155D01*
X26945372Y16910218D01*
X26868508Y16962988D01*
X26827005Y17040446D01*
X26822400Y17080234D01*
X26831896Y17152279D01*
X26864574Y17198574D01*
X26926719Y17221498D01*
X27024618Y17223430D01*
X27158950Y17207609D01*
X27232475Y17198963D01*
X27268589Y17203950D01*
X27279406Y17224879D01*
X27279600Y17230597D01*
X27258457Y17265144D01*
X27228800Y17272000D01*
X27184875Y17281425D01*
X27186350Y17304787D01*
X27232509Y17334718D01*
X27235002Y17335827D01*
X27287369Y17375476D01*
X27294110Y17421299D01*
X27254111Y17462324D01*
X27248184Y17465404D01*
X27197995Y17491014D01*
X27129842Y17526615D01*
X26918726Y17526615D01*
X26883929Y17484542D01*
X26843518Y17475200D01*
X26805908Y17480662D01*
X26812991Y17501179D01*
X26817320Y17505680D01*
X26844162Y17556644D01*
X26847176Y17577556D01*
X26810335Y17577556D01*
X26798029Y17553323D01*
X26765499Y17512533D01*
X26734932Y17500884D01*
X26720818Y17523668D01*
X26720800Y17525107D01*
X26740658Y17554862D01*
X26773523Y17577829D01*
X26810260Y17594240D01*
X26810335Y17577556D01*
X26847176Y17577556D01*
X26847800Y17581880D01*
X26861943Y17621362D01*
X26891671Y17621516D01*
X26914815Y17589500D01*
X26918726Y17526615D01*
X27129842Y17526615D01*
X27119125Y17532213D01*
X27027665Y17580591D01*
X27017405Y17586054D01*
X26913533Y17637243D01*
X26830337Y17665582D01*
X26746681Y17677080D01*
X26692441Y17678400D01*
X26605486Y17675679D01*
G36*
X25077127Y17484054D02*
G01*
X25054895Y17430117D01*
X25045873Y17331693D01*
X25049382Y17189375D01*
X25056493Y17100763D01*
X25069738Y17029835D01*
X25094577Y16961230D01*
X25136472Y16879587D01*
X25195390Y16778728D01*
X25304489Y16585245D01*
X25382803Y16418758D01*
X25434219Y16269134D01*
X25462623Y16126242D01*
X25468571Y16066548D01*
X25472665Y15956592D01*
X25463477Y15867404D01*
X25437063Y15772767D01*
X25415412Y15713226D01*
X25374828Y15593831D01*
X25354305Y15506233D01*
X25352882Y15453673D01*
X25369603Y15439394D01*
X25403510Y15466637D01*
X25453643Y15538645D01*
X25462577Y15553634D01*
X25528615Y15709579D01*
X25565263Y15893123D01*
X25571848Y16089958D01*
X25547698Y16285780D01*
X25504101Y16436582D01*
X25467046Y16520098D01*
X25411311Y16629393D01*
X25345763Y16747563D01*
X25304261Y16817582D01*
X25158700Y17056100D01*
X25156618Y17272000D01*
X25153973Y17380013D01*
X25147337Y17446879D01*
X25134839Y17482210D01*
X25114612Y17495614D01*
X25113075Y17495938D01*
X25077127Y17484054D01*
G37*
X25077127Y17484054D02*
X25054895Y17430117D01*
X25045873Y17331693D01*
X25049382Y17189375D01*
X25056493Y17100763D01*
X25069738Y17029835D01*
X25094577Y16961230D01*
X25136472Y16879587D01*
X25195390Y16778728D01*
X25304489Y16585245D01*
X25382803Y16418758D01*
X25434219Y16269134D01*
X25462623Y16126242D01*
X25468571Y16066548D01*
X25472665Y15956592D01*
X25463477Y15867404D01*
X25437063Y15772767D01*
X25415412Y15713226D01*
X25374828Y15593831D01*
X25354305Y15506233D01*
X25352882Y15453673D01*
X25369603Y15439394D01*
X25403510Y15466637D01*
X25453643Y15538645D01*
X25462577Y15553634D01*
X25528615Y15709579D01*
X25565263Y15893123D01*
X25571848Y16089958D01*
X25547698Y16285780D01*
X25504101Y16436582D01*
X25467046Y16520098D01*
X25411311Y16629393D01*
X25345763Y16747563D01*
X25304261Y16817582D01*
X25158700Y17056100D01*
X25156618Y17272000D01*
X25153973Y17380013D01*
X25147337Y17446879D01*
X25134839Y17482210D01*
X25114612Y17495614D01*
X25113075Y17495938D01*
X25077127Y17484054D01*
G36*
X25123638Y16715620D02*
G01*
X25082191Y16675637D01*
X25034214Y16604171D01*
X24984769Y16509476D01*
X24938915Y16399810D01*
X24913324Y16324050D01*
X24876465Y16151468D01*
X24865689Y15972665D01*
X24880259Y15802116D01*
X24919440Y15654296D01*
X24950706Y15588791D01*
X25006816Y15499962D01*
X25044152Y15457641D01*
X25063500Y15461454D01*
X25065645Y15511025D01*
X25063006Y15535105D01*
X25044373Y15626466D01*
X25015270Y15722246D01*
X25010334Y15735300D01*
X24974804Y15884030D01*
X24971946Y16052341D01*
X25000975Y16221589D01*
X25034936Y16319500D01*
X25094104Y16458869D01*
X25134391Y16559337D01*
X25157985Y16628228D01*
X25167079Y16672864D01*
X25163862Y16700568D01*
X25153496Y16715865D01*
X25123638Y16715620D01*
G37*
X25123638Y16715620D02*
X25082191Y16675637D01*
X25034214Y16604171D01*
X24984769Y16509476D01*
X24938915Y16399810D01*
X24913324Y16324050D01*
X24876465Y16151468D01*
X24865689Y15972665D01*
X24880259Y15802116D01*
X24919440Y15654296D01*
X24950706Y15588791D01*
X25006816Y15499962D01*
X25044152Y15457641D01*
X25063500Y15461454D01*
X25065645Y15511025D01*
X25063006Y15535105D01*
X25044373Y15626466D01*
X25015270Y15722246D01*
X25010334Y15735300D01*
X24974804Y15884030D01*
X24971946Y16052341D01*
X25000975Y16221589D01*
X25034936Y16319500D01*
X25094104Y16458869D01*
X25134391Y16559337D01*
X25157985Y16628228D01*
X25167079Y16672864D01*
X25163862Y16700568D01*
X25153496Y16715865D01*
X25123638Y16715620D01*
G36*
X28882664Y15834659D02*
G01*
X28886238Y15798823D01*
X28919872Y15755574D01*
X28943300Y15737636D01*
X28987827Y15711138D01*
X29004444Y15714902D01*
X29006800Y15742335D01*
X28987465Y15803238D01*
X28941124Y15843474D01*
X28912821Y15849600D01*
X28882664Y15834659D01*
G37*
X28882664Y15834659D02*
X28886238Y15798823D01*
X28919872Y15755574D01*
X28943300Y15737636D01*
X28987827Y15711138D01*
X29004444Y15714902D01*
X29006800Y15742335D01*
X28987465Y15803238D01*
X28941124Y15843474D01*
X28912821Y15849600D01*
X28882664Y15834659D01*
G36*
X28748636Y16096081D02*
G01*
X28740100Y16078200D01*
X28769356Y16054809D01*
X28814499Y16069291D01*
X28829000Y16078200D01*
X28845887Y16095710D01*
X28818979Y16102611D01*
X28795751Y16103212D01*
X28748636Y16096081D01*
G37*
X28748636Y16096081D02*
X28740100Y16078200D01*
X28769356Y16054809D01*
X28814499Y16069291D01*
X28829000Y16078200D01*
X28845887Y16095710D01*
X28818979Y16102611D01*
X28795751Y16103212D01*
X28748636Y16096081D01*
G36*
X28310138Y17474069D02*
G01*
X28305210Y17463607D01*
X28301833Y17418021D01*
X28309521Y17344857D01*
X28316718Y17306098D01*
X28327369Y17242332D01*
X28326469Y17186836D01*
X28309654Y17132701D01*
X28272562Y17073021D01*
X28210830Y17000886D01*
X28120096Y16909390D01*
X27995997Y16791623D01*
X27985757Y16782039D01*
X27877561Y16680501D01*
X27802787Y16608599D01*
X27757687Y16561338D01*
X27738514Y16533726D01*
X27741520Y16520769D01*
X27762958Y16517474D01*
X27787800Y16518286D01*
X27844632Y16518371D01*
X27869214Y16501584D01*
X27873995Y16453876D01*
X27873120Y16421996D01*
X27869739Y16321291D01*
X27919696Y16383896D01*
X28000454Y16483077D01*
X28083496Y16581642D01*
X28161960Y16671845D01*
X28228986Y16745937D01*
X28277711Y16796171D01*
X28301275Y16814800D01*
X28301328Y16814800D01*
X28320254Y16803585D01*
X28308937Y16767784D01*
X28265448Y16704165D01*
X28187857Y16609495D01*
X28158389Y16575414D01*
X28060267Y16459973D01*
X27995180Y16375814D01*
X27960132Y16318408D01*
X27952130Y16283224D01*
X27957828Y16272040D01*
X27995294Y16257054D01*
X28037832Y16286170D01*
X28088939Y16361497D01*
X28165631Y16478238D01*
X28249244Y16576453D01*
X28331350Y16647987D01*
X28403520Y16684685D01*
X28426136Y16687800D01*
X28473164Y16691252D01*
X28490604Y16711381D01*
X28487311Y16762846D01*
X28484065Y16783703D01*
X28486346Y16881668D01*
X28530223Y16953757D01*
X28617680Y17002259D01*
X28689030Y17020462D01*
X28766278Y17038481D01*
X28822642Y17058141D01*
X28837677Y17067317D01*
X28852450Y17108900D01*
X28829186Y17148274D01*
X28778806Y17169667D01*
X28766298Y17170400D01*
X28713594Y17179313D01*
X28707784Y17202334D01*
X28748932Y17233891D01*
X28765501Y17241979D01*
X28816832Y17274698D01*
X28826119Y17317321D01*
X28813583Y17358823D01*
X28778705Y17389828D01*
X28723316Y17397770D01*
X28672852Y17381259D01*
X28659588Y17367250D01*
X28641771Y17362171D01*
X28626948Y17407005D01*
X28626090Y17411700D01*
X28601185Y17467849D01*
X28562158Y17490705D01*
X28524302Y17477896D01*
X28503384Y17430750D01*
X28485570Y17382378D01*
X28457613Y17381048D01*
X28427024Y17426171D01*
X28422600Y17437100D01*
X28388278Y17485797D01*
X28345459Y17499323D01*
X28310138Y17474069D01*
G37*
X28310138Y17474069D02*
X28305210Y17463607D01*
X28301833Y17418021D01*
X28309521Y17344857D01*
X28316718Y17306098D01*
X28327369Y17242332D01*
X28326469Y17186836D01*
X28309654Y17132701D01*
X28272562Y17073021D01*
X28210830Y17000886D01*
X28120096Y16909390D01*
X27995997Y16791623D01*
X27985757Y16782039D01*
X27877561Y16680501D01*
X27802787Y16608599D01*
X27757687Y16561338D01*
X27738514Y16533726D01*
X27741520Y16520769D01*
X27762958Y16517474D01*
X27787800Y16518286D01*
X27844632Y16518371D01*
X27869214Y16501584D01*
X27873995Y16453876D01*
X27873120Y16421996D01*
X27869739Y16321291D01*
X27919696Y16383896D01*
X28000454Y16483077D01*
X28083496Y16581642D01*
X28161960Y16671845D01*
X28228986Y16745937D01*
X28277711Y16796171D01*
X28301275Y16814800D01*
X28301328Y16814800D01*
X28320254Y16803585D01*
X28308937Y16767784D01*
X28265448Y16704165D01*
X28187857Y16609495D01*
X28158389Y16575414D01*
X28060267Y16459973D01*
X27995180Y16375814D01*
X27960132Y16318408D01*
X27952130Y16283224D01*
X27957828Y16272040D01*
X27995294Y16257054D01*
X28037832Y16286170D01*
X28088939Y16361497D01*
X28165631Y16478238D01*
X28249244Y16576453D01*
X28331350Y16647987D01*
X28403520Y16684685D01*
X28426136Y16687800D01*
X28473164Y16691252D01*
X28490604Y16711381D01*
X28487311Y16762846D01*
X28484065Y16783703D01*
X28486346Y16881668D01*
X28530223Y16953757D01*
X28617680Y17002259D01*
X28689030Y17020462D01*
X28766278Y17038481D01*
X28822642Y17058141D01*
X28837677Y17067317D01*
X28852450Y17108900D01*
X28829186Y17148274D01*
X28778806Y17169667D01*
X28766298Y17170400D01*
X28713594Y17179313D01*
X28707784Y17202334D01*
X28748932Y17233891D01*
X28765501Y17241979D01*
X28816832Y17274698D01*
X28826119Y17317321D01*
X28813583Y17358823D01*
X28778705Y17389828D01*
X28723316Y17397770D01*
X28672852Y17381259D01*
X28659588Y17367250D01*
X28641771Y17362171D01*
X28626948Y17407005D01*
X28626090Y17411700D01*
X28601185Y17467849D01*
X28562158Y17490705D01*
X28524302Y17477896D01*
X28503384Y17430750D01*
X28485570Y17382378D01*
X28457613Y17381048D01*
X28427024Y17426171D01*
X28422600Y17437100D01*
X28388278Y17485797D01*
X28345459Y17499323D01*
X28310138Y17474069D01*
G36*
X24955471Y17675778D02*
G01*
X24932047Y17664922D01*
X24815885Y17583823D01*
X24738389Y17470132D01*
X24717058Y17410312D01*
X24685692Y17334171D01*
X24637779Y17253218D01*
X24626708Y17238003D01*
X24593566Y17190234D01*
X24574255Y17144581D01*
X24565800Y17086073D01*
X24565225Y16999733D01*
X24567082Y16938002D01*
X24574500Y16725900D01*
X24607505Y16840200D01*
X24637048Y16938500D01*
X24656950Y16992194D01*
X24669934Y17005948D01*
X24678725Y16984431D01*
X24681647Y16967200D01*
X24706734Y16817450D01*
X24731281Y16712365D01*
X24754683Y16653424D01*
X24776332Y16642104D01*
X24795622Y16679882D01*
X24797242Y16685817D01*
X24802189Y16740024D01*
X24799720Y16819535D01*
X24796472Y16854723D01*
X24793614Y16930481D01*
X24805854Y16958172D01*
X24830714Y16937391D01*
X24865716Y16867732D01*
X24866375Y16866145D01*
X24895307Y16813480D01*
X24922512Y16789536D01*
X24924112Y16789400D01*
X24937279Y16812152D01*
X24941975Y16871668D01*
X24939384Y16954839D01*
X24930691Y17048553D01*
X24917080Y17139703D01*
X24899737Y17215178D01*
X24881642Y17259292D01*
X24847659Y17348182D01*
X24853097Y17436767D01*
X24892200Y17512549D01*
X24959209Y17563030D01*
X25027892Y17576800D01*
X25133746Y17554892D01*
X25213862Y17489619D01*
X25267820Y17381656D01*
X25295199Y17231680D01*
X25298789Y17141162D01*
X25301956Y17044651D01*
X25309929Y16965648D01*
X25321039Y16920138D01*
X25322035Y16918387D01*
X25342133Y16910895D01*
X25361539Y16944762D01*
X25378379Y17010560D01*
X25390781Y17098860D01*
X25396870Y17200236D01*
X25395711Y17289104D01*
X25388235Y17390054D01*
X25374772Y17456775D01*
X25350044Y17505836D01*
X25312698Y17549733D01*
X25239382Y17609294D01*
X25150963Y17659593D01*
X25131618Y17667693D01*
X25060636Y17691600D01*
X25010448Y17694413D01*
X24955471Y17675778D01*
G37*
X24955471Y17675778D02*
X24932047Y17664922D01*
X24815885Y17583823D01*
X24738389Y17470132D01*
X24717058Y17410312D01*
X24685692Y17334171D01*
X24637779Y17253218D01*
X24626708Y17238003D01*
X24593566Y17190234D01*
X24574255Y17144581D01*
X24565800Y17086073D01*
X24565225Y16999733D01*
X24567082Y16938002D01*
X24574500Y16725900D01*
X24607505Y16840200D01*
X24637048Y16938500D01*
X24656950Y16992194D01*
X24669934Y17005948D01*
X24678725Y16984431D01*
X24681647Y16967200D01*
X24706734Y16817450D01*
X24731281Y16712365D01*
X24754683Y16653424D01*
X24776332Y16642104D01*
X24795622Y16679882D01*
X24797242Y16685817D01*
X24802189Y16740024D01*
X24799720Y16819535D01*
X24796472Y16854723D01*
X24793614Y16930481D01*
X24805854Y16958172D01*
X24830714Y16937391D01*
X24865716Y16867732D01*
X24866375Y16866145D01*
X24895307Y16813480D01*
X24922512Y16789536D01*
X24924112Y16789400D01*
X24937279Y16812152D01*
X24941975Y16871668D01*
X24939384Y16954839D01*
X24930691Y17048553D01*
X24917080Y17139703D01*
X24899737Y17215178D01*
X24881642Y17259292D01*
X24847659Y17348182D01*
X24853097Y17436767D01*
X24892200Y17512549D01*
X24959209Y17563030D01*
X25027892Y17576800D01*
X25133746Y17554892D01*
X25213862Y17489619D01*
X25267820Y17381656D01*
X25295199Y17231680D01*
X25298789Y17141162D01*
X25301956Y17044651D01*
X25309929Y16965648D01*
X25321039Y16920138D01*
X25322035Y16918387D01*
X25342133Y16910895D01*
X25361539Y16944762D01*
X25378379Y17010560D01*
X25390781Y17098860D01*
X25396870Y17200236D01*
X25395711Y17289104D01*
X25388235Y17390054D01*
X25374772Y17456775D01*
X25350044Y17505836D01*
X25312698Y17549733D01*
X25239382Y17609294D01*
X25150963Y17659593D01*
X25131618Y17667693D01*
X25060636Y17691600D01*
X25010448Y17694413D01*
X24955471Y17675778D01*
G36*
X25271215Y17722835D02*
G01*
X25253051Y17703535D01*
X25283414Y17670995D01*
X25362445Y17624908D01*
X25393407Y17609490D01*
X25513144Y17536626D01*
X25585133Y17458077D01*
X25586212Y17456207D01*
X25615127Y17400491D01*
X25616812Y17363618D01*
X25588885Y17321228D01*
X25570905Y17299667D01*
X25532750Y17240711D01*
X25507969Y17163824D01*
X25491642Y17053256D01*
X25490545Y17042387D01*
X25483963Y16927830D01*
X25490089Y16855138D01*
X25507889Y16826494D01*
X25536330Y16844079D01*
X25563591Y16888082D01*
X25602044Y16949263D01*
X25628670Y16961124D01*
X25643516Y16923625D01*
X25646633Y16836728D01*
X25646251Y16823837D01*
X25647861Y16725906D01*
X25659350Y16676182D01*
X25678027Y16673650D01*
X25701203Y16717297D01*
X25726189Y16806108D01*
X25736829Y16857986D01*
X25757519Y16957043D01*
X25774368Y17006296D01*
X25789389Y17006404D01*
X25804592Y16958027D01*
X25818272Y16884650D01*
X25835477Y16814294D01*
X25853464Y16791556D01*
X25869249Y16813395D01*
X25879849Y16876769D01*
X25882600Y16950218D01*
X25879569Y17033852D01*
X25867316Y17106132D01*
X25841105Y17183170D01*
X25796199Y17281082D01*
X25769831Y17333877D01*
X25687768Y17485634D01*
X25614335Y17594898D01*
X25542985Y17667660D01*
X25467173Y17709907D01*
X25380354Y17727629D01*
X25337762Y17729200D01*
X25271215Y17722835D01*
G37*
X25271215Y17722835D02*
X25253051Y17703535D01*
X25283414Y17670995D01*
X25362445Y17624908D01*
X25393407Y17609490D01*
X25513144Y17536626D01*
X25585133Y17458077D01*
X25586212Y17456207D01*
X25615127Y17400491D01*
X25616812Y17363618D01*
X25588885Y17321228D01*
X25570905Y17299667D01*
X25532750Y17240711D01*
X25507969Y17163824D01*
X25491642Y17053256D01*
X25490545Y17042387D01*
X25483963Y16927830D01*
X25490089Y16855138D01*
X25507889Y16826494D01*
X25536330Y16844079D01*
X25563591Y16888082D01*
X25602044Y16949263D01*
X25628670Y16961124D01*
X25643516Y16923625D01*
X25646633Y16836728D01*
X25646251Y16823837D01*
X25647861Y16725906D01*
X25659350Y16676182D01*
X25678027Y16673650D01*
X25701203Y16717297D01*
X25726189Y16806108D01*
X25736829Y16857986D01*
X25757519Y16957043D01*
X25774368Y17006296D01*
X25789389Y17006404D01*
X25804592Y16958027D01*
X25818272Y16884650D01*
X25835477Y16814294D01*
X25853464Y16791556D01*
X25869249Y16813395D01*
X25879849Y16876769D01*
X25882600Y16950218D01*
X25879569Y17033852D01*
X25867316Y17106132D01*
X25841105Y17183170D01*
X25796199Y17281082D01*
X25769831Y17333877D01*
X25687768Y17485634D01*
X25614335Y17594898D01*
X25542985Y17667660D01*
X25467173Y17709907D01*
X25380354Y17727629D01*
X25337762Y17729200D01*
X25271215Y17722835D01*
G36*
X27805898Y17197125D02*
G01*
X27779948Y17130406D01*
X27777033Y17114511D01*
X27760093Y17039766D01*
X27738780Y16984251D01*
X27732576Y16974811D01*
X27676440Y16946279D01*
X27582542Y16947973D01*
X27453676Y16979529D01*
X27320804Y17028698D01*
X27192249Y17078698D01*
X27082474Y17115246D01*
X26998111Y17136719D01*
X26945796Y17141496D01*
X26932160Y17127955D01*
X26934528Y17123116D01*
X26970768Y17101884D01*
X27023989Y17094200D01*
X27088003Y17081410D01*
X27127200Y17056100D01*
X27163978Y17024164D01*
X27181331Y17018000D01*
X27213414Y17004172D01*
X27270225Y16968909D01*
X27307226Y16943109D01*
X27442228Y16863578D01*
X27576486Y16817729D01*
X27699380Y16808171D01*
X27779251Y16827044D01*
X27858756Y16878718D01*
X27901983Y16955218D01*
X27914600Y17062051D01*
X27903583Y17149670D01*
X27876162Y17203536D01*
X27840785Y17220428D01*
X27805898Y17197125D01*
G37*
X27805898Y17197125D02*
X27779948Y17130406D01*
X27777033Y17114511D01*
X27760093Y17039766D01*
X27738780Y16984251D01*
X27732576Y16974811D01*
X27676440Y16946279D01*
X27582542Y16947973D01*
X27453676Y16979529D01*
X27320804Y17028698D01*
X27192249Y17078698D01*
X27082474Y17115246D01*
X26998111Y17136719D01*
X26945796Y17141496D01*
X26932160Y17127955D01*
X26934528Y17123116D01*
X26970768Y17101884D01*
X27023989Y17094200D01*
X27088003Y17081410D01*
X27127200Y17056100D01*
X27163978Y17024164D01*
X27181331Y17018000D01*
X27213414Y17004172D01*
X27270225Y16968909D01*
X27307226Y16943109D01*
X27442228Y16863578D01*
X27576486Y16817729D01*
X27699380Y16808171D01*
X27779251Y16827044D01*
X27858756Y16878718D01*
X27901983Y16955218D01*
X27914600Y17062051D01*
X27903583Y17149670D01*
X27876162Y17203536D01*
X27840785Y17220428D01*
X27805898Y17197125D01*
G36*
X28931008Y17135465D02*
G01*
X28930600Y17121388D01*
X28951105Y17069704D01*
X28981400Y17043400D01*
X29019944Y17029606D01*
X29031793Y17052936D01*
X29032201Y17067013D01*
X29011696Y17118697D01*
X28981400Y17145000D01*
X28942857Y17158795D01*
X28931008Y17135465D01*
G37*
X28931008Y17135465D02*
X28930600Y17121388D01*
X28951105Y17069704D01*
X28981400Y17043400D01*
X29019944Y17029606D01*
X29031793Y17052936D01*
X29032201Y17067013D01*
X29011696Y17118697D01*
X28981400Y17145000D01*
X28942857Y17158795D01*
X28931008Y17135465D01*
G36*
X28862780Y17466646D02*
G01*
X28857745Y17433501D01*
X28863165Y17412796D01*
X28894011Y17383813D01*
X28942656Y17373815D01*
X28987463Y17383037D01*
X29006800Y17411217D01*
X28985463Y17441760D01*
X28937515Y17466101D01*
X28887052Y17474964D01*
X28862780Y17466646D01*
G37*
X28862780Y17466646D02*
X28857745Y17433501D01*
X28863165Y17412796D01*
X28894011Y17383813D01*
X28942656Y17373815D01*
X28987463Y17383037D01*
X29006800Y17411217D01*
X28985463Y17441760D01*
X28937515Y17466101D01*
X28887052Y17474964D01*
X28862780Y17466646D01*
G36*
X28322343Y17656537D02*
G01*
X28281151Y17600840D01*
X28268005Y17565104D01*
X28283900Y17557012D01*
X28311227Y17570839D01*
X28339226Y17607987D01*
X28357020Y17653000D01*
X28374486Y17716500D01*
X28322343Y17656537D01*
G37*
X28322343Y17656537D02*
X28281151Y17600840D01*
X28268005Y17565104D01*
X28283900Y17557012D01*
X28311227Y17570839D01*
X28339226Y17607987D01*
X28357020Y17653000D01*
X28374486Y17716500D01*
X28322343Y17656537D01*
G36*
X28627767Y17665946D02*
G01*
X28577512Y17637420D01*
X28550329Y17606078D01*
X28549600Y17601307D01*
X28566271Y17578098D01*
X28606139Y17584633D01*
X28653992Y17617413D01*
X28663900Y17627600D01*
X28689734Y17665922D01*
X28678867Y17678400D01*
X28627767Y17665946D01*
G37*
X28627767Y17665946D02*
X28577512Y17637420D01*
X28550329Y17606078D01*
X28549600Y17601307D01*
X28566271Y17578098D01*
X28606139Y17584633D01*
X28653992Y17617413D01*
X28663900Y17627600D01*
X28689734Y17665922D01*
X28678867Y17678400D01*
X28627767Y17665946D01*
D17*
X7300000Y6223000D02*
G75*
G03*
X7300000Y6223000I-950000J0D01*
G01*
X4760000Y6223000D02*
G75*
G03*
X4760000Y6223000I-950000J0D01*
G01*
X32700000Y26289000D02*
G75*
G03*
X32700000Y26289000I-950000J0D01*
G01*
X30160000Y6223000D02*
G75*
G03*
X30160000Y6223000I-950000J0D01*
G01*
X13904000Y15748000D02*
G75*
G03*
X13904000Y15748000I-950000J0D01*
G01*
X32700000Y6223000D02*
G75*
G03*
X32700000Y6223000I-950000J0D01*
G01*
X27620000Y6223000D02*
G75*
G03*
X27620000Y6223000I-950000J0D01*
G01*
X32065000Y17907000D02*
G75*
G03*
X32065000Y17907000I-950000J0D01*
G01*
X32065000Y15621000D02*
G75*
G03*
X32065000Y15621000I-950000J0D01*
G01*
X32065000Y11049000D02*
G75*
G03*
X32065000Y11049000I-950000J0D01*
G01*
X32065000Y13335000D02*
G75*
G03*
X32065000Y13335000I-950000J0D01*
G01*
X30732000Y22408000D02*
X29272000Y22408000D01*
X30732000Y19248000D02*
X28572000Y19248000D01*
X30732000Y19248000D02*
X30732000Y20178000D01*
X30732000Y22408000D02*
X30732000Y21478000D01*
X22540000Y26289000D02*
G75*
G03*
X22540000Y26289000I-950000J0D01*
G01*
X4760000Y26289000D02*
G75*
G03*
X4760000Y26289000I-950000J0D01*
G01*
X7300000Y26289000D02*
G75*
G03*
X7300000Y26289000I-950000J0D01*
G01*
D18*
X24213000Y14605000D02*
X24213000Y12405000D01*
X24213000Y14605000D02*
X24213000Y16805000D01*
X17443000Y14605000D02*
X17443000Y12405000D01*
X17443000Y14605000D02*
X17443000Y18205000D01*
X2460000Y10090000D02*
X4960000Y10090000D01*
X4960000Y10090000D02*
X4960000Y11140000D01*
X4960000Y11140000D02*
X5950000Y11140000D01*
X2460000Y15310000D02*
X4960000Y15310000D01*
X4960000Y15310000D02*
X4960000Y14260000D01*
X490000Y11260000D02*
X490000Y14140000D01*
X33886000Y14804000D02*
X34186000Y14804000D01*
X32486000Y14804000D02*
X32686000Y14804000D01*
X32486000Y11104000D02*
X32686000Y11104000D01*
X33886000Y11104000D02*
X34186000Y11104000D01*
X32486000Y14804000D02*
X32486000Y11104000D01*
X35386000Y11104000D02*
X35486000Y11104000D01*
X35386000Y14804000D02*
X35486000Y14804000D01*
X33886000Y21408000D02*
X34186000Y21408000D01*
X32486000Y21408000D02*
X32686000Y21408000D01*
X32486000Y17708000D02*
X32686000Y17708000D01*
X33886000Y17708000D02*
X34186000Y17708000D01*
X32486000Y21408000D02*
X32486000Y17708000D01*
X35386000Y17708000D02*
X35486000Y17708000D01*
X35386000Y21408000D02*
X35486000Y21408000D01*
X22742000Y22592000D02*
X25172000Y22592000D01*
X24502000Y19522000D02*
X22742000Y19522000D01*
X16483000Y14746248D02*
X16483000Y15268752D01*
X15013000Y14746248D02*
X15013000Y15268752D01*
X19692252Y22579000D02*
X19169748Y22579000D01*
X19692252Y21109000D02*
X19169748Y21109000D01*
X26316000Y20962252D02*
X26316000Y20439748D01*
X27786000Y20962252D02*
X27786000Y20439748D01*
X10677000Y14022000D02*
X13107000Y14022000D01*
X12437000Y10952000D02*
X10677000Y10952000D01*
X33555000Y27151064D02*
X33555000Y26696936D01*
X35025000Y27151064D02*
X35025000Y26696936D01*
X35025000Y5360936D02*
X35025000Y5815064D01*
X33555000Y5360936D02*
X33555000Y5815064D01*
X2005000Y5360936D02*
X2005000Y5815064D01*
X535000Y5360936D02*
X535000Y5815064D01*
X535000Y27151064D02*
X535000Y26696936D01*
X2005000Y27151064D02*
X2005000Y26696936D01*
X13462000Y17506000D02*
X11512000Y17506000D01*
X13462000Y17506000D02*
X15412000Y17506000D01*
X13462000Y22626000D02*
X11512000Y22626000D01*
X13462000Y22626000D02*
X16912000Y22626000D01*
X2460000Y17202000D02*
X4960000Y17202000D01*
X4960000Y17202000D02*
X4960000Y18252000D01*
X4960000Y18252000D02*
X5950000Y18252000D01*
X2460000Y22422000D02*
X4960000Y22422000D01*
X4960000Y22422000D02*
X4960000Y21372000D01*
X490000Y18372000D02*
X490000Y21252000D01*
X23013936Y6958000D02*
X23468064Y6958000D01*
X23013936Y5488000D02*
X23468064Y5488000D01*
X19023064Y6958000D02*
X18568936Y6958000D01*
X19023064Y5488000D02*
X18568936Y5488000D01*
X14123936Y5488000D02*
X14578064Y5488000D01*
X14123936Y6958000D02*
X14578064Y6958000D01*
X9678936Y5488000D02*
X10133064Y5488000D01*
X9678936Y6958000D02*
X10133064Y6958000D01*
X28040064Y27024000D02*
X27585936Y27024000D01*
X28040064Y25554000D02*
X27585936Y25554000D01*
X18060936Y25554000D02*
X18515064Y25554000D01*
X18060936Y27024000D02*
X18515064Y27024000D01*
X13742936Y25554000D02*
X14197064Y25554000D01*
X13742936Y27024000D02*
X14197064Y27024000D01*
X9424936Y25554000D02*
X9879064Y25554000D01*
X9424936Y27024000D02*
X9879064Y27024000D01*
X8863000Y17806936D02*
X8863000Y18261064D01*
X7393000Y17806936D02*
X7393000Y18261064D01*
X15359748Y11076000D02*
X15882252Y11076000D01*
X15359748Y12546000D02*
X15882252Y12546000D01*
X7520000Y12580252D02*
X7520000Y12057748D01*
X8990000Y12580252D02*
X8990000Y12057748D01*
X7612748Y21109000D02*
X8135252Y21109000D01*
X7612748Y22579000D02*
X8135252Y22579000D01*
X31683476Y21623262D02*
X31743952Y21653500D01*
X31804428Y21713977D01*
X31895142Y21804691D01*
X31955619Y21834929D01*
X32016095Y21834929D01*
X31985857Y21683739D02*
X32046333Y21713977D01*
X32106809Y21774453D01*
X32137047Y21895405D01*
X32137047Y22107072D01*
X32106809Y22228024D01*
X32046333Y22288500D01*
X31985857Y22318739D01*
X31864904Y22318739D01*
X31804428Y22288500D01*
X31743952Y22228024D01*
X31713714Y22107072D01*
X31713714Y21895405D01*
X31743952Y21774453D01*
X31804428Y21713977D01*
X31864904Y21683739D01*
X31985857Y21683739D01*
X31108952Y21683739D02*
X31471809Y21683739D01*
X31290380Y21683739D02*
X31290380Y22318739D01*
X31350857Y22228024D01*
X31411333Y22167548D01*
X31471809Y22137310D01*
X21184809Y19143739D02*
X21184809Y18629691D01*
X21154571Y18569215D01*
X21124333Y18538977D01*
X21063857Y18508739D01*
X20942904Y18508739D01*
X20882428Y18538977D01*
X20852190Y18569215D01*
X20821952Y18629691D01*
X20821952Y19143739D01*
X20186952Y18508739D02*
X20549809Y18508739D01*
X20368380Y18508739D02*
X20368380Y19143739D01*
X20428857Y19053024D01*
X20489333Y18992548D01*
X20549809Y18962310D01*
X2827261Y12911667D02*
X3280833Y12911667D01*
X3371547Y12941905D01*
X3432023Y13002381D01*
X3462261Y13093096D01*
X3462261Y13153572D01*
X2827261Y12337143D02*
X2827261Y12458096D01*
X2857500Y12518572D01*
X2887738Y12548810D01*
X2978452Y12609286D01*
X3099404Y12639524D01*
X3341309Y12639524D01*
X3401785Y12609286D01*
X3432023Y12579048D01*
X3462261Y12518572D01*
X3462261Y12397620D01*
X3432023Y12337143D01*
X3401785Y12306905D01*
X3341309Y12276667D01*
X3190119Y12276667D01*
X3129642Y12306905D01*
X3099404Y12337143D01*
X3069166Y12397620D01*
X3069166Y12518572D01*
X3099404Y12579048D01*
X3129642Y12609286D01*
X3190119Y12639524D01*
X24105809Y19270739D02*
X24105809Y18756691D01*
X24075571Y18696215D01*
X24045333Y18665977D01*
X23984857Y18635739D01*
X23863904Y18635739D01*
X23803428Y18665977D01*
X23773190Y18696215D01*
X23742952Y18756691D01*
X23742952Y19270739D01*
X23501047Y19270739D02*
X23107952Y19270739D01*
X23319619Y19028834D01*
X23228904Y19028834D01*
X23168428Y18998596D01*
X23138190Y18968358D01*
X23107952Y18907881D01*
X23107952Y18756691D01*
X23138190Y18696215D01*
X23168428Y18665977D01*
X23228904Y18635739D01*
X23410333Y18635739D01*
X23470809Y18665977D01*
X23501047Y18696215D01*
X14704785Y16742834D02*
X14735023Y16773072D01*
X14765261Y16863786D01*
X14765261Y16924262D01*
X14735023Y17014977D01*
X14674547Y17075453D01*
X14614071Y17105691D01*
X14493119Y17135929D01*
X14402404Y17135929D01*
X14281452Y17105691D01*
X14220976Y17075453D01*
X14160500Y17014977D01*
X14130261Y16924262D01*
X14130261Y16863786D01*
X14160500Y16773072D01*
X14190738Y16742834D01*
X14130261Y16531167D02*
X14130261Y16138072D01*
X14372166Y16349739D01*
X14372166Y16259024D01*
X14402404Y16198548D01*
X14432642Y16168310D01*
X14493119Y16138072D01*
X14644309Y16138072D01*
X14704785Y16168310D01*
X14735023Y16198548D01*
X14765261Y16259024D01*
X14765261Y16440453D01*
X14735023Y16500929D01*
X14704785Y16531167D01*
X19536833Y20220215D02*
X19567071Y20189977D01*
X19657785Y20159739D01*
X19718261Y20159739D01*
X19808976Y20189977D01*
X19869452Y20250453D01*
X19899690Y20310929D01*
X19929928Y20431881D01*
X19929928Y20522596D01*
X19899690Y20643548D01*
X19869452Y20704024D01*
X19808976Y20764500D01*
X19718261Y20794739D01*
X19657785Y20794739D01*
X19567071Y20764500D01*
X19536833Y20734262D01*
X19294928Y20734262D02*
X19264690Y20764500D01*
X19204214Y20794739D01*
X19053023Y20794739D01*
X18992547Y20764500D01*
X18962309Y20734262D01*
X18932071Y20673786D01*
X18932071Y20613310D01*
X18962309Y20522596D01*
X19325166Y20159739D01*
X18932071Y20159739D01*
X25505833Y18823215D02*
X25536071Y18792977D01*
X25626785Y18762739D01*
X25687261Y18762739D01*
X25777976Y18792977D01*
X25838452Y18853453D01*
X25868690Y18913929D01*
X25898928Y19034881D01*
X25898928Y19125596D01*
X25868690Y19246548D01*
X25838452Y19307024D01*
X25777976Y19367500D01*
X25687261Y19397739D01*
X25626785Y19397739D01*
X25536071Y19367500D01*
X25505833Y19337262D01*
X24901071Y18762739D02*
X25263928Y18762739D01*
X25082500Y18762739D02*
X25082500Y19397739D01*
X25142976Y19307024D01*
X25203452Y19246548D01*
X25263928Y19216310D01*
X8992809Y14952739D02*
X8992809Y14438691D01*
X8962571Y14378215D01*
X8932333Y14347977D01*
X8871857Y14317739D01*
X8750904Y14317739D01*
X8690428Y14347977D01*
X8660190Y14378215D01*
X8629952Y14438691D01*
X8629952Y14952739D01*
X8055428Y14741072D02*
X8055428Y14317739D01*
X8206619Y14982977D02*
X8357809Y14529405D01*
X7964714Y14529405D01*
X32793214Y27779739D02*
X33004880Y28082120D01*
X33156071Y27779739D02*
X33156071Y28414739D01*
X32914166Y28414739D01*
X32853690Y28384500D01*
X32823452Y28354262D01*
X32793214Y28293786D01*
X32793214Y28203072D01*
X32823452Y28142596D01*
X32853690Y28112358D01*
X32914166Y28082120D01*
X33156071Y28082120D01*
X32188452Y27779739D02*
X32551309Y27779739D01*
X32369880Y27779739D02*
X32369880Y28414739D01*
X32430357Y28324024D01*
X32490833Y28263548D01*
X32551309Y28233310D01*
X31795357Y28414739D02*
X31734880Y28414739D01*
X31674404Y28384500D01*
X31644166Y28354262D01*
X31613928Y28293786D01*
X31583690Y28172834D01*
X31583690Y28021643D01*
X31613928Y27900691D01*
X31644166Y27840215D01*
X31674404Y27809977D01*
X31734880Y27779739D01*
X31795357Y27779739D01*
X31855833Y27809977D01*
X31886071Y27840215D01*
X31916309Y27900691D01*
X31946547Y28021643D01*
X31946547Y28172834D01*
X31916309Y28293786D01*
X31886071Y28354262D01*
X31855833Y28384500D01*
X31795357Y28414739D01*
X32793214Y4157739D02*
X33004880Y4460120D01*
X33156071Y4157739D02*
X33156071Y4792739D01*
X32914166Y4792739D01*
X32853690Y4762500D01*
X32823452Y4732262D01*
X32793214Y4671786D01*
X32793214Y4581072D01*
X32823452Y4520596D01*
X32853690Y4490358D01*
X32914166Y4460120D01*
X33156071Y4460120D01*
X32188452Y4157739D02*
X32551309Y4157739D01*
X32369880Y4157739D02*
X32369880Y4792739D01*
X32430357Y4702024D01*
X32490833Y4641548D01*
X32551309Y4611310D01*
X31583690Y4157739D02*
X31946547Y4157739D01*
X31765119Y4157739D02*
X31765119Y4792739D01*
X31825595Y4702024D01*
X31886071Y4641548D01*
X31946547Y4611310D01*
X3583214Y4157739D02*
X3794880Y4460120D01*
X3946071Y4157739D02*
X3946071Y4792739D01*
X3704166Y4792739D01*
X3643690Y4762500D01*
X3613452Y4732262D01*
X3583214Y4671786D01*
X3583214Y4581072D01*
X3613452Y4520596D01*
X3643690Y4490358D01*
X3704166Y4460120D01*
X3946071Y4460120D01*
X2978452Y4157739D02*
X3341309Y4157739D01*
X3159880Y4157739D02*
X3159880Y4792739D01*
X3220357Y4702024D01*
X3280833Y4641548D01*
X3341309Y4611310D01*
X2736547Y4732262D02*
X2706309Y4762500D01*
X2645833Y4792739D01*
X2494642Y4792739D01*
X2434166Y4762500D01*
X2403928Y4732262D01*
X2373690Y4671786D01*
X2373690Y4611310D01*
X2403928Y4520596D01*
X2766785Y4157739D01*
X2373690Y4157739D01*
X3153833Y27779739D02*
X3365500Y28082120D01*
X3516690Y27779739D02*
X3516690Y28414739D01*
X3274785Y28414739D01*
X3214309Y28384500D01*
X3184071Y28354262D01*
X3153833Y28293786D01*
X3153833Y28203072D01*
X3184071Y28142596D01*
X3214309Y28112358D01*
X3274785Y28082120D01*
X3516690Y28082120D01*
X2851452Y27779739D02*
X2730500Y27779739D01*
X2670023Y27809977D01*
X2639785Y27840215D01*
X2579309Y27930929D01*
X2549071Y28051881D01*
X2549071Y28293786D01*
X2579309Y28354262D01*
X2609547Y28384500D01*
X2670023Y28414739D01*
X2790976Y28414739D01*
X2851452Y28384500D01*
X2881690Y28354262D01*
X2911928Y28293786D01*
X2911928Y28142596D01*
X2881690Y28082120D01*
X2851452Y28051881D01*
X2790976Y28021643D01*
X2670023Y28021643D01*
X2609547Y28051881D01*
X2579309Y28082120D01*
X2549071Y28142596D01*
X17305261Y20168810D02*
X17819309Y20168810D01*
X17879785Y20138572D01*
X17910023Y20108334D01*
X17940261Y20047858D01*
X17940261Y19926905D01*
X17910023Y19866429D01*
X17879785Y19836191D01*
X17819309Y19805953D01*
X17305261Y19805953D01*
X17365738Y19533810D02*
X17335500Y19503572D01*
X17305261Y19443096D01*
X17305261Y19291905D01*
X17335500Y19231429D01*
X17365738Y19201191D01*
X17426214Y19170953D01*
X17486690Y19170953D01*
X17577404Y19201191D01*
X17940261Y19564048D01*
X17940261Y19170953D01*
X2827261Y20023667D02*
X3280833Y20023667D01*
X3371547Y20053905D01*
X3432023Y20114381D01*
X3462261Y20205096D01*
X3462261Y20265572D01*
X2827261Y19418905D02*
X2827261Y19721286D01*
X3129642Y19751524D01*
X3099404Y19721286D01*
X3069166Y19660810D01*
X3069166Y19509620D01*
X3099404Y19449143D01*
X3129642Y19418905D01*
X3190119Y19388667D01*
X3341309Y19388667D01*
X3401785Y19418905D01*
X3432023Y19449143D01*
X3462261Y19509620D01*
X3462261Y19660810D01*
X3432023Y19721286D01*
X3401785Y19751524D01*
X8233833Y15460739D02*
X8445500Y15763120D01*
X8596690Y15460739D02*
X8596690Y16095739D01*
X8354785Y16095739D01*
X8294309Y16065500D01*
X8264071Y16035262D01*
X8233833Y15974786D01*
X8233833Y15884072D01*
X8264071Y15823596D01*
X8294309Y15793358D01*
X8354785Y15763120D01*
X8596690Y15763120D01*
X7629071Y15460739D02*
X7991928Y15460739D01*
X7810500Y15460739D02*
X7810500Y16095739D01*
X7870976Y16005024D01*
X7931452Y15944548D01*
X7991928Y15914310D01*
X14450785Y13997215D02*
X14481023Y14027453D01*
X14511261Y14118167D01*
X14511261Y14178643D01*
X14481023Y14269358D01*
X14420547Y14329834D01*
X14360071Y14360072D01*
X14239119Y14390310D01*
X14148404Y14390310D01*
X14027452Y14360072D01*
X13966976Y14329834D01*
X13906500Y14269358D01*
X13876261Y14178643D01*
X13876261Y14118167D01*
X13906500Y14027453D01*
X13936738Y13997215D01*
X14511261Y13392453D02*
X14511261Y13755310D01*
X14511261Y13573881D02*
X13876261Y13573881D01*
X13966976Y13634358D01*
X14027452Y13694834D01*
X14057690Y13755310D01*
X13876261Y12999358D02*
X13876261Y12938881D01*
X13906500Y12878405D01*
X13936738Y12848167D01*
X13997214Y12817929D01*
X14118166Y12787691D01*
X14269357Y12787691D01*
X14390309Y12817929D01*
X14450785Y12848167D01*
X14481023Y12878405D01*
X14511261Y12938881D01*
X14511261Y12999358D01*
X14481023Y13059834D01*
X14450785Y13090072D01*
X14390309Y13120310D01*
X14269357Y13150548D01*
X14118166Y13150548D01*
X13997214Y13120310D01*
X13936738Y13090072D01*
X13906500Y13059834D01*
X13876261Y12999358D01*
X6709833Y10187215D02*
X6740071Y10156977D01*
X6830785Y10126739D01*
X6891261Y10126739D01*
X6981976Y10156977D01*
X7042452Y10217453D01*
X7072690Y10277929D01*
X7102928Y10398881D01*
X7102928Y10489596D01*
X7072690Y10610548D01*
X7042452Y10671024D01*
X6981976Y10731500D01*
X6891261Y10761739D01*
X6830785Y10761739D01*
X6740071Y10731500D01*
X6709833Y10701262D01*
X6165547Y10550072D02*
X6165547Y10126739D01*
X6316738Y10791977D02*
X6467928Y10338405D01*
X6074833Y10338405D01*
X8614833Y20220215D02*
X8645071Y20189977D01*
X8735785Y20159739D01*
X8796261Y20159739D01*
X8886976Y20189977D01*
X8947452Y20250453D01*
X8977690Y20310929D01*
X9007928Y20431881D01*
X9007928Y20522596D01*
X8977690Y20643548D01*
X8947452Y20704024D01*
X8886976Y20764500D01*
X8796261Y20794739D01*
X8735785Y20794739D01*
X8645071Y20764500D01*
X8614833Y20734262D01*
X8312452Y20159739D02*
X8191500Y20159739D01*
X8131023Y20189977D01*
X8100785Y20220215D01*
X8040309Y20310929D01*
X8010071Y20431881D01*
X8010071Y20673786D01*
X8040309Y20734262D01*
X8070547Y20764500D01*
X8131023Y20794739D01*
X8251976Y20794739D01*
X8312452Y20764500D01*
X8342690Y20734262D01*
X8372928Y20673786D01*
X8372928Y20522596D01*
X8342690Y20462120D01*
X8312452Y20431881D01*
X8251976Y20401643D01*
X8131023Y20401643D01*
X8070547Y20431881D01*
X8040309Y20462120D01*
X8010071Y20522596D01*
%LPC*%
D19*
X9649276Y31851600D02*
X9726685Y31895143D01*
X9842800Y31895143D01*
X9958914Y31851600D01*
X10036323Y31764515D01*
X10075028Y31677429D01*
X10113733Y31503258D01*
X10113733Y31372629D01*
X10075028Y31198458D01*
X10036323Y31111372D01*
X9958914Y31024286D01*
X9842800Y30980743D01*
X9765390Y30980743D01*
X9649276Y31024286D01*
X9610571Y31067829D01*
X9610571Y31372629D01*
X9765390Y31372629D01*
X9262228Y30980743D02*
X9262228Y31895143D01*
X8797771Y30980743D01*
X8797771Y31895143D01*
X8410723Y30980743D02*
X8410723Y31895143D01*
X8217200Y31895143D01*
X8101085Y31851600D01*
X8023676Y31764515D01*
X7984971Y31677429D01*
X7946266Y31503258D01*
X7946266Y31372629D01*
X7984971Y31198458D01*
X8023676Y31111372D01*
X8101085Y31024286D01*
X8217200Y30980743D01*
X8410723Y30980743D01*
X16649276Y31851600D02*
X16726685Y31895143D01*
X16842800Y31895143D01*
X16958914Y31851600D01*
X17036323Y31764515D01*
X17075028Y31677429D01*
X17113733Y31503258D01*
X17113733Y31372629D01*
X17075028Y31198458D01*
X17036323Y31111372D01*
X16958914Y31024286D01*
X16842800Y30980743D01*
X16765390Y30980743D01*
X16649276Y31024286D01*
X16610571Y31067829D01*
X16610571Y31372629D01*
X16765390Y31372629D01*
X16262228Y30980743D02*
X16262228Y31895143D01*
X15797771Y30980743D01*
X15797771Y31895143D01*
X15410723Y30980743D02*
X15410723Y31895143D01*
X15217200Y31895143D01*
X15101085Y31851600D01*
X15023676Y31764515D01*
X14984971Y31677429D01*
X14946266Y31503258D01*
X14946266Y31372629D01*
X14984971Y31198458D01*
X15023676Y31111372D01*
X15101085Y31024286D01*
X15217200Y30980743D01*
X15410723Y30980743D01*
X23649276Y31851600D02*
X23726685Y31895143D01*
X23842800Y31895143D01*
X23958914Y31851600D01*
X24036323Y31764515D01*
X24075028Y31677429D01*
X24113733Y31503258D01*
X24113733Y31372629D01*
X24075028Y31198458D01*
X24036323Y31111372D01*
X23958914Y31024286D01*
X23842800Y30980743D01*
X23765390Y30980743D01*
X23649276Y31024286D01*
X23610571Y31067829D01*
X23610571Y31372629D01*
X23765390Y31372629D01*
X23262228Y30980743D02*
X23262228Y31895143D01*
X22797771Y30980743D01*
X22797771Y31895143D01*
X22410723Y30980743D02*
X22410723Y31895143D01*
X22217200Y31895143D01*
X22101085Y31851600D01*
X22023676Y31764515D01*
X21984971Y31677429D01*
X21946266Y31503258D01*
X21946266Y31372629D01*
X21984971Y31198458D01*
X22023676Y31111372D01*
X22101085Y31024286D01*
X22217200Y30980743D01*
X22410723Y30980743D01*
X30649276Y31851600D02*
X30726685Y31895143D01*
X30842800Y31895143D01*
X30958914Y31851600D01*
X31036323Y31764515D01*
X31075028Y31677429D01*
X31113733Y31503258D01*
X31113733Y31372629D01*
X31075028Y31198458D01*
X31036323Y31111372D01*
X30958914Y31024286D01*
X30842800Y30980743D01*
X30765390Y30980743D01*
X30649276Y31024286D01*
X30610571Y31067829D01*
X30610571Y31372629D01*
X30765390Y31372629D01*
X30262228Y30980743D02*
X30262228Y31895143D01*
X29797771Y30980743D01*
X29797771Y31895143D01*
X29410723Y30980743D02*
X29410723Y31895143D01*
X29217200Y31895143D01*
X29101085Y31851600D01*
X29023676Y31764515D01*
X28984971Y31677429D01*
X28946266Y31503258D01*
X28946266Y31372629D01*
X28984971Y31198458D01*
X29023676Y31111372D01*
X29101085Y31024286D01*
X29217200Y30980743D01*
X29410723Y30980743D01*
X27149276Y1473200D02*
X27226685Y1516743D01*
X27342800Y1516743D01*
X27458914Y1473200D01*
X27536323Y1386115D01*
X27575028Y1299029D01*
X27613733Y1124858D01*
X27613733Y994229D01*
X27575028Y820058D01*
X27536323Y732972D01*
X27458914Y645886D01*
X27342800Y602343D01*
X27265390Y602343D01*
X27149276Y645886D01*
X27110571Y689429D01*
X27110571Y994229D01*
X27265390Y994229D01*
X26762228Y602343D02*
X26762228Y1516743D01*
X26297771Y602343D01*
X26297771Y1516743D01*
X25910723Y602343D02*
X25910723Y1516743D01*
X25717200Y1516743D01*
X25601085Y1473200D01*
X25523676Y1386115D01*
X25484971Y1299029D01*
X25446266Y1124858D01*
X25446266Y994229D01*
X25484971Y820058D01*
X25523676Y732972D01*
X25601085Y645886D01*
X25717200Y602343D01*
X25910723Y602343D01*
X20149276Y1473200D02*
X20226685Y1516743D01*
X20342800Y1516743D01*
X20458914Y1473200D01*
X20536323Y1386115D01*
X20575028Y1299029D01*
X20613733Y1124858D01*
X20613733Y994229D01*
X20575028Y820058D01*
X20536323Y732972D01*
X20458914Y645886D01*
X20342800Y602343D01*
X20265390Y602343D01*
X20149276Y645886D01*
X20110571Y689429D01*
X20110571Y994229D01*
X20265390Y994229D01*
X19762228Y602343D02*
X19762228Y1516743D01*
X19297771Y602343D01*
X19297771Y1516743D01*
X18910723Y602343D02*
X18910723Y1516743D01*
X18717200Y1516743D01*
X18601085Y1473200D01*
X18523676Y1386115D01*
X18484971Y1299029D01*
X18446266Y1124858D01*
X18446266Y994229D01*
X18484971Y820058D01*
X18523676Y732972D01*
X18601085Y645886D01*
X18717200Y602343D01*
X18910723Y602343D01*
X6149276Y1473200D02*
X6226685Y1516743D01*
X6342800Y1516743D01*
X6458914Y1473200D01*
X6536323Y1386115D01*
X6575028Y1299029D01*
X6613733Y1124858D01*
X6613733Y994229D01*
X6575028Y820058D01*
X6536323Y732972D01*
X6458914Y645886D01*
X6342800Y602343D01*
X6265390Y602343D01*
X6149276Y645886D01*
X6110571Y689429D01*
X6110571Y994229D01*
X6265390Y994229D01*
X5762228Y602343D02*
X5762228Y1516743D01*
X5297771Y602343D01*
X5297771Y1516743D01*
X4910723Y602343D02*
X4910723Y1516743D01*
X4717200Y1516743D01*
X4601085Y1473200D01*
X4523676Y1386115D01*
X4484971Y1299029D01*
X4446266Y1124858D01*
X4446266Y994229D01*
X4484971Y820058D01*
X4523676Y732972D01*
X4601085Y645886D01*
X4717200Y602343D01*
X4910723Y602343D01*
X13149276Y1473200D02*
X13226685Y1516743D01*
X13342800Y1516743D01*
X13458914Y1473200D01*
X13536323Y1386115D01*
X13575028Y1299029D01*
X13613733Y1124858D01*
X13613733Y994229D01*
X13575028Y820058D01*
X13536323Y732972D01*
X13458914Y645886D01*
X13342800Y602343D01*
X13265390Y602343D01*
X13149276Y645886D01*
X13110571Y689429D01*
X13110571Y994229D01*
X13265390Y994229D01*
X12762228Y602343D02*
X12762228Y1516743D01*
X12297771Y602343D01*
X12297771Y1516743D01*
X11910723Y602343D02*
X11910723Y1516743D01*
X11717200Y1516743D01*
X11601085Y1473200D01*
X11523676Y1386115D01*
X11484971Y1299029D01*
X11446266Y1124858D01*
X11446266Y994229D01*
X11484971Y820058D01*
X11523676Y732972D01*
X11601085Y645886D01*
X11717200Y602343D01*
X11910723Y602343D01*
X6733419Y17399000D02*
X5717419Y17399000D01*
X5717419Y17217572D01*
X5765800Y17108715D01*
X5862561Y17036143D01*
X5959323Y16999858D01*
X6152847Y16963572D01*
X6297990Y16963572D01*
X6491514Y16999858D01*
X6588276Y17036143D01*
X6685038Y17108715D01*
X6733419Y17217572D01*
X6733419Y17399000D01*
X6443133Y16673286D02*
X6443133Y16310429D01*
X6733419Y16745858D02*
X5717419Y16491858D01*
X6733419Y16237858D01*
X5717419Y16092715D02*
X5717419Y15657286D01*
X6733419Y15875000D02*
X5717419Y15875000D01*
X6443133Y15439572D02*
X6443133Y15076715D01*
X6733419Y15512143D02*
X5717419Y15258143D01*
X6733419Y15004143D01*
M02*
