G04 #@! TF.GenerationSoftware,KiCad,Pcbnew,(5.1.9)-1*
G04 #@! TF.CreationDate,2021-03-27T20:31:15-07:00*
G04 #@! TF.ProjectId,nibelung,6e696265-6c75-46e6-972e-6b696361645f,rev?*
G04 #@! TF.SameCoordinates,PX621abf0PY7065700*
G04 #@! TF.FileFunction,Soldermask,Bot*
G04 #@! TF.FilePolarity,Negative*
%FSLAX46Y46*%
G04 Gerber Fmt 4.6, Leading zero omitted, Abs format (unit mm)*
G04 Created by KiCad (PCBNEW (5.1.9)-1) date 2021-03-27 20:31:15*
%MOMM*%
%LPD*%
G01*
G04 APERTURE LIST*
%ADD10C,1.601600*%
%ADD11C,1.801600*%
%ADD12C,2.601600*%
%ADD13O,1.801600X1.801600*%
%ADD14C,2.301600*%
G04 APERTURE END LIST*
D10*
X6350000Y6223000D03*
X3810000Y6223000D03*
X31750000Y26289000D03*
X29210000Y6223000D03*
X12954000Y15748000D03*
X31750000Y6223000D03*
X26670000Y6223000D03*
X31115000Y17907000D03*
X31115000Y15621000D03*
X31115000Y11049000D03*
X31115000Y13335000D03*
G36*
G01*
X30471200Y20428000D02*
X30471200Y21228000D01*
G75*
G02*
X30522000Y21278800I50800J0D01*
G01*
X31422000Y21278800D01*
G75*
G02*
X31472800Y21228000I0J-50800D01*
G01*
X31472800Y20428000D01*
G75*
G02*
X31422000Y20377200I-50800J0D01*
G01*
X30522000Y20377200D01*
G75*
G02*
X30471200Y20428000I0J50800D01*
G01*
G37*
G36*
G01*
X28471200Y21378000D02*
X28471200Y22178000D01*
G75*
G02*
X28522000Y22228800I50800J0D01*
G01*
X29422000Y22228800D01*
G75*
G02*
X29472800Y22178000I0J-50800D01*
G01*
X29472800Y21378000D01*
G75*
G02*
X29422000Y21327200I-50800J0D01*
G01*
X28522000Y21327200D01*
G75*
G02*
X28471200Y21378000I0J50800D01*
G01*
G37*
G36*
G01*
X28471200Y19478000D02*
X28471200Y20278000D01*
G75*
G02*
X28522000Y20328800I50800J0D01*
G01*
X29422000Y20328800D01*
G75*
G02*
X29472800Y20278000I0J-50800D01*
G01*
X29472800Y19478000D01*
G75*
G02*
X29422000Y19427200I-50800J0D01*
G01*
X28522000Y19427200D01*
G75*
G02*
X28471200Y19478000I0J50800D01*
G01*
G37*
X21590000Y26289000D03*
X3810000Y26289000D03*
X6350000Y26289000D03*
G36*
G01*
X17777600Y12530800D02*
X18028400Y12530800D01*
G75*
G02*
X18153800Y12405400I0J-125400D01*
G01*
X18153800Y11079600D01*
G75*
G02*
X18028400Y10954200I-125400J0D01*
G01*
X17777600Y10954200D01*
G75*
G02*
X17652200Y11079600I0J125400D01*
G01*
X17652200Y12405400D01*
G75*
G02*
X17777600Y12530800I125400J0D01*
G01*
G37*
G36*
G01*
X18427600Y12530800D02*
X18678400Y12530800D01*
G75*
G02*
X18803800Y12405400I0J-125400D01*
G01*
X18803800Y11079600D01*
G75*
G02*
X18678400Y10954200I-125400J0D01*
G01*
X18427600Y10954200D01*
G75*
G02*
X18302200Y11079600I0J125400D01*
G01*
X18302200Y12405400D01*
G75*
G02*
X18427600Y12530800I125400J0D01*
G01*
G37*
G36*
G01*
X19077600Y12530800D02*
X19328400Y12530800D01*
G75*
G02*
X19453800Y12405400I0J-125400D01*
G01*
X19453800Y11079600D01*
G75*
G02*
X19328400Y10954200I-125400J0D01*
G01*
X19077600Y10954200D01*
G75*
G02*
X18952200Y11079600I0J125400D01*
G01*
X18952200Y12405400D01*
G75*
G02*
X19077600Y12530800I125400J0D01*
G01*
G37*
G36*
G01*
X19727600Y12530800D02*
X19978400Y12530800D01*
G75*
G02*
X20103800Y12405400I0J-125400D01*
G01*
X20103800Y11079600D01*
G75*
G02*
X19978400Y10954200I-125400J0D01*
G01*
X19727600Y10954200D01*
G75*
G02*
X19602200Y11079600I0J125400D01*
G01*
X19602200Y12405400D01*
G75*
G02*
X19727600Y12530800I125400J0D01*
G01*
G37*
G36*
G01*
X20377600Y12530800D02*
X20628400Y12530800D01*
G75*
G02*
X20753800Y12405400I0J-125400D01*
G01*
X20753800Y11079600D01*
G75*
G02*
X20628400Y10954200I-125400J0D01*
G01*
X20377600Y10954200D01*
G75*
G02*
X20252200Y11079600I0J125400D01*
G01*
X20252200Y12405400D01*
G75*
G02*
X20377600Y12530800I125400J0D01*
G01*
G37*
G36*
G01*
X21027600Y12530800D02*
X21278400Y12530800D01*
G75*
G02*
X21403800Y12405400I0J-125400D01*
G01*
X21403800Y11079600D01*
G75*
G02*
X21278400Y10954200I-125400J0D01*
G01*
X21027600Y10954200D01*
G75*
G02*
X20902200Y11079600I0J125400D01*
G01*
X20902200Y12405400D01*
G75*
G02*
X21027600Y12530800I125400J0D01*
G01*
G37*
G36*
G01*
X21677600Y12530800D02*
X21928400Y12530800D01*
G75*
G02*
X22053800Y12405400I0J-125400D01*
G01*
X22053800Y11079600D01*
G75*
G02*
X21928400Y10954200I-125400J0D01*
G01*
X21677600Y10954200D01*
G75*
G02*
X21552200Y11079600I0J125400D01*
G01*
X21552200Y12405400D01*
G75*
G02*
X21677600Y12530800I125400J0D01*
G01*
G37*
G36*
G01*
X22327600Y12530800D02*
X22578400Y12530800D01*
G75*
G02*
X22703800Y12405400I0J-125400D01*
G01*
X22703800Y11079600D01*
G75*
G02*
X22578400Y10954200I-125400J0D01*
G01*
X22327600Y10954200D01*
G75*
G02*
X22202200Y11079600I0J125400D01*
G01*
X22202200Y12405400D01*
G75*
G02*
X22327600Y12530800I125400J0D01*
G01*
G37*
G36*
G01*
X22977600Y12530800D02*
X23228400Y12530800D01*
G75*
G02*
X23353800Y12405400I0J-125400D01*
G01*
X23353800Y11079600D01*
G75*
G02*
X23228400Y10954200I-125400J0D01*
G01*
X22977600Y10954200D01*
G75*
G02*
X22852200Y11079600I0J125400D01*
G01*
X22852200Y12405400D01*
G75*
G02*
X22977600Y12530800I125400J0D01*
G01*
G37*
G36*
G01*
X23627600Y12530800D02*
X23878400Y12530800D01*
G75*
G02*
X24003800Y12405400I0J-125400D01*
G01*
X24003800Y11079600D01*
G75*
G02*
X23878400Y10954200I-125400J0D01*
G01*
X23627600Y10954200D01*
G75*
G02*
X23502200Y11079600I0J125400D01*
G01*
X23502200Y12405400D01*
G75*
G02*
X23627600Y12530800I125400J0D01*
G01*
G37*
G36*
G01*
X23627600Y18255800D02*
X23878400Y18255800D01*
G75*
G02*
X24003800Y18130400I0J-125400D01*
G01*
X24003800Y16804600D01*
G75*
G02*
X23878400Y16679200I-125400J0D01*
G01*
X23627600Y16679200D01*
G75*
G02*
X23502200Y16804600I0J125400D01*
G01*
X23502200Y18130400D01*
G75*
G02*
X23627600Y18255800I125400J0D01*
G01*
G37*
G36*
G01*
X22977600Y18255800D02*
X23228400Y18255800D01*
G75*
G02*
X23353800Y18130400I0J-125400D01*
G01*
X23353800Y16804600D01*
G75*
G02*
X23228400Y16679200I-125400J0D01*
G01*
X22977600Y16679200D01*
G75*
G02*
X22852200Y16804600I0J125400D01*
G01*
X22852200Y18130400D01*
G75*
G02*
X22977600Y18255800I125400J0D01*
G01*
G37*
G36*
G01*
X22327600Y18255800D02*
X22578400Y18255800D01*
G75*
G02*
X22703800Y18130400I0J-125400D01*
G01*
X22703800Y16804600D01*
G75*
G02*
X22578400Y16679200I-125400J0D01*
G01*
X22327600Y16679200D01*
G75*
G02*
X22202200Y16804600I0J125400D01*
G01*
X22202200Y18130400D01*
G75*
G02*
X22327600Y18255800I125400J0D01*
G01*
G37*
G36*
G01*
X21677600Y18255800D02*
X21928400Y18255800D01*
G75*
G02*
X22053800Y18130400I0J-125400D01*
G01*
X22053800Y16804600D01*
G75*
G02*
X21928400Y16679200I-125400J0D01*
G01*
X21677600Y16679200D01*
G75*
G02*
X21552200Y16804600I0J125400D01*
G01*
X21552200Y18130400D01*
G75*
G02*
X21677600Y18255800I125400J0D01*
G01*
G37*
G36*
G01*
X21027600Y18255800D02*
X21278400Y18255800D01*
G75*
G02*
X21403800Y18130400I0J-125400D01*
G01*
X21403800Y16804600D01*
G75*
G02*
X21278400Y16679200I-125400J0D01*
G01*
X21027600Y16679200D01*
G75*
G02*
X20902200Y16804600I0J125400D01*
G01*
X20902200Y18130400D01*
G75*
G02*
X21027600Y18255800I125400J0D01*
G01*
G37*
G36*
G01*
X20377600Y18255800D02*
X20628400Y18255800D01*
G75*
G02*
X20753800Y18130400I0J-125400D01*
G01*
X20753800Y16804600D01*
G75*
G02*
X20628400Y16679200I-125400J0D01*
G01*
X20377600Y16679200D01*
G75*
G02*
X20252200Y16804600I0J125400D01*
G01*
X20252200Y18130400D01*
G75*
G02*
X20377600Y18255800I125400J0D01*
G01*
G37*
G36*
G01*
X19727600Y18255800D02*
X19978400Y18255800D01*
G75*
G02*
X20103800Y18130400I0J-125400D01*
G01*
X20103800Y16804600D01*
G75*
G02*
X19978400Y16679200I-125400J0D01*
G01*
X19727600Y16679200D01*
G75*
G02*
X19602200Y16804600I0J125400D01*
G01*
X19602200Y18130400D01*
G75*
G02*
X19727600Y18255800I125400J0D01*
G01*
G37*
G36*
G01*
X19077600Y18255800D02*
X19328400Y18255800D01*
G75*
G02*
X19453800Y18130400I0J-125400D01*
G01*
X19453800Y16804600D01*
G75*
G02*
X19328400Y16679200I-125400J0D01*
G01*
X19077600Y16679200D01*
G75*
G02*
X18952200Y16804600I0J125400D01*
G01*
X18952200Y18130400D01*
G75*
G02*
X19077600Y18255800I125400J0D01*
G01*
G37*
G36*
G01*
X18427600Y18255800D02*
X18678400Y18255800D01*
G75*
G02*
X18803800Y18130400I0J-125400D01*
G01*
X18803800Y16804600D01*
G75*
G02*
X18678400Y16679200I-125400J0D01*
G01*
X18427600Y16679200D01*
G75*
G02*
X18302200Y16804600I0J125400D01*
G01*
X18302200Y18130400D01*
G75*
G02*
X18427600Y18255800I125400J0D01*
G01*
G37*
G36*
G01*
X17777600Y18255800D02*
X18028400Y18255800D01*
G75*
G02*
X18153800Y18130400I0J-125400D01*
G01*
X18153800Y16804600D01*
G75*
G02*
X18028400Y16679200I-125400J0D01*
G01*
X17777600Y16679200D01*
G75*
G02*
X17652200Y16804600I0J125400D01*
G01*
X17652200Y18130400D01*
G75*
G02*
X17777600Y18255800I125400J0D01*
G01*
G37*
D11*
X10596000Y16256000D03*
X3596000Y16256000D03*
D12*
X30030000Y3467100D03*
X26530000Y3467100D03*
X23030000Y3467100D03*
X19530000Y3467100D03*
X16030000Y3467100D03*
X12530000Y3467100D03*
X5530000Y3467100D03*
X9030000Y3467100D03*
X5530000Y29044900D03*
X9030000Y29044900D03*
X12530000Y29044900D03*
X16030000Y29044900D03*
X19530000Y29044900D03*
X23030000Y29044900D03*
X30030000Y29044900D03*
X26530000Y29044900D03*
D13*
X3810000Y8636000D03*
X6350000Y8636000D03*
X8890000Y8636000D03*
X11430000Y8636000D03*
X13970000Y8636000D03*
X16510000Y8636000D03*
X19050000Y8636000D03*
X21590000Y8636000D03*
X24130000Y8636000D03*
X26670000Y8636000D03*
X29210000Y8636000D03*
X31750000Y8636000D03*
X34290000Y8636000D03*
X34290000Y23876000D03*
X31750000Y23876000D03*
X29210000Y23876000D03*
X26670000Y23876000D03*
X24130000Y23876000D03*
X21590000Y23876000D03*
X19050000Y23876000D03*
X16510000Y23876000D03*
X13970000Y23876000D03*
X11430000Y23876000D03*
X8890000Y23876000D03*
X6350000Y23876000D03*
X3810000Y23876000D03*
X1270000Y23876000D03*
D11*
X1270000Y8636000D03*
D14*
X33782000Y1778000D03*
X1778000Y1778000D03*
X33782000Y30734000D03*
X1778000Y30734000D03*
G36*
G01*
X1979635Y14349200D02*
X620365Y14349200D01*
G75*
G02*
X349200Y14620365I0J271165D01*
G01*
X349200Y15379635D01*
G75*
G02*
X620365Y15650800I271165J0D01*
G01*
X1979635Y15650800D01*
G75*
G02*
X2250800Y15379635I0J-271165D01*
G01*
X2250800Y14620365D01*
G75*
G02*
X1979635Y14349200I-271165J0D01*
G01*
G37*
G36*
G01*
X1979635Y9749200D02*
X620365Y9749200D01*
G75*
G02*
X349200Y10020365I0J271165D01*
G01*
X349200Y10779635D01*
G75*
G02*
X620365Y11050800I271165J0D01*
G01*
X1979635Y11050800D01*
G75*
G02*
X2250800Y10779635I0J-271165D01*
G01*
X2250800Y10020365D01*
G75*
G02*
X1979635Y9749200I-271165J0D01*
G01*
G37*
G36*
G01*
X5825400Y13349200D02*
X4524600Y13349200D01*
G75*
G02*
X4349200Y13524600I0J175400D01*
G01*
X4349200Y13875400D01*
G75*
G02*
X4524600Y14050800I175400J0D01*
G01*
X5825400Y14050800D01*
G75*
G02*
X6000800Y13875400I0J-175400D01*
G01*
X6000800Y13524600D01*
G75*
G02*
X5825400Y13349200I-175400J0D01*
G01*
G37*
G36*
G01*
X5825400Y12349200D02*
X4524600Y12349200D01*
G75*
G02*
X4349200Y12524600I0J175400D01*
G01*
X4349200Y12875400D01*
G75*
G02*
X4524600Y13050800I175400J0D01*
G01*
X5825400Y13050800D01*
G75*
G02*
X6000800Y12875400I0J-175400D01*
G01*
X6000800Y12524600D01*
G75*
G02*
X5825400Y12349200I-175400J0D01*
G01*
G37*
G36*
G01*
X5825400Y11349200D02*
X4524600Y11349200D01*
G75*
G02*
X4349200Y11524600I0J175400D01*
G01*
X4349200Y11875400D01*
G75*
G02*
X4524600Y12050800I175400J0D01*
G01*
X5825400Y12050800D01*
G75*
G02*
X6000800Y11875400I0J-175400D01*
G01*
X6000800Y11524600D01*
G75*
G02*
X5825400Y11349200I-175400J0D01*
G01*
G37*
G36*
G01*
X34286000Y15854800D02*
X35286000Y15854800D01*
G75*
G02*
X35336800Y15804000I0J-50800D01*
G01*
X35336800Y14304000D01*
G75*
G02*
X35286000Y14253200I-50800J0D01*
G01*
X34286000Y14253200D01*
G75*
G02*
X34235200Y14304000I0J50800D01*
G01*
X34235200Y15804000D01*
G75*
G02*
X34286000Y15854800I50800J0D01*
G01*
G37*
G36*
G01*
X34286000Y11654800D02*
X35286000Y11654800D01*
G75*
G02*
X35336800Y11604000I0J-50800D01*
G01*
X35336800Y10104000D01*
G75*
G02*
X35286000Y10053200I-50800J0D01*
G01*
X34286000Y10053200D01*
G75*
G02*
X34235200Y10104000I0J50800D01*
G01*
X34235200Y11604000D01*
G75*
G02*
X34286000Y11654800I50800J0D01*
G01*
G37*
G36*
G01*
X32786000Y11654800D02*
X33786000Y11654800D01*
G75*
G02*
X33836800Y11604000I0J-50800D01*
G01*
X33836800Y10104000D01*
G75*
G02*
X33786000Y10053200I-50800J0D01*
G01*
X32786000Y10053200D01*
G75*
G02*
X32735200Y10104000I0J50800D01*
G01*
X32735200Y11604000D01*
G75*
G02*
X32786000Y11654800I50800J0D01*
G01*
G37*
G36*
G01*
X32786000Y15854800D02*
X33786000Y15854800D01*
G75*
G02*
X33836800Y15804000I0J-50800D01*
G01*
X33836800Y14304000D01*
G75*
G02*
X33786000Y14253200I-50800J0D01*
G01*
X32786000Y14253200D01*
G75*
G02*
X32735200Y14304000I0J50800D01*
G01*
X32735200Y15804000D01*
G75*
G02*
X32786000Y15854800I50800J0D01*
G01*
G37*
G36*
G01*
X34286000Y22458800D02*
X35286000Y22458800D01*
G75*
G02*
X35336800Y22408000I0J-50800D01*
G01*
X35336800Y20908000D01*
G75*
G02*
X35286000Y20857200I-50800J0D01*
G01*
X34286000Y20857200D01*
G75*
G02*
X34235200Y20908000I0J50800D01*
G01*
X34235200Y22408000D01*
G75*
G02*
X34286000Y22458800I50800J0D01*
G01*
G37*
G36*
G01*
X34286000Y18258800D02*
X35286000Y18258800D01*
G75*
G02*
X35336800Y18208000I0J-50800D01*
G01*
X35336800Y16708000D01*
G75*
G02*
X35286000Y16657200I-50800J0D01*
G01*
X34286000Y16657200D01*
G75*
G02*
X34235200Y16708000I0J50800D01*
G01*
X34235200Y18208000D01*
G75*
G02*
X34286000Y18258800I50800J0D01*
G01*
G37*
G36*
G01*
X32786000Y18258800D02*
X33786000Y18258800D01*
G75*
G02*
X33836800Y18208000I0J-50800D01*
G01*
X33836800Y16708000D01*
G75*
G02*
X33786000Y16657200I-50800J0D01*
G01*
X32786000Y16657200D01*
G75*
G02*
X32735200Y16708000I0J50800D01*
G01*
X32735200Y18208000D01*
G75*
G02*
X32786000Y18258800I50800J0D01*
G01*
G37*
G36*
G01*
X32786000Y22458800D02*
X33786000Y22458800D01*
G75*
G02*
X33836800Y22408000I0J-50800D01*
G01*
X33836800Y20908000D01*
G75*
G02*
X33786000Y20857200I-50800J0D01*
G01*
X32786000Y20857200D01*
G75*
G02*
X32735200Y20908000I0J50800D01*
G01*
X32735200Y22408000D01*
G75*
G02*
X32786000Y22458800I50800J0D01*
G01*
G37*
G36*
G01*
X25592800Y22357000D02*
X25592800Y21707000D01*
G75*
G02*
X25542000Y21656200I-50800J0D01*
G01*
X24322000Y21656200D01*
G75*
G02*
X24271200Y21707000I0J50800D01*
G01*
X24271200Y22357000D01*
G75*
G02*
X24322000Y22407800I50800J0D01*
G01*
X25542000Y22407800D01*
G75*
G02*
X25592800Y22357000I0J-50800D01*
G01*
G37*
G36*
G01*
X25592800Y21407000D02*
X25592800Y20757000D01*
G75*
G02*
X25542000Y20706200I-50800J0D01*
G01*
X24322000Y20706200D01*
G75*
G02*
X24271200Y20757000I0J50800D01*
G01*
X24271200Y21407000D01*
G75*
G02*
X24322000Y21457800I50800J0D01*
G01*
X25542000Y21457800D01*
G75*
G02*
X25592800Y21407000I0J-50800D01*
G01*
G37*
G36*
G01*
X25592800Y20457000D02*
X25592800Y19807000D01*
G75*
G02*
X25542000Y19756200I-50800J0D01*
G01*
X24322000Y19756200D01*
G75*
G02*
X24271200Y19807000I0J50800D01*
G01*
X24271200Y20457000D01*
G75*
G02*
X24322000Y20507800I50800J0D01*
G01*
X25542000Y20507800D01*
G75*
G02*
X25592800Y20457000I0J-50800D01*
G01*
G37*
G36*
G01*
X22972800Y20457000D02*
X22972800Y19807000D01*
G75*
G02*
X22922000Y19756200I-50800J0D01*
G01*
X21702000Y19756200D01*
G75*
G02*
X21651200Y19807000I0J50800D01*
G01*
X21651200Y20457000D01*
G75*
G02*
X21702000Y20507800I50800J0D01*
G01*
X22922000Y20507800D01*
G75*
G02*
X22972800Y20457000I0J-50800D01*
G01*
G37*
G36*
G01*
X22972800Y22357000D02*
X22972800Y21707000D01*
G75*
G02*
X22922000Y21656200I-50800J0D01*
G01*
X21702000Y21656200D01*
G75*
G02*
X21651200Y21707000I0J50800D01*
G01*
X21651200Y22357000D01*
G75*
G02*
X21702000Y22407800I50800J0D01*
G01*
X22922000Y22407800D01*
G75*
G02*
X22972800Y22357000I0J-50800D01*
G01*
G37*
G36*
G01*
X16252183Y15406700D02*
X15243817Y15406700D01*
G75*
G02*
X14972200Y15678317I0J271617D01*
G01*
X14972200Y16411683D01*
G75*
G02*
X15243817Y16683300I271617J0D01*
G01*
X16252183Y16683300D01*
G75*
G02*
X16523800Y16411683I0J-271617D01*
G01*
X16523800Y15678317D01*
G75*
G02*
X16252183Y15406700I-271617J0D01*
G01*
G37*
G36*
G01*
X16252183Y13331700D02*
X15243817Y13331700D01*
G75*
G02*
X14972200Y13603317I0J271617D01*
G01*
X14972200Y14336683D01*
G75*
G02*
X15243817Y14608300I271617J0D01*
G01*
X16252183Y14608300D01*
G75*
G02*
X16523800Y14336683I0J-271617D01*
G01*
X16523800Y13603317D01*
G75*
G02*
X16252183Y13331700I-271617J0D01*
G01*
G37*
G36*
G01*
X19031800Y22348183D02*
X19031800Y21339817D01*
G75*
G02*
X18760183Y21068200I-271617J0D01*
G01*
X18026817Y21068200D01*
G75*
G02*
X17755200Y21339817I0J271617D01*
G01*
X17755200Y22348183D01*
G75*
G02*
X18026817Y22619800I271617J0D01*
G01*
X18760183Y22619800D01*
G75*
G02*
X19031800Y22348183I0J-271617D01*
G01*
G37*
G36*
G01*
X21106800Y22348183D02*
X21106800Y21339817D01*
G75*
G02*
X20835183Y21068200I-271617J0D01*
G01*
X20101817Y21068200D01*
G75*
G02*
X19830200Y21339817I0J271617D01*
G01*
X19830200Y22348183D01*
G75*
G02*
X20101817Y22619800I271617J0D01*
G01*
X20835183Y22619800D01*
G75*
G02*
X21106800Y22348183I0J-271617D01*
G01*
G37*
G36*
G01*
X26546817Y20301800D02*
X27555183Y20301800D01*
G75*
G02*
X27826800Y20030183I0J-271617D01*
G01*
X27826800Y19296817D01*
G75*
G02*
X27555183Y19025200I-271617J0D01*
G01*
X26546817Y19025200D01*
G75*
G02*
X26275200Y19296817I0J271617D01*
G01*
X26275200Y20030183D01*
G75*
G02*
X26546817Y20301800I271617J0D01*
G01*
G37*
G36*
G01*
X26546817Y22376800D02*
X27555183Y22376800D01*
G75*
G02*
X27826800Y22105183I0J-271617D01*
G01*
X27826800Y21371817D01*
G75*
G02*
X27555183Y21100200I-271617J0D01*
G01*
X26546817Y21100200D01*
G75*
G02*
X26275200Y21371817I0J271617D01*
G01*
X26275200Y22105183D01*
G75*
G02*
X26546817Y22376800I271617J0D01*
G01*
G37*
G36*
G01*
X10907800Y13787000D02*
X10907800Y13137000D01*
G75*
G02*
X10857000Y13086200I-50800J0D01*
G01*
X9637000Y13086200D01*
G75*
G02*
X9586200Y13137000I0J50800D01*
G01*
X9586200Y13787000D01*
G75*
G02*
X9637000Y13837800I50800J0D01*
G01*
X10857000Y13837800D01*
G75*
G02*
X10907800Y13787000I0J-50800D01*
G01*
G37*
G36*
G01*
X10907800Y11887000D02*
X10907800Y11237000D01*
G75*
G02*
X10857000Y11186200I-50800J0D01*
G01*
X9637000Y11186200D01*
G75*
G02*
X9586200Y11237000I0J50800D01*
G01*
X9586200Y11887000D01*
G75*
G02*
X9637000Y11937800I50800J0D01*
G01*
X10857000Y11937800D01*
G75*
G02*
X10907800Y11887000I0J-50800D01*
G01*
G37*
G36*
G01*
X13527800Y11887000D02*
X13527800Y11237000D01*
G75*
G02*
X13477000Y11186200I-50800J0D01*
G01*
X12257000Y11186200D01*
G75*
G02*
X12206200Y11237000I0J50800D01*
G01*
X12206200Y11887000D01*
G75*
G02*
X12257000Y11937800I50800J0D01*
G01*
X13477000Y11937800D01*
G75*
G02*
X13527800Y11887000I0J-50800D01*
G01*
G37*
G36*
G01*
X13527800Y12837000D02*
X13527800Y12187000D01*
G75*
G02*
X13477000Y12136200I-50800J0D01*
G01*
X12257000Y12136200D01*
G75*
G02*
X12206200Y12187000I0J50800D01*
G01*
X12206200Y12837000D01*
G75*
G02*
X12257000Y12887800I50800J0D01*
G01*
X13477000Y12887800D01*
G75*
G02*
X13527800Y12837000I0J-50800D01*
G01*
G37*
G36*
G01*
X13527800Y13787000D02*
X13527800Y13137000D01*
G75*
G02*
X13477000Y13086200I-50800J0D01*
G01*
X12257000Y13086200D01*
G75*
G02*
X12206200Y13137000I0J50800D01*
G01*
X12206200Y13787000D01*
G75*
G02*
X12257000Y13837800I50800J0D01*
G01*
X13477000Y13837800D01*
G75*
G02*
X13527800Y13787000I0J-50800D01*
G01*
G37*
G36*
G01*
X33810365Y28574800D02*
X34769635Y28574800D01*
G75*
G02*
X35040800Y28303635I0J-271165D01*
G01*
X35040800Y27544365D01*
G75*
G02*
X34769635Y27273200I-271165J0D01*
G01*
X33810365Y27273200D01*
G75*
G02*
X33539200Y27544365I0J271165D01*
G01*
X33539200Y28303635D01*
G75*
G02*
X33810365Y28574800I271165J0D01*
G01*
G37*
G36*
G01*
X33810365Y26574800D02*
X34769635Y26574800D01*
G75*
G02*
X35040800Y26303635I0J-271165D01*
G01*
X35040800Y25544365D01*
G75*
G02*
X34769635Y25273200I-271165J0D01*
G01*
X33810365Y25273200D01*
G75*
G02*
X33539200Y25544365I0J271165D01*
G01*
X33539200Y26303635D01*
G75*
G02*
X33810365Y26574800I271165J0D01*
G01*
G37*
G36*
G01*
X34769635Y3937200D02*
X33810365Y3937200D01*
G75*
G02*
X33539200Y4208365I0J271165D01*
G01*
X33539200Y4967635D01*
G75*
G02*
X33810365Y5238800I271165J0D01*
G01*
X34769635Y5238800D01*
G75*
G02*
X35040800Y4967635I0J-271165D01*
G01*
X35040800Y4208365D01*
G75*
G02*
X34769635Y3937200I-271165J0D01*
G01*
G37*
G36*
G01*
X34769635Y5937200D02*
X33810365Y5937200D01*
G75*
G02*
X33539200Y6208365I0J271165D01*
G01*
X33539200Y6967635D01*
G75*
G02*
X33810365Y7238800I271165J0D01*
G01*
X34769635Y7238800D01*
G75*
G02*
X35040800Y6967635I0J-271165D01*
G01*
X35040800Y6208365D01*
G75*
G02*
X34769635Y5937200I-271165J0D01*
G01*
G37*
G36*
G01*
X1749635Y3937200D02*
X790365Y3937200D01*
G75*
G02*
X519200Y4208365I0J271165D01*
G01*
X519200Y4967635D01*
G75*
G02*
X790365Y5238800I271165J0D01*
G01*
X1749635Y5238800D01*
G75*
G02*
X2020800Y4967635I0J-271165D01*
G01*
X2020800Y4208365D01*
G75*
G02*
X1749635Y3937200I-271165J0D01*
G01*
G37*
G36*
G01*
X1749635Y5937200D02*
X790365Y5937200D01*
G75*
G02*
X519200Y6208365I0J271165D01*
G01*
X519200Y6967635D01*
G75*
G02*
X790365Y7238800I271165J0D01*
G01*
X1749635Y7238800D01*
G75*
G02*
X2020800Y6967635I0J-271165D01*
G01*
X2020800Y6208365D01*
G75*
G02*
X1749635Y5937200I-271165J0D01*
G01*
G37*
G36*
G01*
X790365Y28574800D02*
X1749635Y28574800D01*
G75*
G02*
X2020800Y28303635I0J-271165D01*
G01*
X2020800Y27544365D01*
G75*
G02*
X1749635Y27273200I-271165J0D01*
G01*
X790365Y27273200D01*
G75*
G02*
X519200Y27544365I0J271165D01*
G01*
X519200Y28303635D01*
G75*
G02*
X790365Y28574800I271165J0D01*
G01*
G37*
G36*
G01*
X790365Y26574800D02*
X1749635Y26574800D01*
G75*
G02*
X2020800Y26303635I0J-271165D01*
G01*
X2020800Y25544365D01*
G75*
G02*
X1749635Y25273200I-271165J0D01*
G01*
X790365Y25273200D01*
G75*
G02*
X519200Y25544365I0J271165D01*
G01*
X519200Y26303635D01*
G75*
G02*
X790365Y26574800I271165J0D01*
G01*
G37*
G36*
G01*
X12012800Y22146400D02*
X12012800Y21795600D01*
G75*
G02*
X11837400Y21620200I-175400J0D01*
G01*
X10136600Y21620200D01*
G75*
G02*
X9961200Y21795600I0J175400D01*
G01*
X9961200Y22146400D01*
G75*
G02*
X10136600Y22321800I175400J0D01*
G01*
X11837400Y22321800D01*
G75*
G02*
X12012800Y22146400I0J-175400D01*
G01*
G37*
G36*
G01*
X12012800Y20876400D02*
X12012800Y20525600D01*
G75*
G02*
X11837400Y20350200I-175400J0D01*
G01*
X10136600Y20350200D01*
G75*
G02*
X9961200Y20525600I0J175400D01*
G01*
X9961200Y20876400D01*
G75*
G02*
X10136600Y21051800I175400J0D01*
G01*
X11837400Y21051800D01*
G75*
G02*
X12012800Y20876400I0J-175400D01*
G01*
G37*
G36*
G01*
X12012800Y19606400D02*
X12012800Y19255600D01*
G75*
G02*
X11837400Y19080200I-175400J0D01*
G01*
X10136600Y19080200D01*
G75*
G02*
X9961200Y19255600I0J175400D01*
G01*
X9961200Y19606400D01*
G75*
G02*
X10136600Y19781800I175400J0D01*
G01*
X11837400Y19781800D01*
G75*
G02*
X12012800Y19606400I0J-175400D01*
G01*
G37*
G36*
G01*
X12012800Y18336400D02*
X12012800Y17985600D01*
G75*
G02*
X11837400Y17810200I-175400J0D01*
G01*
X10136600Y17810200D01*
G75*
G02*
X9961200Y17985600I0J175400D01*
G01*
X9961200Y18336400D01*
G75*
G02*
X10136600Y18511800I175400J0D01*
G01*
X11837400Y18511800D01*
G75*
G02*
X12012800Y18336400I0J-175400D01*
G01*
G37*
G36*
G01*
X16962800Y18336400D02*
X16962800Y17985600D01*
G75*
G02*
X16787400Y17810200I-175400J0D01*
G01*
X15086600Y17810200D01*
G75*
G02*
X14911200Y17985600I0J175400D01*
G01*
X14911200Y18336400D01*
G75*
G02*
X15086600Y18511800I175400J0D01*
G01*
X16787400Y18511800D01*
G75*
G02*
X16962800Y18336400I0J-175400D01*
G01*
G37*
G36*
G01*
X16962800Y19606400D02*
X16962800Y19255600D01*
G75*
G02*
X16787400Y19080200I-175400J0D01*
G01*
X15086600Y19080200D01*
G75*
G02*
X14911200Y19255600I0J175400D01*
G01*
X14911200Y19606400D01*
G75*
G02*
X15086600Y19781800I175400J0D01*
G01*
X16787400Y19781800D01*
G75*
G02*
X16962800Y19606400I0J-175400D01*
G01*
G37*
G36*
G01*
X16962800Y20876400D02*
X16962800Y20525600D01*
G75*
G02*
X16787400Y20350200I-175400J0D01*
G01*
X15086600Y20350200D01*
G75*
G02*
X14911200Y20525600I0J175400D01*
G01*
X14911200Y20876400D01*
G75*
G02*
X15086600Y21051800I175400J0D01*
G01*
X16787400Y21051800D01*
G75*
G02*
X16962800Y20876400I0J-175400D01*
G01*
G37*
G36*
G01*
X16962800Y22146400D02*
X16962800Y21795600D01*
G75*
G02*
X16787400Y21620200I-175400J0D01*
G01*
X15086600Y21620200D01*
G75*
G02*
X14911200Y21795600I0J175400D01*
G01*
X14911200Y22146400D01*
G75*
G02*
X15086600Y22321800I175400J0D01*
G01*
X16787400Y22321800D01*
G75*
G02*
X16962800Y22146400I0J-175400D01*
G01*
G37*
G36*
G01*
X1979635Y21461200D02*
X620365Y21461200D01*
G75*
G02*
X349200Y21732365I0J271165D01*
G01*
X349200Y22491635D01*
G75*
G02*
X620365Y22762800I271165J0D01*
G01*
X1979635Y22762800D01*
G75*
G02*
X2250800Y22491635I0J-271165D01*
G01*
X2250800Y21732365D01*
G75*
G02*
X1979635Y21461200I-271165J0D01*
G01*
G37*
G36*
G01*
X1979635Y16861200D02*
X620365Y16861200D01*
G75*
G02*
X349200Y17132365I0J271165D01*
G01*
X349200Y17891635D01*
G75*
G02*
X620365Y18162800I271165J0D01*
G01*
X1979635Y18162800D01*
G75*
G02*
X2250800Y17891635I0J-271165D01*
G01*
X2250800Y17132365D01*
G75*
G02*
X1979635Y16861200I-271165J0D01*
G01*
G37*
G36*
G01*
X5825400Y20461200D02*
X4524600Y20461200D01*
G75*
G02*
X4349200Y20636600I0J175400D01*
G01*
X4349200Y20987400D01*
G75*
G02*
X4524600Y21162800I175400J0D01*
G01*
X5825400Y21162800D01*
G75*
G02*
X6000800Y20987400I0J-175400D01*
G01*
X6000800Y20636600D01*
G75*
G02*
X5825400Y20461200I-175400J0D01*
G01*
G37*
G36*
G01*
X5825400Y19461200D02*
X4524600Y19461200D01*
G75*
G02*
X4349200Y19636600I0J175400D01*
G01*
X4349200Y19987400D01*
G75*
G02*
X4524600Y20162800I175400J0D01*
G01*
X5825400Y20162800D01*
G75*
G02*
X6000800Y19987400I0J-175400D01*
G01*
X6000800Y19636600D01*
G75*
G02*
X5825400Y19461200I-175400J0D01*
G01*
G37*
G36*
G01*
X5825400Y18461200D02*
X4524600Y18461200D01*
G75*
G02*
X4349200Y18636600I0J175400D01*
G01*
X4349200Y18987400D01*
G75*
G02*
X4524600Y19162800I175400J0D01*
G01*
X5825400Y19162800D01*
G75*
G02*
X6000800Y18987400I0J-175400D01*
G01*
X6000800Y18636600D01*
G75*
G02*
X5825400Y18461200I-175400J0D01*
G01*
G37*
G36*
G01*
X21590200Y5743365D02*
X21590200Y6702635D01*
G75*
G02*
X21861365Y6973800I271165J0D01*
G01*
X22620635Y6973800D01*
G75*
G02*
X22891800Y6702635I0J-271165D01*
G01*
X22891800Y5743365D01*
G75*
G02*
X22620635Y5472200I-271165J0D01*
G01*
X21861365Y5472200D01*
G75*
G02*
X21590200Y5743365I0J271165D01*
G01*
G37*
G36*
G01*
X23590200Y5743365D02*
X23590200Y6702635D01*
G75*
G02*
X23861365Y6973800I271165J0D01*
G01*
X24620635Y6973800D01*
G75*
G02*
X24891800Y6702635I0J-271165D01*
G01*
X24891800Y5743365D01*
G75*
G02*
X24620635Y5472200I-271165J0D01*
G01*
X23861365Y5472200D01*
G75*
G02*
X23590200Y5743365I0J271165D01*
G01*
G37*
G36*
G01*
X18446800Y6702635D02*
X18446800Y5743365D01*
G75*
G02*
X18175635Y5472200I-271165J0D01*
G01*
X17416365Y5472200D01*
G75*
G02*
X17145200Y5743365I0J271165D01*
G01*
X17145200Y6702635D01*
G75*
G02*
X17416365Y6973800I271165J0D01*
G01*
X18175635Y6973800D01*
G75*
G02*
X18446800Y6702635I0J-271165D01*
G01*
G37*
G36*
G01*
X20446800Y6702635D02*
X20446800Y5743365D01*
G75*
G02*
X20175635Y5472200I-271165J0D01*
G01*
X19416365Y5472200D01*
G75*
G02*
X19145200Y5743365I0J271165D01*
G01*
X19145200Y6702635D01*
G75*
G02*
X19416365Y6973800I271165J0D01*
G01*
X20175635Y6973800D01*
G75*
G02*
X20446800Y6702635I0J-271165D01*
G01*
G37*
G36*
G01*
X14700200Y5743365D02*
X14700200Y6702635D01*
G75*
G02*
X14971365Y6973800I271165J0D01*
G01*
X15730635Y6973800D01*
G75*
G02*
X16001800Y6702635I0J-271165D01*
G01*
X16001800Y5743365D01*
G75*
G02*
X15730635Y5472200I-271165J0D01*
G01*
X14971365Y5472200D01*
G75*
G02*
X14700200Y5743365I0J271165D01*
G01*
G37*
G36*
G01*
X12700200Y5743365D02*
X12700200Y6702635D01*
G75*
G02*
X12971365Y6973800I271165J0D01*
G01*
X13730635Y6973800D01*
G75*
G02*
X14001800Y6702635I0J-271165D01*
G01*
X14001800Y5743365D01*
G75*
G02*
X13730635Y5472200I-271165J0D01*
G01*
X12971365Y5472200D01*
G75*
G02*
X12700200Y5743365I0J271165D01*
G01*
G37*
G36*
G01*
X10255200Y5743365D02*
X10255200Y6702635D01*
G75*
G02*
X10526365Y6973800I271165J0D01*
G01*
X11285635Y6973800D01*
G75*
G02*
X11556800Y6702635I0J-271165D01*
G01*
X11556800Y5743365D01*
G75*
G02*
X11285635Y5472200I-271165J0D01*
G01*
X10526365Y5472200D01*
G75*
G02*
X10255200Y5743365I0J271165D01*
G01*
G37*
G36*
G01*
X8255200Y5743365D02*
X8255200Y6702635D01*
G75*
G02*
X8526365Y6973800I271165J0D01*
G01*
X9285635Y6973800D01*
G75*
G02*
X9556800Y6702635I0J-271165D01*
G01*
X9556800Y5743365D01*
G75*
G02*
X9285635Y5472200I-271165J0D01*
G01*
X8526365Y5472200D01*
G75*
G02*
X8255200Y5743365I0J271165D01*
G01*
G37*
G36*
G01*
X27463800Y26768635D02*
X27463800Y25809365D01*
G75*
G02*
X27192635Y25538200I-271165J0D01*
G01*
X26433365Y25538200D01*
G75*
G02*
X26162200Y25809365I0J271165D01*
G01*
X26162200Y26768635D01*
G75*
G02*
X26433365Y27039800I271165J0D01*
G01*
X27192635Y27039800D01*
G75*
G02*
X27463800Y26768635I0J-271165D01*
G01*
G37*
G36*
G01*
X29463800Y26768635D02*
X29463800Y25809365D01*
G75*
G02*
X29192635Y25538200I-271165J0D01*
G01*
X28433365Y25538200D01*
G75*
G02*
X28162200Y25809365I0J271165D01*
G01*
X28162200Y26768635D01*
G75*
G02*
X28433365Y27039800I271165J0D01*
G01*
X29192635Y27039800D01*
G75*
G02*
X29463800Y26768635I0J-271165D01*
G01*
G37*
G36*
G01*
X18637200Y25809365D02*
X18637200Y26768635D01*
G75*
G02*
X18908365Y27039800I271165J0D01*
G01*
X19667635Y27039800D01*
G75*
G02*
X19938800Y26768635I0J-271165D01*
G01*
X19938800Y25809365D01*
G75*
G02*
X19667635Y25538200I-271165J0D01*
G01*
X18908365Y25538200D01*
G75*
G02*
X18637200Y25809365I0J271165D01*
G01*
G37*
G36*
G01*
X16637200Y25809365D02*
X16637200Y26768635D01*
G75*
G02*
X16908365Y27039800I271165J0D01*
G01*
X17667635Y27039800D01*
G75*
G02*
X17938800Y26768635I0J-271165D01*
G01*
X17938800Y25809365D01*
G75*
G02*
X17667635Y25538200I-271165J0D01*
G01*
X16908365Y25538200D01*
G75*
G02*
X16637200Y25809365I0J271165D01*
G01*
G37*
G36*
G01*
X14319200Y25809365D02*
X14319200Y26768635D01*
G75*
G02*
X14590365Y27039800I271165J0D01*
G01*
X15349635Y27039800D01*
G75*
G02*
X15620800Y26768635I0J-271165D01*
G01*
X15620800Y25809365D01*
G75*
G02*
X15349635Y25538200I-271165J0D01*
G01*
X14590365Y25538200D01*
G75*
G02*
X14319200Y25809365I0J271165D01*
G01*
G37*
G36*
G01*
X12319200Y25809365D02*
X12319200Y26768635D01*
G75*
G02*
X12590365Y27039800I271165J0D01*
G01*
X13349635Y27039800D01*
G75*
G02*
X13620800Y26768635I0J-271165D01*
G01*
X13620800Y25809365D01*
G75*
G02*
X13349635Y25538200I-271165J0D01*
G01*
X12590365Y25538200D01*
G75*
G02*
X12319200Y25809365I0J271165D01*
G01*
G37*
G36*
G01*
X10001200Y25809365D02*
X10001200Y26768635D01*
G75*
G02*
X10272365Y27039800I271165J0D01*
G01*
X11031635Y27039800D01*
G75*
G02*
X11302800Y26768635I0J-271165D01*
G01*
X11302800Y25809365D01*
G75*
G02*
X11031635Y25538200I-271165J0D01*
G01*
X10272365Y25538200D01*
G75*
G02*
X10001200Y25809365I0J271165D01*
G01*
G37*
G36*
G01*
X8001200Y25809365D02*
X8001200Y26768635D01*
G75*
G02*
X8272365Y27039800I271165J0D01*
G01*
X9031635Y27039800D01*
G75*
G02*
X9302800Y26768635I0J-271165D01*
G01*
X9302800Y25809365D01*
G75*
G02*
X9031635Y25538200I-271165J0D01*
G01*
X8272365Y25538200D01*
G75*
G02*
X8001200Y25809365I0J271165D01*
G01*
G37*
G36*
G01*
X8607635Y18383200D02*
X7648365Y18383200D01*
G75*
G02*
X7377200Y18654365I0J271165D01*
G01*
X7377200Y19413635D01*
G75*
G02*
X7648365Y19684800I271165J0D01*
G01*
X8607635Y19684800D01*
G75*
G02*
X8878800Y19413635I0J-271165D01*
G01*
X8878800Y18654365D01*
G75*
G02*
X8607635Y18383200I-271165J0D01*
G01*
G37*
G36*
G01*
X8607635Y16383200D02*
X7648365Y16383200D01*
G75*
G02*
X7377200Y16654365I0J271165D01*
G01*
X7377200Y17413635D01*
G75*
G02*
X7648365Y17684800I271165J0D01*
G01*
X8607635Y17684800D01*
G75*
G02*
X8878800Y17413635I0J-271165D01*
G01*
X8878800Y16654365D01*
G75*
G02*
X8607635Y16383200I-271165J0D01*
G01*
G37*
G36*
G01*
X16020200Y11306817D02*
X16020200Y12315183D01*
G75*
G02*
X16291817Y12586800I271617J0D01*
G01*
X17025183Y12586800D01*
G75*
G02*
X17296800Y12315183I0J-271617D01*
G01*
X17296800Y11306817D01*
G75*
G02*
X17025183Y11035200I-271617J0D01*
G01*
X16291817Y11035200D01*
G75*
G02*
X16020200Y11306817I0J271617D01*
G01*
G37*
G36*
G01*
X13945200Y11306817D02*
X13945200Y12315183D01*
G75*
G02*
X14216817Y12586800I271617J0D01*
G01*
X14950183Y12586800D01*
G75*
G02*
X15221800Y12315183I0J-271617D01*
G01*
X15221800Y11306817D01*
G75*
G02*
X14950183Y11035200I-271617J0D01*
G01*
X14216817Y11035200D01*
G75*
G02*
X13945200Y11306817I0J271617D01*
G01*
G37*
G36*
G01*
X7750817Y11919800D02*
X8759183Y11919800D01*
G75*
G02*
X9030800Y11648183I0J-271617D01*
G01*
X9030800Y10914817D01*
G75*
G02*
X8759183Y10643200I-271617J0D01*
G01*
X7750817Y10643200D01*
G75*
G02*
X7479200Y10914817I0J271617D01*
G01*
X7479200Y11648183D01*
G75*
G02*
X7750817Y11919800I271617J0D01*
G01*
G37*
G36*
G01*
X7750817Y13994800D02*
X8759183Y13994800D01*
G75*
G02*
X9030800Y13723183I0J-271617D01*
G01*
X9030800Y12989817D01*
G75*
G02*
X8759183Y12718200I-271617J0D01*
G01*
X7750817Y12718200D01*
G75*
G02*
X7479200Y12989817I0J271617D01*
G01*
X7479200Y13723183D01*
G75*
G02*
X7750817Y13994800I271617J0D01*
G01*
G37*
G36*
G01*
X8273200Y21339817D02*
X8273200Y22348183D01*
G75*
G02*
X8544817Y22619800I271617J0D01*
G01*
X9278183Y22619800D01*
G75*
G02*
X9549800Y22348183I0J-271617D01*
G01*
X9549800Y21339817D01*
G75*
G02*
X9278183Y21068200I-271617J0D01*
G01*
X8544817Y21068200D01*
G75*
G02*
X8273200Y21339817I0J271617D01*
G01*
G37*
G36*
G01*
X6198200Y21339817D02*
X6198200Y22348183D01*
G75*
G02*
X6469817Y22619800I271617J0D01*
G01*
X7203183Y22619800D01*
G75*
G02*
X7474800Y22348183I0J-271617D01*
G01*
X7474800Y21339817D01*
G75*
G02*
X7203183Y21068200I-271617J0D01*
G01*
X6469817Y21068200D01*
G75*
G02*
X6198200Y21339817I0J271617D01*
G01*
G37*
M02*
