M48
; DRILL file {KiCad (5.1.9)-1} date 03/27/21 20:31:16
; FORMAT={-:-/ absolute / inch / decimal}
; #@! TF.CreationDate,2021-03-27T20:31:16-07:00
; #@! TF.GenerationSoftware,Kicad,Pcbnew,(5.1.9)-1
FMAT,2
INCH
T1C0.0120
T2C0.0150
T3C0.0200
T4C0.0394
T5C0.0472
T6C0.0669
T7C0.0866
%
G90
G05
T1
X0.03Y1.15
X0.03Y0.82
X0.03Y0.74
X0.03Y0.64
X0.03Y0.54
X0.03Y0.46
X0.03Y0.13
X0.095Y1.1
X0.095Y0.18
X0.11Y0.415
X0.13Y1.25
X0.13Y1.15
X0.13Y0.13
X0.13Y0.03
X0.195Y0.62
X0.2Y0.97
X0.2Y0.31
X0.215Y0.415
X0.255Y0.665
X0.295Y0.62
X0.3Y0.97
X0.3Y0.4
X0.35Y0.4
X0.36Y0.62
X0.37Y0.49
X0.4Y0.97
X0.46Y1.01
X0.47Y0.27
X0.48Y0.665
X0.495Y0.885
X0.5Y0.97
X0.5Y0.74
X0.5Y0.31
X0.6Y0.97
X0.6Y0.31
X0.63Y1.025
X0.64Y0.26
X0.66Y0.23
X0.7Y0.97
X0.7Y0.31
X0.7355Y0.7947
X0.765Y0.565
X0.795Y1.045
X0.7989Y0.805
X0.8Y0.31
X0.83Y0.795
X0.835Y0.76
X0.845Y0.565
X0.8624Y0.74
X0.905Y0.74
X0.965Y1.045
X0.984Y0.495
X0.995Y0.24
X1.0Y0.445
X1.01Y0.71
X1.0302Y0.4698
X1.07Y0.445
X1.085Y0.99
X1.09Y0.685
X1.115Y0.82
X1.14Y0.485
X1.14Y0.42
X1.185Y1.035
X1.2Y0.23
X1.27Y1.25
X1.27Y1.15
X1.27Y0.13
X1.27Y0.03
X1.2825Y0.75
X1.305Y0.18
X1.305Y1.1
X1.37Y1.15
X1.37Y0.75
X1.37Y0.64
X1.37Y0.53
X1.37Y0.13
T2
X0.665Y0.525
X0.975Y0.53
X1.22Y0.77
T3
X1.165Y0.64
T4
X0.05Y0.94
X0.05Y0.34
X0.15Y0.94
X0.15Y0.34
X0.25Y0.94
X0.25Y0.34
X0.35Y0.94
X0.35Y0.34
X0.45Y0.94
X0.45Y0.34
X0.55Y0.94
X0.55Y0.34
X0.65Y0.94
X0.65Y0.34
X0.75Y0.94
X0.75Y0.34
X0.85Y0.94
X0.85Y0.34
X0.95Y0.94
X0.95Y0.34
X1.05Y0.94
X1.05Y0.34
X1.15Y0.94
X1.15Y0.34
X1.25Y0.94
X1.25Y0.34
X1.35Y0.94
X1.35Y0.34
T5
X0.2177Y1.1435
X0.2177Y0.1365
X0.3555Y1.1435
X0.3555Y0.1365
X0.4933Y1.1435
X0.4933Y0.1365
X0.6311Y1.1435
X0.6311Y0.1365
X0.7689Y1.1435
X0.7689Y0.1365
X0.9067Y1.1435
X0.9067Y0.1365
X1.0445Y1.1435
X1.0445Y0.1365
X1.1823Y1.1435
X1.1823Y0.1365
T6
X0.1416Y0.64
X0.4172Y0.64
T7
X0.07Y1.21
X0.07Y0.07
X1.33Y1.21
X1.33Y0.07
T0
M30
