G04 #@! TF.GenerationSoftware,KiCad,Pcbnew,(5.1.9)-1*
G04 #@! TF.CreationDate,2021-03-27T20:31:15-07:00*
G04 #@! TF.ProjectId,nibelung,6e696265-6c75-46e6-972e-6b696361645f,rev?*
G04 #@! TF.SameCoordinates,PX621abf0PY7065700*
G04 #@! TF.FileFunction,Other,ECO2*
%FSLAX46Y46*%
G04 Gerber Fmt 4.6, Leading zero omitted, Abs format (unit mm)*
G04 Created by KiCad (PCBNEW (5.1.9)-1) date 2021-03-27 20:31:15*
%MOMM*%
%LPD*%
G01*
G04 APERTURE LIST*
%ADD10C,0.190500*%
G04 APERTURE END LIST*
D10*
X9649276Y31851600D02*
X9726685Y31895143D01*
X9842800Y31895143D01*
X9958914Y31851600D01*
X10036323Y31764515D01*
X10075028Y31677429D01*
X10113733Y31503258D01*
X10113733Y31372629D01*
X10075028Y31198458D01*
X10036323Y31111372D01*
X9958914Y31024286D01*
X9842800Y30980743D01*
X9765390Y30980743D01*
X9649276Y31024286D01*
X9610571Y31067829D01*
X9610571Y31372629D01*
X9765390Y31372629D01*
X9262228Y30980743D02*
X9262228Y31895143D01*
X8797771Y30980743D01*
X8797771Y31895143D01*
X8410723Y30980743D02*
X8410723Y31895143D01*
X8217200Y31895143D01*
X8101085Y31851600D01*
X8023676Y31764515D01*
X7984971Y31677429D01*
X7946266Y31503258D01*
X7946266Y31372629D01*
X7984971Y31198458D01*
X8023676Y31111372D01*
X8101085Y31024286D01*
X8217200Y30980743D01*
X8410723Y30980743D01*
X16649276Y31851600D02*
X16726685Y31895143D01*
X16842800Y31895143D01*
X16958914Y31851600D01*
X17036323Y31764515D01*
X17075028Y31677429D01*
X17113733Y31503258D01*
X17113733Y31372629D01*
X17075028Y31198458D01*
X17036323Y31111372D01*
X16958914Y31024286D01*
X16842800Y30980743D01*
X16765390Y30980743D01*
X16649276Y31024286D01*
X16610571Y31067829D01*
X16610571Y31372629D01*
X16765390Y31372629D01*
X16262228Y30980743D02*
X16262228Y31895143D01*
X15797771Y30980743D01*
X15797771Y31895143D01*
X15410723Y30980743D02*
X15410723Y31895143D01*
X15217200Y31895143D01*
X15101085Y31851600D01*
X15023676Y31764515D01*
X14984971Y31677429D01*
X14946266Y31503258D01*
X14946266Y31372629D01*
X14984971Y31198458D01*
X15023676Y31111372D01*
X15101085Y31024286D01*
X15217200Y30980743D01*
X15410723Y30980743D01*
X23649276Y31851600D02*
X23726685Y31895143D01*
X23842800Y31895143D01*
X23958914Y31851600D01*
X24036323Y31764515D01*
X24075028Y31677429D01*
X24113733Y31503258D01*
X24113733Y31372629D01*
X24075028Y31198458D01*
X24036323Y31111372D01*
X23958914Y31024286D01*
X23842800Y30980743D01*
X23765390Y30980743D01*
X23649276Y31024286D01*
X23610571Y31067829D01*
X23610571Y31372629D01*
X23765390Y31372629D01*
X23262228Y30980743D02*
X23262228Y31895143D01*
X22797771Y30980743D01*
X22797771Y31895143D01*
X22410723Y30980743D02*
X22410723Y31895143D01*
X22217200Y31895143D01*
X22101085Y31851600D01*
X22023676Y31764515D01*
X21984971Y31677429D01*
X21946266Y31503258D01*
X21946266Y31372629D01*
X21984971Y31198458D01*
X22023676Y31111372D01*
X22101085Y31024286D01*
X22217200Y30980743D01*
X22410723Y30980743D01*
X30649276Y31851600D02*
X30726685Y31895143D01*
X30842800Y31895143D01*
X30958914Y31851600D01*
X31036323Y31764515D01*
X31075028Y31677429D01*
X31113733Y31503258D01*
X31113733Y31372629D01*
X31075028Y31198458D01*
X31036323Y31111372D01*
X30958914Y31024286D01*
X30842800Y30980743D01*
X30765390Y30980743D01*
X30649276Y31024286D01*
X30610571Y31067829D01*
X30610571Y31372629D01*
X30765390Y31372629D01*
X30262228Y30980743D02*
X30262228Y31895143D01*
X29797771Y30980743D01*
X29797771Y31895143D01*
X29410723Y30980743D02*
X29410723Y31895143D01*
X29217200Y31895143D01*
X29101085Y31851600D01*
X29023676Y31764515D01*
X28984971Y31677429D01*
X28946266Y31503258D01*
X28946266Y31372629D01*
X28984971Y31198458D01*
X29023676Y31111372D01*
X29101085Y31024286D01*
X29217200Y30980743D01*
X29410723Y30980743D01*
X27149276Y1473200D02*
X27226685Y1516743D01*
X27342800Y1516743D01*
X27458914Y1473200D01*
X27536323Y1386115D01*
X27575028Y1299029D01*
X27613733Y1124858D01*
X27613733Y994229D01*
X27575028Y820058D01*
X27536323Y732972D01*
X27458914Y645886D01*
X27342800Y602343D01*
X27265390Y602343D01*
X27149276Y645886D01*
X27110571Y689429D01*
X27110571Y994229D01*
X27265390Y994229D01*
X26762228Y602343D02*
X26762228Y1516743D01*
X26297771Y602343D01*
X26297771Y1516743D01*
X25910723Y602343D02*
X25910723Y1516743D01*
X25717200Y1516743D01*
X25601085Y1473200D01*
X25523676Y1386115D01*
X25484971Y1299029D01*
X25446266Y1124858D01*
X25446266Y994229D01*
X25484971Y820058D01*
X25523676Y732972D01*
X25601085Y645886D01*
X25717200Y602343D01*
X25910723Y602343D01*
X20149276Y1473200D02*
X20226685Y1516743D01*
X20342800Y1516743D01*
X20458914Y1473200D01*
X20536323Y1386115D01*
X20575028Y1299029D01*
X20613733Y1124858D01*
X20613733Y994229D01*
X20575028Y820058D01*
X20536323Y732972D01*
X20458914Y645886D01*
X20342800Y602343D01*
X20265390Y602343D01*
X20149276Y645886D01*
X20110571Y689429D01*
X20110571Y994229D01*
X20265390Y994229D01*
X19762228Y602343D02*
X19762228Y1516743D01*
X19297771Y602343D01*
X19297771Y1516743D01*
X18910723Y602343D02*
X18910723Y1516743D01*
X18717200Y1516743D01*
X18601085Y1473200D01*
X18523676Y1386115D01*
X18484971Y1299029D01*
X18446266Y1124858D01*
X18446266Y994229D01*
X18484971Y820058D01*
X18523676Y732972D01*
X18601085Y645886D01*
X18717200Y602343D01*
X18910723Y602343D01*
X6149276Y1473200D02*
X6226685Y1516743D01*
X6342800Y1516743D01*
X6458914Y1473200D01*
X6536323Y1386115D01*
X6575028Y1299029D01*
X6613733Y1124858D01*
X6613733Y994229D01*
X6575028Y820058D01*
X6536323Y732972D01*
X6458914Y645886D01*
X6342800Y602343D01*
X6265390Y602343D01*
X6149276Y645886D01*
X6110571Y689429D01*
X6110571Y994229D01*
X6265390Y994229D01*
X5762228Y602343D02*
X5762228Y1516743D01*
X5297771Y602343D01*
X5297771Y1516743D01*
X4910723Y602343D02*
X4910723Y1516743D01*
X4717200Y1516743D01*
X4601085Y1473200D01*
X4523676Y1386115D01*
X4484971Y1299029D01*
X4446266Y1124858D01*
X4446266Y994229D01*
X4484971Y820058D01*
X4523676Y732972D01*
X4601085Y645886D01*
X4717200Y602343D01*
X4910723Y602343D01*
X13149276Y1473200D02*
X13226685Y1516743D01*
X13342800Y1516743D01*
X13458914Y1473200D01*
X13536323Y1386115D01*
X13575028Y1299029D01*
X13613733Y1124858D01*
X13613733Y994229D01*
X13575028Y820058D01*
X13536323Y732972D01*
X13458914Y645886D01*
X13342800Y602343D01*
X13265390Y602343D01*
X13149276Y645886D01*
X13110571Y689429D01*
X13110571Y994229D01*
X13265390Y994229D01*
X12762228Y602343D02*
X12762228Y1516743D01*
X12297771Y602343D01*
X12297771Y1516743D01*
X11910723Y602343D02*
X11910723Y1516743D01*
X11717200Y1516743D01*
X11601085Y1473200D01*
X11523676Y1386115D01*
X11484971Y1299029D01*
X11446266Y1124858D01*
X11446266Y994229D01*
X11484971Y820058D01*
X11523676Y732972D01*
X11601085Y645886D01*
X11717200Y602343D01*
X11910723Y602343D01*
X6733419Y17399000D02*
X5717419Y17399000D01*
X5717419Y17217572D01*
X5765800Y17108715D01*
X5862561Y17036143D01*
X5959323Y16999858D01*
X6152847Y16963572D01*
X6297990Y16963572D01*
X6491514Y16999858D01*
X6588276Y17036143D01*
X6685038Y17108715D01*
X6733419Y17217572D01*
X6733419Y17399000D01*
X6443133Y16673286D02*
X6443133Y16310429D01*
X6733419Y16745858D02*
X5717419Y16491858D01*
X6733419Y16237858D01*
X5717419Y16092715D02*
X5717419Y15657286D01*
X6733419Y15875000D02*
X5717419Y15875000D01*
X6443133Y15439572D02*
X6443133Y15076715D01*
X6733419Y15512143D02*
X5717419Y15258143D01*
X6733419Y15004143D01*
M02*
