G04 #@! TF.GenerationSoftware,KiCad,Pcbnew,(5.1.9)-1*
G04 #@! TF.CreationDate,2021-03-27T20:31:15-07:00*
G04 #@! TF.ProjectId,nibelung,6e696265-6c75-46e6-972e-6b696361645f,rev?*
G04 #@! TF.SameCoordinates,PX621abf0PY7065700*
G04 #@! TF.FileFunction,Copper,L1,Top*
G04 #@! TF.FilePolarity,Positive*
%FSLAX46Y46*%
G04 Gerber Fmt 4.6, Leading zero omitted, Abs format (unit mm)*
G04 Created by KiCad (PCBNEW (5.1.9)-1) date 2021-03-27 20:31:15*
%MOMM*%
%LPD*%
G01*
G04 APERTURE LIST*
G04 #@! TA.AperFunction,SMDPad,CuDef*
%ADD10R,2.800000X2.800000*%
G04 #@! TD*
G04 #@! TA.AperFunction,SMDPad,CuDef*
%ADD11R,2.600000X2.800000*%
G04 #@! TD*
G04 #@! TA.AperFunction,SMDPad,CuDef*
%ADD12R,2.200000X2.800000*%
G04 #@! TD*
G04 #@! TA.AperFunction,ComponentPad*
%ADD13C,2.500000*%
G04 #@! TD*
G04 #@! TA.AperFunction,ComponentPad*
%ADD14O,1.700000X1.700000*%
G04 #@! TD*
G04 #@! TA.AperFunction,ComponentPad*
%ADD15C,1.700000*%
G04 #@! TD*
G04 #@! TA.AperFunction,ViaPad*
%ADD16C,0.609600*%
G04 #@! TD*
G04 #@! TA.AperFunction,ViaPad*
%ADD17C,1.016000*%
G04 #@! TD*
G04 #@! TA.AperFunction,ViaPad*
%ADD18C,0.762000*%
G04 #@! TD*
G04 #@! TA.AperFunction,Conductor*
%ADD19C,0.762000*%
G04 #@! TD*
G04 #@! TA.AperFunction,Conductor*
%ADD20C,0.508000*%
G04 #@! TD*
G04 #@! TA.AperFunction,Conductor*
%ADD21C,0.381000*%
G04 #@! TD*
G04 #@! TA.AperFunction,Conductor*
%ADD22C,0.254000*%
G04 #@! TD*
G04 #@! TA.AperFunction,Conductor*
%ADD23C,0.100000*%
G04 #@! TD*
G04 APERTURE END LIST*
D10*
X11896000Y12556000D03*
D11*
X15896000Y17006000D03*
D12*
X2496000Y12556000D03*
X4496000Y19956000D03*
D13*
X30030000Y3467100D03*
X26530000Y3467100D03*
X23030000Y3467100D03*
X19530000Y3467100D03*
X16030000Y3467100D03*
X12530000Y3467100D03*
X5530000Y3467100D03*
X9030000Y3467100D03*
X5530000Y29044900D03*
X9030000Y29044900D03*
X12530000Y29044900D03*
X16030000Y29044900D03*
X19530000Y29044900D03*
X23030000Y29044900D03*
X30030000Y29044900D03*
X26530000Y29044900D03*
D14*
X3810000Y8636000D03*
X6350000Y8636000D03*
X8890000Y8636000D03*
X11430000Y8636000D03*
X13970000Y8636000D03*
X16510000Y8636000D03*
X19050000Y8636000D03*
X21590000Y8636000D03*
X24130000Y8636000D03*
X26670000Y8636000D03*
X29210000Y8636000D03*
X31750000Y8636000D03*
X34290000Y8636000D03*
X34290000Y23876000D03*
X31750000Y23876000D03*
X29210000Y23876000D03*
X26670000Y23876000D03*
X24130000Y23876000D03*
X21590000Y23876000D03*
X19050000Y23876000D03*
X16510000Y23876000D03*
X13970000Y23876000D03*
X11430000Y23876000D03*
X8890000Y23876000D03*
X6350000Y23876000D03*
X3810000Y23876000D03*
X1270000Y23876000D03*
D15*
X1270000Y8636000D03*
G04 #@! TA.AperFunction,SMDPad,CuDef*
G36*
G01*
X1720001Y5911000D02*
X819999Y5911000D01*
G75*
G02*
X570000Y6160999I0J249999D01*
G01*
X570000Y6811001D01*
G75*
G02*
X819999Y7061000I249999J0D01*
G01*
X1720001Y7061000D01*
G75*
G02*
X1970000Y6811001I0J-249999D01*
G01*
X1970000Y6160999D01*
G75*
G02*
X1720001Y5911000I-249999J0D01*
G01*
G37*
G04 #@! TD.AperFunction*
G04 #@! TA.AperFunction,SMDPad,CuDef*
G36*
G01*
X1720001Y3861000D02*
X819999Y3861000D01*
G75*
G02*
X570000Y4110999I0J249999D01*
G01*
X570000Y4761001D01*
G75*
G02*
X819999Y5011000I249999J0D01*
G01*
X1720001Y5011000D01*
G75*
G02*
X1970000Y4761001I0J-249999D01*
G01*
X1970000Y4110999D01*
G75*
G02*
X1720001Y3861000I-249999J0D01*
G01*
G37*
G04 #@! TD.AperFunction*
G04 #@! TA.AperFunction,SMDPad,CuDef*
G36*
G01*
X34740001Y5911000D02*
X33839999Y5911000D01*
G75*
G02*
X33590000Y6160999I0J249999D01*
G01*
X33590000Y6811001D01*
G75*
G02*
X33839999Y7061000I249999J0D01*
G01*
X34740001Y7061000D01*
G75*
G02*
X34990000Y6811001I0J-249999D01*
G01*
X34990000Y6160999D01*
G75*
G02*
X34740001Y5911000I-249999J0D01*
G01*
G37*
G04 #@! TD.AperFunction*
G04 #@! TA.AperFunction,SMDPad,CuDef*
G36*
G01*
X34740001Y3861000D02*
X33839999Y3861000D01*
G75*
G02*
X33590000Y4110999I0J249999D01*
G01*
X33590000Y4761001D01*
G75*
G02*
X33839999Y5011000I249999J0D01*
G01*
X34740001Y5011000D01*
G75*
G02*
X34990000Y4761001I0J-249999D01*
G01*
X34990000Y4110999D01*
G75*
G02*
X34740001Y3861000I-249999J0D01*
G01*
G37*
G04 #@! TD.AperFunction*
G04 #@! TA.AperFunction,SMDPad,CuDef*
G36*
G01*
X33839999Y26601000D02*
X34740001Y26601000D01*
G75*
G02*
X34990000Y26351001I0J-249999D01*
G01*
X34990000Y25700999D01*
G75*
G02*
X34740001Y25451000I-249999J0D01*
G01*
X33839999Y25451000D01*
G75*
G02*
X33590000Y25700999I0J249999D01*
G01*
X33590000Y26351001D01*
G75*
G02*
X33839999Y26601000I249999J0D01*
G01*
G37*
G04 #@! TD.AperFunction*
G04 #@! TA.AperFunction,SMDPad,CuDef*
G36*
G01*
X33839999Y28651000D02*
X34740001Y28651000D01*
G75*
G02*
X34990000Y28401001I0J-249999D01*
G01*
X34990000Y27750999D01*
G75*
G02*
X34740001Y27501000I-249999J0D01*
G01*
X33839999Y27501000D01*
G75*
G02*
X33590000Y27750999I0J249999D01*
G01*
X33590000Y28401001D01*
G75*
G02*
X33839999Y28651000I249999J0D01*
G01*
G37*
G04 #@! TD.AperFunction*
G04 #@! TA.AperFunction,SMDPad,CuDef*
G36*
G01*
X819999Y26601000D02*
X1720001Y26601000D01*
G75*
G02*
X1970000Y26351001I0J-249999D01*
G01*
X1970000Y25700999D01*
G75*
G02*
X1720001Y25451000I-249999J0D01*
G01*
X819999Y25451000D01*
G75*
G02*
X570000Y25700999I0J249999D01*
G01*
X570000Y26351001D01*
G75*
G02*
X819999Y26601000I249999J0D01*
G01*
G37*
G04 #@! TD.AperFunction*
G04 #@! TA.AperFunction,SMDPad,CuDef*
G36*
G01*
X819999Y28651000D02*
X1720001Y28651000D01*
G75*
G02*
X1970000Y28401001I0J-249999D01*
G01*
X1970000Y27750999D01*
G75*
G02*
X1720001Y27501000I-249999J0D01*
G01*
X819999Y27501000D01*
G75*
G02*
X570000Y27750999I0J249999D01*
G01*
X570000Y28401001D01*
G75*
G02*
X819999Y28651000I249999J0D01*
G01*
G37*
G04 #@! TD.AperFunction*
G04 #@! TA.AperFunction,SMDPad,CuDef*
G36*
G01*
X22954000Y12642000D02*
X22004000Y12642000D01*
G75*
G02*
X21754000Y12892000I0J250000D01*
G01*
X21754000Y13567000D01*
G75*
G02*
X22004000Y13817000I250000J0D01*
G01*
X22954000Y13817000D01*
G75*
G02*
X23204000Y13567000I0J-250000D01*
G01*
X23204000Y12892000D01*
G75*
G02*
X22954000Y12642000I-250000J0D01*
G01*
G37*
G04 #@! TD.AperFunction*
G04 #@! TA.AperFunction,SMDPad,CuDef*
G36*
G01*
X22954000Y10567000D02*
X22004000Y10567000D01*
G75*
G02*
X21754000Y10817000I0J250000D01*
G01*
X21754000Y11492000D01*
G75*
G02*
X22004000Y11742000I250000J0D01*
G01*
X22954000Y11742000D01*
G75*
G02*
X23204000Y11492000I0J-250000D01*
G01*
X23204000Y10817000D01*
G75*
G02*
X22954000Y10567000I-250000J0D01*
G01*
G37*
G04 #@! TD.AperFunction*
G04 #@! TA.AperFunction,SMDPad,CuDef*
G36*
G01*
X34906200Y19856000D02*
X32006200Y19856000D01*
G75*
G02*
X31756200Y20106000I0J250000D01*
G01*
X31756200Y21106000D01*
G75*
G02*
X32006200Y21356000I250000J0D01*
G01*
X34906200Y21356000D01*
G75*
G02*
X35156200Y21106000I0J-250000D01*
G01*
X35156200Y20106000D01*
G75*
G02*
X34906200Y19856000I-250000J0D01*
G01*
G37*
G04 #@! TD.AperFunction*
G04 #@! TA.AperFunction,SMDPad,CuDef*
G36*
G01*
X34906200Y11156000D02*
X32006200Y11156000D01*
G75*
G02*
X31756200Y11406000I0J250000D01*
G01*
X31756200Y12406000D01*
G75*
G02*
X32006200Y12656000I250000J0D01*
G01*
X34906200Y12656000D01*
G75*
G02*
X35156200Y12406000I0J-250000D01*
G01*
X35156200Y11406000D01*
G75*
G02*
X34906200Y11156000I-250000J0D01*
G01*
G37*
G04 #@! TD.AperFunction*
G04 #@! TA.AperFunction,SMDPad,CuDef*
G36*
G01*
X29206200Y17756000D02*
X26206200Y17756000D01*
G75*
G02*
X25956200Y18006000I0J250000D01*
G01*
X25956200Y18506000D01*
G75*
G02*
X26206200Y18756000I250000J0D01*
G01*
X29206200Y18756000D01*
G75*
G02*
X29456200Y18506000I0J-250000D01*
G01*
X29456200Y18006000D01*
G75*
G02*
X29206200Y17756000I-250000J0D01*
G01*
G37*
G04 #@! TD.AperFunction*
G04 #@! TA.AperFunction,SMDPad,CuDef*
G36*
G01*
X29206200Y15756000D02*
X26206200Y15756000D01*
G75*
G02*
X25956200Y16006000I0J250000D01*
G01*
X25956200Y16506000D01*
G75*
G02*
X26206200Y16756000I250000J0D01*
G01*
X29206200Y16756000D01*
G75*
G02*
X29456200Y16506000I0J-250000D01*
G01*
X29456200Y16006000D01*
G75*
G02*
X29206200Y15756000I-250000J0D01*
G01*
G37*
G04 #@! TD.AperFunction*
G04 #@! TA.AperFunction,SMDPad,CuDef*
G36*
G01*
X29206200Y13756000D02*
X26206200Y13756000D01*
G75*
G02*
X25956200Y14006000I0J250000D01*
G01*
X25956200Y14506000D01*
G75*
G02*
X26206200Y14756000I250000J0D01*
G01*
X29206200Y14756000D01*
G75*
G02*
X29456200Y14506000I0J-250000D01*
G01*
X29456200Y14006000D01*
G75*
G02*
X29206200Y13756000I-250000J0D01*
G01*
G37*
G04 #@! TD.AperFunction*
G04 #@! TA.AperFunction,SMDPad,CuDef*
G36*
G01*
X17291000Y19234999D02*
X17291000Y20135001D01*
G75*
G02*
X17540999Y20385000I249999J0D01*
G01*
X18241001Y20385000D01*
G75*
G02*
X18491000Y20135001I0J-249999D01*
G01*
X18491000Y19234999D01*
G75*
G02*
X18241001Y18985000I-249999J0D01*
G01*
X17540999Y18985000D01*
G75*
G02*
X17291000Y19234999I0J249999D01*
G01*
G37*
G04 #@! TD.AperFunction*
G04 #@! TA.AperFunction,SMDPad,CuDef*
G36*
G01*
X15291000Y19234999D02*
X15291000Y20135001D01*
G75*
G02*
X15540999Y20385000I249999J0D01*
G01*
X16241001Y20385000D01*
G75*
G02*
X16491000Y20135001I0J-249999D01*
G01*
X16491000Y19234999D01*
G75*
G02*
X16241001Y18985000I-249999J0D01*
G01*
X15540999Y18985000D01*
G75*
G02*
X15291000Y19234999I0J249999D01*
G01*
G37*
G04 #@! TD.AperFunction*
G04 #@! TA.AperFunction,SMDPad,CuDef*
G36*
G01*
X19996999Y16110000D02*
X20897001Y16110000D01*
G75*
G02*
X21147000Y15860001I0J-249999D01*
G01*
X21147000Y15159999D01*
G75*
G02*
X20897001Y14910000I-249999J0D01*
G01*
X19996999Y14910000D01*
G75*
G02*
X19747000Y15159999I0J249999D01*
G01*
X19747000Y15860001D01*
G75*
G02*
X19996999Y16110000I249999J0D01*
G01*
G37*
G04 #@! TD.AperFunction*
G04 #@! TA.AperFunction,SMDPad,CuDef*
G36*
G01*
X19996999Y18110000D02*
X20897001Y18110000D01*
G75*
G02*
X21147000Y17860001I0J-249999D01*
G01*
X21147000Y17159999D01*
G75*
G02*
X20897001Y16910000I-249999J0D01*
G01*
X19996999Y16910000D01*
G75*
G02*
X19747000Y17159999I0J249999D01*
G01*
X19747000Y17860001D01*
G75*
G02*
X19996999Y18110000I249999J0D01*
G01*
G37*
G04 #@! TD.AperFunction*
G04 #@! TA.AperFunction,SMDPad,CuDef*
G36*
G01*
X18865001Y16910000D02*
X17964999Y16910000D01*
G75*
G02*
X17715000Y17159999I0J249999D01*
G01*
X17715000Y17860001D01*
G75*
G02*
X17964999Y18110000I249999J0D01*
G01*
X18865001Y18110000D01*
G75*
G02*
X19115000Y17860001I0J-249999D01*
G01*
X19115000Y17159999D01*
G75*
G02*
X18865001Y16910000I-249999J0D01*
G01*
G37*
G04 #@! TD.AperFunction*
G04 #@! TA.AperFunction,SMDPad,CuDef*
G36*
G01*
X18865001Y14910000D02*
X17964999Y14910000D01*
G75*
G02*
X17715000Y15159999I0J249999D01*
G01*
X17715000Y15860001D01*
G75*
G02*
X17964999Y16110000I249999J0D01*
G01*
X18865001Y16110000D01*
G75*
G02*
X19115000Y15860001I0J-249999D01*
G01*
X19115000Y15159999D01*
G75*
G02*
X18865001Y14910000I-249999J0D01*
G01*
G37*
G04 #@! TD.AperFunction*
G04 #@! TA.AperFunction,SMDPad,CuDef*
G36*
G01*
X7728000Y21278001D02*
X7728000Y20377999D01*
G75*
G02*
X7478001Y20128000I-249999J0D01*
G01*
X6777999Y20128000D01*
G75*
G02*
X6528000Y20377999I0J249999D01*
G01*
X6528000Y21278001D01*
G75*
G02*
X6777999Y21528000I249999J0D01*
G01*
X7478001Y21528000D01*
G75*
G02*
X7728000Y21278001I0J-249999D01*
G01*
G37*
G04 #@! TD.AperFunction*
G04 #@! TA.AperFunction,SMDPad,CuDef*
G36*
G01*
X9728000Y21278001D02*
X9728000Y20377999D01*
G75*
G02*
X9478001Y20128000I-249999J0D01*
G01*
X8777999Y20128000D01*
G75*
G02*
X8528000Y20377999I0J249999D01*
G01*
X8528000Y21278001D01*
G75*
G02*
X8777999Y21528000I249999J0D01*
G01*
X9478001Y21528000D01*
G75*
G02*
X9728000Y21278001I0J-249999D01*
G01*
G37*
G04 #@! TD.AperFunction*
G04 #@! TA.AperFunction,SMDPad,CuDef*
G36*
G01*
X20897001Y12592000D02*
X19996999Y12592000D01*
G75*
G02*
X19747000Y12841999I0J249999D01*
G01*
X19747000Y13542001D01*
G75*
G02*
X19996999Y13792000I249999J0D01*
G01*
X20897001Y13792000D01*
G75*
G02*
X21147000Y13542001I0J-249999D01*
G01*
X21147000Y12841999D01*
G75*
G02*
X20897001Y12592000I-249999J0D01*
G01*
G37*
G04 #@! TD.AperFunction*
G04 #@! TA.AperFunction,SMDPad,CuDef*
G36*
G01*
X20897001Y10592000D02*
X19996999Y10592000D01*
G75*
G02*
X19747000Y10841999I0J249999D01*
G01*
X19747000Y11542001D01*
G75*
G02*
X19996999Y11792000I249999J0D01*
G01*
X20897001Y11792000D01*
G75*
G02*
X21147000Y11542001I0J-249999D01*
G01*
X21147000Y10841999D01*
G75*
G02*
X20897001Y10592000I-249999J0D01*
G01*
G37*
G04 #@! TD.AperFunction*
G04 #@! TA.AperFunction,SMDPad,CuDef*
G36*
G01*
X17964999Y13792000D02*
X18865001Y13792000D01*
G75*
G02*
X19115000Y13542001I0J-249999D01*
G01*
X19115000Y12841999D01*
G75*
G02*
X18865001Y12592000I-249999J0D01*
G01*
X17964999Y12592000D01*
G75*
G02*
X17715000Y12841999I0J249999D01*
G01*
X17715000Y13542001D01*
G75*
G02*
X17964999Y13792000I249999J0D01*
G01*
G37*
G04 #@! TD.AperFunction*
G04 #@! TA.AperFunction,SMDPad,CuDef*
G36*
G01*
X17964999Y11792000D02*
X18865001Y11792000D01*
G75*
G02*
X19115000Y11542001I0J-249999D01*
G01*
X19115000Y10841999D01*
G75*
G02*
X18865001Y10592000I-249999J0D01*
G01*
X17964999Y10592000D01*
G75*
G02*
X17715000Y10841999I0J249999D01*
G01*
X17715000Y11542001D01*
G75*
G02*
X17964999Y11792000I249999J0D01*
G01*
G37*
G04 #@! TD.AperFunction*
G04 #@! TA.AperFunction,SMDPad,CuDef*
G36*
G01*
X6712000Y12134001D02*
X6712000Y11233999D01*
G75*
G02*
X6462001Y10984000I-249999J0D01*
G01*
X5761999Y10984000D01*
G75*
G02*
X5512000Y11233999I0J249999D01*
G01*
X5512000Y12134001D01*
G75*
G02*
X5761999Y12384000I249999J0D01*
G01*
X6462001Y12384000D01*
G75*
G02*
X6712000Y12134001I0J-249999D01*
G01*
G37*
G04 #@! TD.AperFunction*
G04 #@! TA.AperFunction,SMDPad,CuDef*
G36*
G01*
X8712000Y12134001D02*
X8712000Y11233999D01*
G75*
G02*
X8462001Y10984000I-249999J0D01*
G01*
X7761999Y10984000D01*
G75*
G02*
X7512000Y11233999I0J249999D01*
G01*
X7512000Y12134001D01*
G75*
G02*
X7761999Y12384000I249999J0D01*
G01*
X8462001Y12384000D01*
G75*
G02*
X8712000Y12134001I0J-249999D01*
G01*
G37*
G04 #@! TD.AperFunction*
G04 #@! TA.AperFunction,SMDPad,CuDef*
G36*
G01*
X22004000Y16060000D02*
X22954000Y16060000D01*
G75*
G02*
X23204000Y15810000I0J-250000D01*
G01*
X23204000Y15135000D01*
G75*
G02*
X22954000Y14885000I-250000J0D01*
G01*
X22004000Y14885000D01*
G75*
G02*
X21754000Y15135000I0J250000D01*
G01*
X21754000Y15810000D01*
G75*
G02*
X22004000Y16060000I250000J0D01*
G01*
G37*
G04 #@! TD.AperFunction*
G04 #@! TA.AperFunction,SMDPad,CuDef*
G36*
G01*
X22004000Y18135000D02*
X22954000Y18135000D01*
G75*
G02*
X23204000Y17885000I0J-250000D01*
G01*
X23204000Y17210000D01*
G75*
G02*
X22954000Y16960000I-250000J0D01*
G01*
X22004000Y16960000D01*
G75*
G02*
X21754000Y17210000I0J250000D01*
G01*
X21754000Y17885000D01*
G75*
G02*
X22004000Y18135000I250000J0D01*
G01*
G37*
G04 #@! TD.AperFunction*
G04 #@! TA.AperFunction,SMDPad,CuDef*
G36*
G01*
X11996000Y21303000D02*
X11996000Y20353000D01*
G75*
G02*
X11746000Y20103000I-250000J0D01*
G01*
X11071000Y20103000D01*
G75*
G02*
X10821000Y20353000I0J250000D01*
G01*
X10821000Y21303000D01*
G75*
G02*
X11071000Y21553000I250000J0D01*
G01*
X11746000Y21553000D01*
G75*
G02*
X11996000Y21303000I0J-250000D01*
G01*
G37*
G04 #@! TD.AperFunction*
G04 #@! TA.AperFunction,SMDPad,CuDef*
G36*
G01*
X14071000Y21303000D02*
X14071000Y20353000D01*
G75*
G02*
X13821000Y20103000I-250000J0D01*
G01*
X13146000Y20103000D01*
G75*
G02*
X12896000Y20353000I0J250000D01*
G01*
X12896000Y21303000D01*
G75*
G02*
X13146000Y21553000I250000J0D01*
G01*
X13821000Y21553000D01*
G75*
G02*
X14071000Y21303000I0J-250000D01*
G01*
G37*
G04 #@! TD.AperFunction*
G04 #@! TA.AperFunction,SMDPad,CuDef*
G36*
G01*
X14917000Y12159000D02*
X14917000Y11209000D01*
G75*
G02*
X14667000Y10959000I-250000J0D01*
G01*
X13992000Y10959000D01*
G75*
G02*
X13742000Y11209000I0J250000D01*
G01*
X13742000Y12159000D01*
G75*
G02*
X13992000Y12409000I250000J0D01*
G01*
X14667000Y12409000D01*
G75*
G02*
X14917000Y12159000I0J-250000D01*
G01*
G37*
G04 #@! TD.AperFunction*
G04 #@! TA.AperFunction,SMDPad,CuDef*
G36*
G01*
X16992000Y12159000D02*
X16992000Y11209000D01*
G75*
G02*
X16742000Y10959000I-250000J0D01*
G01*
X16067000Y10959000D01*
G75*
G02*
X15817000Y11209000I0J250000D01*
G01*
X15817000Y12159000D01*
G75*
G02*
X16067000Y12409000I250000J0D01*
G01*
X16742000Y12409000D01*
G75*
G02*
X16992000Y12159000I0J-250000D01*
G01*
G37*
G04 #@! TD.AperFunction*
D16*
X3302000Y762000D03*
X32258000Y762000D03*
X32258000Y31750000D03*
X3302000Y31750000D03*
X762000Y20828000D03*
X762000Y18796000D03*
X762000Y16256000D03*
X762000Y13716000D03*
X762000Y11684000D03*
X12700000Y18796000D03*
X5461000Y10541000D03*
X7620000Y10160000D03*
X6477000Y16891000D03*
X4953000Y15748000D03*
X7493000Y15748000D03*
X9144000Y15748000D03*
X8890000Y10160000D03*
D17*
X29591000Y16256000D03*
D16*
X24511000Y26543000D03*
X30099000Y26289000D03*
X28956000Y10668000D03*
X34798000Y13462000D03*
X34798000Y19050000D03*
X34798000Y16256000D03*
X12573000Y22479000D03*
X2794000Y10541000D03*
X19431000Y14351000D03*
X21463000Y14351000D03*
X22987000Y18796000D03*
X9398000Y12446000D03*
X32575500Y19050000D03*
X32258000Y29210000D03*
X3302000Y29210000D03*
X32258000Y3302000D03*
X3302000Y3302000D03*
X762000Y29210000D03*
X762000Y3302000D03*
X34798000Y3302000D03*
X34798000Y29210000D03*
X5080000Y7874000D03*
X17780000Y7874000D03*
X20320000Y7874000D03*
X5080000Y24638000D03*
X7620000Y24638000D03*
X10160000Y24638000D03*
X12700000Y24638000D03*
X15240000Y24638000D03*
X17780000Y24638000D03*
X28321000Y20828000D03*
X15240000Y7874000D03*
X12700000Y7874000D03*
X30480000Y5842000D03*
X12192000Y16891000D03*
X28956000Y12319000D03*
D18*
X16891000Y13335000D03*
D16*
X27686000Y17399000D03*
X25654000Y18034000D03*
D18*
X24765000Y13462000D03*
D16*
X18681690Y20186118D03*
X11684000Y25654000D03*
X20292760Y20447000D03*
X21082000Y20193000D03*
X16002000Y26035000D03*
X21209000Y19304000D03*
X20193004Y26543000D03*
X21905972Y18796000D03*
X27559000Y25146000D03*
X11938000Y6857996D03*
X24993600Y12573000D03*
D18*
X30988004Y19557996D03*
D16*
X2413000Y27940000D03*
X33147003Y27939997D03*
X33146996Y4571996D03*
X2413000Y4572000D03*
X25400000Y11303000D03*
X16256000Y6603985D03*
X16764000Y5842000D03*
X26166520Y11933480D03*
X25273000Y6096000D03*
X27178000Y11303000D03*
D19*
X27706200Y16256000D02*
X29591000Y16256000D01*
D20*
X1270000Y23876000D02*
X1270000Y26026000D01*
D21*
X27706200Y18256000D02*
X27706200Y17419200D01*
X27706200Y17419200D02*
X27686000Y17399000D01*
D19*
X1270000Y22352000D02*
X1270000Y23876000D01*
X1651001Y21970999D02*
X1270000Y22352000D01*
X1651001Y15874999D02*
X1651001Y21970999D01*
X2794000Y14732000D02*
X1651001Y15874999D01*
X13462000Y14732000D02*
X2794000Y14732000D01*
X14859000Y13335000D02*
X13462000Y14732000D01*
X16891000Y13335000D02*
X14859000Y13335000D01*
X24968253Y13665253D02*
X24765000Y13462000D01*
X25956200Y18256000D02*
X24968253Y17268053D01*
X24968253Y17268053D02*
X24968253Y13665253D01*
X27706200Y18256000D02*
X25956200Y18256000D01*
D21*
X11024000Y11684000D02*
X11896000Y12556000D01*
X8112000Y11684000D02*
X11024000Y11684000D01*
X12768000Y11684000D02*
X11896000Y12556000D01*
X14329500Y11684000D02*
X13716000Y11684000D01*
X13716000Y11684000D02*
X12768000Y11684000D01*
X14202500Y11684000D02*
X13716000Y11684000D01*
X18240500Y11366500D02*
X18415000Y11192000D01*
X16700500Y11366500D02*
X18240500Y11366500D01*
X16404500Y11662500D02*
X16700500Y11366500D01*
X16404500Y11684000D02*
X16404500Y11662500D01*
X20431000Y11192000D02*
X20447000Y11176000D01*
X18415000Y11192000D02*
X20431000Y11192000D01*
X22457500Y11176000D02*
X22479000Y11154500D01*
X20447000Y11176000D02*
X22457500Y11176000D01*
X22479000Y11154500D02*
X22711500Y11154500D01*
X28106061Y21780509D02*
X29654509Y21780509D01*
X23600500Y11154500D02*
X23876000Y11430000D01*
X22479000Y11154500D02*
X23600500Y11154500D01*
X23876000Y11430000D02*
X23876000Y17550448D01*
X23876000Y17550448D02*
X28106061Y21780509D01*
X29654509Y21780509D02*
X31750000Y23876000D01*
X5529000Y18923000D02*
X4496000Y19956000D01*
X8509000Y18923000D02*
X5529000Y18923000D01*
X9128000Y19542000D02*
X8509000Y18923000D01*
X9128000Y20828000D02*
X9128000Y19542000D01*
X11408500Y20828000D02*
X11430000Y20828000D01*
X11430000Y20828000D02*
X9128000Y20828000D01*
X20447000Y17510000D02*
X22441500Y17510000D01*
X20431000Y17526000D02*
X20447000Y17510000D01*
X18415000Y17510000D02*
X20447000Y17510000D01*
X29210000Y23782486D02*
X29210000Y23876000D01*
X22975014Y17547500D02*
X29210000Y23782486D01*
X22479000Y17547500D02*
X22975014Y17547500D01*
X20425500Y18288000D02*
X20425500Y17531500D01*
X20425500Y17531500D02*
X20447000Y17510000D01*
X19431000Y19282500D02*
X20425500Y18288000D01*
X19431000Y20574000D02*
X19431000Y19282500D01*
X18923000Y21082000D02*
X19431000Y20574000D01*
X14732000Y21082000D02*
X18923000Y21082000D01*
X14478000Y20828000D02*
X14732000Y21082000D01*
X13483500Y20828000D02*
X14478000Y20828000D01*
D22*
X17018000Y18812000D02*
X17891000Y19685000D01*
X17018000Y18288000D02*
X17018000Y18812000D01*
X15896000Y17166000D02*
X17018000Y18288000D01*
X15896000Y17006000D02*
X15896000Y17166000D01*
X17891000Y19812000D02*
X18307572Y19812000D01*
X18307572Y19812000D02*
X18681690Y20186118D01*
X19557999Y25273001D02*
X20292760Y24538240D01*
X11684000Y25654000D02*
X12064999Y25273001D01*
X12064999Y25273001D02*
X19557999Y25273001D01*
X20292760Y24538240D02*
X20292760Y20593952D01*
X22860000Y21971000D02*
X21082000Y20193000D01*
X22860000Y24511000D02*
X22860000Y21971000D01*
X21615401Y25755599D02*
X22860000Y24511000D01*
X19786599Y25755599D02*
X21615401Y25755599D01*
X19507198Y26035000D02*
X19786599Y25755599D01*
X16002000Y26035000D02*
X19507198Y26035000D01*
X21463000Y19304000D02*
X25400000Y23241000D01*
X21209000Y19304000D02*
X21463000Y19304000D01*
X25400000Y24511000D02*
X23368000Y26543000D01*
X23368000Y26543000D02*
X20193004Y26543000D01*
X25400000Y23241000D02*
X25400000Y24511000D01*
X27940000Y24765000D02*
X27559000Y25146000D01*
X27940000Y23360356D02*
X27940000Y24765000D01*
X27058644Y22479000D02*
X27940000Y23360356D01*
X25588972Y22479000D02*
X27058644Y22479000D01*
X21905972Y18796000D02*
X25588972Y22479000D01*
X24638000Y12217400D02*
X24993600Y12573000D01*
X22860000Y8001000D02*
X22860000Y9271000D01*
X22860000Y9271000D02*
X24638000Y11049000D01*
X22097995Y7238995D02*
X22860000Y8001000D01*
X12318999Y7238995D02*
X22097995Y7238995D01*
X24638000Y11049000D02*
X24638000Y12217400D01*
X11938000Y6857996D02*
X12318999Y7238995D01*
D19*
X30766000Y14256000D02*
X31369003Y14859003D01*
X27706200Y14256000D02*
X30766000Y14256000D01*
X31369003Y14859003D02*
X31369003Y19176997D01*
X31369003Y19176997D02*
X30988004Y19557996D01*
D22*
X1270000Y28076000D02*
X1025000Y28076000D01*
X1270000Y28076000D02*
X2277000Y28076000D01*
X2277000Y28076000D02*
X2413000Y27940000D01*
X34290000Y28076000D02*
X33283006Y28076000D01*
X33283006Y28076000D02*
X33147003Y27939997D01*
X34290000Y4436000D02*
X33282992Y4436000D01*
X33282992Y4436000D02*
X33146996Y4571996D01*
X2277000Y4436000D02*
X2413000Y4572000D01*
X1270000Y4436000D02*
X2277000Y4436000D01*
D21*
X2667000Y21717000D02*
X3048000Y22098000D01*
X3048000Y22098000D02*
X5334000Y22098000D01*
X3048000Y17780000D02*
X2667000Y18161000D01*
X13589000Y17780000D02*
X3048000Y17780000D01*
X2667000Y18161000D02*
X2667000Y21717000D01*
X6350000Y23114000D02*
X6350000Y23876000D01*
X5334000Y22098000D02*
X6350000Y23114000D01*
X5461000Y22225000D02*
X5334000Y22098000D01*
X14986000Y19685000D02*
X15891000Y19685000D01*
X14160500Y18859500D02*
X14986000Y19685000D01*
X14160500Y18351500D02*
X14160500Y18859500D01*
X13589000Y17780000D02*
X14160500Y18351500D01*
X18415000Y13192000D02*
X18415000Y15510000D01*
X14097000Y17272000D02*
X13589000Y17780000D01*
X17923000Y15510000D02*
X17526000Y15113000D01*
X18415000Y15510000D02*
X17923000Y15510000D01*
X14478000Y15113000D02*
X14097000Y15494000D01*
X14097000Y15494000D02*
X14097000Y17272000D01*
X17526000Y15113000D02*
X14478000Y15113000D01*
D22*
X8890000Y25273000D02*
X10922000Y27305000D01*
X8890000Y23876000D02*
X8890000Y25273000D01*
X10922000Y27305000D02*
X31496000Y27305000D01*
X31496000Y27305000D02*
X32775000Y26026000D01*
X32775000Y26026000D02*
X34290000Y26026000D01*
X32902000Y6486000D02*
X34290000Y6486000D01*
X31496000Y5080000D02*
X32902000Y6486000D01*
X9906000Y5080000D02*
X31496000Y5080000D01*
X6350000Y8636000D02*
X9906000Y5080000D01*
X3810000Y8636000D02*
X3810000Y8128000D01*
X2168000Y6486000D02*
X1270000Y6486000D01*
X3810000Y8128000D02*
X2168000Y6486000D01*
X16383000Y6604000D02*
X16256000Y6477000D01*
X22479000Y6604000D02*
X16383000Y6604000D01*
X25019000Y7239000D02*
X23114000Y7239000D01*
X25400000Y7620000D02*
X25019000Y7239000D01*
X23114000Y7239000D02*
X22479000Y6604000D01*
X25400000Y11303000D02*
X25400000Y7620000D01*
X27940000Y9144000D02*
X26166520Y10917480D01*
X26670000Y6731000D02*
X27940000Y8001000D01*
X23495000Y6731000D02*
X26670000Y6731000D01*
X16764000Y5842000D02*
X22606000Y5842000D01*
X27940000Y8001000D02*
X27940000Y9144000D01*
X22606000Y5842000D02*
X23495000Y6731000D01*
X26166520Y10917480D02*
X26166520Y11933480D01*
X29083000Y6096000D02*
X25273000Y6096000D01*
X30480000Y7493000D02*
X29083000Y6096000D01*
X30480000Y9398000D02*
X30480000Y7493000D01*
X29972000Y9906000D02*
X30480000Y9398000D01*
X28575000Y9906000D02*
X29972000Y9906000D01*
X27178000Y11303000D02*
X28575000Y9906000D01*
X519026Y22202623D02*
X562598Y22058986D01*
X590171Y22007400D01*
X633355Y21926608D01*
X665310Y21887671D01*
X728578Y21810578D01*
X757654Y21786716D01*
X889002Y21655368D01*
X889001Y15912422D01*
X885315Y15874999D01*
X889001Y15837576D01*
X889001Y15837574D01*
X900027Y15725622D01*
X943599Y15581985D01*
X967070Y15538074D01*
X1014356Y15449607D01*
X1028769Y15432045D01*
X1109579Y15333577D01*
X1138655Y15309715D01*
X2111028Y14337342D01*
X1396000Y14338843D01*
X1321311Y14331487D01*
X1249492Y14309701D01*
X1183304Y14274322D01*
X1125289Y14226711D01*
X1077678Y14168696D01*
X1042299Y14102508D01*
X1020513Y14030689D01*
X1013157Y13956000D01*
X1015000Y12778250D01*
X1110250Y12683000D01*
X2369000Y12683000D01*
X2369000Y12703000D01*
X2623000Y12703000D01*
X2623000Y12683000D01*
X3881750Y12683000D01*
X3977000Y12778250D01*
X3978843Y13956000D01*
X3977464Y13970000D01*
X10114536Y13970000D01*
X10113157Y13956000D01*
X10113157Y12255500D01*
X9082876Y12255500D01*
X9082683Y12257462D01*
X9046671Y12376179D01*
X8988190Y12485589D01*
X8909488Y12581488D01*
X8813589Y12660190D01*
X8704179Y12718671D01*
X8585462Y12754683D01*
X8462001Y12766843D01*
X7761999Y12766843D01*
X7638538Y12754683D01*
X7519821Y12718671D01*
X7410411Y12660190D01*
X7314512Y12581488D01*
X7235810Y12485589D01*
X7177329Y12376179D01*
X7141317Y12257462D01*
X7129157Y12134001D01*
X7129157Y11233999D01*
X7141317Y11110538D01*
X7177329Y10991821D01*
X7235810Y10882411D01*
X7314512Y10786512D01*
X7410411Y10707810D01*
X7519821Y10649329D01*
X7638538Y10613317D01*
X7761999Y10601157D01*
X8462001Y10601157D01*
X8585462Y10613317D01*
X8704179Y10649329D01*
X8813589Y10707810D01*
X8909488Y10786512D01*
X8988190Y10882411D01*
X9046671Y10991821D01*
X9082683Y11110538D01*
X9082876Y11112500D01*
X10117441Y11112500D01*
X10120513Y11081311D01*
X10142299Y11009492D01*
X10177678Y10943304D01*
X10225289Y10885289D01*
X10283304Y10837678D01*
X10349492Y10802299D01*
X10421311Y10780513D01*
X10496000Y10773157D01*
X13296000Y10773157D01*
X13370689Y10780513D01*
X13442508Y10802299D01*
X13490143Y10827761D01*
X13544512Y10761512D01*
X13640411Y10682810D01*
X13749821Y10624329D01*
X13868538Y10588317D01*
X13992000Y10576157D01*
X14667000Y10576157D01*
X14790462Y10588317D01*
X14909179Y10624329D01*
X15018589Y10682810D01*
X15114488Y10761512D01*
X15193190Y10857411D01*
X15251671Y10966821D01*
X15287683Y11085538D01*
X15299843Y11209000D01*
X15299843Y12159000D01*
X15287683Y12282462D01*
X15251671Y12401179D01*
X15193190Y12510589D01*
X15141971Y12573000D01*
X15592029Y12573000D01*
X15540810Y12510589D01*
X15482329Y12401179D01*
X15446317Y12282462D01*
X15434157Y12159000D01*
X15434157Y11209000D01*
X15446317Y11085538D01*
X15482329Y10966821D01*
X15540810Y10857411D01*
X15619512Y10761512D01*
X15715411Y10682810D01*
X15824821Y10624329D01*
X15943538Y10588317D01*
X16067000Y10576157D01*
X16742000Y10576157D01*
X16865462Y10588317D01*
X16984179Y10624329D01*
X17093589Y10682810D01*
X17189488Y10761512D01*
X17216971Y10795000D01*
X17336786Y10795000D01*
X17344317Y10718538D01*
X17380329Y10599821D01*
X17438810Y10490411D01*
X17517512Y10394512D01*
X17613411Y10315810D01*
X17722821Y10257329D01*
X17841538Y10221317D01*
X17964999Y10209157D01*
X18865001Y10209157D01*
X18988462Y10221317D01*
X19107179Y10257329D01*
X19216589Y10315810D01*
X19312488Y10394512D01*
X19391190Y10490411D01*
X19431000Y10564890D01*
X19470810Y10490411D01*
X19549512Y10394512D01*
X19645411Y10315810D01*
X19754821Y10257329D01*
X19873538Y10221317D01*
X19996999Y10209157D01*
X20897001Y10209157D01*
X21020462Y10221317D01*
X21139179Y10257329D01*
X21248589Y10315810D01*
X21344488Y10394512D01*
X21423190Y10490411D01*
X21443819Y10529004D01*
X21477810Y10465411D01*
X21556512Y10369512D01*
X21652411Y10290810D01*
X21761821Y10232329D01*
X21880538Y10196317D01*
X22004000Y10184157D01*
X22954000Y10184157D01*
X23065743Y10195163D01*
X22518430Y9647850D01*
X22499053Y9631948D01*
X22483151Y9612571D01*
X22483150Y9612570D01*
X22435571Y9554595D01*
X22427466Y9539431D01*
X22374717Y9592180D01*
X22173097Y9726898D01*
X21949069Y9819693D01*
X21711243Y9867000D01*
X21468757Y9867000D01*
X21230931Y9819693D01*
X21006903Y9726898D01*
X20805283Y9592180D01*
X20633820Y9420717D01*
X20499102Y9219097D01*
X20406307Y8995069D01*
X20359000Y8757243D01*
X20359000Y8514757D01*
X20406307Y8276931D01*
X20499102Y8052903D01*
X20633820Y7851283D01*
X20738108Y7746995D01*
X19901892Y7746995D01*
X20006180Y7851283D01*
X20140898Y8052903D01*
X20233693Y8276931D01*
X20281000Y8514757D01*
X20281000Y8757243D01*
X20233693Y8995069D01*
X20140898Y9219097D01*
X20006180Y9420717D01*
X19834717Y9592180D01*
X19633097Y9726898D01*
X19409069Y9819693D01*
X19171243Y9867000D01*
X18928757Y9867000D01*
X18690931Y9819693D01*
X18466903Y9726898D01*
X18265283Y9592180D01*
X18093820Y9420717D01*
X17959102Y9219097D01*
X17866307Y8995069D01*
X17819000Y8757243D01*
X17819000Y8514757D01*
X17866307Y8276931D01*
X17959102Y8052903D01*
X18093820Y7851283D01*
X18198108Y7746995D01*
X17361892Y7746995D01*
X17466180Y7851283D01*
X17600898Y8052903D01*
X17693693Y8276931D01*
X17741000Y8514757D01*
X17741000Y8757243D01*
X17693693Y8995069D01*
X17600898Y9219097D01*
X17466180Y9420717D01*
X17294717Y9592180D01*
X17093097Y9726898D01*
X16869069Y9819693D01*
X16631243Y9867000D01*
X16388757Y9867000D01*
X16150931Y9819693D01*
X15926903Y9726898D01*
X15725283Y9592180D01*
X15553820Y9420717D01*
X15419102Y9219097D01*
X15326307Y8995069D01*
X15279000Y8757243D01*
X15279000Y8514757D01*
X15326307Y8276931D01*
X15419102Y8052903D01*
X15553820Y7851283D01*
X15658108Y7746995D01*
X14821892Y7746995D01*
X14926180Y7851283D01*
X15060898Y8052903D01*
X15153693Y8276931D01*
X15201000Y8514757D01*
X15201000Y8757243D01*
X15153693Y8995069D01*
X15060898Y9219097D01*
X14926180Y9420717D01*
X14754717Y9592180D01*
X14553097Y9726898D01*
X14329069Y9819693D01*
X14091243Y9867000D01*
X13848757Y9867000D01*
X13610931Y9819693D01*
X13386903Y9726898D01*
X13185283Y9592180D01*
X13013820Y9420717D01*
X12879102Y9219097D01*
X12786307Y8995069D01*
X12739000Y8757243D01*
X12739000Y8514757D01*
X12786307Y8276931D01*
X12879102Y8052903D01*
X13013820Y7851283D01*
X13118108Y7746995D01*
X12343943Y7746995D01*
X12318999Y7749452D01*
X12294055Y7746995D01*
X12294052Y7746995D01*
X12280564Y7745667D01*
X12386180Y7851283D01*
X12520898Y8052903D01*
X12613693Y8276931D01*
X12661000Y8514757D01*
X12661000Y8757243D01*
X12613693Y8995069D01*
X12520898Y9219097D01*
X12386180Y9420717D01*
X12214717Y9592180D01*
X12013097Y9726898D01*
X11789069Y9819693D01*
X11551243Y9867000D01*
X11308757Y9867000D01*
X11070931Y9819693D01*
X10846903Y9726898D01*
X10645283Y9592180D01*
X10473820Y9420717D01*
X10339102Y9219097D01*
X10246307Y8995069D01*
X10199000Y8757243D01*
X10199000Y8514757D01*
X10246307Y8276931D01*
X10339102Y8052903D01*
X10473820Y7851283D01*
X10645283Y7679820D01*
X10846903Y7545102D01*
X11070931Y7452307D01*
X11308757Y7405000D01*
X11522243Y7405000D01*
X11500828Y7390691D01*
X11405305Y7295168D01*
X11330252Y7182844D01*
X11278555Y7058036D01*
X11252200Y6925541D01*
X11252200Y6790451D01*
X11278555Y6657956D01*
X11330252Y6533148D01*
X11405305Y6420824D01*
X11500828Y6325301D01*
X11613152Y6250248D01*
X11737960Y6198551D01*
X11870455Y6172196D01*
X12005545Y6172196D01*
X12138040Y6198551D01*
X12262848Y6250248D01*
X12375172Y6325301D01*
X12470695Y6420824D01*
X12545748Y6533148D01*
X12597445Y6657956D01*
X12611973Y6730995D01*
X15582028Y6730995D01*
X15570200Y6671530D01*
X15570200Y6536440D01*
X15596555Y6403945D01*
X15648252Y6279137D01*
X15723305Y6166813D01*
X15818828Y6071290D01*
X15931152Y5996237D01*
X16055960Y5944540D01*
X16084050Y5938953D01*
X16078200Y5909545D01*
X16078200Y5774455D01*
X16104555Y5641960D01*
X16126906Y5588000D01*
X10116421Y5588000D01*
X7502587Y8201833D01*
X7533693Y8276931D01*
X7581000Y8514757D01*
X7581000Y8757243D01*
X7659000Y8757243D01*
X7659000Y8514757D01*
X7706307Y8276931D01*
X7799102Y8052903D01*
X7933820Y7851283D01*
X8105283Y7679820D01*
X8306903Y7545102D01*
X8530931Y7452307D01*
X8768757Y7405000D01*
X9011243Y7405000D01*
X9249069Y7452307D01*
X9473097Y7545102D01*
X9674717Y7679820D01*
X9846180Y7851283D01*
X9980898Y8052903D01*
X10073693Y8276931D01*
X10121000Y8514757D01*
X10121000Y8757243D01*
X10073693Y8995069D01*
X9980898Y9219097D01*
X9846180Y9420717D01*
X9674717Y9592180D01*
X9473097Y9726898D01*
X9249069Y9819693D01*
X9011243Y9867000D01*
X8768757Y9867000D01*
X8530931Y9819693D01*
X8306903Y9726898D01*
X8105283Y9592180D01*
X7933820Y9420717D01*
X7799102Y9219097D01*
X7706307Y8995069D01*
X7659000Y8757243D01*
X7581000Y8757243D01*
X7533693Y8995069D01*
X7440898Y9219097D01*
X7306180Y9420717D01*
X7134717Y9592180D01*
X6933097Y9726898D01*
X6709069Y9819693D01*
X6471243Y9867000D01*
X6228757Y9867000D01*
X5990931Y9819693D01*
X5766903Y9726898D01*
X5565283Y9592180D01*
X5393820Y9420717D01*
X5259102Y9219097D01*
X5166307Y8995069D01*
X5119000Y8757243D01*
X5119000Y8514757D01*
X5166307Y8276931D01*
X5259102Y8052903D01*
X5393820Y7851283D01*
X5565283Y7679820D01*
X5766903Y7545102D01*
X5990931Y7452307D01*
X6228757Y7405000D01*
X6471243Y7405000D01*
X6709069Y7452307D01*
X6784167Y7483413D01*
X9169479Y5098100D01*
X8869360Y5098100D01*
X8554255Y5035422D01*
X8257432Y4912474D01*
X7990298Y4733981D01*
X7763119Y4506802D01*
X7584626Y4239668D01*
X7461678Y3942845D01*
X7399000Y3627740D01*
X7399000Y3306460D01*
X7461678Y2991355D01*
X7584626Y2694532D01*
X7763119Y2427398D01*
X7990298Y2200219D01*
X8257432Y2021726D01*
X8554255Y1898778D01*
X8869360Y1836100D01*
X9190640Y1836100D01*
X9505745Y1898778D01*
X9802568Y2021726D01*
X10069702Y2200219D01*
X10158961Y2289478D01*
X11531983Y2289478D01*
X11672325Y2070546D01*
X11961259Y1930057D01*
X12272050Y1848635D01*
X12592753Y1829410D01*
X12911044Y1873120D01*
X13214693Y1978086D01*
X13387675Y2070546D01*
X13528017Y2289478D01*
X12530000Y3287495D01*
X11531983Y2289478D01*
X10158961Y2289478D01*
X10296881Y2427398D01*
X10475374Y2694532D01*
X10598322Y2991355D01*
X10661000Y3306460D01*
X10661000Y3627740D01*
X10598322Y3942845D01*
X10475374Y4239668D01*
X10296881Y4506802D01*
X10231683Y4572000D01*
X11318026Y4572000D01*
X11281759Y4535733D01*
X11352376Y4465116D01*
X11133446Y4324775D01*
X10992957Y4035841D01*
X10911535Y3725050D01*
X10892310Y3404347D01*
X10936020Y3086056D01*
X11040986Y2782407D01*
X11133446Y2609425D01*
X11352378Y2469083D01*
X12350395Y3467100D01*
X12336253Y3481242D01*
X12515858Y3660847D01*
X12530000Y3646705D01*
X12544143Y3660847D01*
X12723748Y3481242D01*
X12709605Y3467100D01*
X13707622Y2469083D01*
X13926554Y2609425D01*
X14067043Y2898359D01*
X14148465Y3209150D01*
X14167690Y3529853D01*
X14123980Y3848144D01*
X14019014Y4151793D01*
X13926554Y4324775D01*
X13707624Y4465116D01*
X13778241Y4535733D01*
X13741974Y4572000D01*
X14828317Y4572000D01*
X14763119Y4506802D01*
X14584626Y4239668D01*
X14461678Y3942845D01*
X14399000Y3627740D01*
X14399000Y3306460D01*
X14461678Y2991355D01*
X14584626Y2694532D01*
X14763119Y2427398D01*
X14990298Y2200219D01*
X15257432Y2021726D01*
X15554255Y1898778D01*
X15869360Y1836100D01*
X16190640Y1836100D01*
X16505745Y1898778D01*
X16802568Y2021726D01*
X17069702Y2200219D01*
X17158961Y2289478D01*
X18531983Y2289478D01*
X18672325Y2070546D01*
X18961259Y1930057D01*
X19272050Y1848635D01*
X19592753Y1829410D01*
X19911044Y1873120D01*
X20214693Y1978086D01*
X20387675Y2070546D01*
X20528017Y2289478D01*
X19530000Y3287495D01*
X18531983Y2289478D01*
X17158961Y2289478D01*
X17296881Y2427398D01*
X17475374Y2694532D01*
X17598322Y2991355D01*
X17661000Y3306460D01*
X17661000Y3627740D01*
X17598322Y3942845D01*
X17475374Y4239668D01*
X17296881Y4506802D01*
X17231683Y4572000D01*
X18318026Y4572000D01*
X18281759Y4535733D01*
X18352376Y4465116D01*
X18133446Y4324775D01*
X17992957Y4035841D01*
X17911535Y3725050D01*
X17892310Y3404347D01*
X17936020Y3086056D01*
X18040986Y2782407D01*
X18133446Y2609425D01*
X18352378Y2469083D01*
X19350395Y3467100D01*
X19336253Y3481242D01*
X19515858Y3660847D01*
X19530000Y3646705D01*
X19544143Y3660847D01*
X19723748Y3481242D01*
X19709605Y3467100D01*
X20707622Y2469083D01*
X20926554Y2609425D01*
X21067043Y2898359D01*
X21148465Y3209150D01*
X21167690Y3529853D01*
X21123980Y3848144D01*
X21019014Y4151793D01*
X20926554Y4324775D01*
X20707624Y4465116D01*
X20778241Y4535733D01*
X20741974Y4572000D01*
X21828317Y4572000D01*
X21763119Y4506802D01*
X21584626Y4239668D01*
X21461678Y3942845D01*
X21399000Y3627740D01*
X21399000Y3306460D01*
X21461678Y2991355D01*
X21584626Y2694532D01*
X21763119Y2427398D01*
X21990298Y2200219D01*
X22257432Y2021726D01*
X22554255Y1898778D01*
X22869360Y1836100D01*
X23190640Y1836100D01*
X23505745Y1898778D01*
X23802568Y2021726D01*
X24069702Y2200219D01*
X24158961Y2289478D01*
X25531983Y2289478D01*
X25672325Y2070546D01*
X25961259Y1930057D01*
X26272050Y1848635D01*
X26592753Y1829410D01*
X26911044Y1873120D01*
X27214693Y1978086D01*
X27387675Y2070546D01*
X27528017Y2289478D01*
X26530000Y3287495D01*
X25531983Y2289478D01*
X24158961Y2289478D01*
X24296881Y2427398D01*
X24475374Y2694532D01*
X24598322Y2991355D01*
X24661000Y3306460D01*
X24661000Y3627740D01*
X24598322Y3942845D01*
X24475374Y4239668D01*
X24296881Y4506802D01*
X24231683Y4572000D01*
X25318026Y4572000D01*
X25281759Y4535733D01*
X25352376Y4465116D01*
X25133446Y4324775D01*
X24992957Y4035841D01*
X24911535Y3725050D01*
X24892310Y3404347D01*
X24936020Y3086056D01*
X25040986Y2782407D01*
X25133446Y2609425D01*
X25352378Y2469083D01*
X26350395Y3467100D01*
X26336253Y3481242D01*
X26515858Y3660847D01*
X26530000Y3646705D01*
X26544143Y3660847D01*
X26723748Y3481242D01*
X26709605Y3467100D01*
X27707622Y2469083D01*
X27926554Y2609425D01*
X28067043Y2898359D01*
X28148465Y3209150D01*
X28167690Y3529853D01*
X28123980Y3848144D01*
X28019014Y4151793D01*
X27926554Y4324775D01*
X27707624Y4465116D01*
X27778241Y4535733D01*
X27741974Y4572000D01*
X28828317Y4572000D01*
X28763119Y4506802D01*
X28584626Y4239668D01*
X28461678Y3942845D01*
X28399000Y3627740D01*
X28399000Y3306460D01*
X28461678Y2991355D01*
X28584626Y2694532D01*
X28763119Y2427398D01*
X28990298Y2200219D01*
X29257432Y2021726D01*
X29554255Y1898778D01*
X29869360Y1836100D01*
X30190640Y1836100D01*
X30505745Y1898778D01*
X30802568Y2021726D01*
X31069702Y2200219D01*
X31296881Y2427398D01*
X31475374Y2694532D01*
X31598322Y2991355D01*
X31661000Y3306460D01*
X31661000Y3627740D01*
X31598322Y3942845D01*
X31475374Y4239668D01*
X31296881Y4506802D01*
X31231683Y4572000D01*
X31471056Y4572000D01*
X31496000Y4569543D01*
X31520944Y4572000D01*
X31520947Y4572000D01*
X31595585Y4579351D01*
X31691343Y4608399D01*
X31779595Y4655571D01*
X31856948Y4719052D01*
X31872855Y4738435D01*
X33112421Y5978000D01*
X33237377Y5978000D01*
X33255329Y5918821D01*
X33313810Y5809411D01*
X33392512Y5713512D01*
X33488411Y5634810D01*
X33597821Y5576329D01*
X33716538Y5540317D01*
X33839999Y5528157D01*
X34740001Y5528157D01*
X34863462Y5540317D01*
X34982179Y5576329D01*
X35052000Y5613649D01*
X35052000Y5308351D01*
X34982179Y5345671D01*
X34863462Y5381683D01*
X34740001Y5393843D01*
X33839999Y5393843D01*
X33716538Y5381683D01*
X33597821Y5345671D01*
X33488411Y5287190D01*
X33395845Y5211224D01*
X33347036Y5231441D01*
X33214541Y5257796D01*
X33079451Y5257796D01*
X32946956Y5231441D01*
X32822148Y5179744D01*
X32709824Y5104691D01*
X32614301Y5009168D01*
X32539248Y4896844D01*
X32487551Y4772036D01*
X32461196Y4639541D01*
X32461196Y4504451D01*
X32487551Y4371956D01*
X32539248Y4247148D01*
X32614301Y4134824D01*
X32709824Y4039301D01*
X32822148Y3964248D01*
X32946956Y3912551D01*
X33079451Y3886196D01*
X33214541Y3886196D01*
X33248037Y3892859D01*
X33255329Y3868821D01*
X33313810Y3759411D01*
X33392512Y3663512D01*
X33488411Y3584810D01*
X33597821Y3526329D01*
X33716538Y3490317D01*
X33839999Y3478157D01*
X34740001Y3478157D01*
X34863462Y3490317D01*
X34982179Y3526329D01*
X35052000Y3563649D01*
X35052000Y2543041D01*
X34932368Y2722083D01*
X34726083Y2928368D01*
X34483517Y3090445D01*
X34213992Y3202086D01*
X33927866Y3259000D01*
X33636134Y3259000D01*
X33350008Y3202086D01*
X33080483Y3090445D01*
X32837917Y2928368D01*
X32631632Y2722083D01*
X32469555Y2479517D01*
X32357914Y2209992D01*
X32301000Y1923866D01*
X32301000Y1632134D01*
X32357914Y1346008D01*
X32469555Y1076483D01*
X32631632Y833917D01*
X32837917Y627632D01*
X33016959Y508000D01*
X2543041Y508000D01*
X2722083Y627632D01*
X2928368Y833917D01*
X3090445Y1076483D01*
X3202086Y1346008D01*
X3259000Y1632134D01*
X3259000Y1923866D01*
X3202086Y2209992D01*
X3169162Y2289478D01*
X4531983Y2289478D01*
X4672325Y2070546D01*
X4961259Y1930057D01*
X5272050Y1848635D01*
X5592753Y1829410D01*
X5911044Y1873120D01*
X6214693Y1978086D01*
X6387675Y2070546D01*
X6528017Y2289478D01*
X5530000Y3287495D01*
X4531983Y2289478D01*
X3169162Y2289478D01*
X3090445Y2479517D01*
X2928368Y2722083D01*
X2722083Y2928368D01*
X2479517Y3090445D01*
X2209992Y3202086D01*
X1923866Y3259000D01*
X1632134Y3259000D01*
X1346008Y3202086D01*
X1076483Y3090445D01*
X833917Y2928368D01*
X627632Y2722083D01*
X508000Y2543041D01*
X508000Y3404347D01*
X3892310Y3404347D01*
X3936020Y3086056D01*
X4040986Y2782407D01*
X4133446Y2609425D01*
X4352378Y2469083D01*
X5350395Y3467100D01*
X5709605Y3467100D01*
X6707622Y2469083D01*
X6926554Y2609425D01*
X7067043Y2898359D01*
X7148465Y3209150D01*
X7167690Y3529853D01*
X7123980Y3848144D01*
X7019014Y4151793D01*
X6926554Y4324775D01*
X6707622Y4465117D01*
X5709605Y3467100D01*
X5350395Y3467100D01*
X4352378Y4465117D01*
X4133446Y4324775D01*
X3992957Y4035841D01*
X3911535Y3725050D01*
X3892310Y3404347D01*
X508000Y3404347D01*
X508000Y3563649D01*
X577821Y3526329D01*
X696538Y3490317D01*
X819999Y3478157D01*
X1720001Y3478157D01*
X1843462Y3490317D01*
X1962179Y3526329D01*
X2071589Y3584810D01*
X2167488Y3663512D01*
X2246190Y3759411D01*
X2304671Y3868821D01*
X2311964Y3892862D01*
X2345455Y3886200D01*
X2480545Y3886200D01*
X2613040Y3912555D01*
X2737848Y3964252D01*
X2850172Y4039305D01*
X2945695Y4134828D01*
X3020748Y4247152D01*
X3072445Y4371960D01*
X3098800Y4504455D01*
X3098800Y4639545D01*
X3097771Y4644722D01*
X4531983Y4644722D01*
X5530000Y3646705D01*
X6528017Y4644722D01*
X6387675Y4863654D01*
X6098741Y5004143D01*
X5787950Y5085565D01*
X5467247Y5104790D01*
X5148956Y5061080D01*
X4845307Y4956114D01*
X4672325Y4863654D01*
X4531983Y4644722D01*
X3097771Y4644722D01*
X3072445Y4772040D01*
X3020748Y4896848D01*
X2945695Y5009172D01*
X2850172Y5104695D01*
X2737848Y5179748D01*
X2613040Y5231445D01*
X2480545Y5257800D01*
X2345455Y5257800D01*
X2212960Y5231445D01*
X2164150Y5211227D01*
X2071589Y5287190D01*
X1962179Y5345671D01*
X1843462Y5381683D01*
X1720001Y5393843D01*
X819999Y5393843D01*
X696538Y5381683D01*
X577821Y5345671D01*
X508000Y5308351D01*
X508000Y5613649D01*
X577821Y5576329D01*
X696538Y5540317D01*
X819999Y5528157D01*
X1720001Y5528157D01*
X1843462Y5540317D01*
X1962179Y5576329D01*
X2071589Y5634810D01*
X2167488Y5713512D01*
X2246190Y5809411D01*
X2304671Y5918821D01*
X2330656Y6004484D01*
X2363343Y6014399D01*
X2451595Y6061571D01*
X2528948Y6125052D01*
X2544855Y6144435D01*
X3805420Y7405000D01*
X3931243Y7405000D01*
X4169069Y7452307D01*
X4393097Y7545102D01*
X4594717Y7679820D01*
X4766180Y7851283D01*
X4900898Y8052903D01*
X4993693Y8276931D01*
X5041000Y8514757D01*
X5041000Y8757243D01*
X4993693Y8995069D01*
X4900898Y9219097D01*
X4766180Y9420717D01*
X4594717Y9592180D01*
X4393097Y9726898D01*
X4169069Y9819693D01*
X3931243Y9867000D01*
X3688757Y9867000D01*
X3450931Y9819693D01*
X3226903Y9726898D01*
X3025283Y9592180D01*
X2853820Y9420717D01*
X2719102Y9219097D01*
X2626307Y8995069D01*
X2579000Y8757243D01*
X2579000Y8514757D01*
X2626307Y8276931D01*
X2719102Y8052903D01*
X2838216Y7874636D01*
X2192090Y7228510D01*
X2167488Y7258488D01*
X2071589Y7337190D01*
X1962179Y7395671D01*
X1843462Y7431683D01*
X1720001Y7443843D01*
X1596588Y7443843D01*
X1815020Y7525589D01*
X1890477Y7565922D01*
X1982495Y7743900D01*
X1270000Y8456395D01*
X1255858Y8442252D01*
X1076253Y8621857D01*
X1090395Y8636000D01*
X1449605Y8636000D01*
X2162100Y7923505D01*
X2340078Y8015523D01*
X2440566Y8236207D01*
X2496069Y8472255D01*
X2504456Y8714596D01*
X2465402Y8953917D01*
X2380411Y9181020D01*
X2340078Y9256477D01*
X2162100Y9348495D01*
X1449605Y8636000D01*
X1090395Y8636000D01*
X1076253Y8650142D01*
X1255858Y8829747D01*
X1270000Y8815605D01*
X1982495Y9528100D01*
X1890477Y9706078D01*
X1669793Y9806566D01*
X1433745Y9862069D01*
X1191404Y9870456D01*
X952083Y9831402D01*
X724980Y9746411D01*
X649523Y9706078D01*
X557506Y9528102D01*
X508000Y9577608D01*
X508000Y11156000D01*
X1013157Y11156000D01*
X1020513Y11081311D01*
X1042299Y11009492D01*
X1077678Y10943304D01*
X1125289Y10885289D01*
X1183304Y10837678D01*
X1249492Y10802299D01*
X1321311Y10780513D01*
X1396000Y10773157D01*
X2273750Y10775000D01*
X2369000Y10870250D01*
X2369000Y12429000D01*
X2623000Y12429000D01*
X2623000Y10870250D01*
X2718250Y10775000D01*
X3596000Y10773157D01*
X3670689Y10780513D01*
X3742508Y10802299D01*
X3808696Y10837678D01*
X3866711Y10885289D01*
X3914322Y10943304D01*
X3936074Y10984000D01*
X5129157Y10984000D01*
X5136513Y10909311D01*
X5158299Y10837492D01*
X5193678Y10771304D01*
X5241289Y10713289D01*
X5299304Y10665678D01*
X5365492Y10630299D01*
X5437311Y10608513D01*
X5512000Y10601157D01*
X5889750Y10603000D01*
X5985000Y10698250D01*
X5985000Y11557000D01*
X6239000Y11557000D01*
X6239000Y10698250D01*
X6334250Y10603000D01*
X6712000Y10601157D01*
X6786689Y10608513D01*
X6858508Y10630299D01*
X6924696Y10665678D01*
X6982711Y10713289D01*
X7030322Y10771304D01*
X7065701Y10837492D01*
X7087487Y10909311D01*
X7094843Y10984000D01*
X7093000Y11461750D01*
X6997750Y11557000D01*
X6239000Y11557000D01*
X5985000Y11557000D01*
X5226250Y11557000D01*
X5131000Y11461750D01*
X5129157Y10984000D01*
X3936074Y10984000D01*
X3949701Y11009492D01*
X3971487Y11081311D01*
X3978843Y11156000D01*
X3977000Y12333750D01*
X3926750Y12384000D01*
X5129157Y12384000D01*
X5131000Y11906250D01*
X5226250Y11811000D01*
X5985000Y11811000D01*
X5985000Y12669750D01*
X6239000Y12669750D01*
X6239000Y11811000D01*
X6997750Y11811000D01*
X7093000Y11906250D01*
X7094843Y12384000D01*
X7087487Y12458689D01*
X7065701Y12530508D01*
X7030322Y12596696D01*
X6982711Y12654711D01*
X6924696Y12702322D01*
X6858508Y12737701D01*
X6786689Y12759487D01*
X6712000Y12766843D01*
X6334250Y12765000D01*
X6239000Y12669750D01*
X5985000Y12669750D01*
X5889750Y12765000D01*
X5512000Y12766843D01*
X5437311Y12759487D01*
X5365492Y12737701D01*
X5299304Y12702322D01*
X5241289Y12654711D01*
X5193678Y12596696D01*
X5158299Y12530508D01*
X5136513Y12458689D01*
X5129157Y12384000D01*
X3926750Y12384000D01*
X3881750Y12429000D01*
X2623000Y12429000D01*
X2369000Y12429000D01*
X1110250Y12429000D01*
X1015000Y12333750D01*
X1013157Y11156000D01*
X508000Y11156000D01*
X508000Y22314575D01*
X519026Y22202623D01*
G04 #@! TA.AperFunction,Conductor*
D23*
G36*
X519026Y22202623D02*
G01*
X562598Y22058986D01*
X590171Y22007400D01*
X633355Y21926608D01*
X665310Y21887671D01*
X728578Y21810578D01*
X757654Y21786716D01*
X889002Y21655368D01*
X889001Y15912422D01*
X885315Y15874999D01*
X889001Y15837576D01*
X889001Y15837574D01*
X900027Y15725622D01*
X943599Y15581985D01*
X967070Y15538074D01*
X1014356Y15449607D01*
X1028769Y15432045D01*
X1109579Y15333577D01*
X1138655Y15309715D01*
X2111028Y14337342D01*
X1396000Y14338843D01*
X1321311Y14331487D01*
X1249492Y14309701D01*
X1183304Y14274322D01*
X1125289Y14226711D01*
X1077678Y14168696D01*
X1042299Y14102508D01*
X1020513Y14030689D01*
X1013157Y13956000D01*
X1015000Y12778250D01*
X1110250Y12683000D01*
X2369000Y12683000D01*
X2369000Y12703000D01*
X2623000Y12703000D01*
X2623000Y12683000D01*
X3881750Y12683000D01*
X3977000Y12778250D01*
X3978843Y13956000D01*
X3977464Y13970000D01*
X10114536Y13970000D01*
X10113157Y13956000D01*
X10113157Y12255500D01*
X9082876Y12255500D01*
X9082683Y12257462D01*
X9046671Y12376179D01*
X8988190Y12485589D01*
X8909488Y12581488D01*
X8813589Y12660190D01*
X8704179Y12718671D01*
X8585462Y12754683D01*
X8462001Y12766843D01*
X7761999Y12766843D01*
X7638538Y12754683D01*
X7519821Y12718671D01*
X7410411Y12660190D01*
X7314512Y12581488D01*
X7235810Y12485589D01*
X7177329Y12376179D01*
X7141317Y12257462D01*
X7129157Y12134001D01*
X7129157Y11233999D01*
X7141317Y11110538D01*
X7177329Y10991821D01*
X7235810Y10882411D01*
X7314512Y10786512D01*
X7410411Y10707810D01*
X7519821Y10649329D01*
X7638538Y10613317D01*
X7761999Y10601157D01*
X8462001Y10601157D01*
X8585462Y10613317D01*
X8704179Y10649329D01*
X8813589Y10707810D01*
X8909488Y10786512D01*
X8988190Y10882411D01*
X9046671Y10991821D01*
X9082683Y11110538D01*
X9082876Y11112500D01*
X10117441Y11112500D01*
X10120513Y11081311D01*
X10142299Y11009492D01*
X10177678Y10943304D01*
X10225289Y10885289D01*
X10283304Y10837678D01*
X10349492Y10802299D01*
X10421311Y10780513D01*
X10496000Y10773157D01*
X13296000Y10773157D01*
X13370689Y10780513D01*
X13442508Y10802299D01*
X13490143Y10827761D01*
X13544512Y10761512D01*
X13640411Y10682810D01*
X13749821Y10624329D01*
X13868538Y10588317D01*
X13992000Y10576157D01*
X14667000Y10576157D01*
X14790462Y10588317D01*
X14909179Y10624329D01*
X15018589Y10682810D01*
X15114488Y10761512D01*
X15193190Y10857411D01*
X15251671Y10966821D01*
X15287683Y11085538D01*
X15299843Y11209000D01*
X15299843Y12159000D01*
X15287683Y12282462D01*
X15251671Y12401179D01*
X15193190Y12510589D01*
X15141971Y12573000D01*
X15592029Y12573000D01*
X15540810Y12510589D01*
X15482329Y12401179D01*
X15446317Y12282462D01*
X15434157Y12159000D01*
X15434157Y11209000D01*
X15446317Y11085538D01*
X15482329Y10966821D01*
X15540810Y10857411D01*
X15619512Y10761512D01*
X15715411Y10682810D01*
X15824821Y10624329D01*
X15943538Y10588317D01*
X16067000Y10576157D01*
X16742000Y10576157D01*
X16865462Y10588317D01*
X16984179Y10624329D01*
X17093589Y10682810D01*
X17189488Y10761512D01*
X17216971Y10795000D01*
X17336786Y10795000D01*
X17344317Y10718538D01*
X17380329Y10599821D01*
X17438810Y10490411D01*
X17517512Y10394512D01*
X17613411Y10315810D01*
X17722821Y10257329D01*
X17841538Y10221317D01*
X17964999Y10209157D01*
X18865001Y10209157D01*
X18988462Y10221317D01*
X19107179Y10257329D01*
X19216589Y10315810D01*
X19312488Y10394512D01*
X19391190Y10490411D01*
X19431000Y10564890D01*
X19470810Y10490411D01*
X19549512Y10394512D01*
X19645411Y10315810D01*
X19754821Y10257329D01*
X19873538Y10221317D01*
X19996999Y10209157D01*
X20897001Y10209157D01*
X21020462Y10221317D01*
X21139179Y10257329D01*
X21248589Y10315810D01*
X21344488Y10394512D01*
X21423190Y10490411D01*
X21443819Y10529004D01*
X21477810Y10465411D01*
X21556512Y10369512D01*
X21652411Y10290810D01*
X21761821Y10232329D01*
X21880538Y10196317D01*
X22004000Y10184157D01*
X22954000Y10184157D01*
X23065743Y10195163D01*
X22518430Y9647850D01*
X22499053Y9631948D01*
X22483151Y9612571D01*
X22483150Y9612570D01*
X22435571Y9554595D01*
X22427466Y9539431D01*
X22374717Y9592180D01*
X22173097Y9726898D01*
X21949069Y9819693D01*
X21711243Y9867000D01*
X21468757Y9867000D01*
X21230931Y9819693D01*
X21006903Y9726898D01*
X20805283Y9592180D01*
X20633820Y9420717D01*
X20499102Y9219097D01*
X20406307Y8995069D01*
X20359000Y8757243D01*
X20359000Y8514757D01*
X20406307Y8276931D01*
X20499102Y8052903D01*
X20633820Y7851283D01*
X20738108Y7746995D01*
X19901892Y7746995D01*
X20006180Y7851283D01*
X20140898Y8052903D01*
X20233693Y8276931D01*
X20281000Y8514757D01*
X20281000Y8757243D01*
X20233693Y8995069D01*
X20140898Y9219097D01*
X20006180Y9420717D01*
X19834717Y9592180D01*
X19633097Y9726898D01*
X19409069Y9819693D01*
X19171243Y9867000D01*
X18928757Y9867000D01*
X18690931Y9819693D01*
X18466903Y9726898D01*
X18265283Y9592180D01*
X18093820Y9420717D01*
X17959102Y9219097D01*
X17866307Y8995069D01*
X17819000Y8757243D01*
X17819000Y8514757D01*
X17866307Y8276931D01*
X17959102Y8052903D01*
X18093820Y7851283D01*
X18198108Y7746995D01*
X17361892Y7746995D01*
X17466180Y7851283D01*
X17600898Y8052903D01*
X17693693Y8276931D01*
X17741000Y8514757D01*
X17741000Y8757243D01*
X17693693Y8995069D01*
X17600898Y9219097D01*
X17466180Y9420717D01*
X17294717Y9592180D01*
X17093097Y9726898D01*
X16869069Y9819693D01*
X16631243Y9867000D01*
X16388757Y9867000D01*
X16150931Y9819693D01*
X15926903Y9726898D01*
X15725283Y9592180D01*
X15553820Y9420717D01*
X15419102Y9219097D01*
X15326307Y8995069D01*
X15279000Y8757243D01*
X15279000Y8514757D01*
X15326307Y8276931D01*
X15419102Y8052903D01*
X15553820Y7851283D01*
X15658108Y7746995D01*
X14821892Y7746995D01*
X14926180Y7851283D01*
X15060898Y8052903D01*
X15153693Y8276931D01*
X15201000Y8514757D01*
X15201000Y8757243D01*
X15153693Y8995069D01*
X15060898Y9219097D01*
X14926180Y9420717D01*
X14754717Y9592180D01*
X14553097Y9726898D01*
X14329069Y9819693D01*
X14091243Y9867000D01*
X13848757Y9867000D01*
X13610931Y9819693D01*
X13386903Y9726898D01*
X13185283Y9592180D01*
X13013820Y9420717D01*
X12879102Y9219097D01*
X12786307Y8995069D01*
X12739000Y8757243D01*
X12739000Y8514757D01*
X12786307Y8276931D01*
X12879102Y8052903D01*
X13013820Y7851283D01*
X13118108Y7746995D01*
X12343943Y7746995D01*
X12318999Y7749452D01*
X12294055Y7746995D01*
X12294052Y7746995D01*
X12280564Y7745667D01*
X12386180Y7851283D01*
X12520898Y8052903D01*
X12613693Y8276931D01*
X12661000Y8514757D01*
X12661000Y8757243D01*
X12613693Y8995069D01*
X12520898Y9219097D01*
X12386180Y9420717D01*
X12214717Y9592180D01*
X12013097Y9726898D01*
X11789069Y9819693D01*
X11551243Y9867000D01*
X11308757Y9867000D01*
X11070931Y9819693D01*
X10846903Y9726898D01*
X10645283Y9592180D01*
X10473820Y9420717D01*
X10339102Y9219097D01*
X10246307Y8995069D01*
X10199000Y8757243D01*
X10199000Y8514757D01*
X10246307Y8276931D01*
X10339102Y8052903D01*
X10473820Y7851283D01*
X10645283Y7679820D01*
X10846903Y7545102D01*
X11070931Y7452307D01*
X11308757Y7405000D01*
X11522243Y7405000D01*
X11500828Y7390691D01*
X11405305Y7295168D01*
X11330252Y7182844D01*
X11278555Y7058036D01*
X11252200Y6925541D01*
X11252200Y6790451D01*
X11278555Y6657956D01*
X11330252Y6533148D01*
X11405305Y6420824D01*
X11500828Y6325301D01*
X11613152Y6250248D01*
X11737960Y6198551D01*
X11870455Y6172196D01*
X12005545Y6172196D01*
X12138040Y6198551D01*
X12262848Y6250248D01*
X12375172Y6325301D01*
X12470695Y6420824D01*
X12545748Y6533148D01*
X12597445Y6657956D01*
X12611973Y6730995D01*
X15582028Y6730995D01*
X15570200Y6671530D01*
X15570200Y6536440D01*
X15596555Y6403945D01*
X15648252Y6279137D01*
X15723305Y6166813D01*
X15818828Y6071290D01*
X15931152Y5996237D01*
X16055960Y5944540D01*
X16084050Y5938953D01*
X16078200Y5909545D01*
X16078200Y5774455D01*
X16104555Y5641960D01*
X16126906Y5588000D01*
X10116421Y5588000D01*
X7502587Y8201833D01*
X7533693Y8276931D01*
X7581000Y8514757D01*
X7581000Y8757243D01*
X7659000Y8757243D01*
X7659000Y8514757D01*
X7706307Y8276931D01*
X7799102Y8052903D01*
X7933820Y7851283D01*
X8105283Y7679820D01*
X8306903Y7545102D01*
X8530931Y7452307D01*
X8768757Y7405000D01*
X9011243Y7405000D01*
X9249069Y7452307D01*
X9473097Y7545102D01*
X9674717Y7679820D01*
X9846180Y7851283D01*
X9980898Y8052903D01*
X10073693Y8276931D01*
X10121000Y8514757D01*
X10121000Y8757243D01*
X10073693Y8995069D01*
X9980898Y9219097D01*
X9846180Y9420717D01*
X9674717Y9592180D01*
X9473097Y9726898D01*
X9249069Y9819693D01*
X9011243Y9867000D01*
X8768757Y9867000D01*
X8530931Y9819693D01*
X8306903Y9726898D01*
X8105283Y9592180D01*
X7933820Y9420717D01*
X7799102Y9219097D01*
X7706307Y8995069D01*
X7659000Y8757243D01*
X7581000Y8757243D01*
X7533693Y8995069D01*
X7440898Y9219097D01*
X7306180Y9420717D01*
X7134717Y9592180D01*
X6933097Y9726898D01*
X6709069Y9819693D01*
X6471243Y9867000D01*
X6228757Y9867000D01*
X5990931Y9819693D01*
X5766903Y9726898D01*
X5565283Y9592180D01*
X5393820Y9420717D01*
X5259102Y9219097D01*
X5166307Y8995069D01*
X5119000Y8757243D01*
X5119000Y8514757D01*
X5166307Y8276931D01*
X5259102Y8052903D01*
X5393820Y7851283D01*
X5565283Y7679820D01*
X5766903Y7545102D01*
X5990931Y7452307D01*
X6228757Y7405000D01*
X6471243Y7405000D01*
X6709069Y7452307D01*
X6784167Y7483413D01*
X9169479Y5098100D01*
X8869360Y5098100D01*
X8554255Y5035422D01*
X8257432Y4912474D01*
X7990298Y4733981D01*
X7763119Y4506802D01*
X7584626Y4239668D01*
X7461678Y3942845D01*
X7399000Y3627740D01*
X7399000Y3306460D01*
X7461678Y2991355D01*
X7584626Y2694532D01*
X7763119Y2427398D01*
X7990298Y2200219D01*
X8257432Y2021726D01*
X8554255Y1898778D01*
X8869360Y1836100D01*
X9190640Y1836100D01*
X9505745Y1898778D01*
X9802568Y2021726D01*
X10069702Y2200219D01*
X10158961Y2289478D01*
X11531983Y2289478D01*
X11672325Y2070546D01*
X11961259Y1930057D01*
X12272050Y1848635D01*
X12592753Y1829410D01*
X12911044Y1873120D01*
X13214693Y1978086D01*
X13387675Y2070546D01*
X13528017Y2289478D01*
X12530000Y3287495D01*
X11531983Y2289478D01*
X10158961Y2289478D01*
X10296881Y2427398D01*
X10475374Y2694532D01*
X10598322Y2991355D01*
X10661000Y3306460D01*
X10661000Y3627740D01*
X10598322Y3942845D01*
X10475374Y4239668D01*
X10296881Y4506802D01*
X10231683Y4572000D01*
X11318026Y4572000D01*
X11281759Y4535733D01*
X11352376Y4465116D01*
X11133446Y4324775D01*
X10992957Y4035841D01*
X10911535Y3725050D01*
X10892310Y3404347D01*
X10936020Y3086056D01*
X11040986Y2782407D01*
X11133446Y2609425D01*
X11352378Y2469083D01*
X12350395Y3467100D01*
X12336253Y3481242D01*
X12515858Y3660847D01*
X12530000Y3646705D01*
X12544143Y3660847D01*
X12723748Y3481242D01*
X12709605Y3467100D01*
X13707622Y2469083D01*
X13926554Y2609425D01*
X14067043Y2898359D01*
X14148465Y3209150D01*
X14167690Y3529853D01*
X14123980Y3848144D01*
X14019014Y4151793D01*
X13926554Y4324775D01*
X13707624Y4465116D01*
X13778241Y4535733D01*
X13741974Y4572000D01*
X14828317Y4572000D01*
X14763119Y4506802D01*
X14584626Y4239668D01*
X14461678Y3942845D01*
X14399000Y3627740D01*
X14399000Y3306460D01*
X14461678Y2991355D01*
X14584626Y2694532D01*
X14763119Y2427398D01*
X14990298Y2200219D01*
X15257432Y2021726D01*
X15554255Y1898778D01*
X15869360Y1836100D01*
X16190640Y1836100D01*
X16505745Y1898778D01*
X16802568Y2021726D01*
X17069702Y2200219D01*
X17158961Y2289478D01*
X18531983Y2289478D01*
X18672325Y2070546D01*
X18961259Y1930057D01*
X19272050Y1848635D01*
X19592753Y1829410D01*
X19911044Y1873120D01*
X20214693Y1978086D01*
X20387675Y2070546D01*
X20528017Y2289478D01*
X19530000Y3287495D01*
X18531983Y2289478D01*
X17158961Y2289478D01*
X17296881Y2427398D01*
X17475374Y2694532D01*
X17598322Y2991355D01*
X17661000Y3306460D01*
X17661000Y3627740D01*
X17598322Y3942845D01*
X17475374Y4239668D01*
X17296881Y4506802D01*
X17231683Y4572000D01*
X18318026Y4572000D01*
X18281759Y4535733D01*
X18352376Y4465116D01*
X18133446Y4324775D01*
X17992957Y4035841D01*
X17911535Y3725050D01*
X17892310Y3404347D01*
X17936020Y3086056D01*
X18040986Y2782407D01*
X18133446Y2609425D01*
X18352378Y2469083D01*
X19350395Y3467100D01*
X19336253Y3481242D01*
X19515858Y3660847D01*
X19530000Y3646705D01*
X19544143Y3660847D01*
X19723748Y3481242D01*
X19709605Y3467100D01*
X20707622Y2469083D01*
X20926554Y2609425D01*
X21067043Y2898359D01*
X21148465Y3209150D01*
X21167690Y3529853D01*
X21123980Y3848144D01*
X21019014Y4151793D01*
X20926554Y4324775D01*
X20707624Y4465116D01*
X20778241Y4535733D01*
X20741974Y4572000D01*
X21828317Y4572000D01*
X21763119Y4506802D01*
X21584626Y4239668D01*
X21461678Y3942845D01*
X21399000Y3627740D01*
X21399000Y3306460D01*
X21461678Y2991355D01*
X21584626Y2694532D01*
X21763119Y2427398D01*
X21990298Y2200219D01*
X22257432Y2021726D01*
X22554255Y1898778D01*
X22869360Y1836100D01*
X23190640Y1836100D01*
X23505745Y1898778D01*
X23802568Y2021726D01*
X24069702Y2200219D01*
X24158961Y2289478D01*
X25531983Y2289478D01*
X25672325Y2070546D01*
X25961259Y1930057D01*
X26272050Y1848635D01*
X26592753Y1829410D01*
X26911044Y1873120D01*
X27214693Y1978086D01*
X27387675Y2070546D01*
X27528017Y2289478D01*
X26530000Y3287495D01*
X25531983Y2289478D01*
X24158961Y2289478D01*
X24296881Y2427398D01*
X24475374Y2694532D01*
X24598322Y2991355D01*
X24661000Y3306460D01*
X24661000Y3627740D01*
X24598322Y3942845D01*
X24475374Y4239668D01*
X24296881Y4506802D01*
X24231683Y4572000D01*
X25318026Y4572000D01*
X25281759Y4535733D01*
X25352376Y4465116D01*
X25133446Y4324775D01*
X24992957Y4035841D01*
X24911535Y3725050D01*
X24892310Y3404347D01*
X24936020Y3086056D01*
X25040986Y2782407D01*
X25133446Y2609425D01*
X25352378Y2469083D01*
X26350395Y3467100D01*
X26336253Y3481242D01*
X26515858Y3660847D01*
X26530000Y3646705D01*
X26544143Y3660847D01*
X26723748Y3481242D01*
X26709605Y3467100D01*
X27707622Y2469083D01*
X27926554Y2609425D01*
X28067043Y2898359D01*
X28148465Y3209150D01*
X28167690Y3529853D01*
X28123980Y3848144D01*
X28019014Y4151793D01*
X27926554Y4324775D01*
X27707624Y4465116D01*
X27778241Y4535733D01*
X27741974Y4572000D01*
X28828317Y4572000D01*
X28763119Y4506802D01*
X28584626Y4239668D01*
X28461678Y3942845D01*
X28399000Y3627740D01*
X28399000Y3306460D01*
X28461678Y2991355D01*
X28584626Y2694532D01*
X28763119Y2427398D01*
X28990298Y2200219D01*
X29257432Y2021726D01*
X29554255Y1898778D01*
X29869360Y1836100D01*
X30190640Y1836100D01*
X30505745Y1898778D01*
X30802568Y2021726D01*
X31069702Y2200219D01*
X31296881Y2427398D01*
X31475374Y2694532D01*
X31598322Y2991355D01*
X31661000Y3306460D01*
X31661000Y3627740D01*
X31598322Y3942845D01*
X31475374Y4239668D01*
X31296881Y4506802D01*
X31231683Y4572000D01*
X31471056Y4572000D01*
X31496000Y4569543D01*
X31520944Y4572000D01*
X31520947Y4572000D01*
X31595585Y4579351D01*
X31691343Y4608399D01*
X31779595Y4655571D01*
X31856948Y4719052D01*
X31872855Y4738435D01*
X33112421Y5978000D01*
X33237377Y5978000D01*
X33255329Y5918821D01*
X33313810Y5809411D01*
X33392512Y5713512D01*
X33488411Y5634810D01*
X33597821Y5576329D01*
X33716538Y5540317D01*
X33839999Y5528157D01*
X34740001Y5528157D01*
X34863462Y5540317D01*
X34982179Y5576329D01*
X35052000Y5613649D01*
X35052000Y5308351D01*
X34982179Y5345671D01*
X34863462Y5381683D01*
X34740001Y5393843D01*
X33839999Y5393843D01*
X33716538Y5381683D01*
X33597821Y5345671D01*
X33488411Y5287190D01*
X33395845Y5211224D01*
X33347036Y5231441D01*
X33214541Y5257796D01*
X33079451Y5257796D01*
X32946956Y5231441D01*
X32822148Y5179744D01*
X32709824Y5104691D01*
X32614301Y5009168D01*
X32539248Y4896844D01*
X32487551Y4772036D01*
X32461196Y4639541D01*
X32461196Y4504451D01*
X32487551Y4371956D01*
X32539248Y4247148D01*
X32614301Y4134824D01*
X32709824Y4039301D01*
X32822148Y3964248D01*
X32946956Y3912551D01*
X33079451Y3886196D01*
X33214541Y3886196D01*
X33248037Y3892859D01*
X33255329Y3868821D01*
X33313810Y3759411D01*
X33392512Y3663512D01*
X33488411Y3584810D01*
X33597821Y3526329D01*
X33716538Y3490317D01*
X33839999Y3478157D01*
X34740001Y3478157D01*
X34863462Y3490317D01*
X34982179Y3526329D01*
X35052000Y3563649D01*
X35052000Y2543041D01*
X34932368Y2722083D01*
X34726083Y2928368D01*
X34483517Y3090445D01*
X34213992Y3202086D01*
X33927866Y3259000D01*
X33636134Y3259000D01*
X33350008Y3202086D01*
X33080483Y3090445D01*
X32837917Y2928368D01*
X32631632Y2722083D01*
X32469555Y2479517D01*
X32357914Y2209992D01*
X32301000Y1923866D01*
X32301000Y1632134D01*
X32357914Y1346008D01*
X32469555Y1076483D01*
X32631632Y833917D01*
X32837917Y627632D01*
X33016959Y508000D01*
X2543041Y508000D01*
X2722083Y627632D01*
X2928368Y833917D01*
X3090445Y1076483D01*
X3202086Y1346008D01*
X3259000Y1632134D01*
X3259000Y1923866D01*
X3202086Y2209992D01*
X3169162Y2289478D01*
X4531983Y2289478D01*
X4672325Y2070546D01*
X4961259Y1930057D01*
X5272050Y1848635D01*
X5592753Y1829410D01*
X5911044Y1873120D01*
X6214693Y1978086D01*
X6387675Y2070546D01*
X6528017Y2289478D01*
X5530000Y3287495D01*
X4531983Y2289478D01*
X3169162Y2289478D01*
X3090445Y2479517D01*
X2928368Y2722083D01*
X2722083Y2928368D01*
X2479517Y3090445D01*
X2209992Y3202086D01*
X1923866Y3259000D01*
X1632134Y3259000D01*
X1346008Y3202086D01*
X1076483Y3090445D01*
X833917Y2928368D01*
X627632Y2722083D01*
X508000Y2543041D01*
X508000Y3404347D01*
X3892310Y3404347D01*
X3936020Y3086056D01*
X4040986Y2782407D01*
X4133446Y2609425D01*
X4352378Y2469083D01*
X5350395Y3467100D01*
X5709605Y3467100D01*
X6707622Y2469083D01*
X6926554Y2609425D01*
X7067043Y2898359D01*
X7148465Y3209150D01*
X7167690Y3529853D01*
X7123980Y3848144D01*
X7019014Y4151793D01*
X6926554Y4324775D01*
X6707622Y4465117D01*
X5709605Y3467100D01*
X5350395Y3467100D01*
X4352378Y4465117D01*
X4133446Y4324775D01*
X3992957Y4035841D01*
X3911535Y3725050D01*
X3892310Y3404347D01*
X508000Y3404347D01*
X508000Y3563649D01*
X577821Y3526329D01*
X696538Y3490317D01*
X819999Y3478157D01*
X1720001Y3478157D01*
X1843462Y3490317D01*
X1962179Y3526329D01*
X2071589Y3584810D01*
X2167488Y3663512D01*
X2246190Y3759411D01*
X2304671Y3868821D01*
X2311964Y3892862D01*
X2345455Y3886200D01*
X2480545Y3886200D01*
X2613040Y3912555D01*
X2737848Y3964252D01*
X2850172Y4039305D01*
X2945695Y4134828D01*
X3020748Y4247152D01*
X3072445Y4371960D01*
X3098800Y4504455D01*
X3098800Y4639545D01*
X3097771Y4644722D01*
X4531983Y4644722D01*
X5530000Y3646705D01*
X6528017Y4644722D01*
X6387675Y4863654D01*
X6098741Y5004143D01*
X5787950Y5085565D01*
X5467247Y5104790D01*
X5148956Y5061080D01*
X4845307Y4956114D01*
X4672325Y4863654D01*
X4531983Y4644722D01*
X3097771Y4644722D01*
X3072445Y4772040D01*
X3020748Y4896848D01*
X2945695Y5009172D01*
X2850172Y5104695D01*
X2737848Y5179748D01*
X2613040Y5231445D01*
X2480545Y5257800D01*
X2345455Y5257800D01*
X2212960Y5231445D01*
X2164150Y5211227D01*
X2071589Y5287190D01*
X1962179Y5345671D01*
X1843462Y5381683D01*
X1720001Y5393843D01*
X819999Y5393843D01*
X696538Y5381683D01*
X577821Y5345671D01*
X508000Y5308351D01*
X508000Y5613649D01*
X577821Y5576329D01*
X696538Y5540317D01*
X819999Y5528157D01*
X1720001Y5528157D01*
X1843462Y5540317D01*
X1962179Y5576329D01*
X2071589Y5634810D01*
X2167488Y5713512D01*
X2246190Y5809411D01*
X2304671Y5918821D01*
X2330656Y6004484D01*
X2363343Y6014399D01*
X2451595Y6061571D01*
X2528948Y6125052D01*
X2544855Y6144435D01*
X3805420Y7405000D01*
X3931243Y7405000D01*
X4169069Y7452307D01*
X4393097Y7545102D01*
X4594717Y7679820D01*
X4766180Y7851283D01*
X4900898Y8052903D01*
X4993693Y8276931D01*
X5041000Y8514757D01*
X5041000Y8757243D01*
X4993693Y8995069D01*
X4900898Y9219097D01*
X4766180Y9420717D01*
X4594717Y9592180D01*
X4393097Y9726898D01*
X4169069Y9819693D01*
X3931243Y9867000D01*
X3688757Y9867000D01*
X3450931Y9819693D01*
X3226903Y9726898D01*
X3025283Y9592180D01*
X2853820Y9420717D01*
X2719102Y9219097D01*
X2626307Y8995069D01*
X2579000Y8757243D01*
X2579000Y8514757D01*
X2626307Y8276931D01*
X2719102Y8052903D01*
X2838216Y7874636D01*
X2192090Y7228510D01*
X2167488Y7258488D01*
X2071589Y7337190D01*
X1962179Y7395671D01*
X1843462Y7431683D01*
X1720001Y7443843D01*
X1596588Y7443843D01*
X1815020Y7525589D01*
X1890477Y7565922D01*
X1982495Y7743900D01*
X1270000Y8456395D01*
X1255858Y8442252D01*
X1076253Y8621857D01*
X1090395Y8636000D01*
X1449605Y8636000D01*
X2162100Y7923505D01*
X2340078Y8015523D01*
X2440566Y8236207D01*
X2496069Y8472255D01*
X2504456Y8714596D01*
X2465402Y8953917D01*
X2380411Y9181020D01*
X2340078Y9256477D01*
X2162100Y9348495D01*
X1449605Y8636000D01*
X1090395Y8636000D01*
X1076253Y8650142D01*
X1255858Y8829747D01*
X1270000Y8815605D01*
X1982495Y9528100D01*
X1890477Y9706078D01*
X1669793Y9806566D01*
X1433745Y9862069D01*
X1191404Y9870456D01*
X952083Y9831402D01*
X724980Y9746411D01*
X649523Y9706078D01*
X557506Y9528102D01*
X508000Y9577608D01*
X508000Y11156000D01*
X1013157Y11156000D01*
X1020513Y11081311D01*
X1042299Y11009492D01*
X1077678Y10943304D01*
X1125289Y10885289D01*
X1183304Y10837678D01*
X1249492Y10802299D01*
X1321311Y10780513D01*
X1396000Y10773157D01*
X2273750Y10775000D01*
X2369000Y10870250D01*
X2369000Y12429000D01*
X2623000Y12429000D01*
X2623000Y10870250D01*
X2718250Y10775000D01*
X3596000Y10773157D01*
X3670689Y10780513D01*
X3742508Y10802299D01*
X3808696Y10837678D01*
X3866711Y10885289D01*
X3914322Y10943304D01*
X3936074Y10984000D01*
X5129157Y10984000D01*
X5136513Y10909311D01*
X5158299Y10837492D01*
X5193678Y10771304D01*
X5241289Y10713289D01*
X5299304Y10665678D01*
X5365492Y10630299D01*
X5437311Y10608513D01*
X5512000Y10601157D01*
X5889750Y10603000D01*
X5985000Y10698250D01*
X5985000Y11557000D01*
X6239000Y11557000D01*
X6239000Y10698250D01*
X6334250Y10603000D01*
X6712000Y10601157D01*
X6786689Y10608513D01*
X6858508Y10630299D01*
X6924696Y10665678D01*
X6982711Y10713289D01*
X7030322Y10771304D01*
X7065701Y10837492D01*
X7087487Y10909311D01*
X7094843Y10984000D01*
X7093000Y11461750D01*
X6997750Y11557000D01*
X6239000Y11557000D01*
X5985000Y11557000D01*
X5226250Y11557000D01*
X5131000Y11461750D01*
X5129157Y10984000D01*
X3936074Y10984000D01*
X3949701Y11009492D01*
X3971487Y11081311D01*
X3978843Y11156000D01*
X3977000Y12333750D01*
X3926750Y12384000D01*
X5129157Y12384000D01*
X5131000Y11906250D01*
X5226250Y11811000D01*
X5985000Y11811000D01*
X5985000Y12669750D01*
X6239000Y12669750D01*
X6239000Y11811000D01*
X6997750Y11811000D01*
X7093000Y11906250D01*
X7094843Y12384000D01*
X7087487Y12458689D01*
X7065701Y12530508D01*
X7030322Y12596696D01*
X6982711Y12654711D01*
X6924696Y12702322D01*
X6858508Y12737701D01*
X6786689Y12759487D01*
X6712000Y12766843D01*
X6334250Y12765000D01*
X6239000Y12669750D01*
X5985000Y12669750D01*
X5889750Y12765000D01*
X5512000Y12766843D01*
X5437311Y12759487D01*
X5365492Y12737701D01*
X5299304Y12702322D01*
X5241289Y12654711D01*
X5193678Y12596696D01*
X5158299Y12530508D01*
X5136513Y12458689D01*
X5129157Y12384000D01*
X3926750Y12384000D01*
X3881750Y12429000D01*
X2623000Y12429000D01*
X2369000Y12429000D01*
X1110250Y12429000D01*
X1015000Y12333750D01*
X1013157Y11156000D01*
X508000Y11156000D01*
X508000Y22314575D01*
X519026Y22202623D01*
G37*
G04 #@! TD.AperFunction*
D22*
X35052000Y13019907D02*
X35029662Y13026683D01*
X34906200Y13038843D01*
X32006200Y13038843D01*
X31882738Y13026683D01*
X31764021Y12990671D01*
X31654611Y12932190D01*
X31558712Y12853488D01*
X31480010Y12757589D01*
X31421529Y12648179D01*
X31385517Y12529462D01*
X31373357Y12406000D01*
X31373357Y11406000D01*
X31385517Y11282538D01*
X31421529Y11163821D01*
X31480010Y11054411D01*
X31558712Y10958512D01*
X31654611Y10879810D01*
X31764021Y10821329D01*
X31882738Y10785317D01*
X32006200Y10773157D01*
X34906200Y10773157D01*
X35029662Y10785317D01*
X35052000Y10792093D01*
X35052000Y9607359D01*
X34873097Y9726898D01*
X34649069Y9819693D01*
X34411243Y9867000D01*
X34168757Y9867000D01*
X33930931Y9819693D01*
X33706903Y9726898D01*
X33505283Y9592180D01*
X33333820Y9420717D01*
X33199102Y9219097D01*
X33106307Y8995069D01*
X33059000Y8757243D01*
X33059000Y8514757D01*
X33106307Y8276931D01*
X33199102Y8052903D01*
X33333820Y7851283D01*
X33505283Y7679820D01*
X33706903Y7545102D01*
X33930931Y7452307D01*
X33973482Y7443843D01*
X33839999Y7443843D01*
X33716538Y7431683D01*
X33597821Y7395671D01*
X33488411Y7337190D01*
X33392512Y7258488D01*
X33313810Y7162589D01*
X33255329Y7053179D01*
X33237377Y6994000D01*
X32926943Y6994000D01*
X32901999Y6996457D01*
X32877055Y6994000D01*
X32877053Y6994000D01*
X32802415Y6986649D01*
X32706657Y6957601D01*
X32706655Y6957600D01*
X32618404Y6910429D01*
X32590581Y6887595D01*
X32541052Y6846948D01*
X32525150Y6827571D01*
X31285580Y5588000D01*
X29107947Y5588000D01*
X29182585Y5595351D01*
X29278343Y5624399D01*
X29366595Y5671571D01*
X29443948Y5735052D01*
X29459855Y5754435D01*
X30821571Y7116150D01*
X30840948Y7132052D01*
X30866009Y7162589D01*
X30904429Y7209404D01*
X30951600Y7297655D01*
X30951601Y7297657D01*
X30980649Y7393415D01*
X30988000Y7468053D01*
X30988000Y7468055D01*
X30990457Y7492999D01*
X30988000Y7517943D01*
X30988000Y7664641D01*
X31166903Y7545102D01*
X31390931Y7452307D01*
X31628757Y7405000D01*
X31871243Y7405000D01*
X32109069Y7452307D01*
X32333097Y7545102D01*
X32534717Y7679820D01*
X32706180Y7851283D01*
X32840898Y8052903D01*
X32933693Y8276931D01*
X32981000Y8514757D01*
X32981000Y8757243D01*
X32933693Y8995069D01*
X32840898Y9219097D01*
X32706180Y9420717D01*
X32534717Y9592180D01*
X32333097Y9726898D01*
X32109069Y9819693D01*
X31871243Y9867000D01*
X31628757Y9867000D01*
X31390931Y9819693D01*
X31166903Y9726898D01*
X30965283Y9592180D01*
X30955056Y9581953D01*
X30951601Y9593343D01*
X30936067Y9622405D01*
X30904429Y9681596D01*
X30856850Y9739571D01*
X30840948Y9758948D01*
X30821570Y9774851D01*
X30348855Y10247566D01*
X30332948Y10266948D01*
X30255595Y10330429D01*
X30167343Y10377601D01*
X30071585Y10406649D01*
X29996947Y10414000D01*
X29996944Y10414000D01*
X29972000Y10416457D01*
X29947056Y10414000D01*
X28785421Y10414000D01*
X27863800Y11335620D01*
X27863800Y11370545D01*
X27837445Y11503040D01*
X27785748Y11627848D01*
X27710695Y11740172D01*
X27615172Y11835695D01*
X27502848Y11910748D01*
X27378040Y11962445D01*
X27245545Y11988800D01*
X27110455Y11988800D01*
X26977960Y11962445D01*
X26853152Y11910748D01*
X26852320Y11910192D01*
X26852320Y12001025D01*
X26825965Y12133520D01*
X26774268Y12258328D01*
X26699215Y12370652D01*
X26603692Y12466175D01*
X26491368Y12541228D01*
X26366560Y12592925D01*
X26234065Y12619280D01*
X26098975Y12619280D01*
X25966480Y12592925D01*
X25841672Y12541228D01*
X25729348Y12466175D01*
X25657244Y12394071D01*
X25679400Y12505455D01*
X25679400Y12640545D01*
X25653045Y12773040D01*
X25601348Y12897848D01*
X25526295Y13010172D01*
X25458549Y13077918D01*
X25480599Y13099969D01*
X25509675Y13123831D01*
X25604898Y13239861D01*
X25675655Y13372238D01*
X25719227Y13515875D01*
X25727207Y13596901D01*
X25758712Y13558512D01*
X25854611Y13479810D01*
X25964021Y13421329D01*
X26082738Y13385317D01*
X26206200Y13373157D01*
X29206200Y13373157D01*
X29329662Y13385317D01*
X29448379Y13421329D01*
X29557789Y13479810D01*
X29575080Y13494000D01*
X30728577Y13494000D01*
X30766000Y13490314D01*
X30803423Y13494000D01*
X30803426Y13494000D01*
X30915378Y13505026D01*
X31059015Y13548598D01*
X31191392Y13619355D01*
X31307422Y13714578D01*
X31331283Y13743653D01*
X31881355Y14293725D01*
X31910425Y14317581D01*
X32005648Y14433611D01*
X32076405Y14565988D01*
X32119977Y14709625D01*
X32131003Y14821577D01*
X32131003Y14821579D01*
X32134689Y14859002D01*
X32131003Y14896425D01*
X32131003Y19139574D01*
X32134689Y19176997D01*
X32131003Y19214423D01*
X32119977Y19326375D01*
X32076405Y19470012D01*
X32074724Y19473157D01*
X34906200Y19473157D01*
X35029662Y19485317D01*
X35052000Y19492093D01*
X35052000Y13019907D01*
G04 #@! TA.AperFunction,Conductor*
D23*
G36*
X35052000Y13019907D02*
G01*
X35029662Y13026683D01*
X34906200Y13038843D01*
X32006200Y13038843D01*
X31882738Y13026683D01*
X31764021Y12990671D01*
X31654611Y12932190D01*
X31558712Y12853488D01*
X31480010Y12757589D01*
X31421529Y12648179D01*
X31385517Y12529462D01*
X31373357Y12406000D01*
X31373357Y11406000D01*
X31385517Y11282538D01*
X31421529Y11163821D01*
X31480010Y11054411D01*
X31558712Y10958512D01*
X31654611Y10879810D01*
X31764021Y10821329D01*
X31882738Y10785317D01*
X32006200Y10773157D01*
X34906200Y10773157D01*
X35029662Y10785317D01*
X35052000Y10792093D01*
X35052000Y9607359D01*
X34873097Y9726898D01*
X34649069Y9819693D01*
X34411243Y9867000D01*
X34168757Y9867000D01*
X33930931Y9819693D01*
X33706903Y9726898D01*
X33505283Y9592180D01*
X33333820Y9420717D01*
X33199102Y9219097D01*
X33106307Y8995069D01*
X33059000Y8757243D01*
X33059000Y8514757D01*
X33106307Y8276931D01*
X33199102Y8052903D01*
X33333820Y7851283D01*
X33505283Y7679820D01*
X33706903Y7545102D01*
X33930931Y7452307D01*
X33973482Y7443843D01*
X33839999Y7443843D01*
X33716538Y7431683D01*
X33597821Y7395671D01*
X33488411Y7337190D01*
X33392512Y7258488D01*
X33313810Y7162589D01*
X33255329Y7053179D01*
X33237377Y6994000D01*
X32926943Y6994000D01*
X32901999Y6996457D01*
X32877055Y6994000D01*
X32877053Y6994000D01*
X32802415Y6986649D01*
X32706657Y6957601D01*
X32706655Y6957600D01*
X32618404Y6910429D01*
X32590581Y6887595D01*
X32541052Y6846948D01*
X32525150Y6827571D01*
X31285580Y5588000D01*
X29107947Y5588000D01*
X29182585Y5595351D01*
X29278343Y5624399D01*
X29366595Y5671571D01*
X29443948Y5735052D01*
X29459855Y5754435D01*
X30821571Y7116150D01*
X30840948Y7132052D01*
X30866009Y7162589D01*
X30904429Y7209404D01*
X30951600Y7297655D01*
X30951601Y7297657D01*
X30980649Y7393415D01*
X30988000Y7468053D01*
X30988000Y7468055D01*
X30990457Y7492999D01*
X30988000Y7517943D01*
X30988000Y7664641D01*
X31166903Y7545102D01*
X31390931Y7452307D01*
X31628757Y7405000D01*
X31871243Y7405000D01*
X32109069Y7452307D01*
X32333097Y7545102D01*
X32534717Y7679820D01*
X32706180Y7851283D01*
X32840898Y8052903D01*
X32933693Y8276931D01*
X32981000Y8514757D01*
X32981000Y8757243D01*
X32933693Y8995069D01*
X32840898Y9219097D01*
X32706180Y9420717D01*
X32534717Y9592180D01*
X32333097Y9726898D01*
X32109069Y9819693D01*
X31871243Y9867000D01*
X31628757Y9867000D01*
X31390931Y9819693D01*
X31166903Y9726898D01*
X30965283Y9592180D01*
X30955056Y9581953D01*
X30951601Y9593343D01*
X30936067Y9622405D01*
X30904429Y9681596D01*
X30856850Y9739571D01*
X30840948Y9758948D01*
X30821570Y9774851D01*
X30348855Y10247566D01*
X30332948Y10266948D01*
X30255595Y10330429D01*
X30167343Y10377601D01*
X30071585Y10406649D01*
X29996947Y10414000D01*
X29996944Y10414000D01*
X29972000Y10416457D01*
X29947056Y10414000D01*
X28785421Y10414000D01*
X27863800Y11335620D01*
X27863800Y11370545D01*
X27837445Y11503040D01*
X27785748Y11627848D01*
X27710695Y11740172D01*
X27615172Y11835695D01*
X27502848Y11910748D01*
X27378040Y11962445D01*
X27245545Y11988800D01*
X27110455Y11988800D01*
X26977960Y11962445D01*
X26853152Y11910748D01*
X26852320Y11910192D01*
X26852320Y12001025D01*
X26825965Y12133520D01*
X26774268Y12258328D01*
X26699215Y12370652D01*
X26603692Y12466175D01*
X26491368Y12541228D01*
X26366560Y12592925D01*
X26234065Y12619280D01*
X26098975Y12619280D01*
X25966480Y12592925D01*
X25841672Y12541228D01*
X25729348Y12466175D01*
X25657244Y12394071D01*
X25679400Y12505455D01*
X25679400Y12640545D01*
X25653045Y12773040D01*
X25601348Y12897848D01*
X25526295Y13010172D01*
X25458549Y13077918D01*
X25480599Y13099969D01*
X25509675Y13123831D01*
X25604898Y13239861D01*
X25675655Y13372238D01*
X25719227Y13515875D01*
X25727207Y13596901D01*
X25758712Y13558512D01*
X25854611Y13479810D01*
X25964021Y13421329D01*
X26082738Y13385317D01*
X26206200Y13373157D01*
X29206200Y13373157D01*
X29329662Y13385317D01*
X29448379Y13421329D01*
X29557789Y13479810D01*
X29575080Y13494000D01*
X30728577Y13494000D01*
X30766000Y13490314D01*
X30803423Y13494000D01*
X30803426Y13494000D01*
X30915378Y13505026D01*
X31059015Y13548598D01*
X31191392Y13619355D01*
X31307422Y13714578D01*
X31331283Y13743653D01*
X31881355Y14293725D01*
X31910425Y14317581D01*
X32005648Y14433611D01*
X32076405Y14565988D01*
X32119977Y14709625D01*
X32131003Y14821577D01*
X32131003Y14821579D01*
X32134689Y14859002D01*
X32131003Y14896425D01*
X32131003Y19139574D01*
X32134689Y19176997D01*
X32131003Y19214423D01*
X32119977Y19326375D01*
X32076405Y19470012D01*
X32074724Y19473157D01*
X34906200Y19473157D01*
X35029662Y19485317D01*
X35052000Y19492093D01*
X35052000Y13019907D01*
G37*
G04 #@! TD.AperFunction*
D22*
X21477810Y16858411D02*
X21556512Y16762512D01*
X21652411Y16683810D01*
X21761821Y16625329D01*
X21880538Y16589317D01*
X22004000Y16577157D01*
X22954000Y16577157D01*
X23077462Y16589317D01*
X23196179Y16625329D01*
X23304501Y16683228D01*
X23304501Y16427657D01*
X23278689Y16435487D01*
X23204000Y16442843D01*
X22701250Y16441000D01*
X22606000Y16345750D01*
X22606000Y15599500D01*
X22626000Y15599500D01*
X22626000Y15345500D01*
X22606000Y15345500D01*
X22606000Y14599250D01*
X22701250Y14504000D01*
X23204000Y14502157D01*
X23278689Y14509513D01*
X23304501Y14517343D01*
X23304500Y14184657D01*
X23278689Y14192487D01*
X23204000Y14199843D01*
X22701250Y14198000D01*
X22606000Y14102750D01*
X22606000Y13356500D01*
X22626000Y13356500D01*
X22626000Y13102500D01*
X22606000Y13102500D01*
X22606000Y12356250D01*
X22701250Y12261000D01*
X23204000Y12259157D01*
X23278689Y12266513D01*
X23304500Y12274343D01*
X23304500Y12018772D01*
X23196179Y12076671D01*
X23077462Y12112683D01*
X22954000Y12124843D01*
X22004000Y12124843D01*
X21880538Y12112683D01*
X21761821Y12076671D01*
X21652411Y12018190D01*
X21556512Y11939488D01*
X21477810Y11843589D01*
X21463863Y11817496D01*
X21423190Y11893589D01*
X21344488Y11989488D01*
X21248589Y12068190D01*
X21139179Y12126671D01*
X21020462Y12162683D01*
X20897001Y12174843D01*
X19996999Y12174843D01*
X19873538Y12162683D01*
X19754821Y12126671D01*
X19645411Y12068190D01*
X19549512Y11989488D01*
X19470810Y11893589D01*
X19431000Y11819110D01*
X19391190Y11893589D01*
X19312488Y11989488D01*
X19216589Y12068190D01*
X19107179Y12126671D01*
X18988462Y12162683D01*
X18865001Y12174843D01*
X17964999Y12174843D01*
X17841538Y12162683D01*
X17722821Y12126671D01*
X17613411Y12068190D01*
X17517512Y11989488D01*
X17475257Y11938000D01*
X17374843Y11938000D01*
X17374843Y12159000D01*
X17362683Y12282462D01*
X17326671Y12401179D01*
X17268190Y12510589D01*
X17189488Y12606488D01*
X17169230Y12623113D01*
X17184015Y12627598D01*
X17217180Y12645325D01*
X17251942Y12659724D01*
X17283227Y12680628D01*
X17316392Y12698355D01*
X17344068Y12721068D01*
X17344317Y12718538D01*
X17380329Y12599821D01*
X17438810Y12490411D01*
X17517512Y12394512D01*
X17613411Y12315810D01*
X17722821Y12257329D01*
X17841538Y12221317D01*
X17964999Y12209157D01*
X18865001Y12209157D01*
X18988462Y12221317D01*
X19107179Y12257329D01*
X19216589Y12315810D01*
X19312488Y12394512D01*
X19382781Y12480165D01*
X19393299Y12445492D01*
X19428678Y12379304D01*
X19476289Y12321289D01*
X19534304Y12273678D01*
X19600492Y12238299D01*
X19672311Y12216513D01*
X19747000Y12209157D01*
X20224750Y12211000D01*
X20320000Y12306250D01*
X20320000Y13065000D01*
X20574000Y13065000D01*
X20574000Y12306250D01*
X20669250Y12211000D01*
X21147000Y12209157D01*
X21221689Y12216513D01*
X21293508Y12238299D01*
X21359696Y12273678D01*
X21417711Y12321289D01*
X21465322Y12379304D01*
X21469814Y12387708D01*
X21483289Y12371289D01*
X21541304Y12323678D01*
X21607492Y12288299D01*
X21679311Y12266513D01*
X21754000Y12259157D01*
X22256750Y12261000D01*
X22352000Y12356250D01*
X22352000Y13102500D01*
X21468250Y13102500D01*
X21430750Y13065000D01*
X20574000Y13065000D01*
X20320000Y13065000D01*
X20300000Y13065000D01*
X20300000Y13319000D01*
X20320000Y13319000D01*
X20320000Y14077750D01*
X20574000Y14077750D01*
X20574000Y13319000D01*
X21432750Y13319000D01*
X21470250Y13356500D01*
X22352000Y13356500D01*
X22352000Y14102750D01*
X22256750Y14198000D01*
X21754000Y14199843D01*
X21679311Y14192487D01*
X21607492Y14170701D01*
X21541304Y14135322D01*
X21483289Y14087711D01*
X21440242Y14035257D01*
X21417711Y14062711D01*
X21359696Y14110322D01*
X21293508Y14145701D01*
X21221689Y14167487D01*
X21147000Y14174843D01*
X20669250Y14173000D01*
X20574000Y14077750D01*
X20320000Y14077750D01*
X20224750Y14173000D01*
X19747000Y14174843D01*
X19672311Y14167487D01*
X19600492Y14145701D01*
X19534304Y14110322D01*
X19476289Y14062711D01*
X19428678Y14004696D01*
X19393299Y13938508D01*
X19382781Y13903835D01*
X19312488Y13989488D01*
X19216589Y14068190D01*
X19107179Y14126671D01*
X18988462Y14162683D01*
X18986500Y14162876D01*
X18986500Y14539124D01*
X18988462Y14539317D01*
X19107179Y14575329D01*
X19216589Y14633810D01*
X19312488Y14712512D01*
X19382781Y14798165D01*
X19393299Y14763492D01*
X19428678Y14697304D01*
X19476289Y14639289D01*
X19534304Y14591678D01*
X19600492Y14556299D01*
X19672311Y14534513D01*
X19747000Y14527157D01*
X20224750Y14529000D01*
X20320000Y14624250D01*
X20320000Y15383000D01*
X20574000Y15383000D01*
X20574000Y14624250D01*
X20669250Y14529000D01*
X21147000Y14527157D01*
X21221689Y14534513D01*
X21293508Y14556299D01*
X21359696Y14591678D01*
X21417711Y14639289D01*
X21440242Y14666743D01*
X21483289Y14614289D01*
X21541304Y14566678D01*
X21607492Y14531299D01*
X21679311Y14509513D01*
X21754000Y14502157D01*
X22256750Y14504000D01*
X22352000Y14599250D01*
X22352000Y15345500D01*
X21470250Y15345500D01*
X21432750Y15383000D01*
X20574000Y15383000D01*
X20320000Y15383000D01*
X20300000Y15383000D01*
X20300000Y15637000D01*
X20320000Y15637000D01*
X20320000Y16395750D01*
X20574000Y16395750D01*
X20574000Y15637000D01*
X21430750Y15637000D01*
X21468250Y15599500D01*
X22352000Y15599500D01*
X22352000Y16345750D01*
X22256750Y16441000D01*
X21754000Y16442843D01*
X21679311Y16435487D01*
X21607492Y16413701D01*
X21541304Y16378322D01*
X21483289Y16330711D01*
X21469814Y16314292D01*
X21465322Y16322696D01*
X21417711Y16380711D01*
X21359696Y16428322D01*
X21293508Y16463701D01*
X21221689Y16485487D01*
X21147000Y16492843D01*
X20669250Y16491000D01*
X20574000Y16395750D01*
X20320000Y16395750D01*
X20224750Y16491000D01*
X19747000Y16492843D01*
X19672311Y16485487D01*
X19600492Y16463701D01*
X19534304Y16428322D01*
X19476289Y16380711D01*
X19428678Y16322696D01*
X19393299Y16256508D01*
X19382781Y16221835D01*
X19312488Y16307488D01*
X19216589Y16386190D01*
X19107179Y16444671D01*
X18988462Y16480683D01*
X18865001Y16492843D01*
X17964999Y16492843D01*
X17841538Y16480683D01*
X17722821Y16444671D01*
X17613411Y16386190D01*
X17578843Y16357821D01*
X17578843Y16662179D01*
X17613411Y16633810D01*
X17722821Y16575329D01*
X17841538Y16539317D01*
X17964999Y16527157D01*
X18865001Y16527157D01*
X18988462Y16539317D01*
X19107179Y16575329D01*
X19216589Y16633810D01*
X19312488Y16712512D01*
X19391190Y16808411D01*
X19431000Y16882890D01*
X19470810Y16808411D01*
X19549512Y16712512D01*
X19645411Y16633810D01*
X19754821Y16575329D01*
X19873538Y16539317D01*
X19996999Y16527157D01*
X20897001Y16527157D01*
X21020462Y16539317D01*
X21139179Y16575329D01*
X21248589Y16633810D01*
X21344488Y16712512D01*
X21423190Y16808411D01*
X21463863Y16884504D01*
X21477810Y16858411D01*
G04 #@! TA.AperFunction,Conductor*
D23*
G36*
X21477810Y16858411D02*
G01*
X21556512Y16762512D01*
X21652411Y16683810D01*
X21761821Y16625329D01*
X21880538Y16589317D01*
X22004000Y16577157D01*
X22954000Y16577157D01*
X23077462Y16589317D01*
X23196179Y16625329D01*
X23304501Y16683228D01*
X23304501Y16427657D01*
X23278689Y16435487D01*
X23204000Y16442843D01*
X22701250Y16441000D01*
X22606000Y16345750D01*
X22606000Y15599500D01*
X22626000Y15599500D01*
X22626000Y15345500D01*
X22606000Y15345500D01*
X22606000Y14599250D01*
X22701250Y14504000D01*
X23204000Y14502157D01*
X23278689Y14509513D01*
X23304501Y14517343D01*
X23304500Y14184657D01*
X23278689Y14192487D01*
X23204000Y14199843D01*
X22701250Y14198000D01*
X22606000Y14102750D01*
X22606000Y13356500D01*
X22626000Y13356500D01*
X22626000Y13102500D01*
X22606000Y13102500D01*
X22606000Y12356250D01*
X22701250Y12261000D01*
X23204000Y12259157D01*
X23278689Y12266513D01*
X23304500Y12274343D01*
X23304500Y12018772D01*
X23196179Y12076671D01*
X23077462Y12112683D01*
X22954000Y12124843D01*
X22004000Y12124843D01*
X21880538Y12112683D01*
X21761821Y12076671D01*
X21652411Y12018190D01*
X21556512Y11939488D01*
X21477810Y11843589D01*
X21463863Y11817496D01*
X21423190Y11893589D01*
X21344488Y11989488D01*
X21248589Y12068190D01*
X21139179Y12126671D01*
X21020462Y12162683D01*
X20897001Y12174843D01*
X19996999Y12174843D01*
X19873538Y12162683D01*
X19754821Y12126671D01*
X19645411Y12068190D01*
X19549512Y11989488D01*
X19470810Y11893589D01*
X19431000Y11819110D01*
X19391190Y11893589D01*
X19312488Y11989488D01*
X19216589Y12068190D01*
X19107179Y12126671D01*
X18988462Y12162683D01*
X18865001Y12174843D01*
X17964999Y12174843D01*
X17841538Y12162683D01*
X17722821Y12126671D01*
X17613411Y12068190D01*
X17517512Y11989488D01*
X17475257Y11938000D01*
X17374843Y11938000D01*
X17374843Y12159000D01*
X17362683Y12282462D01*
X17326671Y12401179D01*
X17268190Y12510589D01*
X17189488Y12606488D01*
X17169230Y12623113D01*
X17184015Y12627598D01*
X17217180Y12645325D01*
X17251942Y12659724D01*
X17283227Y12680628D01*
X17316392Y12698355D01*
X17344068Y12721068D01*
X17344317Y12718538D01*
X17380329Y12599821D01*
X17438810Y12490411D01*
X17517512Y12394512D01*
X17613411Y12315810D01*
X17722821Y12257329D01*
X17841538Y12221317D01*
X17964999Y12209157D01*
X18865001Y12209157D01*
X18988462Y12221317D01*
X19107179Y12257329D01*
X19216589Y12315810D01*
X19312488Y12394512D01*
X19382781Y12480165D01*
X19393299Y12445492D01*
X19428678Y12379304D01*
X19476289Y12321289D01*
X19534304Y12273678D01*
X19600492Y12238299D01*
X19672311Y12216513D01*
X19747000Y12209157D01*
X20224750Y12211000D01*
X20320000Y12306250D01*
X20320000Y13065000D01*
X20574000Y13065000D01*
X20574000Y12306250D01*
X20669250Y12211000D01*
X21147000Y12209157D01*
X21221689Y12216513D01*
X21293508Y12238299D01*
X21359696Y12273678D01*
X21417711Y12321289D01*
X21465322Y12379304D01*
X21469814Y12387708D01*
X21483289Y12371289D01*
X21541304Y12323678D01*
X21607492Y12288299D01*
X21679311Y12266513D01*
X21754000Y12259157D01*
X22256750Y12261000D01*
X22352000Y12356250D01*
X22352000Y13102500D01*
X21468250Y13102500D01*
X21430750Y13065000D01*
X20574000Y13065000D01*
X20320000Y13065000D01*
X20300000Y13065000D01*
X20300000Y13319000D01*
X20320000Y13319000D01*
X20320000Y14077750D01*
X20574000Y14077750D01*
X20574000Y13319000D01*
X21432750Y13319000D01*
X21470250Y13356500D01*
X22352000Y13356500D01*
X22352000Y14102750D01*
X22256750Y14198000D01*
X21754000Y14199843D01*
X21679311Y14192487D01*
X21607492Y14170701D01*
X21541304Y14135322D01*
X21483289Y14087711D01*
X21440242Y14035257D01*
X21417711Y14062711D01*
X21359696Y14110322D01*
X21293508Y14145701D01*
X21221689Y14167487D01*
X21147000Y14174843D01*
X20669250Y14173000D01*
X20574000Y14077750D01*
X20320000Y14077750D01*
X20224750Y14173000D01*
X19747000Y14174843D01*
X19672311Y14167487D01*
X19600492Y14145701D01*
X19534304Y14110322D01*
X19476289Y14062711D01*
X19428678Y14004696D01*
X19393299Y13938508D01*
X19382781Y13903835D01*
X19312488Y13989488D01*
X19216589Y14068190D01*
X19107179Y14126671D01*
X18988462Y14162683D01*
X18986500Y14162876D01*
X18986500Y14539124D01*
X18988462Y14539317D01*
X19107179Y14575329D01*
X19216589Y14633810D01*
X19312488Y14712512D01*
X19382781Y14798165D01*
X19393299Y14763492D01*
X19428678Y14697304D01*
X19476289Y14639289D01*
X19534304Y14591678D01*
X19600492Y14556299D01*
X19672311Y14534513D01*
X19747000Y14527157D01*
X20224750Y14529000D01*
X20320000Y14624250D01*
X20320000Y15383000D01*
X20574000Y15383000D01*
X20574000Y14624250D01*
X20669250Y14529000D01*
X21147000Y14527157D01*
X21221689Y14534513D01*
X21293508Y14556299D01*
X21359696Y14591678D01*
X21417711Y14639289D01*
X21440242Y14666743D01*
X21483289Y14614289D01*
X21541304Y14566678D01*
X21607492Y14531299D01*
X21679311Y14509513D01*
X21754000Y14502157D01*
X22256750Y14504000D01*
X22352000Y14599250D01*
X22352000Y15345500D01*
X21470250Y15345500D01*
X21432750Y15383000D01*
X20574000Y15383000D01*
X20320000Y15383000D01*
X20300000Y15383000D01*
X20300000Y15637000D01*
X20320000Y15637000D01*
X20320000Y16395750D01*
X20574000Y16395750D01*
X20574000Y15637000D01*
X21430750Y15637000D01*
X21468250Y15599500D01*
X22352000Y15599500D01*
X22352000Y16345750D01*
X22256750Y16441000D01*
X21754000Y16442843D01*
X21679311Y16435487D01*
X21607492Y16413701D01*
X21541304Y16378322D01*
X21483289Y16330711D01*
X21469814Y16314292D01*
X21465322Y16322696D01*
X21417711Y16380711D01*
X21359696Y16428322D01*
X21293508Y16463701D01*
X21221689Y16485487D01*
X21147000Y16492843D01*
X20669250Y16491000D01*
X20574000Y16395750D01*
X20320000Y16395750D01*
X20224750Y16491000D01*
X19747000Y16492843D01*
X19672311Y16485487D01*
X19600492Y16463701D01*
X19534304Y16428322D01*
X19476289Y16380711D01*
X19428678Y16322696D01*
X19393299Y16256508D01*
X19382781Y16221835D01*
X19312488Y16307488D01*
X19216589Y16386190D01*
X19107179Y16444671D01*
X18988462Y16480683D01*
X18865001Y16492843D01*
X17964999Y16492843D01*
X17841538Y16480683D01*
X17722821Y16444671D01*
X17613411Y16386190D01*
X17578843Y16357821D01*
X17578843Y16662179D01*
X17613411Y16633810D01*
X17722821Y16575329D01*
X17841538Y16539317D01*
X17964999Y16527157D01*
X18865001Y16527157D01*
X18988462Y16539317D01*
X19107179Y16575329D01*
X19216589Y16633810D01*
X19312488Y16712512D01*
X19391190Y16808411D01*
X19431000Y16882890D01*
X19470810Y16808411D01*
X19549512Y16712512D01*
X19645411Y16633810D01*
X19754821Y16575329D01*
X19873538Y16539317D01*
X19996999Y16527157D01*
X20897001Y16527157D01*
X21020462Y16539317D01*
X21139179Y16575329D01*
X21248589Y16633810D01*
X21344488Y16712512D01*
X21423190Y16808411D01*
X21463863Y16884504D01*
X21477810Y16858411D01*
G37*
G04 #@! TD.AperFunction*
D22*
X32398150Y25684429D02*
X32414052Y25665052D01*
X32433429Y25649150D01*
X32491404Y25601571D01*
X32579625Y25554416D01*
X32579657Y25554399D01*
X32675415Y25525351D01*
X32750053Y25518000D01*
X32750055Y25518000D01*
X32774999Y25515543D01*
X32799943Y25518000D01*
X33237377Y25518000D01*
X33255329Y25458821D01*
X33313810Y25349411D01*
X33392512Y25253512D01*
X33488411Y25174810D01*
X33597821Y25116329D01*
X33716538Y25080317D01*
X33839999Y25068157D01*
X33973482Y25068157D01*
X33930931Y25059693D01*
X33706903Y24966898D01*
X33505283Y24832180D01*
X33333820Y24660717D01*
X33199102Y24459097D01*
X33106307Y24235069D01*
X33059000Y23997243D01*
X33059000Y23754757D01*
X33106307Y23516931D01*
X33199102Y23292903D01*
X33333820Y23091283D01*
X33505283Y22919820D01*
X33706903Y22785102D01*
X33930931Y22692307D01*
X34168757Y22645000D01*
X34411243Y22645000D01*
X34649069Y22692307D01*
X34873097Y22785102D01*
X35052000Y22904641D01*
X35052000Y21719907D01*
X35029662Y21726683D01*
X34906200Y21738843D01*
X32006200Y21738843D01*
X31882738Y21726683D01*
X31764021Y21690671D01*
X31654611Y21632190D01*
X31558712Y21553488D01*
X31480010Y21457589D01*
X31421529Y21348179D01*
X31385517Y21229462D01*
X31373357Y21106000D01*
X31373357Y20216961D01*
X31348946Y20233272D01*
X31314178Y20247673D01*
X31281019Y20265397D01*
X31245041Y20276311D01*
X31210271Y20290713D01*
X31173362Y20298055D01*
X31137382Y20308969D01*
X31099961Y20312655D01*
X31063054Y20319996D01*
X31025427Y20319996D01*
X30988004Y20323682D01*
X30950581Y20319996D01*
X30912954Y20319996D01*
X30876047Y20312655D01*
X30838626Y20308969D01*
X30802646Y20298055D01*
X30765737Y20290713D01*
X30730967Y20276311D01*
X30694989Y20265397D01*
X30661830Y20247673D01*
X30627062Y20233272D01*
X30595775Y20212367D01*
X30562612Y20194641D01*
X30533545Y20170786D01*
X30502257Y20149880D01*
X30475645Y20123268D01*
X30446583Y20099417D01*
X30422732Y20070355D01*
X30396120Y20043743D01*
X30375214Y20012455D01*
X30351359Y19983388D01*
X30333633Y19950225D01*
X30312728Y19918938D01*
X30298327Y19884170D01*
X30280603Y19851011D01*
X30269689Y19815033D01*
X30255287Y19780263D01*
X30247945Y19743354D01*
X30237031Y19707374D01*
X30233345Y19669953D01*
X30226004Y19633046D01*
X30226004Y19595419D01*
X30222318Y19557996D01*
X30226004Y19520573D01*
X30226004Y19482946D01*
X30233345Y19446039D01*
X30237031Y19408618D01*
X30247945Y19372638D01*
X30255287Y19335729D01*
X30269689Y19300959D01*
X30280603Y19264981D01*
X30298327Y19231822D01*
X30312728Y19197054D01*
X30333633Y19165767D01*
X30351359Y19132604D01*
X30375215Y19103536D01*
X30396120Y19072249D01*
X30502257Y18966112D01*
X30502260Y18966110D01*
X30607004Y18861366D01*
X30607003Y15174634D01*
X30450370Y15018000D01*
X29575080Y15018000D01*
X29557789Y15032190D01*
X29448379Y15090671D01*
X29329662Y15126683D01*
X29206200Y15138843D01*
X26206200Y15138843D01*
X26082738Y15126683D01*
X25964021Y15090671D01*
X25854611Y15032190D01*
X25758712Y14953488D01*
X25730253Y14918810D01*
X25730253Y15448553D01*
X25743504Y15437678D01*
X25809692Y15402299D01*
X25881511Y15380513D01*
X25956200Y15373157D01*
X27483950Y15375000D01*
X27579200Y15470250D01*
X27579200Y16129000D01*
X27833200Y16129000D01*
X27833200Y15470250D01*
X27928450Y15375000D01*
X29456200Y15373157D01*
X29530889Y15380513D01*
X29602708Y15402299D01*
X29668896Y15437678D01*
X29726911Y15485289D01*
X29774522Y15543304D01*
X29809901Y15609492D01*
X29831687Y15681311D01*
X29839043Y15756000D01*
X29837200Y16033750D01*
X29741950Y16129000D01*
X27833200Y16129000D01*
X27579200Y16129000D01*
X27559200Y16129000D01*
X27559200Y16383000D01*
X27579200Y16383000D01*
X27579200Y16403000D01*
X27833200Y16403000D01*
X27833200Y16383000D01*
X29741950Y16383000D01*
X29837200Y16478250D01*
X29839043Y16756000D01*
X29831687Y16830689D01*
X29809901Y16902508D01*
X29774522Y16968696D01*
X29726911Y17026711D01*
X29668896Y17074322D01*
X29602708Y17109701D01*
X29530889Y17131487D01*
X29456200Y17138843D01*
X28319976Y17137472D01*
X28345445Y17198960D01*
X28371800Y17331455D01*
X28371800Y17373157D01*
X29206200Y17373157D01*
X29329662Y17385317D01*
X29448379Y17421329D01*
X29557789Y17479810D01*
X29653688Y17558512D01*
X29732390Y17654411D01*
X29790871Y17763821D01*
X29826883Y17882538D01*
X29839043Y18006000D01*
X29839043Y18506000D01*
X29826883Y18629462D01*
X29790871Y18748179D01*
X29732390Y18857589D01*
X29653688Y18953488D01*
X29557789Y19032190D01*
X29448379Y19090671D01*
X29329662Y19126683D01*
X29206200Y19138843D01*
X26272617Y19138843D01*
X28342784Y21209009D01*
X29626435Y21209009D01*
X29654509Y21206244D01*
X29682583Y21209009D01*
X29766543Y21217278D01*
X29874271Y21249957D01*
X29973554Y21303025D01*
X30060576Y21374442D01*
X30078479Y21396257D01*
X31379333Y22697111D01*
X31390931Y22692307D01*
X31628757Y22645000D01*
X31871243Y22645000D01*
X32109069Y22692307D01*
X32333097Y22785102D01*
X32534717Y22919820D01*
X32706180Y23091283D01*
X32840898Y23292903D01*
X32933693Y23516931D01*
X32981000Y23754757D01*
X32981000Y23997243D01*
X32933693Y24235069D01*
X32840898Y24459097D01*
X32706180Y24660717D01*
X32534717Y24832180D01*
X32333097Y24966898D01*
X32109069Y25059693D01*
X31871243Y25107000D01*
X31628757Y25107000D01*
X31390931Y25059693D01*
X31166903Y24966898D01*
X30965283Y24832180D01*
X30793820Y24660717D01*
X30659102Y24459097D01*
X30566307Y24235069D01*
X30519000Y23997243D01*
X30519000Y23754757D01*
X30566307Y23516931D01*
X30571111Y23505333D01*
X30184543Y23118766D01*
X30300898Y23292903D01*
X30393693Y23516931D01*
X30441000Y23754757D01*
X30441000Y23997243D01*
X30393693Y24235069D01*
X30300898Y24459097D01*
X30166180Y24660717D01*
X29994717Y24832180D01*
X29793097Y24966898D01*
X29569069Y25059693D01*
X29331243Y25107000D01*
X29088757Y25107000D01*
X28850931Y25059693D01*
X28626903Y24966898D01*
X28442695Y24843814D01*
X28440649Y24864585D01*
X28411601Y24960343D01*
X28396067Y24989405D01*
X28364429Y25048596D01*
X28316850Y25106571D01*
X28300948Y25125948D01*
X28281570Y25141851D01*
X28244800Y25178621D01*
X28244800Y25213545D01*
X28218445Y25346040D01*
X28166748Y25470848D01*
X28091695Y25583172D01*
X27996172Y25678695D01*
X27883848Y25753748D01*
X27759040Y25805445D01*
X27626545Y25831800D01*
X27491455Y25831800D01*
X27358960Y25805445D01*
X27234152Y25753748D01*
X27121828Y25678695D01*
X27026305Y25583172D01*
X26951252Y25470848D01*
X26899555Y25346040D01*
X26873200Y25213545D01*
X26873200Y25090698D01*
X26791243Y25107000D01*
X26548757Y25107000D01*
X26310931Y25059693D01*
X26086903Y24966898D01*
X25885283Y24832180D01*
X25832534Y24779431D01*
X25824429Y24794596D01*
X25776850Y24852571D01*
X25760948Y24871948D01*
X25741571Y24887850D01*
X23832420Y26797000D01*
X31285580Y26797000D01*
X32398150Y25684429D01*
G04 #@! TA.AperFunction,Conductor*
D23*
G36*
X32398150Y25684429D02*
G01*
X32414052Y25665052D01*
X32433429Y25649150D01*
X32491404Y25601571D01*
X32579625Y25554416D01*
X32579657Y25554399D01*
X32675415Y25525351D01*
X32750053Y25518000D01*
X32750055Y25518000D01*
X32774999Y25515543D01*
X32799943Y25518000D01*
X33237377Y25518000D01*
X33255329Y25458821D01*
X33313810Y25349411D01*
X33392512Y25253512D01*
X33488411Y25174810D01*
X33597821Y25116329D01*
X33716538Y25080317D01*
X33839999Y25068157D01*
X33973482Y25068157D01*
X33930931Y25059693D01*
X33706903Y24966898D01*
X33505283Y24832180D01*
X33333820Y24660717D01*
X33199102Y24459097D01*
X33106307Y24235069D01*
X33059000Y23997243D01*
X33059000Y23754757D01*
X33106307Y23516931D01*
X33199102Y23292903D01*
X33333820Y23091283D01*
X33505283Y22919820D01*
X33706903Y22785102D01*
X33930931Y22692307D01*
X34168757Y22645000D01*
X34411243Y22645000D01*
X34649069Y22692307D01*
X34873097Y22785102D01*
X35052000Y22904641D01*
X35052000Y21719907D01*
X35029662Y21726683D01*
X34906200Y21738843D01*
X32006200Y21738843D01*
X31882738Y21726683D01*
X31764021Y21690671D01*
X31654611Y21632190D01*
X31558712Y21553488D01*
X31480010Y21457589D01*
X31421529Y21348179D01*
X31385517Y21229462D01*
X31373357Y21106000D01*
X31373357Y20216961D01*
X31348946Y20233272D01*
X31314178Y20247673D01*
X31281019Y20265397D01*
X31245041Y20276311D01*
X31210271Y20290713D01*
X31173362Y20298055D01*
X31137382Y20308969D01*
X31099961Y20312655D01*
X31063054Y20319996D01*
X31025427Y20319996D01*
X30988004Y20323682D01*
X30950581Y20319996D01*
X30912954Y20319996D01*
X30876047Y20312655D01*
X30838626Y20308969D01*
X30802646Y20298055D01*
X30765737Y20290713D01*
X30730967Y20276311D01*
X30694989Y20265397D01*
X30661830Y20247673D01*
X30627062Y20233272D01*
X30595775Y20212367D01*
X30562612Y20194641D01*
X30533545Y20170786D01*
X30502257Y20149880D01*
X30475645Y20123268D01*
X30446583Y20099417D01*
X30422732Y20070355D01*
X30396120Y20043743D01*
X30375214Y20012455D01*
X30351359Y19983388D01*
X30333633Y19950225D01*
X30312728Y19918938D01*
X30298327Y19884170D01*
X30280603Y19851011D01*
X30269689Y19815033D01*
X30255287Y19780263D01*
X30247945Y19743354D01*
X30237031Y19707374D01*
X30233345Y19669953D01*
X30226004Y19633046D01*
X30226004Y19595419D01*
X30222318Y19557996D01*
X30226004Y19520573D01*
X30226004Y19482946D01*
X30233345Y19446039D01*
X30237031Y19408618D01*
X30247945Y19372638D01*
X30255287Y19335729D01*
X30269689Y19300959D01*
X30280603Y19264981D01*
X30298327Y19231822D01*
X30312728Y19197054D01*
X30333633Y19165767D01*
X30351359Y19132604D01*
X30375215Y19103536D01*
X30396120Y19072249D01*
X30502257Y18966112D01*
X30502260Y18966110D01*
X30607004Y18861366D01*
X30607003Y15174634D01*
X30450370Y15018000D01*
X29575080Y15018000D01*
X29557789Y15032190D01*
X29448379Y15090671D01*
X29329662Y15126683D01*
X29206200Y15138843D01*
X26206200Y15138843D01*
X26082738Y15126683D01*
X25964021Y15090671D01*
X25854611Y15032190D01*
X25758712Y14953488D01*
X25730253Y14918810D01*
X25730253Y15448553D01*
X25743504Y15437678D01*
X25809692Y15402299D01*
X25881511Y15380513D01*
X25956200Y15373157D01*
X27483950Y15375000D01*
X27579200Y15470250D01*
X27579200Y16129000D01*
X27833200Y16129000D01*
X27833200Y15470250D01*
X27928450Y15375000D01*
X29456200Y15373157D01*
X29530889Y15380513D01*
X29602708Y15402299D01*
X29668896Y15437678D01*
X29726911Y15485289D01*
X29774522Y15543304D01*
X29809901Y15609492D01*
X29831687Y15681311D01*
X29839043Y15756000D01*
X29837200Y16033750D01*
X29741950Y16129000D01*
X27833200Y16129000D01*
X27579200Y16129000D01*
X27559200Y16129000D01*
X27559200Y16383000D01*
X27579200Y16383000D01*
X27579200Y16403000D01*
X27833200Y16403000D01*
X27833200Y16383000D01*
X29741950Y16383000D01*
X29837200Y16478250D01*
X29839043Y16756000D01*
X29831687Y16830689D01*
X29809901Y16902508D01*
X29774522Y16968696D01*
X29726911Y17026711D01*
X29668896Y17074322D01*
X29602708Y17109701D01*
X29530889Y17131487D01*
X29456200Y17138843D01*
X28319976Y17137472D01*
X28345445Y17198960D01*
X28371800Y17331455D01*
X28371800Y17373157D01*
X29206200Y17373157D01*
X29329662Y17385317D01*
X29448379Y17421329D01*
X29557789Y17479810D01*
X29653688Y17558512D01*
X29732390Y17654411D01*
X29790871Y17763821D01*
X29826883Y17882538D01*
X29839043Y18006000D01*
X29839043Y18506000D01*
X29826883Y18629462D01*
X29790871Y18748179D01*
X29732390Y18857589D01*
X29653688Y18953488D01*
X29557789Y19032190D01*
X29448379Y19090671D01*
X29329662Y19126683D01*
X29206200Y19138843D01*
X26272617Y19138843D01*
X28342784Y21209009D01*
X29626435Y21209009D01*
X29654509Y21206244D01*
X29682583Y21209009D01*
X29766543Y21217278D01*
X29874271Y21249957D01*
X29973554Y21303025D01*
X30060576Y21374442D01*
X30078479Y21396257D01*
X31379333Y22697111D01*
X31390931Y22692307D01*
X31628757Y22645000D01*
X31871243Y22645000D01*
X32109069Y22692307D01*
X32333097Y22785102D01*
X32534717Y22919820D01*
X32706180Y23091283D01*
X32840898Y23292903D01*
X32933693Y23516931D01*
X32981000Y23754757D01*
X32981000Y23997243D01*
X32933693Y24235069D01*
X32840898Y24459097D01*
X32706180Y24660717D01*
X32534717Y24832180D01*
X32333097Y24966898D01*
X32109069Y25059693D01*
X31871243Y25107000D01*
X31628757Y25107000D01*
X31390931Y25059693D01*
X31166903Y24966898D01*
X30965283Y24832180D01*
X30793820Y24660717D01*
X30659102Y24459097D01*
X30566307Y24235069D01*
X30519000Y23997243D01*
X30519000Y23754757D01*
X30566307Y23516931D01*
X30571111Y23505333D01*
X30184543Y23118766D01*
X30300898Y23292903D01*
X30393693Y23516931D01*
X30441000Y23754757D01*
X30441000Y23997243D01*
X30393693Y24235069D01*
X30300898Y24459097D01*
X30166180Y24660717D01*
X29994717Y24832180D01*
X29793097Y24966898D01*
X29569069Y25059693D01*
X29331243Y25107000D01*
X29088757Y25107000D01*
X28850931Y25059693D01*
X28626903Y24966898D01*
X28442695Y24843814D01*
X28440649Y24864585D01*
X28411601Y24960343D01*
X28396067Y24989405D01*
X28364429Y25048596D01*
X28316850Y25106571D01*
X28300948Y25125948D01*
X28281570Y25141851D01*
X28244800Y25178621D01*
X28244800Y25213545D01*
X28218445Y25346040D01*
X28166748Y25470848D01*
X28091695Y25583172D01*
X27996172Y25678695D01*
X27883848Y25753748D01*
X27759040Y25805445D01*
X27626545Y25831800D01*
X27491455Y25831800D01*
X27358960Y25805445D01*
X27234152Y25753748D01*
X27121828Y25678695D01*
X27026305Y25583172D01*
X26951252Y25470848D01*
X26899555Y25346040D01*
X26873200Y25213545D01*
X26873200Y25090698D01*
X26791243Y25107000D01*
X26548757Y25107000D01*
X26310931Y25059693D01*
X26086903Y24966898D01*
X25885283Y24832180D01*
X25832534Y24779431D01*
X25824429Y24794596D01*
X25776850Y24852571D01*
X25760948Y24871948D01*
X25741571Y24887850D01*
X23832420Y26797000D01*
X31285580Y26797000D01*
X32398150Y25684429D01*
G37*
G04 #@! TD.AperFunction*
D22*
X13525501Y17035276D02*
X13525500Y15522075D01*
X13522735Y15494000D01*
X13522963Y15491682D01*
X13499426Y15494000D01*
X13499423Y15494000D01*
X13462000Y15497686D01*
X13424577Y15494000D01*
X11567359Y15494000D01*
X11686898Y15672903D01*
X11779693Y15896931D01*
X11827000Y16134757D01*
X11827000Y16377243D01*
X11779693Y16615069D01*
X11686898Y16839097D01*
X11552180Y17040717D01*
X11384397Y17208500D01*
X13352278Y17208500D01*
X13525501Y17035276D01*
G04 #@! TA.AperFunction,Conductor*
D23*
G36*
X13525501Y17035276D02*
G01*
X13525500Y15522075D01*
X13522735Y15494000D01*
X13522963Y15491682D01*
X13499426Y15494000D01*
X13499423Y15494000D01*
X13462000Y15497686D01*
X13424577Y15494000D01*
X11567359Y15494000D01*
X11686898Y15672903D01*
X11779693Y15896931D01*
X11827000Y16134757D01*
X11827000Y16377243D01*
X11779693Y16615069D01*
X11686898Y16839097D01*
X11552180Y17040717D01*
X11384397Y17208500D01*
X13352278Y17208500D01*
X13525501Y17035276D01*
G37*
G04 #@! TD.AperFunction*
D22*
X9639820Y17040717D02*
X9505102Y16839097D01*
X9412307Y16615069D01*
X9365000Y16377243D01*
X9365000Y16134757D01*
X9412307Y15896931D01*
X9505102Y15672903D01*
X9624641Y15494000D01*
X4567359Y15494000D01*
X4686898Y15672903D01*
X4779693Y15896931D01*
X4827000Y16134757D01*
X4827000Y16377243D01*
X4779693Y16615069D01*
X4686898Y16839097D01*
X4552180Y17040717D01*
X4384397Y17208500D01*
X9807603Y17208500D01*
X9639820Y17040717D01*
G04 #@! TA.AperFunction,Conductor*
D23*
G36*
X9639820Y17040717D02*
G01*
X9505102Y16839097D01*
X9412307Y16615069D01*
X9365000Y16377243D01*
X9365000Y16134757D01*
X9412307Y15896931D01*
X9505102Y15672903D01*
X9624641Y15494000D01*
X4567359Y15494000D01*
X4686898Y15672903D01*
X4779693Y15896931D01*
X4827000Y16134757D01*
X4827000Y16377243D01*
X4779693Y16615069D01*
X4686898Y16839097D01*
X4552180Y17040717D01*
X4384397Y17208500D01*
X9807603Y17208500D01*
X9639820Y17040717D01*
G37*
G04 #@! TD.AperFunction*
D22*
X32837917Y31884368D02*
X32631632Y31678083D01*
X32469555Y31435517D01*
X32357914Y31165992D01*
X32301000Y30879866D01*
X32301000Y30588134D01*
X32357914Y30302008D01*
X32469555Y30032483D01*
X32631632Y29789917D01*
X32837917Y29583632D01*
X33080483Y29421555D01*
X33350008Y29309914D01*
X33636134Y29253000D01*
X33927866Y29253000D01*
X34213992Y29309914D01*
X34483517Y29421555D01*
X34726083Y29583632D01*
X34932368Y29789917D01*
X35052000Y29968959D01*
X35052000Y28948351D01*
X34982179Y28985671D01*
X34863462Y29021683D01*
X34740001Y29033843D01*
X33839999Y29033843D01*
X33716538Y29021683D01*
X33597821Y28985671D01*
X33488411Y28927190D01*
X33392512Y28848488D01*
X33313810Y28752589D01*
X33255329Y28643179D01*
X33248036Y28619136D01*
X33214548Y28625797D01*
X33079458Y28625797D01*
X32946963Y28599442D01*
X32822155Y28547745D01*
X32709831Y28472692D01*
X32614308Y28377169D01*
X32539255Y28264845D01*
X32487558Y28140037D01*
X32461203Y28007542D01*
X32461203Y27872452D01*
X32487558Y27739957D01*
X32539255Y27615149D01*
X32614308Y27502825D01*
X32709831Y27407302D01*
X32822155Y27332249D01*
X32946963Y27280552D01*
X33079458Y27254197D01*
X33214548Y27254197D01*
X33347043Y27280552D01*
X33395853Y27300770D01*
X33488411Y27224810D01*
X33597821Y27166329D01*
X33716538Y27130317D01*
X33839999Y27118157D01*
X34740001Y27118157D01*
X34863462Y27130317D01*
X34982179Y27166329D01*
X35052000Y27203649D01*
X35052000Y26898351D01*
X34982179Y26935671D01*
X34863462Y26971683D01*
X34740001Y26983843D01*
X33839999Y26983843D01*
X33716538Y26971683D01*
X33597821Y26935671D01*
X33488411Y26877190D01*
X33392512Y26798488D01*
X33313810Y26702589D01*
X33255329Y26593179D01*
X33237377Y26534000D01*
X32985421Y26534000D01*
X31872855Y27646565D01*
X31856948Y27665948D01*
X31779595Y27729429D01*
X31691343Y27776601D01*
X31595585Y27805649D01*
X31520947Y27813000D01*
X31520944Y27813000D01*
X31496000Y27815457D01*
X31471056Y27813000D01*
X30993223Y27813000D01*
X31028017Y27867278D01*
X30030000Y28865295D01*
X29031983Y27867278D01*
X29066777Y27813000D01*
X27604683Y27813000D01*
X27796881Y28005198D01*
X27975374Y28272332D01*
X28098322Y28569155D01*
X28161000Y28884260D01*
X28161000Y28982147D01*
X28392310Y28982147D01*
X28436020Y28663856D01*
X28540986Y28360207D01*
X28633446Y28187225D01*
X28852378Y28046883D01*
X29850395Y29044900D01*
X30209605Y29044900D01*
X31207622Y28046883D01*
X31426554Y28187225D01*
X31567043Y28476159D01*
X31648465Y28786950D01*
X31667690Y29107653D01*
X31623980Y29425944D01*
X31519014Y29729593D01*
X31426554Y29902575D01*
X31207622Y30042917D01*
X30209605Y29044900D01*
X29850395Y29044900D01*
X28852378Y30042917D01*
X28633446Y29902575D01*
X28492957Y29613641D01*
X28411535Y29302850D01*
X28392310Y28982147D01*
X28161000Y28982147D01*
X28161000Y29205540D01*
X28098322Y29520645D01*
X27975374Y29817468D01*
X27796881Y30084602D01*
X27658961Y30222522D01*
X29031983Y30222522D01*
X30030000Y29224505D01*
X31028017Y30222522D01*
X30887675Y30441454D01*
X30598741Y30581943D01*
X30287950Y30663365D01*
X29967247Y30682590D01*
X29648956Y30638880D01*
X29345307Y30533914D01*
X29172325Y30441454D01*
X29031983Y30222522D01*
X27658961Y30222522D01*
X27569702Y30311781D01*
X27302568Y30490274D01*
X27005745Y30613222D01*
X26690640Y30675900D01*
X26369360Y30675900D01*
X26054255Y30613222D01*
X25757432Y30490274D01*
X25490298Y30311781D01*
X25263119Y30084602D01*
X25084626Y29817468D01*
X24961678Y29520645D01*
X24899000Y29205540D01*
X24899000Y28884260D01*
X24961678Y28569155D01*
X25084626Y28272332D01*
X25263119Y28005198D01*
X25455317Y27813000D01*
X23993223Y27813000D01*
X24028017Y27867278D01*
X23030000Y28865295D01*
X22031983Y27867278D01*
X22066777Y27813000D01*
X20604683Y27813000D01*
X20796881Y28005198D01*
X20975374Y28272332D01*
X21098322Y28569155D01*
X21161000Y28884260D01*
X21161000Y28982147D01*
X21392310Y28982147D01*
X21436020Y28663856D01*
X21540986Y28360207D01*
X21633446Y28187225D01*
X21852378Y28046883D01*
X22850395Y29044900D01*
X23209605Y29044900D01*
X24207622Y28046883D01*
X24426554Y28187225D01*
X24567043Y28476159D01*
X24648465Y28786950D01*
X24667690Y29107653D01*
X24623980Y29425944D01*
X24519014Y29729593D01*
X24426554Y29902575D01*
X24207622Y30042917D01*
X23209605Y29044900D01*
X22850395Y29044900D01*
X21852378Y30042917D01*
X21633446Y29902575D01*
X21492957Y29613641D01*
X21411535Y29302850D01*
X21392310Y28982147D01*
X21161000Y28982147D01*
X21161000Y29205540D01*
X21098322Y29520645D01*
X20975374Y29817468D01*
X20796881Y30084602D01*
X20658961Y30222522D01*
X22031983Y30222522D01*
X23030000Y29224505D01*
X24028017Y30222522D01*
X23887675Y30441454D01*
X23598741Y30581943D01*
X23287950Y30663365D01*
X22967247Y30682590D01*
X22648956Y30638880D01*
X22345307Y30533914D01*
X22172325Y30441454D01*
X22031983Y30222522D01*
X20658961Y30222522D01*
X20569702Y30311781D01*
X20302568Y30490274D01*
X20005745Y30613222D01*
X19690640Y30675900D01*
X19369360Y30675900D01*
X19054255Y30613222D01*
X18757432Y30490274D01*
X18490298Y30311781D01*
X18263119Y30084602D01*
X18084626Y29817468D01*
X17961678Y29520645D01*
X17899000Y29205540D01*
X17899000Y28884260D01*
X17961678Y28569155D01*
X18084626Y28272332D01*
X18263119Y28005198D01*
X18455317Y27813000D01*
X16993223Y27813000D01*
X17028017Y27867278D01*
X16030000Y28865295D01*
X15031983Y27867278D01*
X15066777Y27813000D01*
X13604683Y27813000D01*
X13796881Y28005198D01*
X13975374Y28272332D01*
X14098322Y28569155D01*
X14161000Y28884260D01*
X14161000Y28982147D01*
X14392310Y28982147D01*
X14436020Y28663856D01*
X14540986Y28360207D01*
X14633446Y28187225D01*
X14852378Y28046883D01*
X15850395Y29044900D01*
X16209605Y29044900D01*
X17207622Y28046883D01*
X17426554Y28187225D01*
X17567043Y28476159D01*
X17648465Y28786950D01*
X17667690Y29107653D01*
X17623980Y29425944D01*
X17519014Y29729593D01*
X17426554Y29902575D01*
X17207622Y30042917D01*
X16209605Y29044900D01*
X15850395Y29044900D01*
X14852378Y30042917D01*
X14633446Y29902575D01*
X14492957Y29613641D01*
X14411535Y29302850D01*
X14392310Y28982147D01*
X14161000Y28982147D01*
X14161000Y29205540D01*
X14098322Y29520645D01*
X13975374Y29817468D01*
X13796881Y30084602D01*
X13658961Y30222522D01*
X15031983Y30222522D01*
X16030000Y29224505D01*
X17028017Y30222522D01*
X16887675Y30441454D01*
X16598741Y30581943D01*
X16287950Y30663365D01*
X15967247Y30682590D01*
X15648956Y30638880D01*
X15345307Y30533914D01*
X15172325Y30441454D01*
X15031983Y30222522D01*
X13658961Y30222522D01*
X13569702Y30311781D01*
X13302568Y30490274D01*
X13005745Y30613222D01*
X12690640Y30675900D01*
X12369360Y30675900D01*
X12054255Y30613222D01*
X11757432Y30490274D01*
X11490298Y30311781D01*
X11263119Y30084602D01*
X11084626Y29817468D01*
X10961678Y29520645D01*
X10899000Y29205540D01*
X10899000Y28884260D01*
X10961678Y28569155D01*
X11084626Y28272332D01*
X11263119Y28005198D01*
X11455317Y27813000D01*
X10946944Y27813000D01*
X10922000Y27815457D01*
X10897056Y27813000D01*
X10897053Y27813000D01*
X10822415Y27805649D01*
X10726657Y27776601D01*
X10685576Y27754643D01*
X10638404Y27729429D01*
X10620886Y27715052D01*
X10561052Y27665948D01*
X10545150Y27646571D01*
X8548431Y25649851D01*
X8529053Y25633948D01*
X8513152Y25614572D01*
X8513150Y25614570D01*
X8465571Y25556595D01*
X8444942Y25518000D01*
X8418400Y25468343D01*
X8389353Y25372586D01*
X8389352Y25372584D01*
X8379543Y25273000D01*
X8382001Y25248046D01*
X8382001Y24998004D01*
X8306903Y24966898D01*
X8105283Y24832180D01*
X7933820Y24660717D01*
X7799102Y24459097D01*
X7706307Y24235069D01*
X7659000Y23997243D01*
X7659000Y23754757D01*
X7706307Y23516931D01*
X7799102Y23292903D01*
X7933820Y23091283D01*
X8105283Y22919820D01*
X8306903Y22785102D01*
X8530931Y22692307D01*
X8768757Y22645000D01*
X9011243Y22645000D01*
X9249069Y22692307D01*
X9473097Y22785102D01*
X9674717Y22919820D01*
X9846180Y23091283D01*
X9980898Y23292903D01*
X10073693Y23516931D01*
X10121000Y23754757D01*
X10121000Y23997243D01*
X10073693Y24235069D01*
X9980898Y24459097D01*
X9846180Y24660717D01*
X9674717Y24832180D01*
X9473097Y24966898D01*
X9398000Y24998004D01*
X9398000Y25062580D01*
X11132421Y26797000D01*
X19555910Y26797000D01*
X19533559Y26743040D01*
X19507204Y26610545D01*
X19507204Y26545456D01*
X19507198Y26545457D01*
X19482254Y26543000D01*
X16463867Y26543000D01*
X16439172Y26567695D01*
X16326848Y26642748D01*
X16202040Y26694445D01*
X16069545Y26720800D01*
X15934455Y26720800D01*
X15801960Y26694445D01*
X15677152Y26642748D01*
X15564828Y26567695D01*
X15469305Y26472172D01*
X15394252Y26359848D01*
X15342555Y26235040D01*
X15316200Y26102545D01*
X15316200Y25967455D01*
X15342555Y25834960D01*
X15364905Y25781001D01*
X12357973Y25781001D01*
X12343445Y25854040D01*
X12291748Y25978848D01*
X12216695Y26091172D01*
X12121172Y26186695D01*
X12008848Y26261748D01*
X11884040Y26313445D01*
X11751545Y26339800D01*
X11616455Y26339800D01*
X11483960Y26313445D01*
X11359152Y26261748D01*
X11246828Y26186695D01*
X11151305Y26091172D01*
X11076252Y25978848D01*
X11024555Y25854040D01*
X10998200Y25721545D01*
X10998200Y25586455D01*
X11024555Y25453960D01*
X11076252Y25329152D01*
X11151305Y25216828D01*
X11246828Y25121305D01*
X11277532Y25100789D01*
X11070931Y25059693D01*
X10846903Y24966898D01*
X10645283Y24832180D01*
X10473820Y24660717D01*
X10339102Y24459097D01*
X10246307Y24235069D01*
X10199000Y23997243D01*
X10199000Y23754757D01*
X10246307Y23516931D01*
X10339102Y23292903D01*
X10473820Y23091283D01*
X10645283Y22919820D01*
X10846903Y22785102D01*
X11070931Y22692307D01*
X11308757Y22645000D01*
X11551243Y22645000D01*
X11789069Y22692307D01*
X12013097Y22785102D01*
X12214717Y22919820D01*
X12386180Y23091283D01*
X12520898Y23292903D01*
X12613693Y23516931D01*
X12661000Y23754757D01*
X12661000Y23997243D01*
X12613693Y24235069D01*
X12520898Y24459097D01*
X12386180Y24660717D01*
X12281896Y24765001D01*
X13118104Y24765001D01*
X13013820Y24660717D01*
X12879102Y24459097D01*
X12786307Y24235069D01*
X12739000Y23997243D01*
X12739000Y23754757D01*
X12786307Y23516931D01*
X12879102Y23292903D01*
X13013820Y23091283D01*
X13185283Y22919820D01*
X13386903Y22785102D01*
X13610931Y22692307D01*
X13848757Y22645000D01*
X14091243Y22645000D01*
X14329069Y22692307D01*
X14553097Y22785102D01*
X14754717Y22919820D01*
X14926180Y23091283D01*
X15060898Y23292903D01*
X15153693Y23516931D01*
X15201000Y23754757D01*
X15201000Y23997243D01*
X15153693Y24235069D01*
X15060898Y24459097D01*
X14926180Y24660717D01*
X14821896Y24765001D01*
X15658104Y24765001D01*
X15553820Y24660717D01*
X15419102Y24459097D01*
X15326307Y24235069D01*
X15279000Y23997243D01*
X15279000Y23754757D01*
X15326307Y23516931D01*
X15419102Y23292903D01*
X15553820Y23091283D01*
X15725283Y22919820D01*
X15926903Y22785102D01*
X16150931Y22692307D01*
X16388757Y22645000D01*
X16631243Y22645000D01*
X16869069Y22692307D01*
X17093097Y22785102D01*
X17294717Y22919820D01*
X17466180Y23091283D01*
X17600898Y23292903D01*
X17693693Y23516931D01*
X17741000Y23754757D01*
X17741000Y23997243D01*
X17693693Y24235069D01*
X17600898Y24459097D01*
X17466180Y24660717D01*
X17361896Y24765001D01*
X18198104Y24765001D01*
X18093820Y24660717D01*
X17959102Y24459097D01*
X17866307Y24235069D01*
X17819000Y23997243D01*
X17819000Y23754757D01*
X17866307Y23516931D01*
X17959102Y23292903D01*
X18093820Y23091283D01*
X18265283Y22919820D01*
X18466903Y22785102D01*
X18690931Y22692307D01*
X18928757Y22645000D01*
X19171243Y22645000D01*
X19409069Y22692307D01*
X19633097Y22785102D01*
X19784760Y22886440D01*
X19784761Y21028462D01*
X19346970Y21466252D01*
X19329067Y21488067D01*
X19242045Y21559484D01*
X19142762Y21612552D01*
X19035034Y21645231D01*
X18951074Y21653500D01*
X18923000Y21656265D01*
X18894926Y21653500D01*
X14760071Y21653500D01*
X14731999Y21656265D01*
X14703927Y21653500D01*
X14703926Y21653500D01*
X14619966Y21645231D01*
X14512238Y21612552D01*
X14412955Y21559484D01*
X14402577Y21550967D01*
X14347190Y21654589D01*
X14268488Y21750488D01*
X14172589Y21829190D01*
X14063179Y21887671D01*
X13944462Y21923683D01*
X13821000Y21935843D01*
X13146000Y21935843D01*
X13022538Y21923683D01*
X12903821Y21887671D01*
X12794411Y21829190D01*
X12698512Y21750488D01*
X12619810Y21654589D01*
X12561329Y21545179D01*
X12525317Y21426462D01*
X12513157Y21303000D01*
X12513157Y20353000D01*
X12525317Y20229538D01*
X12561329Y20110821D01*
X12619810Y20001411D01*
X12698512Y19905512D01*
X12794411Y19826810D01*
X12903821Y19768329D01*
X13022538Y19732317D01*
X13146000Y19720157D01*
X13821000Y19720157D01*
X13944462Y19732317D01*
X14063179Y19768329D01*
X14172589Y19826810D01*
X14268488Y19905512D01*
X14347190Y20001411D01*
X14405671Y20110821D01*
X14441683Y20229538D01*
X14444339Y20256500D01*
X14449926Y20256500D01*
X14478000Y20253735D01*
X14506074Y20256500D01*
X14590034Y20264769D01*
X14697762Y20297448D01*
X14797045Y20350516D01*
X14884067Y20421933D01*
X14901970Y20443748D01*
X14968722Y20510500D01*
X15034433Y20510500D01*
X15014810Y20486589D01*
X14956329Y20377179D01*
X14920317Y20258462D01*
X14919753Y20252740D01*
X14873966Y20248231D01*
X14766238Y20215552D01*
X14666955Y20162484D01*
X14579933Y20091067D01*
X14562034Y20069257D01*
X13776244Y19283466D01*
X13754434Y19265567D01*
X13712461Y19214423D01*
X13683016Y19178544D01*
X13658314Y19132330D01*
X13629948Y19079262D01*
X13597269Y18971534D01*
X13596473Y18963455D01*
X13586235Y18859500D01*
X13589000Y18831426D01*
X13589000Y18588223D01*
X13352278Y18351500D01*
X8537074Y18351500D01*
X8621034Y18359769D01*
X8728762Y18392448D01*
X8828045Y18445516D01*
X8915067Y18516933D01*
X8932970Y18538748D01*
X9512257Y19118034D01*
X9534067Y19135933D01*
X9605484Y19222955D01*
X9658552Y19322238D01*
X9691231Y19429966D01*
X9699500Y19513926D01*
X9699500Y19513927D01*
X9702265Y19541999D01*
X9699500Y19570071D01*
X9699500Y19787056D01*
X9720179Y19793329D01*
X9829589Y19851810D01*
X9925488Y19930512D01*
X10004190Y20026411D01*
X10062671Y20135821D01*
X10098683Y20254538D01*
X10098876Y20256500D01*
X10447661Y20256500D01*
X10450317Y20229538D01*
X10486329Y20110821D01*
X10544810Y20001411D01*
X10623512Y19905512D01*
X10719411Y19826810D01*
X10828821Y19768329D01*
X10947538Y19732317D01*
X11071000Y19720157D01*
X11746000Y19720157D01*
X11869462Y19732317D01*
X11988179Y19768329D01*
X12097589Y19826810D01*
X12193488Y19905512D01*
X12272190Y20001411D01*
X12330671Y20110821D01*
X12366683Y20229538D01*
X12378843Y20353000D01*
X12378843Y21303000D01*
X12366683Y21426462D01*
X12330671Y21545179D01*
X12272190Y21654589D01*
X12193488Y21750488D01*
X12097589Y21829190D01*
X11988179Y21887671D01*
X11869462Y21923683D01*
X11746000Y21935843D01*
X11071000Y21935843D01*
X10947538Y21923683D01*
X10828821Y21887671D01*
X10719411Y21829190D01*
X10623512Y21750488D01*
X10544810Y21654589D01*
X10486329Y21545179D01*
X10450317Y21426462D01*
X10447661Y21399500D01*
X10098876Y21399500D01*
X10098683Y21401462D01*
X10062671Y21520179D01*
X10004190Y21629589D01*
X9925488Y21725488D01*
X9829589Y21804190D01*
X9720179Y21862671D01*
X9601462Y21898683D01*
X9478001Y21910843D01*
X8777999Y21910843D01*
X8654538Y21898683D01*
X8535821Y21862671D01*
X8426411Y21804190D01*
X8330512Y21725488D01*
X8251810Y21629589D01*
X8193329Y21520179D01*
X8157317Y21401462D01*
X8145157Y21278001D01*
X8145157Y20377999D01*
X8157317Y20254538D01*
X8193329Y20135821D01*
X8251810Y20026411D01*
X8330512Y19930512D01*
X8426411Y19851810D01*
X8535821Y19793329D01*
X8556501Y19787056D01*
X8556501Y19778724D01*
X8272278Y19494500D01*
X5978843Y19494500D01*
X5978843Y20128000D01*
X6145157Y20128000D01*
X6152513Y20053311D01*
X6174299Y19981492D01*
X6209678Y19915304D01*
X6257289Y19857289D01*
X6315304Y19809678D01*
X6381492Y19774299D01*
X6453311Y19752513D01*
X6528000Y19745157D01*
X6905750Y19747000D01*
X7001000Y19842250D01*
X7001000Y20701000D01*
X7255000Y20701000D01*
X7255000Y19842250D01*
X7350250Y19747000D01*
X7728000Y19745157D01*
X7802689Y19752513D01*
X7874508Y19774299D01*
X7940696Y19809678D01*
X7998711Y19857289D01*
X8046322Y19915304D01*
X8081701Y19981492D01*
X8103487Y20053311D01*
X8110843Y20128000D01*
X8109000Y20605750D01*
X8013750Y20701000D01*
X7255000Y20701000D01*
X7001000Y20701000D01*
X6242250Y20701000D01*
X6147000Y20605750D01*
X6145157Y20128000D01*
X5978843Y20128000D01*
X5978843Y21356000D01*
X5971487Y21430689D01*
X5949701Y21502508D01*
X5936075Y21528000D01*
X6145157Y21528000D01*
X6147000Y21050250D01*
X6242250Y20955000D01*
X7001000Y20955000D01*
X7001000Y21813750D01*
X7255000Y21813750D01*
X7255000Y20955000D01*
X8013750Y20955000D01*
X8109000Y21050250D01*
X8110843Y21528000D01*
X8103487Y21602689D01*
X8081701Y21674508D01*
X8046322Y21740696D01*
X7998711Y21798711D01*
X7940696Y21846322D01*
X7874508Y21881701D01*
X7802689Y21903487D01*
X7728000Y21910843D01*
X7350250Y21909000D01*
X7255000Y21813750D01*
X7001000Y21813750D01*
X6905750Y21909000D01*
X6528000Y21910843D01*
X6453311Y21903487D01*
X6381492Y21881701D01*
X6315304Y21846322D01*
X6257289Y21798711D01*
X6209678Y21740696D01*
X6174299Y21674508D01*
X6152513Y21602689D01*
X6145157Y21528000D01*
X5936075Y21528000D01*
X5914322Y21568696D01*
X5866711Y21626711D01*
X5808696Y21674322D01*
X5750947Y21705190D01*
X5757970Y21713748D01*
X5884962Y21840740D01*
X6734258Y22690035D01*
X6756067Y22707933D01*
X6760843Y22713752D01*
X6933097Y22785102D01*
X7134717Y22919820D01*
X7306180Y23091283D01*
X7440898Y23292903D01*
X7533693Y23516931D01*
X7581000Y23754757D01*
X7581000Y23997243D01*
X7533693Y24235069D01*
X7440898Y24459097D01*
X7306180Y24660717D01*
X7134717Y24832180D01*
X6933097Y24966898D01*
X6709069Y25059693D01*
X6471243Y25107000D01*
X6228757Y25107000D01*
X5990931Y25059693D01*
X5766903Y24966898D01*
X5565283Y24832180D01*
X5393820Y24660717D01*
X5259102Y24459097D01*
X5166307Y24235069D01*
X5119000Y23997243D01*
X5119000Y23754757D01*
X5166307Y23516931D01*
X5259102Y23292903D01*
X5393820Y23091283D01*
X5456440Y23028663D01*
X5097278Y22669500D01*
X3937002Y22669500D01*
X3937002Y22747372D01*
X4126980Y22686511D01*
X4207288Y22710866D01*
X4426961Y22810761D01*
X4622924Y22951592D01*
X4787647Y23127948D01*
X4914799Y23333051D01*
X4999495Y23559019D01*
X4939187Y23749000D01*
X3937000Y23749000D01*
X3937000Y23729000D01*
X3683000Y23729000D01*
X3683000Y23749000D01*
X2680813Y23749000D01*
X2620505Y23559019D01*
X2705201Y23333051D01*
X2832353Y23127948D01*
X2997076Y22951592D01*
X3193039Y22810761D01*
X3412712Y22710866D01*
X3493020Y22686511D01*
X3682998Y22747372D01*
X3682998Y22669500D01*
X3076071Y22669500D01*
X3047999Y22672265D01*
X3019927Y22669500D01*
X3019926Y22669500D01*
X2935966Y22661231D01*
X2828238Y22628552D01*
X2728955Y22575484D01*
X2641933Y22504067D01*
X2624030Y22482252D01*
X2369433Y22227655D01*
X2358403Y22264014D01*
X2287646Y22396391D01*
X2192423Y22512421D01*
X2163347Y22536283D01*
X2032000Y22667630D01*
X2032000Y22904641D01*
X2054717Y22919820D01*
X2226180Y23091283D01*
X2360898Y23292903D01*
X2453693Y23516931D01*
X2501000Y23754757D01*
X2501000Y23997243D01*
X2462065Y24192981D01*
X2620505Y24192981D01*
X2680813Y24003000D01*
X3683000Y24003000D01*
X3683000Y25004627D01*
X3937000Y25004627D01*
X3937000Y24003000D01*
X4939187Y24003000D01*
X4999495Y24192981D01*
X4914799Y24418949D01*
X4787647Y24624052D01*
X4622924Y24800408D01*
X4426961Y24941239D01*
X4207288Y25041134D01*
X4126980Y25065489D01*
X3937000Y25004627D01*
X3683000Y25004627D01*
X3493020Y25065489D01*
X3412712Y25041134D01*
X3193039Y24941239D01*
X2997076Y24800408D01*
X2832353Y24624052D01*
X2705201Y24418949D01*
X2620505Y24192981D01*
X2462065Y24192981D01*
X2453693Y24235069D01*
X2360898Y24459097D01*
X2226180Y24660717D01*
X2054717Y24832180D01*
X1905000Y24932218D01*
X1905000Y25098984D01*
X1962179Y25116329D01*
X2071589Y25174810D01*
X2167488Y25253512D01*
X2246190Y25349411D01*
X2304671Y25458821D01*
X2340683Y25577538D01*
X2352843Y25700999D01*
X2352843Y26351001D01*
X2340683Y26474462D01*
X2304671Y26593179D01*
X2246190Y26702589D01*
X2167488Y26798488D01*
X2071589Y26877190D01*
X1962179Y26935671D01*
X1843462Y26971683D01*
X1720001Y26983843D01*
X819999Y26983843D01*
X696538Y26971683D01*
X577821Y26935671D01*
X508000Y26898351D01*
X508000Y27203649D01*
X577821Y27166329D01*
X696538Y27130317D01*
X819999Y27118157D01*
X1720001Y27118157D01*
X1843462Y27130317D01*
X1962179Y27166329D01*
X2071589Y27224810D01*
X2164150Y27300773D01*
X2212960Y27280555D01*
X2345455Y27254200D01*
X2480545Y27254200D01*
X2613040Y27280555D01*
X2737848Y27332252D01*
X2850172Y27407305D01*
X2945695Y27502828D01*
X3020748Y27615152D01*
X3072445Y27739960D01*
X3098800Y27872455D01*
X3098800Y28007545D01*
X3072445Y28140040D01*
X3020748Y28264848D01*
X2945695Y28377172D01*
X2850172Y28472695D01*
X2737848Y28547748D01*
X2613040Y28599445D01*
X2480545Y28625800D01*
X2345455Y28625800D01*
X2311964Y28619138D01*
X2304671Y28643179D01*
X2246190Y28752589D01*
X2167488Y28848488D01*
X2071589Y28927190D01*
X1962179Y28985671D01*
X1843462Y29021683D01*
X1720001Y29033843D01*
X819999Y29033843D01*
X696538Y29021683D01*
X577821Y28985671D01*
X508000Y28948351D01*
X508000Y29205540D01*
X3899000Y29205540D01*
X3899000Y28884260D01*
X3961678Y28569155D01*
X4084626Y28272332D01*
X4263119Y28005198D01*
X4490298Y27778019D01*
X4757432Y27599526D01*
X5054255Y27476578D01*
X5369360Y27413900D01*
X5690640Y27413900D01*
X6005745Y27476578D01*
X6302568Y27599526D01*
X6569702Y27778019D01*
X6658961Y27867278D01*
X8031983Y27867278D01*
X8172325Y27648346D01*
X8461259Y27507857D01*
X8772050Y27426435D01*
X9092753Y27407210D01*
X9411044Y27450920D01*
X9714693Y27555886D01*
X9887675Y27648346D01*
X10028017Y27867278D01*
X9030000Y28865295D01*
X8031983Y27867278D01*
X6658961Y27867278D01*
X6796881Y28005198D01*
X6975374Y28272332D01*
X7098322Y28569155D01*
X7161000Y28884260D01*
X7161000Y28982147D01*
X7392310Y28982147D01*
X7436020Y28663856D01*
X7540986Y28360207D01*
X7633446Y28187225D01*
X7852378Y28046883D01*
X8850395Y29044900D01*
X9209605Y29044900D01*
X10207622Y28046883D01*
X10426554Y28187225D01*
X10567043Y28476159D01*
X10648465Y28786950D01*
X10667690Y29107653D01*
X10623980Y29425944D01*
X10519014Y29729593D01*
X10426554Y29902575D01*
X10207622Y30042917D01*
X9209605Y29044900D01*
X8850395Y29044900D01*
X7852378Y30042917D01*
X7633446Y29902575D01*
X7492957Y29613641D01*
X7411535Y29302850D01*
X7392310Y28982147D01*
X7161000Y28982147D01*
X7161000Y29205540D01*
X7098322Y29520645D01*
X6975374Y29817468D01*
X6796881Y30084602D01*
X6658961Y30222522D01*
X8031983Y30222522D01*
X9030000Y29224505D01*
X10028017Y30222522D01*
X9887675Y30441454D01*
X9598741Y30581943D01*
X9287950Y30663365D01*
X8967247Y30682590D01*
X8648956Y30638880D01*
X8345307Y30533914D01*
X8172325Y30441454D01*
X8031983Y30222522D01*
X6658961Y30222522D01*
X6569702Y30311781D01*
X6302568Y30490274D01*
X6005745Y30613222D01*
X5690640Y30675900D01*
X5369360Y30675900D01*
X5054255Y30613222D01*
X4757432Y30490274D01*
X4490298Y30311781D01*
X4263119Y30084602D01*
X4084626Y29817468D01*
X3961678Y29520645D01*
X3899000Y29205540D01*
X508000Y29205540D01*
X508000Y29968959D01*
X627632Y29789917D01*
X833917Y29583632D01*
X1076483Y29421555D01*
X1346008Y29309914D01*
X1632134Y29253000D01*
X1923866Y29253000D01*
X2209992Y29309914D01*
X2479517Y29421555D01*
X2722083Y29583632D01*
X2928368Y29789917D01*
X3090445Y30032483D01*
X3202086Y30302008D01*
X3259000Y30588134D01*
X3259000Y30879866D01*
X3202086Y31165992D01*
X3090445Y31435517D01*
X2928368Y31678083D01*
X2722083Y31884368D01*
X2543041Y32004000D01*
X33016959Y32004000D01*
X32837917Y31884368D01*
G04 #@! TA.AperFunction,Conductor*
D23*
G36*
X32837917Y31884368D02*
G01*
X32631632Y31678083D01*
X32469555Y31435517D01*
X32357914Y31165992D01*
X32301000Y30879866D01*
X32301000Y30588134D01*
X32357914Y30302008D01*
X32469555Y30032483D01*
X32631632Y29789917D01*
X32837917Y29583632D01*
X33080483Y29421555D01*
X33350008Y29309914D01*
X33636134Y29253000D01*
X33927866Y29253000D01*
X34213992Y29309914D01*
X34483517Y29421555D01*
X34726083Y29583632D01*
X34932368Y29789917D01*
X35052000Y29968959D01*
X35052000Y28948351D01*
X34982179Y28985671D01*
X34863462Y29021683D01*
X34740001Y29033843D01*
X33839999Y29033843D01*
X33716538Y29021683D01*
X33597821Y28985671D01*
X33488411Y28927190D01*
X33392512Y28848488D01*
X33313810Y28752589D01*
X33255329Y28643179D01*
X33248036Y28619136D01*
X33214548Y28625797D01*
X33079458Y28625797D01*
X32946963Y28599442D01*
X32822155Y28547745D01*
X32709831Y28472692D01*
X32614308Y28377169D01*
X32539255Y28264845D01*
X32487558Y28140037D01*
X32461203Y28007542D01*
X32461203Y27872452D01*
X32487558Y27739957D01*
X32539255Y27615149D01*
X32614308Y27502825D01*
X32709831Y27407302D01*
X32822155Y27332249D01*
X32946963Y27280552D01*
X33079458Y27254197D01*
X33214548Y27254197D01*
X33347043Y27280552D01*
X33395853Y27300770D01*
X33488411Y27224810D01*
X33597821Y27166329D01*
X33716538Y27130317D01*
X33839999Y27118157D01*
X34740001Y27118157D01*
X34863462Y27130317D01*
X34982179Y27166329D01*
X35052000Y27203649D01*
X35052000Y26898351D01*
X34982179Y26935671D01*
X34863462Y26971683D01*
X34740001Y26983843D01*
X33839999Y26983843D01*
X33716538Y26971683D01*
X33597821Y26935671D01*
X33488411Y26877190D01*
X33392512Y26798488D01*
X33313810Y26702589D01*
X33255329Y26593179D01*
X33237377Y26534000D01*
X32985421Y26534000D01*
X31872855Y27646565D01*
X31856948Y27665948D01*
X31779595Y27729429D01*
X31691343Y27776601D01*
X31595585Y27805649D01*
X31520947Y27813000D01*
X31520944Y27813000D01*
X31496000Y27815457D01*
X31471056Y27813000D01*
X30993223Y27813000D01*
X31028017Y27867278D01*
X30030000Y28865295D01*
X29031983Y27867278D01*
X29066777Y27813000D01*
X27604683Y27813000D01*
X27796881Y28005198D01*
X27975374Y28272332D01*
X28098322Y28569155D01*
X28161000Y28884260D01*
X28161000Y28982147D01*
X28392310Y28982147D01*
X28436020Y28663856D01*
X28540986Y28360207D01*
X28633446Y28187225D01*
X28852378Y28046883D01*
X29850395Y29044900D01*
X30209605Y29044900D01*
X31207622Y28046883D01*
X31426554Y28187225D01*
X31567043Y28476159D01*
X31648465Y28786950D01*
X31667690Y29107653D01*
X31623980Y29425944D01*
X31519014Y29729593D01*
X31426554Y29902575D01*
X31207622Y30042917D01*
X30209605Y29044900D01*
X29850395Y29044900D01*
X28852378Y30042917D01*
X28633446Y29902575D01*
X28492957Y29613641D01*
X28411535Y29302850D01*
X28392310Y28982147D01*
X28161000Y28982147D01*
X28161000Y29205540D01*
X28098322Y29520645D01*
X27975374Y29817468D01*
X27796881Y30084602D01*
X27658961Y30222522D01*
X29031983Y30222522D01*
X30030000Y29224505D01*
X31028017Y30222522D01*
X30887675Y30441454D01*
X30598741Y30581943D01*
X30287950Y30663365D01*
X29967247Y30682590D01*
X29648956Y30638880D01*
X29345307Y30533914D01*
X29172325Y30441454D01*
X29031983Y30222522D01*
X27658961Y30222522D01*
X27569702Y30311781D01*
X27302568Y30490274D01*
X27005745Y30613222D01*
X26690640Y30675900D01*
X26369360Y30675900D01*
X26054255Y30613222D01*
X25757432Y30490274D01*
X25490298Y30311781D01*
X25263119Y30084602D01*
X25084626Y29817468D01*
X24961678Y29520645D01*
X24899000Y29205540D01*
X24899000Y28884260D01*
X24961678Y28569155D01*
X25084626Y28272332D01*
X25263119Y28005198D01*
X25455317Y27813000D01*
X23993223Y27813000D01*
X24028017Y27867278D01*
X23030000Y28865295D01*
X22031983Y27867278D01*
X22066777Y27813000D01*
X20604683Y27813000D01*
X20796881Y28005198D01*
X20975374Y28272332D01*
X21098322Y28569155D01*
X21161000Y28884260D01*
X21161000Y28982147D01*
X21392310Y28982147D01*
X21436020Y28663856D01*
X21540986Y28360207D01*
X21633446Y28187225D01*
X21852378Y28046883D01*
X22850395Y29044900D01*
X23209605Y29044900D01*
X24207622Y28046883D01*
X24426554Y28187225D01*
X24567043Y28476159D01*
X24648465Y28786950D01*
X24667690Y29107653D01*
X24623980Y29425944D01*
X24519014Y29729593D01*
X24426554Y29902575D01*
X24207622Y30042917D01*
X23209605Y29044900D01*
X22850395Y29044900D01*
X21852378Y30042917D01*
X21633446Y29902575D01*
X21492957Y29613641D01*
X21411535Y29302850D01*
X21392310Y28982147D01*
X21161000Y28982147D01*
X21161000Y29205540D01*
X21098322Y29520645D01*
X20975374Y29817468D01*
X20796881Y30084602D01*
X20658961Y30222522D01*
X22031983Y30222522D01*
X23030000Y29224505D01*
X24028017Y30222522D01*
X23887675Y30441454D01*
X23598741Y30581943D01*
X23287950Y30663365D01*
X22967247Y30682590D01*
X22648956Y30638880D01*
X22345307Y30533914D01*
X22172325Y30441454D01*
X22031983Y30222522D01*
X20658961Y30222522D01*
X20569702Y30311781D01*
X20302568Y30490274D01*
X20005745Y30613222D01*
X19690640Y30675900D01*
X19369360Y30675900D01*
X19054255Y30613222D01*
X18757432Y30490274D01*
X18490298Y30311781D01*
X18263119Y30084602D01*
X18084626Y29817468D01*
X17961678Y29520645D01*
X17899000Y29205540D01*
X17899000Y28884260D01*
X17961678Y28569155D01*
X18084626Y28272332D01*
X18263119Y28005198D01*
X18455317Y27813000D01*
X16993223Y27813000D01*
X17028017Y27867278D01*
X16030000Y28865295D01*
X15031983Y27867278D01*
X15066777Y27813000D01*
X13604683Y27813000D01*
X13796881Y28005198D01*
X13975374Y28272332D01*
X14098322Y28569155D01*
X14161000Y28884260D01*
X14161000Y28982147D01*
X14392310Y28982147D01*
X14436020Y28663856D01*
X14540986Y28360207D01*
X14633446Y28187225D01*
X14852378Y28046883D01*
X15850395Y29044900D01*
X16209605Y29044900D01*
X17207622Y28046883D01*
X17426554Y28187225D01*
X17567043Y28476159D01*
X17648465Y28786950D01*
X17667690Y29107653D01*
X17623980Y29425944D01*
X17519014Y29729593D01*
X17426554Y29902575D01*
X17207622Y30042917D01*
X16209605Y29044900D01*
X15850395Y29044900D01*
X14852378Y30042917D01*
X14633446Y29902575D01*
X14492957Y29613641D01*
X14411535Y29302850D01*
X14392310Y28982147D01*
X14161000Y28982147D01*
X14161000Y29205540D01*
X14098322Y29520645D01*
X13975374Y29817468D01*
X13796881Y30084602D01*
X13658961Y30222522D01*
X15031983Y30222522D01*
X16030000Y29224505D01*
X17028017Y30222522D01*
X16887675Y30441454D01*
X16598741Y30581943D01*
X16287950Y30663365D01*
X15967247Y30682590D01*
X15648956Y30638880D01*
X15345307Y30533914D01*
X15172325Y30441454D01*
X15031983Y30222522D01*
X13658961Y30222522D01*
X13569702Y30311781D01*
X13302568Y30490274D01*
X13005745Y30613222D01*
X12690640Y30675900D01*
X12369360Y30675900D01*
X12054255Y30613222D01*
X11757432Y30490274D01*
X11490298Y30311781D01*
X11263119Y30084602D01*
X11084626Y29817468D01*
X10961678Y29520645D01*
X10899000Y29205540D01*
X10899000Y28884260D01*
X10961678Y28569155D01*
X11084626Y28272332D01*
X11263119Y28005198D01*
X11455317Y27813000D01*
X10946944Y27813000D01*
X10922000Y27815457D01*
X10897056Y27813000D01*
X10897053Y27813000D01*
X10822415Y27805649D01*
X10726657Y27776601D01*
X10685576Y27754643D01*
X10638404Y27729429D01*
X10620886Y27715052D01*
X10561052Y27665948D01*
X10545150Y27646571D01*
X8548431Y25649851D01*
X8529053Y25633948D01*
X8513152Y25614572D01*
X8513150Y25614570D01*
X8465571Y25556595D01*
X8444942Y25518000D01*
X8418400Y25468343D01*
X8389353Y25372586D01*
X8389352Y25372584D01*
X8379543Y25273000D01*
X8382001Y25248046D01*
X8382001Y24998004D01*
X8306903Y24966898D01*
X8105283Y24832180D01*
X7933820Y24660717D01*
X7799102Y24459097D01*
X7706307Y24235069D01*
X7659000Y23997243D01*
X7659000Y23754757D01*
X7706307Y23516931D01*
X7799102Y23292903D01*
X7933820Y23091283D01*
X8105283Y22919820D01*
X8306903Y22785102D01*
X8530931Y22692307D01*
X8768757Y22645000D01*
X9011243Y22645000D01*
X9249069Y22692307D01*
X9473097Y22785102D01*
X9674717Y22919820D01*
X9846180Y23091283D01*
X9980898Y23292903D01*
X10073693Y23516931D01*
X10121000Y23754757D01*
X10121000Y23997243D01*
X10073693Y24235069D01*
X9980898Y24459097D01*
X9846180Y24660717D01*
X9674717Y24832180D01*
X9473097Y24966898D01*
X9398000Y24998004D01*
X9398000Y25062580D01*
X11132421Y26797000D01*
X19555910Y26797000D01*
X19533559Y26743040D01*
X19507204Y26610545D01*
X19507204Y26545456D01*
X19507198Y26545457D01*
X19482254Y26543000D01*
X16463867Y26543000D01*
X16439172Y26567695D01*
X16326848Y26642748D01*
X16202040Y26694445D01*
X16069545Y26720800D01*
X15934455Y26720800D01*
X15801960Y26694445D01*
X15677152Y26642748D01*
X15564828Y26567695D01*
X15469305Y26472172D01*
X15394252Y26359848D01*
X15342555Y26235040D01*
X15316200Y26102545D01*
X15316200Y25967455D01*
X15342555Y25834960D01*
X15364905Y25781001D01*
X12357973Y25781001D01*
X12343445Y25854040D01*
X12291748Y25978848D01*
X12216695Y26091172D01*
X12121172Y26186695D01*
X12008848Y26261748D01*
X11884040Y26313445D01*
X11751545Y26339800D01*
X11616455Y26339800D01*
X11483960Y26313445D01*
X11359152Y26261748D01*
X11246828Y26186695D01*
X11151305Y26091172D01*
X11076252Y25978848D01*
X11024555Y25854040D01*
X10998200Y25721545D01*
X10998200Y25586455D01*
X11024555Y25453960D01*
X11076252Y25329152D01*
X11151305Y25216828D01*
X11246828Y25121305D01*
X11277532Y25100789D01*
X11070931Y25059693D01*
X10846903Y24966898D01*
X10645283Y24832180D01*
X10473820Y24660717D01*
X10339102Y24459097D01*
X10246307Y24235069D01*
X10199000Y23997243D01*
X10199000Y23754757D01*
X10246307Y23516931D01*
X10339102Y23292903D01*
X10473820Y23091283D01*
X10645283Y22919820D01*
X10846903Y22785102D01*
X11070931Y22692307D01*
X11308757Y22645000D01*
X11551243Y22645000D01*
X11789069Y22692307D01*
X12013097Y22785102D01*
X12214717Y22919820D01*
X12386180Y23091283D01*
X12520898Y23292903D01*
X12613693Y23516931D01*
X12661000Y23754757D01*
X12661000Y23997243D01*
X12613693Y24235069D01*
X12520898Y24459097D01*
X12386180Y24660717D01*
X12281896Y24765001D01*
X13118104Y24765001D01*
X13013820Y24660717D01*
X12879102Y24459097D01*
X12786307Y24235069D01*
X12739000Y23997243D01*
X12739000Y23754757D01*
X12786307Y23516931D01*
X12879102Y23292903D01*
X13013820Y23091283D01*
X13185283Y22919820D01*
X13386903Y22785102D01*
X13610931Y22692307D01*
X13848757Y22645000D01*
X14091243Y22645000D01*
X14329069Y22692307D01*
X14553097Y22785102D01*
X14754717Y22919820D01*
X14926180Y23091283D01*
X15060898Y23292903D01*
X15153693Y23516931D01*
X15201000Y23754757D01*
X15201000Y23997243D01*
X15153693Y24235069D01*
X15060898Y24459097D01*
X14926180Y24660717D01*
X14821896Y24765001D01*
X15658104Y24765001D01*
X15553820Y24660717D01*
X15419102Y24459097D01*
X15326307Y24235069D01*
X15279000Y23997243D01*
X15279000Y23754757D01*
X15326307Y23516931D01*
X15419102Y23292903D01*
X15553820Y23091283D01*
X15725283Y22919820D01*
X15926903Y22785102D01*
X16150931Y22692307D01*
X16388757Y22645000D01*
X16631243Y22645000D01*
X16869069Y22692307D01*
X17093097Y22785102D01*
X17294717Y22919820D01*
X17466180Y23091283D01*
X17600898Y23292903D01*
X17693693Y23516931D01*
X17741000Y23754757D01*
X17741000Y23997243D01*
X17693693Y24235069D01*
X17600898Y24459097D01*
X17466180Y24660717D01*
X17361896Y24765001D01*
X18198104Y24765001D01*
X18093820Y24660717D01*
X17959102Y24459097D01*
X17866307Y24235069D01*
X17819000Y23997243D01*
X17819000Y23754757D01*
X17866307Y23516931D01*
X17959102Y23292903D01*
X18093820Y23091283D01*
X18265283Y22919820D01*
X18466903Y22785102D01*
X18690931Y22692307D01*
X18928757Y22645000D01*
X19171243Y22645000D01*
X19409069Y22692307D01*
X19633097Y22785102D01*
X19784760Y22886440D01*
X19784761Y21028462D01*
X19346970Y21466252D01*
X19329067Y21488067D01*
X19242045Y21559484D01*
X19142762Y21612552D01*
X19035034Y21645231D01*
X18951074Y21653500D01*
X18923000Y21656265D01*
X18894926Y21653500D01*
X14760071Y21653500D01*
X14731999Y21656265D01*
X14703927Y21653500D01*
X14703926Y21653500D01*
X14619966Y21645231D01*
X14512238Y21612552D01*
X14412955Y21559484D01*
X14402577Y21550967D01*
X14347190Y21654589D01*
X14268488Y21750488D01*
X14172589Y21829190D01*
X14063179Y21887671D01*
X13944462Y21923683D01*
X13821000Y21935843D01*
X13146000Y21935843D01*
X13022538Y21923683D01*
X12903821Y21887671D01*
X12794411Y21829190D01*
X12698512Y21750488D01*
X12619810Y21654589D01*
X12561329Y21545179D01*
X12525317Y21426462D01*
X12513157Y21303000D01*
X12513157Y20353000D01*
X12525317Y20229538D01*
X12561329Y20110821D01*
X12619810Y20001411D01*
X12698512Y19905512D01*
X12794411Y19826810D01*
X12903821Y19768329D01*
X13022538Y19732317D01*
X13146000Y19720157D01*
X13821000Y19720157D01*
X13944462Y19732317D01*
X14063179Y19768329D01*
X14172589Y19826810D01*
X14268488Y19905512D01*
X14347190Y20001411D01*
X14405671Y20110821D01*
X14441683Y20229538D01*
X14444339Y20256500D01*
X14449926Y20256500D01*
X14478000Y20253735D01*
X14506074Y20256500D01*
X14590034Y20264769D01*
X14697762Y20297448D01*
X14797045Y20350516D01*
X14884067Y20421933D01*
X14901970Y20443748D01*
X14968722Y20510500D01*
X15034433Y20510500D01*
X15014810Y20486589D01*
X14956329Y20377179D01*
X14920317Y20258462D01*
X14919753Y20252740D01*
X14873966Y20248231D01*
X14766238Y20215552D01*
X14666955Y20162484D01*
X14579933Y20091067D01*
X14562034Y20069257D01*
X13776244Y19283466D01*
X13754434Y19265567D01*
X13712461Y19214423D01*
X13683016Y19178544D01*
X13658314Y19132330D01*
X13629948Y19079262D01*
X13597269Y18971534D01*
X13596473Y18963455D01*
X13586235Y18859500D01*
X13589000Y18831426D01*
X13589000Y18588223D01*
X13352278Y18351500D01*
X8537074Y18351500D01*
X8621034Y18359769D01*
X8728762Y18392448D01*
X8828045Y18445516D01*
X8915067Y18516933D01*
X8932970Y18538748D01*
X9512257Y19118034D01*
X9534067Y19135933D01*
X9605484Y19222955D01*
X9658552Y19322238D01*
X9691231Y19429966D01*
X9699500Y19513926D01*
X9699500Y19513927D01*
X9702265Y19541999D01*
X9699500Y19570071D01*
X9699500Y19787056D01*
X9720179Y19793329D01*
X9829589Y19851810D01*
X9925488Y19930512D01*
X10004190Y20026411D01*
X10062671Y20135821D01*
X10098683Y20254538D01*
X10098876Y20256500D01*
X10447661Y20256500D01*
X10450317Y20229538D01*
X10486329Y20110821D01*
X10544810Y20001411D01*
X10623512Y19905512D01*
X10719411Y19826810D01*
X10828821Y19768329D01*
X10947538Y19732317D01*
X11071000Y19720157D01*
X11746000Y19720157D01*
X11869462Y19732317D01*
X11988179Y19768329D01*
X12097589Y19826810D01*
X12193488Y19905512D01*
X12272190Y20001411D01*
X12330671Y20110821D01*
X12366683Y20229538D01*
X12378843Y20353000D01*
X12378843Y21303000D01*
X12366683Y21426462D01*
X12330671Y21545179D01*
X12272190Y21654589D01*
X12193488Y21750488D01*
X12097589Y21829190D01*
X11988179Y21887671D01*
X11869462Y21923683D01*
X11746000Y21935843D01*
X11071000Y21935843D01*
X10947538Y21923683D01*
X10828821Y21887671D01*
X10719411Y21829190D01*
X10623512Y21750488D01*
X10544810Y21654589D01*
X10486329Y21545179D01*
X10450317Y21426462D01*
X10447661Y21399500D01*
X10098876Y21399500D01*
X10098683Y21401462D01*
X10062671Y21520179D01*
X10004190Y21629589D01*
X9925488Y21725488D01*
X9829589Y21804190D01*
X9720179Y21862671D01*
X9601462Y21898683D01*
X9478001Y21910843D01*
X8777999Y21910843D01*
X8654538Y21898683D01*
X8535821Y21862671D01*
X8426411Y21804190D01*
X8330512Y21725488D01*
X8251810Y21629589D01*
X8193329Y21520179D01*
X8157317Y21401462D01*
X8145157Y21278001D01*
X8145157Y20377999D01*
X8157317Y20254538D01*
X8193329Y20135821D01*
X8251810Y20026411D01*
X8330512Y19930512D01*
X8426411Y19851810D01*
X8535821Y19793329D01*
X8556501Y19787056D01*
X8556501Y19778724D01*
X8272278Y19494500D01*
X5978843Y19494500D01*
X5978843Y20128000D01*
X6145157Y20128000D01*
X6152513Y20053311D01*
X6174299Y19981492D01*
X6209678Y19915304D01*
X6257289Y19857289D01*
X6315304Y19809678D01*
X6381492Y19774299D01*
X6453311Y19752513D01*
X6528000Y19745157D01*
X6905750Y19747000D01*
X7001000Y19842250D01*
X7001000Y20701000D01*
X7255000Y20701000D01*
X7255000Y19842250D01*
X7350250Y19747000D01*
X7728000Y19745157D01*
X7802689Y19752513D01*
X7874508Y19774299D01*
X7940696Y19809678D01*
X7998711Y19857289D01*
X8046322Y19915304D01*
X8081701Y19981492D01*
X8103487Y20053311D01*
X8110843Y20128000D01*
X8109000Y20605750D01*
X8013750Y20701000D01*
X7255000Y20701000D01*
X7001000Y20701000D01*
X6242250Y20701000D01*
X6147000Y20605750D01*
X6145157Y20128000D01*
X5978843Y20128000D01*
X5978843Y21356000D01*
X5971487Y21430689D01*
X5949701Y21502508D01*
X5936075Y21528000D01*
X6145157Y21528000D01*
X6147000Y21050250D01*
X6242250Y20955000D01*
X7001000Y20955000D01*
X7001000Y21813750D01*
X7255000Y21813750D01*
X7255000Y20955000D01*
X8013750Y20955000D01*
X8109000Y21050250D01*
X8110843Y21528000D01*
X8103487Y21602689D01*
X8081701Y21674508D01*
X8046322Y21740696D01*
X7998711Y21798711D01*
X7940696Y21846322D01*
X7874508Y21881701D01*
X7802689Y21903487D01*
X7728000Y21910843D01*
X7350250Y21909000D01*
X7255000Y21813750D01*
X7001000Y21813750D01*
X6905750Y21909000D01*
X6528000Y21910843D01*
X6453311Y21903487D01*
X6381492Y21881701D01*
X6315304Y21846322D01*
X6257289Y21798711D01*
X6209678Y21740696D01*
X6174299Y21674508D01*
X6152513Y21602689D01*
X6145157Y21528000D01*
X5936075Y21528000D01*
X5914322Y21568696D01*
X5866711Y21626711D01*
X5808696Y21674322D01*
X5750947Y21705190D01*
X5757970Y21713748D01*
X5884962Y21840740D01*
X6734258Y22690035D01*
X6756067Y22707933D01*
X6760843Y22713752D01*
X6933097Y22785102D01*
X7134717Y22919820D01*
X7306180Y23091283D01*
X7440898Y23292903D01*
X7533693Y23516931D01*
X7581000Y23754757D01*
X7581000Y23997243D01*
X7533693Y24235069D01*
X7440898Y24459097D01*
X7306180Y24660717D01*
X7134717Y24832180D01*
X6933097Y24966898D01*
X6709069Y25059693D01*
X6471243Y25107000D01*
X6228757Y25107000D01*
X5990931Y25059693D01*
X5766903Y24966898D01*
X5565283Y24832180D01*
X5393820Y24660717D01*
X5259102Y24459097D01*
X5166307Y24235069D01*
X5119000Y23997243D01*
X5119000Y23754757D01*
X5166307Y23516931D01*
X5259102Y23292903D01*
X5393820Y23091283D01*
X5456440Y23028663D01*
X5097278Y22669500D01*
X3937002Y22669500D01*
X3937002Y22747372D01*
X4126980Y22686511D01*
X4207288Y22710866D01*
X4426961Y22810761D01*
X4622924Y22951592D01*
X4787647Y23127948D01*
X4914799Y23333051D01*
X4999495Y23559019D01*
X4939187Y23749000D01*
X3937000Y23749000D01*
X3937000Y23729000D01*
X3683000Y23729000D01*
X3683000Y23749000D01*
X2680813Y23749000D01*
X2620505Y23559019D01*
X2705201Y23333051D01*
X2832353Y23127948D01*
X2997076Y22951592D01*
X3193039Y22810761D01*
X3412712Y22710866D01*
X3493020Y22686511D01*
X3682998Y22747372D01*
X3682998Y22669500D01*
X3076071Y22669500D01*
X3047999Y22672265D01*
X3019927Y22669500D01*
X3019926Y22669500D01*
X2935966Y22661231D01*
X2828238Y22628552D01*
X2728955Y22575484D01*
X2641933Y22504067D01*
X2624030Y22482252D01*
X2369433Y22227655D01*
X2358403Y22264014D01*
X2287646Y22396391D01*
X2192423Y22512421D01*
X2163347Y22536283D01*
X2032000Y22667630D01*
X2032000Y22904641D01*
X2054717Y22919820D01*
X2226180Y23091283D01*
X2360898Y23292903D01*
X2453693Y23516931D01*
X2501000Y23754757D01*
X2501000Y23997243D01*
X2462065Y24192981D01*
X2620505Y24192981D01*
X2680813Y24003000D01*
X3683000Y24003000D01*
X3683000Y25004627D01*
X3937000Y25004627D01*
X3937000Y24003000D01*
X4939187Y24003000D01*
X4999495Y24192981D01*
X4914799Y24418949D01*
X4787647Y24624052D01*
X4622924Y24800408D01*
X4426961Y24941239D01*
X4207288Y25041134D01*
X4126980Y25065489D01*
X3937000Y25004627D01*
X3683000Y25004627D01*
X3493020Y25065489D01*
X3412712Y25041134D01*
X3193039Y24941239D01*
X2997076Y24800408D01*
X2832353Y24624052D01*
X2705201Y24418949D01*
X2620505Y24192981D01*
X2462065Y24192981D01*
X2453693Y24235069D01*
X2360898Y24459097D01*
X2226180Y24660717D01*
X2054717Y24832180D01*
X1905000Y24932218D01*
X1905000Y25098984D01*
X1962179Y25116329D01*
X2071589Y25174810D01*
X2167488Y25253512D01*
X2246190Y25349411D01*
X2304671Y25458821D01*
X2340683Y25577538D01*
X2352843Y25700999D01*
X2352843Y26351001D01*
X2340683Y26474462D01*
X2304671Y26593179D01*
X2246190Y26702589D01*
X2167488Y26798488D01*
X2071589Y26877190D01*
X1962179Y26935671D01*
X1843462Y26971683D01*
X1720001Y26983843D01*
X819999Y26983843D01*
X696538Y26971683D01*
X577821Y26935671D01*
X508000Y26898351D01*
X508000Y27203649D01*
X577821Y27166329D01*
X696538Y27130317D01*
X819999Y27118157D01*
X1720001Y27118157D01*
X1843462Y27130317D01*
X1962179Y27166329D01*
X2071589Y27224810D01*
X2164150Y27300773D01*
X2212960Y27280555D01*
X2345455Y27254200D01*
X2480545Y27254200D01*
X2613040Y27280555D01*
X2737848Y27332252D01*
X2850172Y27407305D01*
X2945695Y27502828D01*
X3020748Y27615152D01*
X3072445Y27739960D01*
X3098800Y27872455D01*
X3098800Y28007545D01*
X3072445Y28140040D01*
X3020748Y28264848D01*
X2945695Y28377172D01*
X2850172Y28472695D01*
X2737848Y28547748D01*
X2613040Y28599445D01*
X2480545Y28625800D01*
X2345455Y28625800D01*
X2311964Y28619138D01*
X2304671Y28643179D01*
X2246190Y28752589D01*
X2167488Y28848488D01*
X2071589Y28927190D01*
X1962179Y28985671D01*
X1843462Y29021683D01*
X1720001Y29033843D01*
X819999Y29033843D01*
X696538Y29021683D01*
X577821Y28985671D01*
X508000Y28948351D01*
X508000Y29205540D01*
X3899000Y29205540D01*
X3899000Y28884260D01*
X3961678Y28569155D01*
X4084626Y28272332D01*
X4263119Y28005198D01*
X4490298Y27778019D01*
X4757432Y27599526D01*
X5054255Y27476578D01*
X5369360Y27413900D01*
X5690640Y27413900D01*
X6005745Y27476578D01*
X6302568Y27599526D01*
X6569702Y27778019D01*
X6658961Y27867278D01*
X8031983Y27867278D01*
X8172325Y27648346D01*
X8461259Y27507857D01*
X8772050Y27426435D01*
X9092753Y27407210D01*
X9411044Y27450920D01*
X9714693Y27555886D01*
X9887675Y27648346D01*
X10028017Y27867278D01*
X9030000Y28865295D01*
X8031983Y27867278D01*
X6658961Y27867278D01*
X6796881Y28005198D01*
X6975374Y28272332D01*
X7098322Y28569155D01*
X7161000Y28884260D01*
X7161000Y28982147D01*
X7392310Y28982147D01*
X7436020Y28663856D01*
X7540986Y28360207D01*
X7633446Y28187225D01*
X7852378Y28046883D01*
X8850395Y29044900D01*
X9209605Y29044900D01*
X10207622Y28046883D01*
X10426554Y28187225D01*
X10567043Y28476159D01*
X10648465Y28786950D01*
X10667690Y29107653D01*
X10623980Y29425944D01*
X10519014Y29729593D01*
X10426554Y29902575D01*
X10207622Y30042917D01*
X9209605Y29044900D01*
X8850395Y29044900D01*
X7852378Y30042917D01*
X7633446Y29902575D01*
X7492957Y29613641D01*
X7411535Y29302850D01*
X7392310Y28982147D01*
X7161000Y28982147D01*
X7161000Y29205540D01*
X7098322Y29520645D01*
X6975374Y29817468D01*
X6796881Y30084602D01*
X6658961Y30222522D01*
X8031983Y30222522D01*
X9030000Y29224505D01*
X10028017Y30222522D01*
X9887675Y30441454D01*
X9598741Y30581943D01*
X9287950Y30663365D01*
X8967247Y30682590D01*
X8648956Y30638880D01*
X8345307Y30533914D01*
X8172325Y30441454D01*
X8031983Y30222522D01*
X6658961Y30222522D01*
X6569702Y30311781D01*
X6302568Y30490274D01*
X6005745Y30613222D01*
X5690640Y30675900D01*
X5369360Y30675900D01*
X5054255Y30613222D01*
X4757432Y30490274D01*
X4490298Y30311781D01*
X4263119Y30084602D01*
X4084626Y29817468D01*
X3961678Y29520645D01*
X3899000Y29205540D01*
X508000Y29205540D01*
X508000Y29968959D01*
X627632Y29789917D01*
X833917Y29583632D01*
X1076483Y29421555D01*
X1346008Y29309914D01*
X1632134Y29253000D01*
X1923866Y29253000D01*
X2209992Y29309914D01*
X2479517Y29421555D01*
X2722083Y29583632D01*
X2928368Y29789917D01*
X3090445Y30032483D01*
X3202086Y30302008D01*
X3259000Y30588134D01*
X3259000Y30879866D01*
X3202086Y31165992D01*
X3090445Y31435517D01*
X2928368Y31678083D01*
X2722083Y31884368D01*
X2543041Y32004000D01*
X33016959Y32004000D01*
X32837917Y31884368D01*
G37*
G04 #@! TD.AperFunction*
D22*
X23113917Y18494625D02*
X23077462Y18505683D01*
X22954000Y18517843D01*
X22533060Y18517843D01*
X22565417Y18595960D01*
X22591772Y18728455D01*
X22591772Y18763380D01*
X25799392Y21971000D01*
X26590291Y21971000D01*
X23113917Y18494625D01*
G04 #@! TA.AperFunction,Conductor*
D23*
G36*
X23113917Y18494625D02*
G01*
X23077462Y18505683D01*
X22954000Y18517843D01*
X22533060Y18517843D01*
X22565417Y18595960D01*
X22591772Y18728455D01*
X22591772Y18763380D01*
X25799392Y21971000D01*
X26590291Y21971000D01*
X23113917Y18494625D01*
G37*
G04 #@! TD.AperFunction*
M02*
