G04 #@! TF.GenerationSoftware,KiCad,Pcbnew,(5.1.5)-3*
G04 #@! TF.CreationDate,2019-12-29T19:45:59-08:00*
G04 #@! TF.ProjectId,teensy40-sd-adapter,7465656e-7379-4343-902d-73642d616461,rev?*
G04 #@! TF.SameCoordinates,Original*
G04 #@! TF.FileFunction,Legend,Bot*
G04 #@! TF.FilePolarity,Positive*
%FSLAX46Y46*%
G04 Gerber Fmt 4.6, Leading zero omitted, Abs format (unit mm)*
G04 Created by KiCad (PCBNEW (5.1.5)-3) date 2019-12-29 19:45:59*
%MOMM*%
%LPD*%
G04 APERTURE LIST*
%ADD10C,0.120000*%
%ADD11C,0.150000*%
G04 APERTURE END LIST*
D10*
X126300000Y-91100000D02*
X128200000Y-89200000D01*
X128200000Y-89200000D02*
X136050000Y-89200000D01*
X136050000Y-89200000D02*
X136050000Y-101250000D01*
X136050000Y-101250000D02*
X128200000Y-101250000D01*
X128200000Y-101250000D02*
X126350000Y-99400000D01*
D11*
X133447619Y-99177380D02*
X133447619Y-98605952D01*
X132447619Y-98891666D02*
X133447619Y-98891666D01*
X132495238Y-97891666D02*
X132447619Y-97986904D01*
X132447619Y-98177380D01*
X132495238Y-98272619D01*
X132590476Y-98320238D01*
X132971428Y-98320238D01*
X133066666Y-98272619D01*
X133114285Y-98177380D01*
X133114285Y-97986904D01*
X133066666Y-97891666D01*
X132971428Y-97844047D01*
X132876190Y-97844047D01*
X132780952Y-98320238D01*
X132495238Y-97034523D02*
X132447619Y-97129761D01*
X132447619Y-97320238D01*
X132495238Y-97415476D01*
X132590476Y-97463095D01*
X132971428Y-97463095D01*
X133066666Y-97415476D01*
X133114285Y-97320238D01*
X133114285Y-97129761D01*
X133066666Y-97034523D01*
X132971428Y-96986904D01*
X132876190Y-96986904D01*
X132780952Y-97463095D01*
X133114285Y-96558333D02*
X132447619Y-96558333D01*
X133019047Y-96558333D02*
X133066666Y-96510714D01*
X133114285Y-96415476D01*
X133114285Y-96272619D01*
X133066666Y-96177380D01*
X132971428Y-96129761D01*
X132447619Y-96129761D01*
X132495238Y-95701190D02*
X132447619Y-95605952D01*
X132447619Y-95415476D01*
X132495238Y-95320238D01*
X132590476Y-95272619D01*
X132638095Y-95272619D01*
X132733333Y-95320238D01*
X132780952Y-95415476D01*
X132780952Y-95558333D01*
X132828571Y-95653571D01*
X132923809Y-95701190D01*
X132971428Y-95701190D01*
X133066666Y-95653571D01*
X133114285Y-95558333D01*
X133114285Y-95415476D01*
X133066666Y-95320238D01*
X133114285Y-94939285D02*
X132447619Y-94701190D01*
X133114285Y-94463095D02*
X132447619Y-94701190D01*
X132209523Y-94796428D01*
X132161904Y-94844047D01*
X132114285Y-94939285D01*
X133114285Y-92891666D02*
X132447619Y-92891666D01*
X133495238Y-93129761D02*
X132780952Y-93367857D01*
X132780952Y-92748809D01*
X132542857Y-92367857D02*
X132495238Y-92320238D01*
X132447619Y-92367857D01*
X132495238Y-92415476D01*
X132542857Y-92367857D01*
X132447619Y-92367857D01*
X133447619Y-91701190D02*
X133447619Y-91605952D01*
X133400000Y-91510714D01*
X133352380Y-91463095D01*
X133257142Y-91415476D01*
X133066666Y-91367857D01*
X132828571Y-91367857D01*
X132638095Y-91415476D01*
X132542857Y-91463095D01*
X132495238Y-91510714D01*
X132447619Y-91605952D01*
X132447619Y-91701190D01*
X132495238Y-91796428D01*
X132542857Y-91844047D01*
X132638095Y-91891666D01*
X132828571Y-91939285D01*
X133066666Y-91939285D01*
X133257142Y-91891666D01*
X133352380Y-91844047D01*
X133400000Y-91796428D01*
X133447619Y-91701190D01*
X130797619Y-98058333D02*
X131464285Y-98058333D01*
X131369047Y-98058333D02*
X131416666Y-98010714D01*
X131464285Y-97915476D01*
X131464285Y-97772619D01*
X131416666Y-97677380D01*
X131321428Y-97629761D01*
X130797619Y-97629761D01*
X131321428Y-97629761D02*
X131416666Y-97582142D01*
X131464285Y-97486904D01*
X131464285Y-97344047D01*
X131416666Y-97248809D01*
X131321428Y-97201190D01*
X130797619Y-97201190D01*
X130797619Y-96725000D02*
X131464285Y-96725000D01*
X131797619Y-96725000D02*
X131750000Y-96772619D01*
X131702380Y-96725000D01*
X131750000Y-96677380D01*
X131797619Y-96725000D01*
X131702380Y-96725000D01*
X130845238Y-95820238D02*
X130797619Y-95915476D01*
X130797619Y-96105952D01*
X130845238Y-96201190D01*
X130892857Y-96248809D01*
X130988095Y-96296428D01*
X131273809Y-96296428D01*
X131369047Y-96248809D01*
X131416666Y-96201190D01*
X131464285Y-96105952D01*
X131464285Y-95915476D01*
X131416666Y-95820238D01*
X130797619Y-95391666D02*
X131464285Y-95391666D01*
X131273809Y-95391666D02*
X131369047Y-95344047D01*
X131416666Y-95296428D01*
X131464285Y-95201190D01*
X131464285Y-95105952D01*
X130797619Y-94629761D02*
X130845238Y-94725000D01*
X130892857Y-94772619D01*
X130988095Y-94820238D01*
X131273809Y-94820238D01*
X131369047Y-94772619D01*
X131416666Y-94725000D01*
X131464285Y-94629761D01*
X131464285Y-94486904D01*
X131416666Y-94391666D01*
X131369047Y-94344047D01*
X131273809Y-94296428D01*
X130988095Y-94296428D01*
X130892857Y-94344047D01*
X130845238Y-94391666D01*
X130797619Y-94486904D01*
X130797619Y-94629761D01*
X130845238Y-93915476D02*
X130797619Y-93772619D01*
X130797619Y-93534523D01*
X130845238Y-93439285D01*
X130892857Y-93391666D01*
X130988095Y-93344047D01*
X131083333Y-93344047D01*
X131178571Y-93391666D01*
X131226190Y-93439285D01*
X131273809Y-93534523D01*
X131321428Y-93725000D01*
X131369047Y-93820238D01*
X131416666Y-93867857D01*
X131511904Y-93915476D01*
X131607142Y-93915476D01*
X131702380Y-93867857D01*
X131750000Y-93820238D01*
X131797619Y-93725000D01*
X131797619Y-93486904D01*
X131750000Y-93344047D01*
X130797619Y-92915476D02*
X131797619Y-92915476D01*
X131797619Y-92677380D01*
X131750000Y-92534523D01*
X131654761Y-92439285D01*
X131559523Y-92391666D01*
X131369047Y-92344047D01*
X131226190Y-92344047D01*
X131035714Y-92391666D01*
X130940476Y-92439285D01*
X130845238Y-92534523D01*
X130797619Y-92677380D01*
X130797619Y-92915476D01*
X129433333Y-97844047D02*
X129433333Y-97367857D01*
X129147619Y-97939285D02*
X130147619Y-97605952D01*
X129147619Y-97272619D01*
X129147619Y-96510714D02*
X130147619Y-96510714D01*
X129195238Y-96510714D02*
X129147619Y-96605952D01*
X129147619Y-96796428D01*
X129195238Y-96891666D01*
X129242857Y-96939285D01*
X129338095Y-96986904D01*
X129623809Y-96986904D01*
X129719047Y-96939285D01*
X129766666Y-96891666D01*
X129814285Y-96796428D01*
X129814285Y-96605952D01*
X129766666Y-96510714D01*
X129147619Y-95605952D02*
X129671428Y-95605952D01*
X129766666Y-95653571D01*
X129814285Y-95748809D01*
X129814285Y-95939285D01*
X129766666Y-96034523D01*
X129195238Y-95605952D02*
X129147619Y-95701190D01*
X129147619Y-95939285D01*
X129195238Y-96034523D01*
X129290476Y-96082142D01*
X129385714Y-96082142D01*
X129480952Y-96034523D01*
X129528571Y-95939285D01*
X129528571Y-95701190D01*
X129576190Y-95605952D01*
X129814285Y-95129761D02*
X128814285Y-95129761D01*
X129766666Y-95129761D02*
X129814285Y-95034523D01*
X129814285Y-94844047D01*
X129766666Y-94748809D01*
X129719047Y-94701190D01*
X129623809Y-94653571D01*
X129338095Y-94653571D01*
X129242857Y-94701190D01*
X129195238Y-94748809D01*
X129147619Y-94844047D01*
X129147619Y-95034523D01*
X129195238Y-95129761D01*
X129814285Y-94367857D02*
X129814285Y-93986904D01*
X130147619Y-94225000D02*
X129290476Y-94225000D01*
X129195238Y-94177380D01*
X129147619Y-94082142D01*
X129147619Y-93986904D01*
X129195238Y-93272619D02*
X129147619Y-93367857D01*
X129147619Y-93558333D01*
X129195238Y-93653571D01*
X129290476Y-93701190D01*
X129671428Y-93701190D01*
X129766666Y-93653571D01*
X129814285Y-93558333D01*
X129814285Y-93367857D01*
X129766666Y-93272619D01*
X129671428Y-93225000D01*
X129576190Y-93225000D01*
X129480952Y-93701190D01*
X129147619Y-92796428D02*
X129814285Y-92796428D01*
X129623809Y-92796428D02*
X129719047Y-92748809D01*
X129766666Y-92701190D01*
X129814285Y-92605952D01*
X129814285Y-92510714D01*
M02*
