M48
; DRILL file {KiCad (5.1.5)-3} date 12/30/2019 11:01:46 PM
; FORMAT={-:-/ absolute / inch / decimal}
; #@! TF.CreationDate,2019-12-30T23:01:46-08:00
; #@! TF.GenerationSoftware,Kicad,Pcbnew,(5.1.5)-3
FMAT,2
INCH
T1C0.0150
T2C0.0200
T3C0.0394
T4C0.0866
%
G90
G05
T1
X4.4251Y-2.0199
X4.4251Y-2.6299
X4.4251Y-3.2399
X4.4251Y-3.8499
X4.4251Y-4.4599
X4.4251Y-5.0699
X5.1351Y-2.0199
X5.1351Y-2.6299
X5.1351Y-3.2399
X5.1351Y-3.8499
X5.1351Y-4.4599
X5.1351Y-5.0699
X5.8451Y-2.0199
X5.8451Y-2.6299
X5.8451Y-3.2399
X5.8451Y-3.8499
X5.8451Y-4.4599
X5.8451Y-5.0699
X6.5551Y-2.0199
X6.5551Y-2.6299
X6.5551Y-3.2399
X6.5551Y-3.8499
X6.5551Y-4.4599
X6.5551Y-5.0699
X7.2651Y-2.0199
X7.2651Y-2.6299
X7.2651Y-3.2399
X7.2651Y-3.8499
X7.2651Y-4.4599
X7.2651Y-5.0699
T2
X4.1601Y-2.0199
X4.1601Y-2.6299
X4.1601Y-3.2399
X4.1601Y-3.8499
X4.1601Y-4.4599
X4.1601Y-5.0699
X4.2651Y-1.82
X4.2651Y-2.43
X4.2651Y-3.04
X4.2651Y-3.65
X4.2651Y-4.26
X4.2651Y-4.87
X4.2751Y-2.2199
X4.2751Y-2.8299
X4.2751Y-3.4399
X4.2751Y-4.0499
X4.2751Y-4.6599
X4.2751Y-5.2699
X4.3001Y-2.0199
X4.3001Y-2.6299
X4.3001Y-3.2399
X4.3001Y-3.8499
X4.3001Y-4.4599
X4.3001Y-5.0699
X4.3251Y-2.2699
X4.3251Y-2.8799
X4.3251Y-3.4899
X4.3251Y-4.0999
X4.3251Y-4.7099
X4.3251Y-5.3199
X4.4751Y-1.92
X4.4751Y-2.12
X4.4751Y-2.53
X4.4751Y-2.73
X4.4751Y-3.14
X4.4751Y-3.34
X4.4751Y-3.75
X4.4751Y-3.95
X4.4751Y-4.36
X4.4751Y-4.56
X4.4751Y-4.97
X4.4751Y-5.17
X4.8701Y-2.0199
X4.8701Y-2.6299
X4.8701Y-3.2399
X4.8701Y-3.8499
X4.8701Y-4.4599
X4.8701Y-5.0699
X4.9751Y-1.82
X4.9751Y-2.43
X4.9751Y-3.04
X4.9751Y-3.65
X4.9751Y-4.26
X4.9751Y-4.87
X4.9851Y-2.2199
X4.9851Y-2.8299
X4.9851Y-3.4399
X4.9851Y-4.0499
X4.9851Y-4.6599
X4.9851Y-5.2699
X5.0101Y-2.0199
X5.0101Y-2.6299
X5.0101Y-3.2399
X5.0101Y-3.8499
X5.0101Y-4.4599
X5.0101Y-5.0699
X5.0351Y-2.2699
X5.0351Y-2.8799
X5.0351Y-3.4899
X5.0351Y-4.0999
X5.0351Y-4.7099
X5.0351Y-5.3199
X5.1851Y-1.92
X5.1851Y-2.12
X5.1851Y-2.53
X5.1851Y-2.73
X5.1851Y-3.14
X5.1851Y-3.34
X5.1851Y-3.75
X5.1851Y-3.95
X5.1851Y-4.36
X5.1851Y-4.56
X5.1851Y-4.97
X5.1851Y-5.17
X5.5801Y-2.0199
X5.5801Y-2.6299
X5.5801Y-3.2399
X5.5801Y-3.8499
X5.5801Y-4.4599
X5.5801Y-5.0699
X5.6851Y-1.82
X5.6851Y-2.43
X5.6851Y-3.04
X5.6851Y-3.65
X5.6851Y-4.26
X5.6851Y-4.87
X5.6951Y-2.2199
X5.6951Y-2.8299
X5.6951Y-3.4399
X5.6951Y-4.0499
X5.6951Y-4.6599
X5.6951Y-5.2699
X5.7201Y-2.0199
X5.7201Y-2.6299
X5.7201Y-3.2399
X5.7201Y-3.8499
X5.7201Y-4.4599
X5.7201Y-5.0699
X5.7451Y-2.2699
X5.7451Y-2.8799
X5.7451Y-3.4899
X5.7451Y-4.0999
X5.7451Y-4.7099
X5.7451Y-5.3199
X5.8951Y-1.92
X5.8951Y-2.12
X5.8951Y-2.53
X5.8951Y-2.73
X5.8951Y-3.14
X5.8951Y-3.34
X5.8951Y-3.75
X5.8951Y-3.95
X5.8951Y-4.36
X5.8951Y-4.56
X5.8951Y-4.97
X5.8951Y-5.17
X6.2901Y-2.0199
X6.2901Y-2.6299
X6.2901Y-3.2399
X6.2901Y-3.8499
X6.2901Y-4.4599
X6.2901Y-5.0699
X6.3951Y-1.82
X6.3951Y-2.43
X6.3951Y-3.04
X6.3951Y-3.65
X6.3951Y-4.26
X6.3951Y-4.87
X6.4051Y-2.2199
X6.4051Y-2.8299
X6.4051Y-3.4399
X6.4051Y-4.0499
X6.4051Y-4.6599
X6.4051Y-5.2699
X6.4301Y-2.0199
X6.4301Y-2.6299
X6.4301Y-3.2399
X6.4301Y-3.8499
X6.4301Y-4.4599
X6.4301Y-5.0699
X6.4551Y-2.2699
X6.4551Y-2.8799
X6.4551Y-3.4899
X6.4551Y-4.0999
X6.4551Y-4.7099
X6.4551Y-5.3199
X6.6051Y-1.92
X6.6051Y-2.12
X6.6051Y-2.53
X6.6051Y-2.73
X6.6051Y-3.14
X6.6051Y-3.34
X6.6051Y-3.75
X6.6051Y-3.95
X6.6051Y-4.36
X6.6051Y-4.56
X6.6051Y-4.97
X6.6051Y-5.17
X7.0001Y-2.0199
X7.0001Y-2.6299
X7.0001Y-3.2399
X7.0001Y-3.8499
X7.0001Y-4.4599
X7.0001Y-5.0699
X7.1051Y-1.82
X7.1051Y-2.43
X7.1051Y-3.04
X7.1051Y-3.65
X7.1051Y-4.26
X7.1051Y-4.87
X7.1151Y-2.2199
X7.1151Y-2.8299
X7.1151Y-3.4399
X7.1151Y-4.0499
X7.1151Y-4.6599
X7.1151Y-5.2699
X7.1401Y-2.0199
X7.1401Y-2.6299
X7.1401Y-3.2399
X7.1401Y-3.8499
X7.1401Y-4.4599
X7.1401Y-5.0699
X7.1651Y-2.2699
X7.1651Y-2.8799
X7.1651Y-3.4899
X7.1651Y-4.0999
X7.1651Y-4.7099
X7.1651Y-5.3199
X7.3151Y-1.92
X7.3151Y-2.12
X7.3151Y-2.53
X7.3151Y-2.73
X7.3151Y-3.14
X7.3151Y-3.34
X7.3151Y-3.75
X7.3151Y-3.95
X7.3151Y-4.36
X7.3151Y-4.56
X7.3151Y-4.97
X7.3151Y-5.17
T3
X5.42Y-2.38
X5.42Y-2.48
X5.42Y-2.58
X5.42Y-2.68
X5.42Y-2.78
X5.42Y-2.88
X6.13Y-1.77
X6.13Y-1.87
X6.13Y-1.97
X6.13Y-2.07
X6.13Y-2.17
X6.13Y-2.27
X6.73Y-3.6
X6.73Y-3.7
X6.73Y-3.8
X6.73Y-3.9
X6.73Y-4.0
X6.73Y-4.1
X7.44Y-2.99
X7.44Y-3.09
X7.44Y-3.19
X7.44Y-3.29
X7.44Y-3.39
X7.44Y-3.49
X7.44Y-3.6
X7.44Y-3.7
X7.44Y-3.8
X7.44Y-3.9
X7.44Y-4.0
X7.44Y-4.1
X5.42Y-2.99
X5.42Y-3.09
X5.42Y-3.19
X5.42Y-3.29
X5.42Y-3.39
X5.42Y-3.49
X4.71Y-3.6
X4.71Y-3.7
X4.71Y-3.8
X4.71Y-3.9
X4.71Y-4.0
X4.71Y-4.1
X6.02Y-4.82
X6.02Y-4.92
X6.02Y-5.02
X6.02Y-5.12
X6.02Y-5.22
X6.02Y-5.32
X6.73Y-4.21
X6.73Y-4.31
X6.73Y-4.41
X6.73Y-4.51
X6.73Y-4.61
X6.73Y-4.71
X6.13Y-3.6
X6.13Y-3.7
X6.13Y-3.8
X6.13Y-3.9
X6.13Y-4.0
X6.13Y-4.1
X4.71Y-4.21
X4.71Y-4.31
X4.71Y-4.41
X4.71Y-4.51
X4.71Y-4.61
X4.71Y-4.71
X6.84Y-1.77
X6.84Y-1.87
X6.84Y-1.97
X6.84Y-2.07
X6.84Y-2.17
X6.84Y-2.27
X4.71Y-2.99
X4.71Y-3.09
X4.71Y-3.19
X4.71Y-3.29
X4.71Y-3.39
X4.71Y-3.49
X6.73Y-2.38
X6.73Y-2.48
X6.73Y-2.58
X6.73Y-2.68
X6.73Y-2.78
X6.73Y-2.88
X6.73Y-2.99
X6.73Y-3.09
X6.73Y-3.19
X6.73Y-3.29
X6.73Y-3.39
X6.73Y-3.49
X5.31Y-2.38
X5.31Y-2.48
X5.31Y-2.58
X5.31Y-2.68
X5.31Y-2.78
X5.31Y-2.88
X7.44Y-2.38
X7.44Y-2.48
X7.44Y-2.58
X7.44Y-2.68
X7.44Y-2.78
X7.44Y-2.88
X5.31Y-3.6
X5.31Y-3.7
X5.31Y-3.8
X5.31Y-3.9
X5.31Y-4.0
X5.31Y-4.1
X6.84Y-3.6
X6.84Y-3.7
X6.84Y-3.8
X6.84Y-3.9
X6.84Y-4.0
X6.84Y-4.1
X5.31Y-4.21
X5.31Y-4.31
X5.31Y-4.41
X5.31Y-4.51
X5.31Y-4.61
X5.31Y-4.71
X6.73Y-4.82
X6.73Y-4.92
X6.73Y-5.02
X6.73Y-5.12
X6.73Y-5.22
X6.73Y-5.32
X5.42Y-3.6
X5.42Y-3.7
X5.42Y-3.8
X5.42Y-3.9
X5.42Y-4.0
X5.42Y-4.1
X5.42Y-4.82
X5.42Y-4.92
X5.42Y-5.02
X5.42Y-5.12
X5.42Y-5.22
X5.42Y-5.32
X6.02Y-2.99
X6.02Y-3.09
X6.02Y-3.19
X6.02Y-3.29
X6.02Y-3.39
X6.02Y-3.49
X5.42Y-1.77
X5.42Y-1.87
X5.42Y-1.97
X5.42Y-2.07
X5.42Y-2.17
X5.42Y-2.27
X5.31Y-2.99
X5.31Y-3.09
X5.31Y-3.19
X5.31Y-3.29
X5.31Y-3.39
X5.31Y-3.49
X4.0Y-2.38
X4.0Y-2.48
X4.0Y-2.58
X4.0Y-2.68
X4.0Y-2.78
X4.0Y-2.88
X4.6Y-2.38
X4.6Y-2.48
X4.6Y-2.58
X4.6Y-2.68
X4.6Y-2.78
X4.6Y-2.88
X4.6Y-3.6
X4.6Y-3.7
X4.6Y-3.8
X4.6Y-3.9
X4.6Y-4.0
X4.6Y-4.1
X6.84Y-4.21
X6.84Y-4.31
X6.84Y-4.41
X6.84Y-4.51
X6.84Y-4.61
X6.84Y-4.71
X4.71Y-4.82
X4.71Y-4.92
X4.71Y-5.02
X4.71Y-5.12
X4.71Y-5.22
X4.71Y-5.32
X7.44Y-4.21
X7.44Y-4.31
X7.44Y-4.41
X7.44Y-4.51
X7.44Y-4.61
X7.44Y-4.71
X4.6Y-1.77
X4.6Y-1.87
X4.6Y-1.97
X4.6Y-2.07
X4.6Y-2.17
X4.6Y-2.27
X4.0Y-2.99
X4.0Y-3.09
X4.0Y-3.19
X4.0Y-3.29
X4.0Y-3.39
X4.0Y-3.49
X4.0Y-1.77
X4.0Y-1.87
X4.0Y-1.97
X4.0Y-2.07
X4.0Y-2.17
X4.0Y-2.27
X4.71Y-1.77
X4.71Y-1.87
X4.71Y-1.97
X4.71Y-2.07
X4.71Y-2.17
X4.71Y-2.27
X4.71Y-2.38
X4.71Y-2.48
X4.71Y-2.58
X4.71Y-2.68
X4.71Y-2.78
X4.71Y-2.88
X4.0Y-4.21
X4.0Y-4.31
X4.0Y-4.41
X4.0Y-4.51
X4.0Y-4.61
X4.0Y-4.71
X4.0Y-4.82
X4.0Y-4.92
X4.0Y-5.02
X4.0Y-5.12
X4.0Y-5.22
X4.0Y-5.32
X6.84Y-2.38
X6.84Y-2.48
X6.84Y-2.58
X6.84Y-2.68
X6.84Y-2.78
X6.84Y-2.88
X6.13Y-4.82
X6.13Y-4.92
X6.13Y-5.02
X6.13Y-5.12
X6.13Y-5.22
X6.13Y-5.32
X6.13Y-2.99
X6.13Y-3.09
X6.13Y-3.19
X6.13Y-3.29
X6.13Y-3.39
X6.13Y-3.49
X5.31Y-1.77
X5.31Y-1.87
X5.31Y-1.97
X5.31Y-2.07
X5.31Y-2.17
X5.31Y-2.27
X7.44Y-1.77
X7.44Y-1.87
X7.44Y-1.97
X7.44Y-2.07
X7.44Y-2.17
X7.44Y-2.27
X4.6Y-4.21
X4.6Y-4.31
X4.6Y-4.41
X4.6Y-4.51
X4.6Y-4.61
X4.6Y-4.71
X4.6Y-4.82
X4.6Y-4.92
X4.6Y-5.02
X4.6Y-5.12
X4.6Y-5.22
X4.6Y-5.32
X6.13Y-2.38
X6.13Y-2.48
X6.13Y-2.58
X6.13Y-2.68
X6.13Y-2.78
X6.13Y-2.88
X6.02Y-4.21
X6.02Y-4.31
X6.02Y-4.41
X6.02Y-4.51
X6.02Y-4.61
X6.02Y-4.71
X6.02Y-1.77
X6.02Y-1.87
X6.02Y-1.97
X6.02Y-2.07
X6.02Y-2.17
X6.02Y-2.27
X7.44Y-4.82
X7.44Y-4.92
X7.44Y-5.02
X7.44Y-5.12
X7.44Y-5.22
X7.44Y-5.32
X5.42Y-4.21
X5.42Y-4.31
X5.42Y-4.41
X5.42Y-4.51
X5.42Y-4.61
X5.42Y-4.71
X6.13Y-4.21
X6.13Y-4.31
X6.13Y-4.41
X6.13Y-4.51
X6.13Y-4.61
X6.13Y-4.71
X6.84Y-4.82
X6.84Y-4.92
X6.84Y-5.02
X6.84Y-5.12
X6.84Y-5.22
X6.84Y-5.32
X6.84Y-2.99
X6.84Y-3.09
X6.84Y-3.19
X6.84Y-3.29
X6.84Y-3.39
X6.84Y-3.49
X6.02Y-2.38
X6.02Y-2.48
X6.02Y-2.58
X6.02Y-2.68
X6.02Y-2.78
X6.02Y-2.88
X6.02Y-3.6
X6.02Y-3.7
X6.02Y-3.8
X6.02Y-3.9
X6.02Y-4.0
X6.02Y-4.1
X6.73Y-1.77
X6.73Y-1.87
X6.73Y-1.97
X6.73Y-2.07
X6.73Y-2.17
X6.73Y-2.27
X4.0Y-3.6
X4.0Y-3.7
X4.0Y-3.8
X4.0Y-3.9
X4.0Y-4.0
X4.0Y-4.1
X4.6Y-2.99
X4.6Y-3.09
X4.6Y-3.19
X4.6Y-3.29
X4.6Y-3.39
X4.6Y-3.49
X5.31Y-4.82
X5.31Y-4.92
X5.31Y-5.02
X5.31Y-5.12
X5.31Y-5.22
X5.31Y-5.32
T4
X3.8663Y-5.2963
X3.8663Y-1.7923
X7.5737Y-5.2963
X7.5737Y-1.7923
T0
M30
